<?xml version="1.0" encoding="utf-8"?>
<!-- Generator: Adobe Illustrator 19.1.0, SVG Export Plug-In . SVG Version: 6.00 Build 0)  -->
<svg version="1.1" id="_x30_5" xmlns="http://www.w3.org/2000/svg" xmlns:xlink="http://www.w3.org/1999/xlink" x="0px" y="0px"
	 viewBox="904 -436 2048 1112" style="enable-background:new 904 -436 2048 1112;" xml:space="preserve">
<style type="text/css">
	.st0{fill:#FFFFFF;}
	.st1{opacity:0.5;}
	.st2{fill:#DEE1E0;}
	.st3{fill:#197593;}
	.st4{opacity:0.25;}
	.st5{fill:#CAE1E8;}
	.st6{opacity:0.75;}
	.st7{fill:#004966;}
	.st8{fill:#D6902D;}
	.st9{fill:#94631E;}
	.st10{opacity:0.1;}
	.st11{fill:#0A9181;}
	.st12{fill:#E6F4F2;}
	.st13{fill:#DD9099;}
</style>
<g>
	<g>
		<path class="st0" d="M2818.3-76.1c-24.8,0-49.7-5.4-72.2-16.6c-4.2-2.1-8.9-4.7-11.7-9.1c-3.1-5-3-11.1-2.9-16l1.9-252.8
			c-0.9-28.2,195.2-71.1,199.9,4.8c10.1,76,4.1,162-1.2,237.8l-0.6,8.5l-0.4,0.4C2900.5-91,2859.4-76.1,2818.3-76.1z"/>
	</g>
</g>
<g>
	<g class="st1">
		<path class="st2" d="M2024.1-9l36.6,162.3c0,0,7.5,20.1,31.2,21c24,0.8,746.8-0.8,746.8-0.8s58.9-1,45.6-17.3
			c-13.1-16.1-124.9-199-124.9-199s-12.5-18.2-50-17.1c-35.8,1-629.9,31.6-659.4,32.6C2028.4-26.5,2023.5-18.8,2024.1-9z"/>
	</g>
	<g>
		<g>
			<g>
				<path class="st3" d="M2821.2-330.3c-21.5,0-46.3-3.4-65.3-18c-8.8-6.7-17.6-18.7-13.5-30.5c4.3-12.5,44.7-20.4,53.1-21.1l0,0
					c72.2-6.4,117.7-0.3,131.6,17.8c5.2,6.8,6.1,15.2,2.6,25c-4.3,12-20.1,15.4-28.6,17.2c-19.7,4.3-40,7.2-60.1,8.8
					C2834.9-330.7,2828.2-330.3,2821.2-330.3z M2795.6-397c-13.5,1.2-47.4,9.9-50.6,19.2c-3.5,10.3,4.6,21.2,12.6,27.3
					c24.5,18.7,59.1,18.4,83.1,16.6c20-1.5,40.1-4.5,59.7-8.7c11-2.4,23.1-5.7,26.5-15.4c3.2-9,2.5-16.2-2.2-22.3
					C2915.5-392.4,2885.6-405,2795.6-397L2795.6-397z"/>
			</g>
		</g>
		<g class="st4">
			<g>
				<path class="st5" d="M2791-405.5c-12.1,1.1-51.2,10.5-55,23.1c-3.8,12.5,4.6,25.9,14.2,34c24.9,21.1,58.7,23,89.7,20.6
					c21.4-1.6,42.8-4.9,63.8-9.7c11.5-2.6,25.3-6.6,29.2-18.9C2952.7-418.8,2823.5-408.4,2791-405.5z"/>
			</g>
		</g>
		<g>
			<g>
				<path class="st3" d="M2819.8-76.7c-24.6,0-49.1-5.4-71.4-16.4c-4.2-2.1-8.8-4.6-11.6-9c-3-4.9-3-10.9-2.9-15.8l1.9-249.9
					c0-0.8,0.6-1.4,1.4-1.4l0,0c0.8,0,1.4,0.6,1.4,1.4l-1.9,249.9c0,4.5-0.1,10.1,2.5,14.3c2.3,3.8,6.6,6.1,10.4,8
					c57,28.3,132.3,17.6,179.3-25.3l0.5-7.3c5.2-74.8,11.2-159.6,1.2-234.5c-0.1-0.8,0.4-1.5,1.2-1.6c0.8-0.1,1.5,0.4,1.6,1.2
					c10,75.2,4.1,160.2-1.2,235.1l-0.6,8.4l-0.4,0.4C2901-91.4,2860.4-76.7,2819.8-76.7z"/>
			</g>
		</g>
		<g class="st4">
			<g>
				<path class="st5" d="M2909.2-327.7c-21,4.8-42.3,8-63.8,9.7c-31.1,2.4-64.8,0.5-89.7-20.6c-5.3-4.5-10.2-10.6-12.9-17.2
					c-0.6,82.5-1.3,165.1-1.9,247.6c0,5.2,0,10.7,2.7,15c2.5,4,6.8,6.4,11,8.5c58.1,28.8,110.9,11.1,158.6-32.8
					C2918.5-193.4,2920.7-330.3,2909.2-327.7z"/>
			</g>
		</g>
	</g>
	<g>
		<g>
			<path class="st0" d="M2871.9,167h-794.7c-2.5,0-4.6-2.1-4.6-4.6v-509.8c0-2.5,2.1-4.6,4.6-4.6h794.7c2.5,0,4.6,2.1,4.6,4.6v509.7
				C2876.5,164.9,2874.4,167,2871.9,167z"/>
		</g>
		<g>
			<path class="st3" d="M2857.9,168.9h-766.6c-11.4,0-20.7-8.8-20.7-19.5v-483.8c0-10.8,9.3-19.5,20.7-19.5h766.6
				c11.4,0,20.7,8.8,20.7,19.5v483.7C2878.5,160.1,2869.3,168.9,2857.9,168.9z M2091.3-350.1c-9.2,0-16.7,7.1-16.7,15.7v483.7
				c0,8.7,7.5,15.7,16.7,15.7h766.6c9.2,0,16.7-7.1,16.7-15.7v-483.7c0-8.7-7.5-15.7-16.7-15.7H2091.3z"/>
		</g>
	</g>
	<g class="st1">
		<path class="st5" d="M2845.2-345.3h-745.6c-8.9,0-16.1,7.4-16.1,16.4v117.5h777.7v-117.4C2861.3-337.9,2854.1-345.3,2845.2-345.3z
			"/>
	</g>
	<g class="st6">
		<g>
			<path class="st7" d="M2323-300.5l3-3.8c2.3,2,4.8,3.6,8,3.6c2.9,0,4.8-1.6,4.8-3.9l0,0c0-1.9-1-3.2-5.8-5
				c-5.8-2.2-8.8-4.3-8.8-9.2v-0.1c0-5,4-8.5,9.7-8.5c3.5,0,6.8,1.1,9.6,3.6l-2.9,3.9c-2.1-1.7-4.4-2.9-6.8-2.9
				c-2.7,0-4.4,1.5-4.4,3.5l0,0c0,2.1,1.1,3.3,6.3,5.3c5.7,2.2,8.3,4.5,8.3,9v0.1c0,5.4-4.2,8.8-9.9,8.8
				C2330.1-296.1,2326.3-297.5,2323-300.5z"/>
			<path class="st7" d="M2354.5-322.3h-8v-4.7h21.1v4.7h-8v25.8h-5L2354.5-322.3L2354.5-322.3z"/>
			<path class="st7" d="M2369.8-311.5v-0.4c0-9.1,5.6-15.5,13.5-15.5s13.4,6.4,13.4,15.4v0.4c0,9.1-5.6,15.5-13.5,15.5
				C2375.3-296.1,2369.8-302.5,2369.8-311.5z M2391.5-311.6v-0.3c0-6.5-3.5-10.9-8.3-10.9s-8.2,4.3-8.2,10.9v0.3
				c0,6.5,3.5,10.9,8.3,10.9S2391.5-305,2391.5-311.6z"/>
			<path class="st7" d="M2402.2-327h11c3.5,0,6.3,1,8.1,2.9c1.6,1.6,2.5,3.9,2.5,6.7v0.2c0,4.7-2.6,7.6-6.3,8.9l7.2,11.8h-5.8
				l-6.5-10.8c-0.1,0-0.2,0-0.3,0h-4.9v10.7h-5L2402.2-327L2402.2-327z M2412.7-311.8c3.9,0,6.1-2.1,6.1-5.3v-0.1
				c0-3.4-2.2-5.2-6-5.2h-5.5v10.6H2412.7z"/>
			<path class="st7" d="M2429.4-327h19.2v4.6h-14.2v8.3h12.6v4.6h-12.6v8.5h14.4v4.6h-19.4V-327z"/>
			<path class="st7" d="M2454.1-327h9.3c8.7,0,14.4,6.1,14.4,15v0.3c0,8.9-5.7,15.1-14.4,15.1h-9.3V-327z M2459.1-322.4v21.3h4.2
				c5.6,0,9.3-4,9.3-10.5v-0.3c0-6.6-3.7-10.6-9.3-10.6h-4.2V-322.4z"/>
			<path class="st7" d="M2494.5-327h19.2v4.6h-14.2v8.3h12.6v4.6h-12.6v8.5h14.4v4.6h-19.4V-327z"/>
			<path class="st7" d="M2517-327h5.5l7.5,23l7.5-23h5.3l-10.5,30.6h-4.7L2517-327z"/>
			<path class="st7" d="M2547.1-327h19.2v4.6h-14.2v8.3h12.6v4.6h-12.6v8.5h14.4v4.6h-19.4V-327z"/>
			<path class="st7" d="M2571.8-327h4.7l13.4,20.3V-327h4.9v30.5h-4.3l-13.8-20.9v20.9h-5V-327H2571.8z"/>
			<path class="st7" d="M2607.5-322.3h-8v-4.7h21.1v4.7h-8v25.8h-5L2607.5-322.3L2607.5-322.3z"/>
			<path class="st7" d="M2622.6-300.5l3-3.8c2.3,2,4.8,3.6,8,3.6c2.9,0,4.8-1.6,4.8-3.9l0,0c0-1.9-1-3.2-5.8-5
				c-5.8-2.2-8.8-4.3-8.8-9.2v-0.1c0-5,4-8.5,9.7-8.5c3.5,0,6.8,1.1,9.6,3.6l-2.9,3.9c-2.1-1.7-4.4-2.9-6.8-2.9
				c-2.7,0-4.4,1.5-4.4,3.5l0,0c0,2.1,1.1,3.3,6.3,5.3c5.7,2.2,8.3,4.5,8.3,9v0.1c0,5.4-4.2,8.8-9.9,8.8
				C2629.7-296.1,2625.9-297.5,2622.6-300.5z"/>
		</g>
	</g>
	<g class="st1">
		<rect x="2087.9" y="-280.5" class="st0" width="769.1" height="4.3"/>
	</g>
	<g class="st1">
		<rect x="2087.9" y="-129.2" class="st3" width="773.4" height="4.3"/>
	</g>
	<g class="st1">
		<rect x="2087.9" y="-55.8" class="st3" width="773.4" height="4.3"/>
	</g>
	<g class="st1">
		<rect x="2087.9" y="17.7" class="st3" width="773.4" height="4.3"/>
	</g>
	<g class="st1">
		<rect x="2087.9" y="91.1" class="st3" width="773.4" height="4.3"/>
	</g>
	<g>
		<g>
			<path d="M2107.3-174.4h3.4l7.8,21.3h-3.7l-1.8-5h-8.2l-1.8,5h-3.5L2107.3-174.4z M2112-161.2l-3-8.5l-3,8.5H2112z"/>
			<path d="M2121.5-174.3h7.6c2.3,0,4.2,0.6,5.4,1.8c0.9,0.9,1.4,2.1,1.4,3.6v0.1c0,2.6-1.5,4-3.1,4.8c2.3,0.8,4,2.2,4,5.1v0.1
				c0,3.7-3,5.8-7.5,5.8h-7.8V-174.3z M2132.4-168.3c0-1.8-1.3-2.8-3.6-2.8h-3.9v5.9h3.7C2130.9-165.3,2132.4-166.3,2132.4-168.3
				L2132.4-168.3z M2129.2-162.3h-4.3v6.1h4.4c2.4,0,3.9-1.1,3.9-3v-0.1C2133.3-161.1,2131.9-162.3,2129.2-162.3z"/>
			<path d="M2139.5-163.6v-0.2c0-6.4,4-10.8,9.5-10.8c3,0,4.9,1.1,6.7,2.6l-2.1,2.7c-1.2-1.1-2.6-2.1-4.5-2.1c-3.3,0-5.8,3-5.8,7.5
				v0.1c0,4.6,2.5,7.6,5.8,7.6c2,0,3.4-0.9,4.7-2.2l2.1,2.5c-1.8,1.9-4,3-6.9,3C2143.4-152.8,2139.5-157.1,2139.5-163.6z"/>
			<path d="M2157.6-164h8.4v3.4h-8.4V-164z"/>
			<path d="M2171.2-170.8l-3.3,1l-0.6-3l4.9-1.6h2.5v21.3h-3.5V-170.8z"/>
			<path d="M2178.4-155.9l6.5-6.9c2.4-2.5,3.3-3.8,3.3-5.5c0-1.9-1.4-3-3.1-3s-2.8,0.9-4.2,2.7l-2.3-2.1c1.8-2.4,3.8-3.8,6.9-3.8
				c3.7,0,6.4,2.3,6.4,6v0.1c0,2.9-1.3,4.6-4.4,7.7l-4.2,4.6h8.7v3.2h-13.4v-3L2178.4-155.9L2178.4-155.9z"/>
			<path d="M2194.2-155.7l2.2-2.5c1.1,1.3,2.5,2.2,4.6,2.2c2,0,3.5-1.3,3.5-3.4v-0.1c0-2.2-1.9-3.4-4.8-3.4h-1.1l-0.5-2.2l5.1-6.1
				h-8v-3.1h12.4v2.8l-5.4,6.1c2.9,0.5,5.6,2.2,5.6,5.9v0.1c0,4-2.9,6.7-6.9,6.7C2198-152.8,2195.8-153.9,2194.2-155.7z"/>
		</g>
		<g>
			<path d="M2308.5-174.3h3.7l5.4,9.7l5.4-9.7h3.7v21.2h-3.5v-15l-5.6,9.8h-0.1l-5.6-9.7v14.9h-3.4V-174.3z"/>
			<path d="M2330.2-160.9v-0.3c0-4.7,3.1-8.2,7.4-8.2c4.2,0,7.4,3.5,7.4,8.2v0.3c0,4.7-3.1,8.2-7.4,8.2
				C2333.3-152.8,2330.2-156.2,2330.2-160.9z M2341.6-161v-0.2c0-3-1.7-5.2-4-5.2c-2.4,0-3.9,2.2-3.9,5.2v0.2c0,3,1.7,5.3,4,5.3
				S2341.6-158,2341.6-161z"/>
			<path d="M2348.1-169.1h3.4v2.4c0.9-1.4,2.2-2.7,4.4-2.7c3.1,0,4.9,2.2,4.9,5.6v10.7h-3.4v-9.8c0-2.2-1.1-3.5-2.9-3.5
				s-3,1.3-3,3.5v9.7h-3.4V-169.1z"/>
			<path d="M2363.8-160.9v-0.2c0-4.8,2.9-8.3,6.8-8.3c4.4,0,6.7,3.6,6.7,8.4c0,0.2,0,0.7,0,1.2h-10c0.3,2.7,2,4.1,4.1,4.1
				c1.5,0,2.6-0.7,3.7-1.7l1.8,2.1c-1.5,1.5-3.2,2.5-5.6,2.5C2367.1-152.8,2363.8-155.9,2363.8-160.9z M2374-162.2
				c-0.2-2.5-1.3-4.4-3.3-4.4c-1.9,0-3.2,1.7-3.5,4.4H2374z"/>
			<path d="M2389.3-169.1h3.5l-5.4,16.3c-1.1,3.2-2.4,4.4-4.7,4.4c-1.2,0-2.2-0.3-3.2-0.8l1-2.6c0.5,0.3,1.2,0.5,1.8,0.5
				c0.9,0,1.5-0.4,1.9-1.7l-5.7-16.1h3.6l3.7,11.6L2389.3-169.1z"/>
			<path d="M2394.4-155.9l2.1-2.6c1.6,1.4,3.3,2.5,5.6,2.5c2,0,3.3-1.1,3.3-2.7l0,0c0-1.3-0.7-2.2-4.1-3.4c-4-1.5-6.1-3-6.1-6.4
				v-0.1c0-3.5,2.8-5.9,6.7-5.9c2.5,0,4.7,0.8,6.7,2.5l-2,2.7c-1.5-1.2-3.1-2-4.8-2c-1.9,0-3.1,1.1-3.1,2.5l0,0
				c0,1.5,0.8,2.3,4.4,3.7c3.9,1.5,5.8,3.1,5.8,6.2v0.1c0,3.7-2.9,6.1-6.9,6.1C2399.3-152.8,2396.7-153.8,2394.4-155.9z"/>
			<path d="M2412-158.4v-10.7h3.4v9.8c0,2.2,1.1,3.5,2.8,3.5c1.8,0,3-1.3,3-3.5v-9.7h3.5v16h-3.5v-2.3c-0.9,1.4-2.2,2.6-4.4,2.6
				C2413.8-152.8,2412-154.9,2412-158.4z"/>
			<path d="M2432-155.5v2.4h-3.4v-21.8h3.4v8.4c1-1.5,2.4-2.9,4.7-2.9c3.2,0,6.2,2.7,6.2,8.1v0.4c0,5.4-3,8.1-6.2,8.1
				C2434.4-152.8,2433-154.1,2432-155.5z M2439.5-161v-0.3c0-3.2-1.7-5.2-3.7-5.2c-2.1,0-3.8,2-3.8,5.1v0.3c0,3.1,1.8,5.1,3.8,5.1
				C2437.9-155.8,2439.5-157.7,2439.5-161z"/>
			<path d="M2446.8-157v-9.2h-1.8v-2.9h1.8v-4.3h3.4v4.3h3.6v2.9h-3.6v8.5c0,1.2,0.6,1.8,1.7,1.8c0.7,0,1.3-0.2,1.8-0.5v2.8
				c-0.8,0.4-1.7,0.7-2.8,0.7C2448.6-152.8,2446.8-153.8,2446.8-157z"/>
			<path d="M2456.9-169.1h3.4v3.1c0.8-2.1,2.4-3.5,4.8-3.4v3.7h-0.2c-2.8,0-4.7,1.8-4.7,5.5v7.1h-3.4L2456.9-169.1L2456.9-169.1z"/>
			<path d="M2466.3-157.7v-0.2c0-3.4,2.3-5.1,5.7-5.1c1.5,0,2.6,0.3,3.7,0.6v-0.6c0-2.1-1.3-3.3-3.4-3.3c-1.5,0-2.8,0.5-3.9,1
				l-1-2.7c1.5-0.8,3.1-1.3,5.3-1.3c2.1,0,3.7,0.6,4.7,1.6c1.1,1.1,1.6,2.6,1.6,4.6v10h-3.4v-2c-0.9,1.4-2.4,2.3-4.4,2.3
				C2468.5-152.8,2466.3-154.6,2466.3-157.7z M2475.7-158.5v-1.6c-0.8-0.3-1.8-0.6-3-0.6c-2,0-3.1,1-3.1,2.7v0.1
				c0,1.6,1.1,2.5,2.6,2.5C2474.2-155.3,2475.7-156.7,2475.7-158.5z"/>
			<path d="M2481.9-160.9v-0.3c0-4.8,3.1-8.2,7.3-8.2c2.3,0,3.8,0.8,5.1,2.2l-1.9,2.5c-0.8-0.9-1.8-1.6-3.2-1.6
				c-2.2,0-3.9,2.1-3.9,5.2v0.2c0,3.1,1.6,5.2,4,5.2c1.4,0,2.3-0.7,3.3-1.6l1.8,2.3c-1.3,1.4-2.9,2.4-5.3,2.4
				C2484.9-152.8,2481.9-156.1,2481.9-160.9z"/>
			<path d="M2497.8-157v-9.2h-1.8v-2.9h1.8v-4.3h3.4v4.3h3.6v2.9h-3.6v8.5c0,1.2,0.6,1.8,1.7,1.8c0.7,0,1.3-0.2,1.8-0.5v2.8
				c-0.8,0.4-1.7,0.7-2.8,0.7C2499.6-152.8,2497.8-153.8,2497.8-157z"/>
			<path d="M2506.8-160.9v-0.2c0-4.8,2.9-8.3,6.8-8.3c4.4,0,6.7,3.6,6.7,8.4c0,0.2,0,0.7,0,1.2h-10c0.3,2.7,2,4.1,4.1,4.1
				c1.5,0,2.6-0.7,3.7-1.7l1.8,2.1c-1.5,1.5-3.2,2.5-5.6,2.5C2510-152.8,2506.8-155.9,2506.8-160.9z M2516.9-162.2
				c-0.2-2.5-1.3-4.4-3.3-4.4c-1.9,0-3.2,1.7-3.5,4.4H2516.9z"/>
			<path d="M2522.7-160.9v-0.4c0-5.4,3-8.1,6.2-8.1c2.3,0,3.7,1.3,4.7,2.7v-8.2h3.4v21.8h-3.4v-2.6c-1,1.5-2.4,2.9-4.7,2.9
				C2525.7-152.8,2522.7-155.5,2522.7-160.9z M2533.7-161v-0.3c0-3.1-1.8-5.1-3.8-5.1c-2.1,0-3.7,1.9-3.7,5.2v0.2
				c0,3.2,1.7,5.2,3.7,5.2S2533.7-157.8,2533.7-161z"/>
		</g>
		<g>
			<path d="M2600.3-170.8l-3.3,1l-0.6-3l4.9-1.6h2.5v21.3h-3.5V-170.8z"/>
			<path d="M2607.8-163.5v-0.3c0-6.4,3.1-10.8,8.1-10.8c4.8,0,8,4.3,8,10.7v0.3c0,6.4-3.1,10.8-8.1,10.8S2607.8-157.1,2607.8-163.5z
				 M2620.2-163.5v-0.2c0-4.7-1.8-7.6-4.4-7.6c-2.6,0-4.4,2.8-4.4,7.6v0.2c0,4.8,1.8,7.6,4.5,7.6
				C2618.4-156,2620.2-158.8,2620.2-163.5z"/>
			<path d="M2626.7-163.5v-0.3c0-6.4,3.1-10.8,8.1-10.8c4.8,0,8,4.3,8,10.7v0.3c0,6.4-3.1,10.8-8.1,10.8S2626.7-157.1,2626.7-163.5z
				 M2639.2-163.5v-0.2c0-4.7-1.8-7.6-4.4-7.6c-2.6,0-4.4,2.8-4.4,7.6v0.2c0,4.8,1.8,7.6,4.5,7.6
				C2637.4-156,2639.2-158.8,2639.2-163.5z"/>
			<path d="M2645.7-163.5v-0.3c0-6.4,3.1-10.8,8.1-10.8c4.8,0,8,4.3,8,10.7v0.3c0,6.4-3.1,10.8-8.1,10.8S2645.7-157.1,2645.7-163.5z
				 M2658.1-163.5v-0.2c0-4.7-1.8-7.6-4.4-7.6s-4.4,2.8-4.4,7.6v0.2c0,4.8,1.8,7.6,4.5,7.6C2656.4-156,2658.1-158.8,2658.1-163.5z"
				/>
		</g>
		<g>
			<path d="M2606.5-84.2h-9.4l-0.5-2.5l10.1-14.2h3.1v13.8h2.6v2.9h-2.6v4.6h-3.3V-84.2L2606.5-84.2z M2606.5-87.2v-8.5l-6,8.5
				H2606.5z"/>
			<path d="M2614.9-85.4L2614.9-85.4c0-2.7,1.4-4.3,3.4-5.3c-1.6-0.9-2.8-2.4-2.8-4.7v-0.1c0-3.3,2.8-5.7,6.6-5.7
				c3.8,0,6.6,2.4,6.6,5.7v0.1c0,2.3-1.2,3.8-2.8,4.7c2.1,1,3.5,2.5,3.5,5.1v0.1c0,3.7-3.1,6.1-7.2,6.1
				C2617.9-79.3,2614.9-81.7,2614.9-85.4z M2625.8-85.6L2625.8-85.6c0-2.1-1.6-3.4-3.8-3.4c-2.1,0-3.8,1.3-3.8,3.4v0.1
				c0,1.9,1.5,3.3,3.8,3.3C2624.4-82.3,2625.8-83.7,2625.8-85.6z M2625.3-95.1L2625.3-95.1c0-1.8-1.4-3.1-3.2-3.1
				c-1.9,0-3.2,1.2-3.2,3.1v0.1c0,1.9,1.4,3.2,3.2,3.2C2623.9-91.9,2625.3-93.2,2625.3-95.1z"/>
			<path d="M2631.9-90v-0.3c0-6.4,3.1-10.8,8.1-10.8c4.8,0,8,4.3,8,10.7v0.3c0,6.4-3.1,10.8-8.1,10.8S2631.9-83.6,2631.9-90z
				 M2644.4-90.1v-0.2c0-4.7-1.8-7.6-4.4-7.6s-4.4,2.8-4.4,7.6v0.2c0,4.8,1.8,7.6,4.5,7.6C2642.6-82.5,2644.4-85.4,2644.4-90.1z"/>
			<path d="M2650.9-90v-0.3c0-6.4,3.1-10.8,8.1-10.8c4.8,0,8,4.3,8,10.7v0.3c0,6.4-3.1,10.8-8.1,10.8S2650.9-83.6,2650.9-90z
				 M2663.3-90.1v-0.2c0-4.7-1.8-7.6-4.4-7.6c-2.6,0-4.4,2.8-4.4,7.6v0.2c0,4.8,1.8,7.6,4.5,7.6
				C2661.6-82.5,2663.3-85.4,2663.3-90.1z"/>
		</g>
		<g>
			<path d="M2606.5-10.8h-9.4l-0.5-2.5l10.1-14.2h3.1v13.8h2.6v2.9h-2.6v4.6h-3.3V-10.8L2606.5-10.8z M2606.5-13.7v-8.5l-6,8.5
				H2606.5z"/>
			<path d="M2614.9-11.9L2614.9-11.9c0-2.7,1.4-4.3,3.4-5.3c-1.6-0.9-2.8-2.4-2.8-4.7V-22c0-3.3,2.8-5.7,6.6-5.7
				c3.8,0,6.6,2.4,6.6,5.7v0.1c0,2.3-1.2,3.8-2.8,4.7c2.1,1,3.5,2.5,3.5,5.1v0.1c0,3.7-3.1,6.1-7.2,6.1
				C2617.9-5.9,2614.9-8.3,2614.9-11.9z M2625.8-12.1L2625.8-12.1c0-2.1-1.6-3.4-3.8-3.4c-2.1,0-3.8,1.3-3.8,3.4v0.1
				c0,1.9,1.5,3.3,3.8,3.3C2624.4-8.8,2625.8-10.2,2625.8-12.1z M2625.3-21.6L2625.3-21.6c0-1.8-1.4-3.1-3.2-3.1
				c-1.9,0-3.2,1.2-3.2,3.1v0.1c0,1.9,1.4,3.2,3.2,3.2C2623.9-18.4,2625.3-19.7,2625.3-21.6z"/>
			<path d="M2631.9-16.6v-0.3c0-6.4,3.1-10.8,8.1-10.8c4.8,0,8,4.3,8,10.7v0.3c0,6.4-3.1,10.8-8.1,10.8S2631.9-10.1,2631.9-16.6z
				 M2644.4-16.6v-0.2c0-4.7-1.8-7.6-4.4-7.6s-4.4,2.8-4.4,7.6v0.2c0,4.8,1.8,7.6,4.5,7.6C2642.6-9.1,2644.4-11.9,2644.4-16.6z"/>
			<path d="M2650.9-16.6v-0.3c0-6.4,3.1-10.8,8.1-10.8c4.8,0,8,4.3,8,10.7v0.3c0,6.4-3.1,10.8-8.1,10.8S2650.9-10.1,2650.9-16.6z
				 M2663.3-16.6v-0.2c0-4.7-1.8-7.6-4.4-7.6c-2.6,0-4.4,2.8-4.4,7.6v0.2c0,4.8,1.8,7.6,4.5,7.6C2661.6-9.1,2663.3-11.9,2663.3-16.6
				z"/>
		</g>
		<g>
			<path d="M2735.7-170.8l-3.3,1l-0.6-3l4.9-1.6h2.5v21.3h-3.5V-170.8z"/>
			<path d="M2746.3-170.8l-3.3,1l-0.6-3l4.9-1.6h2.5v21.3h-3.5V-170.8z"/>
			<path d="M2754.2-169.1h3.9v4h-3.9V-169.1z M2754.2-157.1h3.9v4h-3.9V-157.1z"/>
			<path d="M2764.6-170.8l-3.3,1l-0.6-3l4.9-1.6h2.5v21.3h-3.5V-170.8z"/>
			<path d="M2771.8-155.9l6.5-6.9c2.4-2.5,3.3-3.8,3.3-5.5c0-1.9-1.4-3-3.1-3c-1.7,0-2.8,0.9-4.2,2.7l-2.3-2.1
				c1.8-2.4,3.8-3.8,6.9-3.8c3.7,0,6.4,2.3,6.4,6v0.1c0,2.9-1.3,4.6-4.4,7.7l-4.2,4.6h8.7v3.2H2772v-3L2771.8-155.9L2771.8-155.9z"
				/>
			<path d="M2803-174.4h3.4l7.8,21.3h-3.7l-1.8-5h-8.2l-1.8,5h-3.5L2803-174.4z M2807.7-161.2l-3-8.5l-3,8.5H2807.7z"/>
			<path d="M2817.2-174.3h3.7l5.4,9.7l5.4-9.7h3.7v21.2h-3.5v-15l-5.6,9.8h-0.1l-5.6-9.7v14.9h-3.4V-174.3z"/>
		</g>
	</g>
	<g>
		<g>
			<path d="M2107.3-100.9h3.4l7.8,21.3h-3.7l-1.8-5h-8.2l-1.8,5h-3.5L2107.3-100.9z M2112-87.7l-3-8.5l-3,8.5H2112z"/>
			<path d="M2121.5-100.8h7.6c2.3,0,4.2,0.6,5.4,1.8c0.9,0.9,1.4,2.1,1.4,3.6v0.1c0,2.6-1.5,4-3.1,4.8c2.3,0.8,4,2.2,4,5.1v0.1
				c0,3.7-3,5.8-7.5,5.8h-7.8V-100.8z M2132.4-94.9c0-1.8-1.3-2.8-3.6-2.8h-3.9v5.9h3.7C2130.9-91.8,2132.4-92.8,2132.4-94.9
				L2132.4-94.9z M2129.2-88.8h-4.3v6.1h4.4c2.4,0,3.9-1.1,3.9-3v-0.1C2133.3-87.7,2131.9-88.8,2129.2-88.8z"/>
			<path d="M2139.5-90.1v-0.2c0-6.4,4-10.8,9.5-10.8c3,0,4.9,1.1,6.7,2.6l-2.1,2.7c-1.2-1.1-2.6-2.1-4.5-2.1c-3.3,0-5.8,3-5.8,7.5
				v0.1c0,4.6,2.5,7.6,5.8,7.6c2,0,3.4-0.9,4.7-2.2l2.1,2.5c-1.8,1.9-4,3-6.9,3C2143.4-79.3,2139.5-83.6,2139.5-90.1z"/>
			<path d="M2157.6-90.6h8.4v3.4h-8.4V-90.6z"/>
			<path d="M2171.2-97.3l-3.3,1l-0.6-3l4.9-1.6h2.5v21.3h-3.5V-97.3z"/>
			<path d="M2178.4-82.4l6.5-6.9c2.4-2.5,3.3-3.8,3.3-5.5c0-1.9-1.4-3-3.1-3s-2.8,0.9-4.2,2.7l-2.3-2.1c1.8-2.4,3.8-3.8,6.9-3.8
				c3.7,0,6.4,2.3,6.4,6v0.1c0,2.9-1.3,4.6-4.4,7.7l-4.2,4.6h8.7v3.2h-13.4v-3L2178.4-82.4L2178.4-82.4z"/>
			<path d="M2194.2-82.2l2.2-2.5c1.1,1.3,2.5,2.2,4.6,2.2c2,0,3.5-1.3,3.5-3.4V-86c0-2.2-1.9-3.4-4.8-3.4h-1.1l-0.5-2.2l5.1-6.1h-8
				v-3.1h12.4v2.8l-5.4,6.1c2.9,0.5,5.6,2.2,5.6,5.9v0.1c0,4-2.9,6.7-6.9,6.7C2198-79.3,2195.8-80.5,2194.2-82.2z"/>
		</g>
		<g>
			<path d="M2308.5-100.8h3.5v17.9h9.1v3.2h-12.6V-100.8z"/>
			<path d="M2324-101.4h3.6v3.4h-3.6V-101.4z M2324.1-95.7h3.4v16h-3.4V-95.7z"/>
			<path d="M2331.6-95.7h3.4v2.3c0.9-1.4,2.2-2.6,4.3-2.6c2,0,3.4,1,4.1,2.6c1.1-1.5,2.5-2.6,4.7-2.6c3,0,4.9,2,4.9,5.6v10.7h-3.4
				v-9.7c0-2.3-1-3.5-2.7-3.5c-1.7,0-2.9,1.3-2.9,3.5v9.7h-3.4v-9.8c0-2.3-1-3.5-2.7-3.5c-1.7,0-2.9,1.4-2.9,3.6v9.7h-3.4V-95.7z"/>
			<path d="M2356.9-101.4h3.6v3.4h-3.6V-101.4z M2357-95.7h3.4v16h-3.4V-95.7z"/>
			<path d="M2365.1-83.5v-9.2h-1.8v-2.9h1.8v-4.4h3.4v4.3h3.6v2.9h-3.6v8.5c0,1.2,0.6,1.8,1.7,1.8c0.7,0,1.3-0.2,1.8-0.5v2.8
				c-0.8,0.4-1.7,0.7-2.8,0.7C2366.9-79.4,2365.1-80.4,2365.1-83.5z"/>
			<path d="M2375.6-100.8h3.5v8.9h8.3v-8.9h3.5v21.2h-3.5v-9h-8.3v9h-3.5V-100.8z"/>
			<path d="M2395.2-101.4h3.6v3.4h-3.6V-101.4z M2395.3-95.7h3.4v16h-3.4V-95.7z"/>
			<path d="M2403.5-83.5v-9.2h-1.8v-2.9h1.8v-4.4h3.4v4.3h3.6v2.9h-3.6v8.5c0,1.2,0.6,1.8,1.7,1.8c0.7,0,1.3-0.2,1.8-0.5v2.8
				c-0.8,0.4-1.7,0.7-2.8,0.7C2405.2-79.4,2403.5-80.4,2403.5-83.5z"/>
		</g>
		<g>
			<path d="M2727.4-90v-0.3c0-6.4,3.1-10.8,8.1-10.8c4.8,0,8,4.3,8,10.7v0.3c0,6.4-3.1,10.8-8.1,10.8S2727.4-83.6,2727.4-90z
				 M2739.8-90.1v-0.2c0-4.7-1.8-7.6-4.4-7.6c-2.6,0-4.4,2.8-4.4,7.6v0.2c0,4.8,1.8,7.6,4.5,7.6
				C2738.1-82.5,2739.8-85.4,2739.8-90.1z"/>
			<path d="M2749.3-97.3l-3.3,1l-0.6-3l4.9-1.6h2.5v21.3h-3.5V-97.3z"/>
			<path d="M2757.2-95.7h3.9v4h-3.9V-95.7z M2757.2-83.7h3.9v4h-3.9V-83.7z"/>
			<path d="M2767.6-97.3l-3.3,1l-0.6-3l4.9-1.6h2.5v21.3h-3.5V-97.3z"/>
			<path d="M2784.4-97.6h-9.2v-3.2h13v2.6l-8.1,18.6h-3.8L2784.4-97.6z"/>
			<path d="M2799.6-100.8h6.8c4.6,0,7.6,2.7,7.6,7.1v0.1c0,4.7-3.5,7.1-7.8,7.2h-3.1v6.9h-3.5V-100.8z M2806.2-89.7
				c2.7,0,4.3-1.6,4.3-4l0,0c0-2.5-1.6-3.9-4.3-3.9h-3.1v7.9H2806.2z"/>
			<path d="M2817.2-100.8h3.7l5.4,9.7l5.4-9.7h3.7v21.2h-3.5v-15l-5.6,9.8h-0.1l-5.6-9.7v14.9h-3.4V-100.8z"/>
		</g>
	</g>
	<g>
		<g>
			<path d="M2308.5-27.4h3.5v17.9h9.1v3.2h-12.6V-27.4z"/>
			<path d="M2324-27.9h3.6v3.4h-3.6V-27.9z M2324.1-22.2h3.4v16h-3.4V-22.2z"/>
			<path d="M2331.6-22.2h3.4v2.3c0.9-1.4,2.2-2.6,4.3-2.6c2,0,3.4,1,4.1,2.6c1.1-1.5,2.5-2.6,4.7-2.6c3,0,4.9,2,4.9,5.6v10.7h-3.4
				v-9.7c0-2.3-1-3.5-2.7-3.5c-1.7,0-2.9,1.3-2.9,3.5v9.7h-3.4V-16c0-2.3-1-3.5-2.7-3.5c-1.7,0-2.9,1.4-2.9,3.6v9.7h-3.4V-22.2z"/>
			<path d="M2356.9-27.9h3.6v3.4h-3.6V-27.9z M2357-22.2h3.4v16h-3.4V-22.2z"/>
			<path d="M2365.1-10.1v-9.2h-1.8v-2.9h1.8v-4.3h3.4v4.3h3.6v2.9h-3.6v8.5c0,1.2,0.6,1.8,1.7,1.8c0.7,0,1.3-0.2,1.8-0.5v2.8
				c-0.8,0.4-1.7,0.7-2.8,0.7C2366.9-5.9,2365.1-6.9,2365.1-10.1z"/>
			<path d="M2375.6-27.4h3.5v8.9h8.3v-8.9h3.5v21.2h-3.5v-9h-8.3v9h-3.5V-27.4z"/>
			<path d="M2395.2-27.9h3.6v3.4h-3.6V-27.9z M2395.3-22.2h3.4v16h-3.4V-22.2z"/>
			<path d="M2403.5-10.1v-9.2h-1.8v-2.9h1.8v-4.3h3.4v4.3h3.6v2.9h-3.6v8.5c0,1.2,0.6,1.8,1.7,1.8c0.7,0,1.3-0.2,1.8-0.5v2.8
				c-0.8,0.4-1.7,0.7-2.8,0.7C2405.2-5.9,2403.5-6.9,2403.5-10.1z"/>
		</g>
		<g>
			<path d="M2107.3-27.5h3.4l7.8,21.3h-3.7l-1.8-5h-8.2l-1.8,5h-3.5L2107.3-27.5z M2112-14.3l-3-8.5l-3,8.5H2112z"/>
			<path d="M2121.5-27.4h7.6c2.3,0,4.2,0.6,5.4,1.8c0.9,0.9,1.4,2.1,1.4,3.6v0.1c0,2.6-1.5,4-3.1,4.8c2.3,0.8,4,2.2,4,5.1v0.1
				c0,3.7-3,5.8-7.5,5.8h-7.8V-27.4z M2132.4-21.4c0-1.8-1.3-2.8-3.6-2.8h-3.9v5.9h3.7C2130.9-18.3,2132.4-19.4,2132.4-21.4
				L2132.4-21.4z M2129.2-15.4h-4.3v6.1h4.4c2.4,0,3.9-1.1,3.9-3v-0.1C2133.3-14.2,2131.9-15.4,2129.2-15.4z"/>
			<path d="M2139.5-16.7v-0.2c0-6.4,4-10.8,9.5-10.8c3,0,4.9,1.1,6.7,2.6l-2.1,2.7c-1.2-1.1-2.6-2.1-4.5-2.1c-3.3,0-5.8,3-5.8,7.5
				v0.1c0,4.6,2.5,7.6,5.8,7.6c2,0,3.4-0.9,4.7-2.2l2.1,2.5c-1.8,1.9-4,3-6.9,3C2143.4-5.9,2139.5-10.2,2139.5-16.7z"/>
			<path d="M2157.6-17.1h8.4v3.4h-8.4V-17.1z"/>
			<path d="M2171.2-23.9l-3.3,1l-0.6-3l4.9-1.6h2.5v21.3h-3.5V-23.9z"/>
			<path d="M2178.4-9l6.5-6.9c2.4-2.5,3.3-3.8,3.3-5.5c0-1.9-1.4-3-3.1-3s-2.8,0.9-4.2,2.7l-2.3-2.1c1.8-2.4,3.8-3.8,6.9-3.8
				c3.7,0,6.4,2.3,6.4,6v0.1c0,2.9-1.3,4.6-4.4,7.7l-4.2,4.6h8.7V-6h-13.4v-3L2178.4-9L2178.4-9z"/>
			<path d="M2194.2-8.8l2.2-2.5c1.1,1.3,2.5,2.2,4.6,2.2c2,0,3.5-1.3,3.5-3.4v-0.1c0-2.2-1.9-3.4-4.8-3.4h-1.1l-0.5-2.2l5.1-6.1h-8
				v-3.1h12.4v2.8l-5.4,6.1c2.9,0.5,5.6,2.2,5.6,5.9v0.1c0,4-2.9,6.7-6.9,6.7C2198-5.9,2195.8-7,2194.2-8.8z"/>
		</g>
		<g>
			<path d="M2714.8-16.6v-0.3c0-6.4,3.1-10.8,8.1-10.8c4.8,0,8,4.3,8,10.7v0.3c0,6.4-3.1,10.8-8.1,10.8S2714.8-10.1,2714.8-16.6z
				 M2727.2-16.6v-0.2c0-4.7-1.8-7.6-4.4-7.6c-2.6,0-4.4,2.8-4.4,7.6v0.2c0,4.8,1.8,7.6,4.5,7.6C2725.5-9.1,2727.2-11.9,2727.2-16.6
				z"/>
			<path d="M2732.9-8.8l2.2-2.5c1.1,1.3,2.5,2.2,4.6,2.2c2,0,3.5-1.3,3.5-3.4v-0.1c0-2.2-1.9-3.4-4.8-3.4h-1.1l-0.5-2.2l5.1-6.1h-8
				v-3.1h12.4v2.8l-5.4,6.1c2.9,0.5,5.6,2.2,5.6,5.9v0.1c0,4-2.9,6.7-6.9,6.7C2736.7-5.9,2734.5-7,2732.9-8.8z"/>
			<path d="M2750.1-22.2h3.9v4h-3.9V-22.2z M2750.1-10.2h3.9v4h-3.9V-10.2z"/>
			<path d="M2757.2-9l6.5-6.9c2.4-2.5,3.3-3.8,3.3-5.5c0-1.9-1.4-3-3.1-3c-1.7,0-2.8,0.9-4.2,2.7l-2.3-2.1c1.8-2.4,3.8-3.8,6.9-3.8
				c3.7,0,6.4,2.3,6.4,6v0.1c0,2.9-1.3,4.6-4.4,7.7l-4.2,4.6h8.7V-6h-13.4v-3L2757.2-9L2757.2-9z"/>
			<path d="M2782.3-10.8h-9.4l-0.5-2.5l10.1-14.2h3.1v13.8h2.6v2.9h-2.6v4.6h-3.3L2782.3-10.8L2782.3-10.8z M2782.3-13.7v-8.5
				l-6,8.5H2782.3z"/>
			<path d="M2799.6-27.4h6.8c4.6,0,7.6,2.7,7.6,7.1v0.1c0,4.7-3.5,7.1-7.8,7.2h-3.1v6.9h-3.5V-27.4z M2806.2-16.2
				c2.7,0,4.3-1.6,4.3-4l0,0c0-2.5-1.6-3.9-4.3-3.9h-3.1v7.9H2806.2z"/>
			<path d="M2817.2-27.4h3.7l5.4,9.7l5.4-9.7h3.7v21.2h-3.5v-15l-5.6,9.8h-0.1l-5.6-9.7v14.9h-3.4V-27.4z"/>
		</g>
	</g>
	<g class="st1">
		<g>
			<path class="st7" d="M2091.5-248.6h1.9l7,18.4h-2.1l-1.8-4.8h-8.2l-1.8,4.8h-2L2091.5-248.6z M2095.9-236.8l-3.4-9.3l-3.5,9.3
				H2095.9z"/>
			<path class="st7" d="M2101.8-239.3v-0.2c0-5.3,3.3-9.3,8.1-9.3c2.4,0,4,0.7,5.5,2l-1.2,1.6c-1.1-1-2.4-1.7-4.4-1.7
				c-3.5,0-6.1,3.1-6.1,7.5v0.1c0,4.6,2.5,7.6,6.2,7.6c1.6,0,3-0.6,3.9-1.3v-5.1h-4.6v-1.9h6.4v7.8c-1.4,1.1-3.5,2.1-5.9,2.1
				C2105-230,2101.8-233.8,2101.8-239.3z"/>
			<path class="st7" d="M2119.2-239.3v-0.2c0-5.3,3.3-9.3,8.1-9.3c2.4,0,4,0.7,5.5,2l-1.2,1.6c-1.1-1-2.4-1.7-4.4-1.7
				c-3.5,0-6.1,3.1-6.1,7.5v0.1c0,4.6,2.5,7.6,6.2,7.6c1.6,0,3-0.6,3.9-1.3v-5.1h-4.6v-1.9h6.4v7.8c-1.4,1.1-3.5,2.1-5.9,2.1
				C2122.4-230,2119.2-233.8,2119.2-239.3z"/>
			<path class="st7" d="M2137.4-248.5h6.2c2.1,0,3.8,0.6,4.8,1.7c0.9,0.9,1.4,2.2,1.4,3.8v0.1c0,2.9-1.8,4.6-4.3,5.3l4.9,7.5h-2.3
				l-4.6-7.1h-4.2v7.1h-2L2137.4-248.5L2137.4-248.5z M2143.3-239.1c3,0,4.6-1.5,4.6-3.8v-0.1c0-2.4-1.7-3.7-4.4-3.7h-4.2v7.6
				L2143.3-239.1L2143.3-239.1z"/>
			<path class="st7" d="M2153.6-248.5h11.1v1.8h-9.2v6.4h8.2v1.8h-8.2v6.5h9.3v1.8h-11.3L2153.6-248.5L2153.6-248.5z"/>
			<path class="st7" d="M2167.6-239.3v-0.2c0-5.3,3.3-9.3,8.1-9.3c2.4,0,4,0.7,5.5,2l-1.2,1.6c-1.1-1-2.4-1.7-4.4-1.7
				c-3.5,0-6.1,3.1-6.1,7.5v0.1c0,4.6,2.5,7.6,6.2,7.6c1.6,0,3-0.6,3.9-1.3v-5.1h-4.6v-1.9h6.4v7.8c-1.4,1.1-3.5,2.1-5.9,2.1
				C2170.8-230,2167.6-233.8,2167.6-239.3z"/>
			<path class="st7" d="M2191.3-248.6h1.9l7,18.4h-2.1l-1.8-4.8h-8.2l-1.8,4.8h-2L2191.3-248.6z M2195.7-236.8l-3.4-9.3l-3.5,9.3
				H2195.7z"/>
			<path class="st7" d="M2205.2-246.7h-5.1v-1.8h12.2v1.8h-5.1v16.4h-2V-246.7z"/>
			<path class="st7" d="M2215.5-248.5h11.1v1.8h-9.2v6.4h8.2v1.8h-8.2v6.5h9.3v1.8h-11.3L2215.5-248.5L2215.5-248.5z"/>
			<path class="st7" d="M2236.8-237.1v-11.5h2v11.4c0,3.4,1.8,5.4,4.6,5.4c2.8,0,4.6-1.8,4.6-5.3v-11.5h2v11.4
				c0,4.7-2.6,7.2-6.6,7.2C2239.5-230,2236.8-232.5,2236.8-237.1z"/>
			<path class="st7" d="M2253.9-237.1v-11.5h2v11.4c0,3.4,1.8,5.4,4.6,5.4c2.8,0,4.6-1.8,4.6-5.3v-11.5h2v11.4
				c0,4.7-2.6,7.2-6.6,7.2C2256.6-230,2253.9-232.5,2253.9-237.1z"/>
			<path class="st7" d="M2271.4-248.5h2v18.3h-2V-248.5z"/>
			<path class="st7" d="M2277.9-248.5h5.2c5.1,0,8.6,3.7,8.6,9v0.2c0,5.4-3.5,9.1-8.6,9.1h-5.2V-248.5z M2279.8-246.7v14.7h3.2
				c4,0,6.6-2.9,6.6-7.2v-0.2c0-4.3-2.6-7.3-6.6-7.3H2279.8z"/>
		</g>
	</g>
	<g class="st1">
		<g>
			<path class="st7" d="M2310.8-248.5h11.1v1.8h-9.2v6.4h8.2v1.8h-8.2v6.5h9.3v1.8h-11.3L2310.8-248.5L2310.8-248.5z"/>
			<path class="st7" d="M2324.3-248.5h2.1l5.4,15.6l5.4-15.6h2.1l-6.6,18.4h-1.8L2324.3-248.5z"/>
			<path class="st7" d="M2342.3-248.5h11.1v1.8h-9.2v6.4h8.2v1.8h-8.2v6.5h9.3v1.8h-11.3L2342.3-248.5L2342.3-248.5z"/>
			<path class="st7" d="M2357.1-248.5h1.9l9.6,14.4v-14.4h1.9v18.3h-1.6L2359-245v14.7h-1.9V-248.5z"/>
			<path class="st7" d="M2378.7-246.7h-5.1v-1.8h12.2v1.8h-5.1v16.4h-2V-246.7z"/>
			<path class="st7" d="M2395.1-239.3v-0.2c0-5.5,3.4-9.3,8-9.3c2.5,0,4.1,0.9,5.6,2.2l-1.2,1.5c-1.2-1.1-2.5-1.9-4.4-1.9
				c-3.4,0-6,3.1-6,7.5v0.1c0,4.5,2.6,7.5,6,7.5c1.9,0,3.2-0.8,4.5-2l1.2,1.4c-1.5,1.5-3.3,2.5-5.8,2.5
				C2398.5-230,2395.1-233.7,2395.1-239.3z"/>
			<path class="st7" d="M2411.8-248.5h2v16.5h8.5v1.8h-10.4L2411.8-248.5L2411.8-248.5z"/>
			<path class="st7" d="M2431-248.6h1.9l7,18.4h-2.1l-1.8-4.8h-8.2l-1.8,4.8h-2L2431-248.6z M2435.4-236.8l-3.4-9.3l-3.5,9.3H2435.4
				z"/>
			<path class="st7" d="M2441.5-232.6l1.2-1.5c1.5,1.4,3.1,2.3,5.1,2.3c2.2,0,3.7-1.3,3.7-3.1l0,0c0-1.5-0.7-2.5-4-3.7
				c-3.8-1.4-5.3-2.8-5.3-5.4l0,0c0-2.7,2.3-4.8,5.5-4.8c2.1,0,3.9,0.7,5.5,2.1l-1.2,1.5c-1.4-1.2-2.8-1.8-4.4-1.8
				c-2.1,0-3.4,1.3-3.4,2.8v0.1c0,1.6,0.8,2.5,4.3,3.8c3.7,1.4,5.1,2.9,5.1,5.3v0.1c0,2.9-2.4,5-5.7,5
				C2445.5-230,2443.4-230.8,2441.5-232.6z"/>
			<path class="st7" d="M2455.5-232.6l1.2-1.5c1.5,1.4,3.1,2.3,5.1,2.3c2.2,0,3.7-1.3,3.7-3.1l0,0c0-1.5-0.7-2.5-4-3.7
				c-3.8-1.4-5.3-2.8-5.3-5.4l0,0c0-2.7,2.3-4.8,5.5-4.8c2.1,0,3.9,0.7,5.5,2.1l-1.2,1.5c-1.4-1.2-2.8-1.8-4.4-1.8
				c-2.1,0-3.4,1.3-3.4,2.8v0.1c0,1.6,0.8,2.5,4.3,3.8c3.7,1.4,5.1,2.9,5.1,5.3v0.1c0,2.9-2.4,5-5.7,5
				C2459.5-230,2457.4-230.8,2455.5-232.6z"/>
		</g>
	</g>
	<g class="st1">
		<g>
			<path class="st7" d="M2517.5-248.5h11.1v1.8h-9.2v6.4h8.2v1.8h-8.2v6.5h9.3v1.8h-11.3L2517.5-248.5L2517.5-248.5z"/>
			<path class="st7" d="M2531-248.5h2.1l5.4,15.6l5.4-15.6h2.1l-6.6,18.4h-1.8L2531-248.5z"/>
			<path class="st7" d="M2549-248.5h11.1v1.8h-9.2v6.4h8.2v1.8h-8.2v6.5h9.3v1.8H2549V-248.5z"/>
			<path class="st7" d="M2563.8-248.5h1.9l9.6,14.4v-14.4h1.9v18.3h-1.6l-9.8-14.7v14.7h-1.9L2563.8-248.5L2563.8-248.5z"/>
			<path class="st7" d="M2585.4-246.7h-5.1v-1.8h12.2v1.8h-5.1v16.4h-2V-246.7z"/>
			<path class="st7" d="M2602.5-248.5h5.5c3.9,0,6.4,2.2,6.4,5.8v0.1c0,3.9-2.9,6-6.7,6h-3.3v6.4h-2L2602.5-248.5L2602.5-248.5z
				 M2607.8-238.5c2.8,0,4.6-1.6,4.6-4.2l0,0c0-2.7-1.8-4.1-4.5-4.1h-3.4v8.3H2607.8z"/>
			<path class="st7" d="M2617.6-248.5h6.2c2.1,0,3.8,0.6,4.8,1.7c0.9,0.9,1.4,2.2,1.4,3.8v0.1c0,2.9-1.8,4.6-4.3,5.3l4.9,7.5h-2.4
				l-4.6-7.1h-4.2v7.1h-2v-18.4L2617.6-248.5L2617.6-248.5z M2623.5-239.1c3,0,4.6-1.5,4.6-3.8v-0.1c0-2.4-1.7-3.7-4.4-3.7h-4.2v7.6
				L2623.5-239.1L2623.5-239.1z"/>
			<path class="st7" d="M2633.1-239.3v-0.2c0-5.4,3.2-9.3,7.9-9.3c4.6,0,7.8,3.9,7.8,9.3v0.2c0,5.4-3.2,9.3-7.9,9.3
				C2636.2-230,2633.1-233.9,2633.1-239.3z M2646.8-239.3v-0.2c0-4.4-2.5-7.5-5.8-7.5s-5.8,3.1-5.8,7.5v0.2c0,4.4,2.5,7.5,5.8,7.5
				S2646.8-234.9,2646.8-239.3z"/>
			<path class="st7" d="M2652.5-248.5h5.5c3.9,0,6.4,2.2,6.4,5.8v0.1c0,3.9-2.9,6-6.7,6h-3.3v6.4h-2L2652.5-248.5L2652.5-248.5z
				 M2657.8-238.5c2.8,0,4.6-1.6,4.6-4.2l0,0c0-2.7-1.8-4.1-4.5-4.1h-3.4v8.3H2657.8z"/>
			<path class="st7" d="M2667.5-248.5h11.1v1.8h-9.2v6.4h8.2v1.8h-8.2v6.5h9.3v1.8h-11.3L2667.5-248.5L2667.5-248.5z"/>
			<path class="st7" d="M2682.3-248.5h6.2c2.1,0,3.8,0.6,4.8,1.7c0.9,0.9,1.4,2.2,1.4,3.8v0.1c0,2.9-1.8,4.6-4.3,5.3l4.9,7.5h-2.4
				l-4.6-7.1h-4.2v7.1h-2v-18.4L2682.3-248.5L2682.3-248.5z M2688.2-239.1c3,0,4.6-1.5,4.6-3.8v-0.1c0-2.4-1.7-3.7-4.4-3.7h-4.2v7.6
				L2688.2-239.1L2688.2-239.1z"/>
			<path class="st7" d="M2702.2-246.7h-5.1v-1.8h12.2v1.8h-5.1v16.4h-2V-246.7z"/>
			<path class="st7" d="M2712.7-248.5h2v18.3h-2V-248.5z"/>
			<path class="st7" d="M2719.2-248.5h11.1v1.8h-9.2v6.4h8.2v1.8h-8.2v6.5h9.3v1.8h-11.3L2719.2-248.5L2719.2-248.5z"/>
			<path class="st7" d="M2732.7-232.6l1.2-1.5c1.5,1.4,3.1,2.3,5.1,2.3c2.2,0,3.7-1.3,3.7-3.1l0,0c0-1.5-0.7-2.5-4-3.7
				c-3.8-1.4-5.3-2.8-5.3-5.4l0,0c0-2.7,2.3-4.8,5.5-4.8c2.1,0,3.9,0.7,5.5,2.1l-1.2,1.5c-1.4-1.2-2.8-1.8-4.4-1.8
				c-2.1,0-3.4,1.3-3.4,2.8v0.1c0,1.6,0.8,2.5,4.3,3.8c3.7,1.4,5.1,2.9,5.1,5.3v0.1c0,2.9-2.4,5-5.7,5
				C2736.7-230,2734.6-230.8,2732.7-232.6z"/>
		</g>
	</g>
	<g class="st1">
		<g>
			<path class="st7" d="M2783.3-246.7h-5.1v-1.8h12.2v1.8h-5.1v16.4h-2V-246.7z"/>
			<path class="st7" d="M2793.8-248.5h2v18.3h-2V-248.5z"/>
			<path class="st7" d="M2800.3-248.5h2l5.6,9.8l5.6-9.8h2v18.3h-2V-245l-5.6,9.8h-0.1l-5.6-9.8v14.7h-1.9V-248.5z"/>
			<path class="st7" d="M2819.9-248.5h11.1v1.8h-9.2v6.4h8.2v1.8h-8.2v6.5h9.3v1.8h-11.3L2819.9-248.5L2819.9-248.5z"/>
		</g>
	</g>
</g>
<g class="st1">
	<path class="st2" d="M2056,436.2l-535.3-135.9c-2.5-0.6-4-3.2-3.4-5.7l92.6-364.7c0.6-2.5,3.2-4,5.7-3.4l535.3,135.9
		c2.5,0.6,4,3.2,3.4,5.7l-92.6,364.7C2061.1,435.3,2058.5,436.8,2056,436.2z"/>
</g>
<g>
	<path class="st0" d="M2081.8,411.4L1535.1,333c-2.6-0.4-4.3-2.7-4-5.3l53.4-372.4c0.4-2.6,2.7-4.3,5.3-4l546.7,78.5
		c2.6,0.4,4.3,2.7,4,5.3l-53.4,372.4C2086.7,410,2084.3,411.8,2081.8,411.4z"/>
	<path class="st8" d="M2069.3,411.6c-1.1,0-2.2-0.1-3.2-0.2l-515.9-74c-5.9-0.9-11.2-4-14.8-8.8c-3.6-4.8-5.1-10.7-4.2-16.6
		l49-341.6c1.8-12.2,13.1-20.8,25.4-19l515.9,74c5.9,0.9,11.2,4,14.8,8.8c3.6,4.8,5.1,10.7,4.2,16.6l-49,341.6
		c-0.9,5.9-4,11.2-8.8,14.8C2078.7,410.1,2074.1,411.6,2069.3,411.6z M1602.4-44.5c-8.9,0-16.6,6.5-17.9,15.5l-49,341.6
		c-0.7,4.8,0.5,9.6,3.4,13.4c2.9,3.9,7.1,6.4,11.9,7.1l515.9,74c4.8,0.7,9.6-0.5,13.4-3.4c3.9-2.9,6.4-7.1,7.1-11.9l49-341.6
		c0.7-4.8-0.5-9.6-3.4-13.4c-2.9-3.9-7.1-6.4-11.9-7.1l-515.9-74C1604.1-44.5,1603.2-44.5,1602.4-44.5z"/>
</g>
<g>
	<g class="st1">
		<path class="st2" d="M939.7-234.7l21.9,60.8c0,0,2.4,5.9,10.3,5.4c7.9-0.5,209.7-20.5,209.7-20.5s13.8-1.6,11.6-5.5
			c-2.2-3.9-25.9-60.6-25.9-60.6s-2.3-5.3-12.2-4.6c-9.6,0.6-195.2,17.4-205.9,18.2C941.3-240.8,939.5-238,939.7-234.7z"/>
	</g>
	<g>
		<path class="st0" d="M965.1-362.8l16.1,164.4c0,0,1.8,16.1,8.9,16.1c7.1,0,189.5-17.9,189.5-17.9s12.5-1.8,10.7-12.5
			c-1.8-10.7-19.6-164.4-19.6-164.4s-1.8-14.3-10.7-14.3c-8.7,0-176.3,12.3-185.9,12.5C966.9-378.7,965.1-371.7,965.1-362.8z"/>
		<path class="st3" d="M990.2-180.1c-8.8,0-10.9-16.2-11.1-18L963-362.8c0-4.4,0-18,11-18.2c4.3-0.1,41.5-2.7,80.8-5.5
			c49.2-3.5,100.1-7,105.1-7l0,0c10.7,0,12.8,15.5,12.9,16.2c0.2,1.6,17.9,153.8,19.6,164.3c0.6,3.5-0.1,6.5-1.9,9.1
			c-3.6,4.9-10.3,5.9-10.6,5.9C1172.4-197.3,997.3-180.1,990.2-180.1z M967.3-362.9l16.1,164.3c0.5,4.6,2.9,14.1,6.8,14.1
			c5.6,0,126.2-11.7,189.2-17.9l0,0c0,0,5.2-0.8,7.7-4.2c1.2-1.6,1.5-3.5,1.1-5.8c-1.8-10.7-18.9-158.3-19.7-164.5
			c0-0.1-1.7-12.4-8.6-12.4l0,0c-4.8,0-57.9,3.7-104.8,7c-39.4,2.8-76.6,5.4-81,5.5C970.8-376.6,967.3-374.9,967.3-362.9z"/>
	</g>
	<g class="st1">
		<path class="st5" d="M1176-370c-0.7-6.8-1.1-8.5-1.1-8.5s-1.7-16.5-10.7-16.5s-179.3,14.4-186.5,14.4s-9,8.2-9,18.5l0.9,8.2
			C1017.1-358,1116.5-365.6,1176-370z"/>
	</g>
	<g>
		<g>
			<path class="st5" d="M983.3-363.4l-4.7,0.4c-0.4,0-0.7-0.3-0.8-0.7l-0.3-4.7c0-0.4,0.3-0.7,0.7-0.8l4.7-0.3
				c0.4,0,0.7,0.3,0.8,0.7l0.3,4.7C984-363.7,983.7-363.4,983.3-363.4z"/>
		</g>
		<g>
			<path class="st5" d="M993.5-364.1l-4.7,0.3c-0.4,0-0.7-0.3-0.8-0.7l-0.3-4.7c0-0.4,0.3-0.7,0.7-0.8l4.7-0.3
				c0.4,0,0.7,0.3,0.8,0.7l0.3,4.7C994.2-364.5,993.9-364.1,993.5-364.1z"/>
		</g>
		<g>
			<path class="st5" d="M1003.7-364.8l-4.7,0.3c-0.4,0-0.7-0.3-0.8-0.7l-0.2-4.6c0-0.4,0.3-0.7,0.7-0.8l4.7-0.3
				c0.4,0,0.7,0.3,0.8,0.7l0.3,4.7C1004.4-365.2,1004.1-364.8,1003.7-364.8z"/>
		</g>
	</g>
</g>
<g>
	<path class="st7" d="M1037.8-293.3h8.4l15.2,42.6h-9.1l-3.1-9.2h-14.6l-3.1,9.2h-8.8L1037.8-293.3z M1046.5-267.6l-4.6-13.8
		l-4.7,13.8H1046.5z"/>
	<path class="st7" d="M1066.6-293h14.1c9.5,0,15.5,5.5,15.5,14.5v0.1c0,9.7-7,14.6-15.9,14.8h-5v12.9h-8.8L1066.6-293L1066.6-293z
		 M1080.3-271.4c4.5,0,7.1-2.8,7.1-6.8v-0.1c0-4.4-2.5-6.8-7.2-6.8h-4.8v13.7L1080.3-271.4L1080.3-271.4z"/>
	<path class="st7" d="M1101.9-293h14.1c9.5,0,15.5,5.5,15.5,14.5v0.1c0,9.7-7,14.6-15.9,14.8h-5v12.9h-8.8L1101.9-293L1101.9-293z
		 M1115.6-271.4c4.5,0,7.1-2.8,7.1-6.8v-0.1c0-4.4-2.5-6.8-7.2-6.8h-4.8v13.7L1115.6-271.4L1115.6-271.4z"/>
</g>
<g>
	<path class="st9" d="M1626.3,31.4h4.9l3.5,12.7l9.5-12.7h5.4l-6.6,27.2h-4.7l4.7-19.5L1633,52h-0.2l-3.7-12.8l-4.7,19.4h-4.7
		L1626.3,31.4z"/>
	<path class="st9" d="M1668.6,46.4c0,3.7-1.4,7.4-3.8,9.7c-1.8,1.9-4.2,3-6.8,3c-5,0-8.2-3.6-8.2-8.8c0-3.7,1.4-7.4,3.8-9.8
		c1.8-1.9,4.2-3,6.8-3C1665.4,37.5,1668.6,41.1,1668.6,46.4z M1661.4,53.6c1.7-1.7,2.6-4.7,2.6-7.1c0-3.3-1.6-5-3.9-5
		c-1.2,0-2.4,0.6-3.3,1.4c-1.7,1.7-2.6,4.7-2.6,7.1c0,3.3,1.6,5,3.9,5C1659.4,55,1660.5,54.5,1661.4,53.6z"/>
	<path class="st9" d="M1674.9,37.9h4.6l-0.5,2.4c1.3-1.5,3.1-2.8,5.4-2.8c3.1,0,5.2,2,5.2,5.4c0,1-0.3,2.4-0.6,3.9l-2.8,11.8h-4.7
		l2.9-11.9c0.3-1,0.4-1.9,0.4-2.4c0-1.7-0.9-2.6-2.7-2.6c-2.2,0-3.9,1.9-4.5,4.5l-3,12.4h-4.6L1674.9,37.9z"/>
	<path class="st9" d="M1696.5,49.9v0.3c0,3.1,1.5,5.1,4.1,5.1c1.8,0,3-0.6,4.4-1.7l2,3.2c-1.8,1.4-3.9,2.3-6.6,2.3
		c-5.1,0-8.2-3.4-8.2-8.8c0-3.7,1.5-7.4,3.9-9.8c1.8-1.8,4-3,6.8-3c4.4,0,7.1,3.2,7.1,7.6c0,1.4-0.2,3-0.9,4.8H1696.5z M1697,46.9
		h8.6c0.2-0.7,0.2-1.2,0.2-2c0-2-1-3.6-3.2-3.6c-1.3,0-2.5,0.6-3.4,1.5C1698.2,43.8,1697.4,45.2,1697,46.9z"/>
	<path class="st9" d="M1713.4,37.9h4.7l0.8,15.2l7.5-15.2h4.9L1719.9,59c-2.2,4-4.1,5.6-7,5.6c-1.7,0-3.2-0.6-4.3-1.6l2.2-3.2
		c0.7,0.5,1.4,0.9,2.1,0.9c0.9,0,1.6-0.5,2.4-1.9L1713.4,37.9z"/>
	<path class="st9" d="M1729.6,54.1l3.6-3c2,2.4,4,3.8,6.5,3.8c2.3,0,3.9-1.5,3.9-3.4c0-1.4-0.9-2.6-3.9-4.6
		c-3.6-2.5-5.5-4.6-5.5-7.6c0-2.3,0.9-4.2,2.2-5.5c1.7-1.7,4-2.7,6.7-2.7c3.9,0,6.7,1.8,8.7,4l-3.3,3.2c-1.8-1.9-3.5-3.1-5.6-3.1
		c-2.4,0-3.8,1.6-3.8,3.2c0,1.5,0.9,2.6,4,4.7c3.4,2.3,5.4,4.4,5.4,7.7c0,2.3-0.9,4.2-2.3,5.7c-1.6,1.6-4.2,2.6-6.8,2.6
		C1735.3,59,1731.9,57.1,1729.6,54.1z"/>
	<path class="st9" d="M1752.3,53.6c0-1,0.2-2.4,0.6-3.9l2.8-11.8h4.6l-2.9,11.8c-0.2,1-0.4,1.9-0.4,2.4c0,1.7,0.9,2.7,2.7,2.7
		c2.2,0,4-1.9,4.5-4.5l3-12.4h4.6l-5.1,20.7h-4.6l0.6-2.4c-1.3,1.5-3.1,2.8-5.4,2.8C1754.4,59,1752.3,57,1752.3,53.6z"/>
	<path class="st9" d="M1777.2,55.2l-0.8,3.4h-4.6l6.8-28.1h4.6l-2.4,9.9c1.6-1.8,3.3-3,5.6-3c3.6,0,6.5,3,6.5,8.3
		c0,4-1.4,7.9-3.9,10.4c-1.8,1.7-3.9,2.7-6.2,2.7C1780,59,1778.2,57.4,1777.2,55.2z M1785.4,53.6c1.7-1.7,2.7-4.5,2.7-7.4
		c0-3-1.3-4.8-3.7-4.8c-1.3,0-2.5,0.5-3.5,1.6c-1.7,1.7-2.7,4.6-2.7,7.3c0,2.9,1.6,4.7,3.9,4.7C1783.2,55,1784.5,54.6,1785.4,53.6z"
		/>
	<path class="st9" d="M1796,55c0-0.8,0.2-1.7,0.4-2.5l2.6-10.7h-2.3l1-4h2.3l1.3-5.4h4.6l-1.3,5.4h4.3l-1,4h-4.2l-2.6,10.7
		c-0.1,0.4-0.1,0.8-0.1,1c0,0.8,0.6,1.2,1.6,1.2c0.8,0,1.7-0.2,2.5-0.6l-1,4c-0.9,0.5-2.2,0.7-3.5,0.7
		C1797.6,58.9,1796,57.4,1796,55z"/>
	<path class="st9" d="M1812.8,37.9h4.6l-0.9,3.7c1.8-2.6,3.8-4.3,7-4.1l-1.3,4.8h-0.3c-3.5,0-6.1,2-7.3,6.8l-2.3,9.5h-4.6
		L1812.8,37.9z"/>
	<path class="st9" d="M1821.2,53.5c0-2.1,0.7-4,2.1-5.4c1.4-1.4,3.6-2.2,6-2.2c1.9,0,3.6,0.4,5.1,1l0.1-0.5c0.2-0.7,0.3-1.4,0.3-2.1
		c0-1.6-1-2.7-3.6-2.7c-1.6,0-3.1,0.4-4.6,1.1l-1.1-3.7c1.8-0.8,3.9-1.3,6.4-1.3c4.8,0,7.4,2.1,7.4,5.7c0,1.2-0.2,2.4-0.6,3.8
		l-2.7,11.5h-4.5l0.6-2.5c-1.5,1.8-3.3,2.9-5.6,2.9C1823.4,59,1821.2,56.8,1821.2,53.5z M1833.4,51.2l0.4-1.7
		c-1-0.4-2.4-0.7-3.7-0.7c-1.4,0-2.4,0.4-3.2,1.2c-0.7,0.7-1.2,1.9-1.2,3.1c0,1.6,1,2.7,2.7,2.7
		C1830.9,55.7,1832.8,53.6,1833.4,51.2z"/>
	<path class="st9" d="M1842.1,50.5c0-3.8,1.5-7.5,3.9-9.9c1.9-1.9,4.2-3,7-3c3.6,0,5.5,1.6,6.8,3.7l-3.4,2.7
		c-0.9-1.4-1.9-2.4-3.5-2.4c-1.3,0-2.4,0.6-3.3,1.5c-1.7,1.7-2.8,4.7-2.8,7.3c0,3.1,1.6,4.7,3.7,4.7c1.5,0,2.5-0.7,3.8-1.8l2.3,3
		c-1.6,1.5-3.6,2.7-6.4,2.7C1845.4,59,1842.1,55.8,1842.1,50.5z"/>
	<path class="st9" d="M1860.8,55c0-0.8,0.2-1.7,0.4-2.5l2.6-10.7h-2.3l1-4h2.3l1.3-5.4h4.6l-1.3,5.4h4.3l-1,4h-4.2l-2.6,10.7
		c-0.1,0.4-0.1,0.8-0.1,1c0,0.8,0.6,1.2,1.6,1.2c0.8,0,1.7-0.2,2.5-0.6l-1,4c-0.9,0.5-2.2,0.7-3.5,0.7
		C1862.4,58.9,1860.8,57.4,1860.8,55z"/>
	<path class="st9" d="M1877.9,49.9v0.3c0,3.1,1.5,5.1,4.1,5.1c1.8,0,3-0.6,4.4-1.7l2,3.2c-1.8,1.4-3.9,2.3-6.6,2.3
		c-5.1,0-8.2-3.4-8.2-8.8c0-3.7,1.5-7.4,3.9-9.8c1.8-1.8,4-3,6.8-3c4.4,0,7.1,3.2,7.1,7.6c0,1.4-0.2,3-0.9,4.8H1877.9z M1878.3,46.9
		h8.6c0.2-0.7,0.2-1.2,0.2-2c0-2-1-3.6-3.2-3.6c-1.3,0-2.5,0.6-3.4,1.5C1879.6,43.8,1878.8,45.2,1878.3,46.9z"/>
	<path class="st9" d="M1905.9,56.1c-1.6,1.7-3.3,2.9-5.6,2.9c-3.6,0-6.5-3-6.5-8.3c0-3.9,1.4-7.9,3.9-10.4c1.8-1.7,3.9-2.7,6.2-2.7
		c2.8,0,4.6,1.6,5.6,3.7l2.6-10.7h4.6l-6.9,28.1h-4.6L1905.9,56.1z M1905.7,53.5c1.7-1.7,2.7-4.6,2.7-7.3c0-2.9-1.6-4.7-3.9-4.7
		c-1.1,0-2.3,0.5-3.3,1.4c-1.7,1.7-2.7,4.5-2.7,7.4c0,3,1.3,4.8,3.7,4.8C1903.5,55,1904.7,54.5,1905.7,53.5z"/>
	<path class="st9" d="M1941.2,29l-0.7,2.8c2.3,0.7,4.2,1.9,5.5,3.3l-3.2,3.2c-1.1-1-2.2-1.8-3.5-2.3l-1.9,7.3c3.4,1.8,5.5,4,5.5,7.1
		c0,5-4,8.4-9.5,8.4h-0.1l-1.1,3.7h-3.2l1.2-4.1c-2.8-0.7-5.2-2.1-6.8-4.2l3.4-3c1.4,1.6,3,2.7,4.7,3.2l2-7.8
		c-3.4-1.8-5.5-3.7-5.5-7.2c0-4.6,3.7-8,9.3-8h0.2l0.7-2.3h3L1941.2,29L1941.2,29z M1934.7,41.8l1.7-6.5c-2.4,0.1-3.8,1.7-3.8,3.4
		C1932.6,39.8,1933,40.7,1934.7,41.8z M1936,47.9l-1.8,6.8c2.3-0.2,3.8-1.9,3.8-3.9C1938,49.7,1937.5,48.9,1936,47.9z"/>
	<path class="st9" d="M1953.3,36.4l-4.4,1.2v-4.2l7-2.2h3.3l-6.7,27.4h-4.7L1953.3,36.4z"/>
	<path class="st9" d="M1982.5,41.2c0,4.9-1.8,11.2-5.3,14.7c-2,2-4.5,3.2-7.5,3.2c-5.3,0-8.7-3.8-8.7-10.2c0-5,1.8-11.2,5.3-14.7
		c2-2,4.5-3.2,7.4-3.2C1979.1,31,1982.5,34.8,1982.5,41.2z M1973.6,53.2c2.6-2.6,4.1-8.1,4.1-12c0-4-1.6-6-4.2-6
		c-1.3,0-2.5,0.6-3.5,1.6c-2.6,2.6-4.1,8.1-4.1,12c0,4,1.6,6,4.2,6C1971.4,54.8,1972.6,54.2,1973.6,53.2z"/>
	<path class="st9" d="M2006.7,41.2c0,4.9-1.8,11.2-5.3,14.7c-2,2-4.5,3.2-7.5,3.2c-5.3,0-8.7-3.8-8.7-10.2c0-5,1.8-11.2,5.3-14.7
		c2-2,4.5-3.2,7.4-3.2C2003.2,31,2006.7,34.8,2006.7,41.2z M1997.8,53.2c2.6-2.6,4.1-8.1,4.1-12c0-4-1.6-6-4.2-6
		c-1.3,0-2.5,0.6-3.5,1.6c-2.6,2.6-4.1,8.1-4.1,12c0,4,1.6,6,4.2,6C1995.5,54.8,1996.7,54.2,1997.8,53.2z"/>
	<path class="st9" d="M2030.8,41.2c0,4.9-1.8,11.2-5.3,14.7c-2,2-4.5,3.2-7.5,3.2c-5.3,0-8.7-3.8-8.7-10.2c0-5,1.8-11.2,5.3-14.7
		c2-2,4.5-3.2,7.4-3.2C2027.4,31,2030.8,34.8,2030.8,41.2z M2021.9,53.2c2.6-2.6,4.1-8.1,4.1-12c0-4-1.6-6-4.2-6
		c-1.3,0-2.5,0.6-3.5,1.6c-2.6,2.6-4.1,8.1-4.1,12c0,4,1.6,6,4.2,6C2019.6,54.8,2020.9,54.2,2021.9,53.2z"/>
</g>
<g>
	<path class="st9" d="M1622,91.9h4.7l-5.6,22.9h11.5l-1.1,4.3h-16.2L1622,91.9z"/>
	<path class="st9" d="M1640.4,98.4h4.6l-5.1,20.7h-4.6L1640.4,98.4z M1642.1,91h4.9l-1.2,4.5h-4.9L1642.1,91z"/>
	<path class="st9" d="M1650.1,98.4h4.6l-0.5,2.4c1.4-1.6,3-2.8,5.2-2.8c2.4,0,4.1,1.4,4.7,3.7c1.7-2.3,3.9-3.7,6.6-3.7
		c3.2,0,5.3,2.1,5.3,5.2c0,1.2-0.3,2.6-0.6,4.1l-2.9,11.8h-4.6l2.9-11.9c0.2-1,0.4-1.9,0.4-2.4c0-1.7-0.9-2.6-2.6-2.6
		c-2,0-3.8,1.8-4.4,4.4l-3.1,12.6h-4.6l2.9-11.9c0.2-1,0.4-1.9,0.4-2.4c0-1.7-1-2.6-2.6-2.6c-2.1,0-3.8,1.9-4.4,4.5l-3,12.4h-4.6
		L1650.1,98.4z"/>
	<path class="st9" d="M1682.6,98.4h4.6l-5.1,20.7h-4.6L1682.6,98.4z M1684.3,91h4.9l-1.2,4.5h-4.9L1684.3,91z"/>
	<path class="st9" d="M1689.2,115.5c0-0.8,0.2-1.7,0.4-2.5l2.6-10.7h-2.3l1-4h2.3l1.3-5.4h4.6l-1.3,5.4h4.3l-1,4h-4.2l-2.6,10.7
		c-0.1,0.4-0.1,0.8-0.1,1c0,0.8,0.6,1.2,1.6,1.2c0.8,0,1.7-0.2,2.5-0.6l-1,4c-0.9,0.5-2.2,0.7-3.5,0.7
		C1690.8,119.4,1689.2,117.9,1689.2,115.5z"/>
	<path class="st9" d="M1708,91.9h4.7l-2.8,11.4h10.1l2.7-11.4h4.7l-6.6,27.2h-4.7l2.8-11.5h-10.1l-2.8,11.5h-4.7L1708,91.9z"/>
	<path class="st9" d="M1731.6,98.4h4.6l-5.1,20.7h-4.6L1731.6,98.4z M1733.2,91h4.9l-1.2,4.5h-4.9L1733.2,91z"/>
	<path class="st9" d="M1738.2,115.5c0-0.8,0.2-1.7,0.4-2.5l2.6-10.7h-2.3l1-4h2.3l1.3-5.4h4.6l-1.3,5.4h4.3l-1,4h-4.2l-2.6,10.7
		c-0.1,0.4-0.1,0.8-0.1,1c0,0.8,0.6,1.2,1.6,1.2c0.8,0,1.7-0.2,2.5-0.6l-1,4c-0.9,0.5-2.2,0.7-3.5,0.7
		C1739.8,119.4,1738.2,117.9,1738.2,115.5z"/>
</g>
<g class="st10">
	<polygon class="st8" points="2087.9,225.1 1556.4,220.7 1569.4,147.3 2105.1,147.3 	"/>
</g>
<g class="st6">
	<path class="st8" d="M1658.7,168.1h4.9l11.2,30.6h-5.3l-2.5-7.2h-11.8l-2.5,7.2h-5.1L1658.7,168.1z M1665.4,187l-4.4-12.2
		l-4.4,12.2H1665.4z"/>
	<path class="st8" d="M1676.5,183.7v-0.3c0-9,5.8-15.5,14-15.5c4.1,0,7,1.2,9.7,3.4l-3,4c-1.7-1.6-3.7-2.7-6.7-2.7
		c-5,0-8.7,4.5-8.7,10.8v0.3c0,6.9,3.7,11,8.9,11c2.1,0,4-0.7,5.4-1.6v-6.7h-6.4V182h11.2v13.7c-2.6,2-6.1,3.7-10.4,3.7
		C1682.1,199.1,1676.5,193,1676.5,183.7z"/>
	<path class="st8" d="M1705.6,183.7v-0.3c0-9,5.8-15.5,14-15.5c4.1,0,7,1.2,9.7,3.4l-3,4c-1.7-1.6-3.7-2.7-6.7-2.7
		c-5,0-8.7,4.5-8.7,10.8v0.3c0,6.9,3.7,11,8.9,11c2.1,0,4-0.7,5.4-1.6v-6.7h-6.4V182h11.2v13.7c-2.6,2-6.1,3.7-10.4,3.7
		C1711.3,199.1,1705.6,193,1705.6,183.7z"/>
	<path class="st8" d="M1735.9,168.2h11c3.5,0,6.3,1,8.1,2.9c1.6,1.6,2.5,3.9,2.5,6.7v0.2c0,4.7-2.6,7.6-6.3,8.9l7.2,11.8h-5.8
		l-6.5-10.8c-0.1,0-0.2,0-0.3,0h-4.9v10.7h-5V168.2z M1746.4,183.4c3.9,0,6.1-2.1,6.1-5.3V178c0-3.4-2.2-5.2-6-5.2h-5.5v10.6
		L1746.4,183.4L1746.4,183.4z"/>
	<path class="st8" d="M1763,168.2h19.2v4.6H1768v8.3h12.6v4.6H1768v8.5h14.4v4.6H1763V168.2z"/>
	<path class="st8" d="M1786.5,183.7v-0.3c0-9,5.8-15.5,14-15.5c4.1,0,7,1.2,9.7,3.4l-3,4c-1.7-1.6-3.7-2.7-6.7-2.7
		c-5,0-8.7,4.5-8.7,10.8v0.3c0,6.9,3.7,11,8.9,11c2.1,0,4-0.7,5.4-1.6v-6.7h-6.4V182h11.2v13.7c-2.6,2-6.1,3.7-10.4,3.7
		C1792.1,199.1,1786.5,193,1786.5,183.7z"/>
	<path class="st8" d="M1825.7,168.1h4.9l11.2,30.6h-5.3l-2.5-7.2h-11.8l-2.5,7.2h-5.1L1825.7,168.1z M1832.4,187l-4.4-12.2
		l-4.4,12.2H1832.4z"/>
	<path class="st8" d="M1849,172.9h-8v-4.7h21.1v4.7h-8v25.8h-5.1V172.9z"/>
	<path class="st8" d="M1866.8,168.2h19.2v4.6h-14.2v8.3h12.6v4.6h-12.6v8.5h14.4v4.6h-19.4V168.2z"/>
	<path class="st8" d="M1902.7,168.2h11c3.5,0,6.3,1,8.1,2.9c1.6,1.6,2.5,3.9,2.5,6.7v0.2c0,4.7-2.6,7.6-6.3,8.9l7.2,11.8h-5.8
		l-6.5-10.8c-0.1,0-0.2,0-0.3,0h-4.9v10.7h-5V168.2z M1913.2,183.4c3.9,0,6.1-2.1,6.1-5.3V178c0-3.4-2.2-5.2-6-5.2h-5.5v10.6
		L1913.2,183.4L1913.2,183.4z"/>
	<path class="st8" d="M1928.7,183.7v-0.4c0-9.1,5.6-15.5,13.5-15.5s13.4,6.4,13.4,15.4v0.4c0,9.1-5.6,15.5-13.5,15.5
		C1934.3,199.2,1928.7,192.7,1928.7,183.7z M1950.5,183.6v-0.3c0-6.5-3.5-10.9-8.3-10.9s-8.2,4.3-8.2,10.9v0.3
		c0,6.5,3.5,10.9,8.3,10.9C1947,194.5,1950.5,190.2,1950.5,183.6z"/>
	<path class="st8" d="M1960.1,183.7v-0.4c0-9.1,5.6-15.5,13.5-15.5s13.4,6.4,13.4,15.4v0.4c0,9.1-5.6,15.5-13.5,15.5
		C1965.6,199.2,1960.1,192.7,1960.1,183.7z M1981.8,183.6v-0.3c0-6.5-3.5-10.9-8.3-10.9s-8.2,4.3-8.2,10.9v0.3
		c0,6.5,3.5,10.9,8.3,10.9C1978.4,194.5,1981.8,190.2,1981.8,183.6z"/>
	<path class="st8" d="M1997.2,172.9h-8v-4.7h21.1v4.7h-8v25.8h-5L1997.2,172.9L1997.2,172.9z"/>
</g>
<g>
	<g>
		<path class="st11" d="M1191.8-302.1l-1-4.2c7.8-1.8,15.9-3.6,24-5.2l0.8,4.2C1207.6-305.7,1199.5-303.9,1191.8-302.1z
			 M1627.9-305.3c-6.9-1-14.6-2-23-3.1l0.5-4.3c8.5,1.1,16.2,2.1,23.1,3.1L1627.9-305.3z M1227.7-309.5l-0.8-4.3
			c9.8-1.7,20-3.3,30.3-4.7l0.6,4.3C1247.6-312.8,1237.5-311.2,1227.7-309.5z M1594.5-309.7c-9.4-1.2-19.6-2.3-30.4-3.5l0.5-4.3
			c10.8,1.1,21,2.3,30.5,3.5L1594.5-309.7z M1551.9-314.4c-7.8-0.8-16-1.5-24.4-2.3l0.4-4.3c8.4,0.7,16.6,1.5,24.4,2.3L1551.9-314.4
			z M1268.1-315.5l-0.5-4.3c7.6-0.9,15.4-1.8,23.2-2.5l0.4,4.3C1283.5-317.2,1275.7-316.4,1268.1-315.5z M1516-317.6
			c-7.6-0.6-15.3-1.2-23.2-1.7l0.3-4.3c7.9,0.5,15.7,1.1,23.2,1.7L1516-317.6z M1302.8-319l-0.4-4.3c8-0.7,16.2-1.2,24.5-1.7
			l0.2,4.3C1318.9-320.2,1310.7-319.7,1302.8-319z M1482.4-320c-10.2-0.6-20.5-1.1-30.5-1.5l0.2-4.3c10.1,0.4,20.4,0.9,30.6,1.5
			L1482.4-320z M1339.4-321.3l-0.2-4.3c10-0.5,20.3-0.8,30.7-1l0.1,4.3C1359.6-322.2,1349.3-321.8,1339.4-321.3z M1439.6-321.9
			c-8.1-0.3-16.2-0.4-24.5-0.6l0.1-4.3c8.3,0.1,16.4,0.3,24.5,0.6L1439.6-321.9z M1380.3-322.5l-0.1-4.3c7.8-0.1,15.6-0.1,23.3-0.1
			v4.3C1395.9-322.6,1388.1-322.6,1380.3-322.5z"/>
	</g>
	<g>
		<path class="st11" d="M1619.1-284.8c-0.5,0-1.1-0.2-1.5-0.6c-0.9-0.8-0.9-2.2-0.1-3.1l18.3-19.7l-14.3-25.3
			c-0.6-1-0.2-2.4,0.8-2.9c1-0.6,2.4-0.2,2.9,0.8l15,26.7c0.5,0.8,0.3,1.8-0.3,2.5l-19.4,20.8C1620.2-285,1619.6-284.8,1619.1-284.8
			z"/>
	</g>
</g>
<g>
	<g>
		<path class="st12" d="M1519.7-254.6h-203.1c-32.7,0-59.5-26.8-59.5-59.5l0,0c0-32.7,26.8-59.5,59.5-59.5h203.1
			c32.7,0,59.5,26.8,59.5,59.5l0,0C1579.2-281.3,1552.4-254.6,1519.7-254.6z"/>
	</g>
	<g>
		<path class="st0" d="M1513.9-266.6h-196.4c-26.6,0-48.3-21.7-48.3-48.3l0,0c0-26.6,21.7-48.3,48.3-48.3h196.4
			c26.6,0,48.3,21.7,48.3,48.3l0,0C1562.2-288.4,1540.5-266.6,1513.9-266.6z"/>
	</g>
	<g>
		<path class="st11" d="M1287.9-307.5l4.2-3.6c2,2.2,3.7,3.4,5.6,3.4c1.6,0,2.7-1,2.7-2.3c0-1.1-0.7-2-3.3-3.9
			c-3-2.3-4.9-4.4-4.9-7.3c0-2.3,0.9-4.3,2.2-5.6c1.6-1.6,3.9-2.6,6.5-2.6c3.9,0,6.6,1.7,8.5,3.9l-3.9,3.9c-1.7-1.8-3-2.8-4.9-2.8
			c-1.7,0-2.6,1.1-2.6,2.3c0,1.2,0.6,1.9,3.3,3.9c2.9,2.1,5,4.2,5,7.4c0,2.4-0.9,4.3-2.3,5.7c-1.6,1.6-4.1,2.5-6.6,2.5
			C1293.5-302.8,1290.2-304.5,1287.9-307.5z"/>
		<path class="st11" d="M1324.2-303.1h-5.5l0.4-1.9c-1.2,1.1-2.7,2.2-4.7,2.2c-2.9,0-4.8-1.9-4.8-5.1c0-1,0.3-2.5,0.7-4l2.7-11.2
			h5.6l-2.7,11.3c-0.2,0.9-0.3,1.7-0.3,2.2c0,1.3,0.6,1.9,1.9,1.9c1.7,0,2.8-1.4,3.2-3.4l2.9-12h5.5L1324.2-303.1z"/>
		<path class="st11" d="M1334.4-305.8l-0.6,2.6h-5.5l6.5-26.8h5.6l-2.1,8.7c1.5-1.5,2.9-2.3,4.8-2.3c3.3,0,6.1,2.8,6.1,8.1
			c0,3.8-1.4,7.6-3.7,10c-1.7,1.7-3.8,2.6-6,2.6C1337.1-302.8,1335.4-304,1334.4-305.8z M1341.1-308.6c1.4-1.4,2.3-3.8,2.3-6.4
			c0-2.4-1-3.9-3-3.9c-0.9,0-1.9,0.4-2.6,1.1c-1.5,1.5-2.3,4.1-2.3,6.4c0,2.4,1.2,3.9,3,3.9C1339.3-307.5,1340.3-307.9,1341.1-308.6
			z"/>
		<path class="st11" d="M1351.5-306.7c0-0.8,0.2-1.6,0.4-2.6l2.2-9.1h-2.1l1.2-4.8h2.1l1.2-4.9h5.6l-1.2,4.9h3.5l-1.2,4.8h-3.5
			l-2.2,9c-0.1,0.3-0.1,0.6-0.1,0.8c0,0.5,0.4,0.9,1.1,0.9c0.8,0,1.7-0.2,2.3-0.6l-1.2,4.7c-0.9,0.5-2.3,0.8-3.7,0.8
			C1353.1-302.9,1351.5-304.4,1351.5-306.7z"/>
		<path class="st11" d="M1367.9-323.2h5.5l-0.8,3.2c1.5-2.3,3.3-3.7,6.1-3.5l-1.6,5.8h-0.3c-3.2,0-5.2,1.5-6.2,5.8l-2.1,8.8h-5.5
			L1367.9-323.2z"/>
		<path class="st11" d="M1376.3-308.1c0-2,0.7-3.9,2-5.2c1.4-1.4,3.4-2.1,5.8-2.1c1.7,0,3,0.3,4.3,0.9l0.1-0.3
			c0.1-0.6,0.3-1.2,0.3-1.8c0-1.1-0.6-2-2.9-2c-1.4,0-2.9,0.4-4.3,1.1l-1.2-4.4c1.8-0.8,4-1.4,6.5-1.4c4.8,0,7.3,2,7.3,5.5
			c0,1.3-0.3,2.6-0.6,3.9L1391-303h-5.4l0.5-2.1c-1.3,1.5-2.9,2.4-4.8,2.4C1378.1-302.8,1376.3-305.1,1376.3-308.1z M1387.4-310.3
			l0.3-1.3c-0.7-0.3-1.7-0.6-2.5-0.6c-1,0-1.9,0.3-2.4,0.9c-0.6,0.6-1,1.6-1,2.6c0,1.2,0.7,2.1,2,2.1
			C1385.6-306.6,1386.9-308.4,1387.4-310.3z"/>
		<path class="st11" d="M1396.5-311.2c0-3.6,1.4-7.1,3.6-9.4c1.9-1.8,4-2.9,6.8-2.9c3.6,0,5.4,1.4,6.8,3.6l-4,3.2
			c-0.9-1.3-1.7-2.1-2.9-2.1c-1,0-1.8,0.4-2.5,1.2c-1.4,1.4-2.4,4.2-2.4,6.4c0,2.5,1.1,3.8,2.7,3.8c1.2,0,2-0.6,3.2-1.5l2.7,3.5
			c-1.6,1.5-3.4,2.7-6.2,2.7C1399.6-302.8,1396.5-306,1396.5-311.2z"/>
		<path class="st11" d="M1414-306.7c0-0.8,0.2-1.6,0.4-2.6l2.2-9.1h-2.2l1.2-4.8h2.1l1.2-4.9h5.6l-1.2,4.9h3.5l-1.2,4.8h-3.5l-2.2,9
			c-0.1,0.3-0.1,0.6-0.1,0.8c0,0.5,0.4,0.9,1.1,0.9c0.8,0,1.7-0.2,2.3-0.6l-1.2,4.7c-0.9,0.5-2.3,0.8-3.7,0.8
			C1415.5-302.9,1414-304.4,1414-306.7z"/>
		<path class="st11" d="M1451.4-331.4l-0.7,2.8c2,0.6,3.8,1.8,5,3.1l-3.8,3.7c-0.8-0.8-1.7-1.4-2.7-1.9l-1.5,5.5
			c3,1.6,5.1,3.8,5.1,6.8c0,5-4,8.3-9.2,8.3l-1,3.6h-3.7l1.2-4c-2.6-0.7-4.8-2-6.3-4l4-3.5c1.2,1.4,2.4,2.3,3.7,2.7l1.6-5.9
			c-2.9-1.6-5.1-3.4-5.1-7c0-4.7,3.6-8,9.1-8l0.7-2.2H1451.4z M1444.7-319.9l1.2-4.4c-1.5,0.2-2.3,1.3-2.3,2.4
			C1443.7-321.3,1443.8-320.6,1444.7-319.9z M1446-312.5l-1.3,4.6c1.4-0.4,2.3-1.4,2.3-2.7C1447-311.4,1446.8-311.9,1446-312.5z"/>
		<path class="st11" d="M1465.4-308.6h-10.1l-0.4-4.3l15.3-16.4h5.5l-3.9,16.1h2.8l-1.2,4.6h-2.7l-1.3,5.5h-5.3L1465.4-308.6z
			 M1466.6-313.2l2.2-8.8l-7.9,8.8H1466.6z"/>
		<path class="st11" d="M1476.5-309.9c0-4.5,2.9-6.4,5.6-7.3c-1.7-1.2-2.5-2.7-2.5-4.8c0-3.6,2.9-7.6,8.6-7.6c4.6,0,7.8,2.7,7.8,6.7
			c0,3.8-2.1,5.8-4.9,6.8c2.1,1.2,3.3,2.7,3.3,5.3c0,4-3.4,8-9.5,8C1480.5-302.8,1476.5-305.5,1476.5-309.9z M1489-310.9
			c0-2-1.3-3.2-3.4-3.2c-2,0-3.7,1.6-3.7,3.6c0,1.9,1.4,3.2,3.3,3.2C1487.3-307.3,1488.9-308.9,1489-310.9z M1490.8-322.1
			c0-1.5-0.8-2.8-2.9-2.8c-1.8,0-3.2,1.6-3.2,3.4c0,1.5,0.9,2.9,2.8,2.9C1489.3-318.7,1490.8-320.2,1490.8-322.1z"/>
		<path class="st11" d="M1519.5-319.4c0,4.5-1.6,10.3-4.9,13.6c-2,2-4.4,3.1-7.5,3.1c-5.1,0-8.7-3.7-8.7-10.1
			c0-4.5,1.6-10.4,4.9-13.6c1.9-2,4.4-3.1,7.4-3.1C1515.9-329.5,1519.5-325.9,1519.5-319.4z M1510.3-309c2.2-2.2,3.5-7.2,3.5-10.4
			c0-3.6-1.4-5-3.4-5c-1,0-1.9,0.4-2.7,1.2c-2.2,2.2-3.5,7.2-3.5,10.4c0,3.6,1.4,5,3.4,5C1508.5-307.8,1509.5-308.2,1510.3-309z"/>
		<path class="st11" d="M1542.8-319.4c0,4.5-1.6,10.3-4.9,13.6c-2,2-4.4,3.1-7.5,3.1c-5.1,0-8.7-3.7-8.7-10.1
			c0-4.5,1.6-10.4,4.9-13.6c1.9-2,4.4-3.1,7.4-3.1C1539.2-329.5,1542.8-325.9,1542.8-319.4z M1533.6-309c2.2-2.2,3.5-7.2,3.5-10.4
			c0-3.6-1.4-5-3.4-5c-1,0-1.9,0.4-2.7,1.2c-2.2,2.2-3.5,7.2-3.5,10.4c0,3.6,1.4,5,3.4,5C1531.8-307.8,1532.8-308.2,1533.6-309z"/>
	</g>
</g>
<g class="st4">
	<g>
		<g class="st1">
			<path class="st2" d="M2353.9,478.3l22.8,82.3c0,0,4.6,15,18.7,15.8c14.3,0.8,444.3,6.7,444.3,6.7s35-0.2,27-12.4
				c-8-12.1-75.8-110.4-75.8-110.4s-7.6-13.6-29.9-13.2c-21.3,0.4-374.4,17.3-392,17.8C2356.3,465.4,2353.5,471.1,2353.9,478.3z"/>
		</g>
		<g>
			<g>
				<path class="st0" d="M2871.8,568.8h-474.7c-2.5,0-4.6-2.1-4.6-4.6V318c0-2.5,2.1-4.6,4.6-4.6h474.7c2.5,0,4.6,2.1,4.6,4.6v246.2
					C2876.4,566.7,2874.3,568.8,2871.8,568.8z"/>
			</g>
			<g>
				<path class="st13" d="M2856.4,570.7h-444c-12.2,0-22.1-8.8-22.1-19.5V331c0-10.8,9.9-19.5,22.1-19.5h444
					c12.2,0,22.1,8.8,22.1,19.5v220.2C2878.5,562,2868.6,570.7,2856.4,570.7z M2412.4,315.3c-9.8,0-17.8,7.1-17.8,15.7v220.2
					c0,8.7,8,15.7,17.8,15.7h444c9.8,0,17.8-7.1,17.8-15.7V331c0-8.7-8-15.7-17.8-15.7H2412.4z"/>
			</g>
		</g>
		<g class="st4">
			<path class="st13" d="M2848.3,320.1h-432c-9.5,0-17.3,7.4-17.3,16.4v48.4h466.6v-48.4C2865.6,327.5,2857.8,320.1,2848.3,320.1z"
				/>
		</g>
		<g>
			<path class="st13" d="M2544.8,341.5h4.4l10,27.4h-4.7l-2.3-6.4h-10.6l-2.3,6.4h-4.6L2544.8,341.5z M2550.7,358.4l-3.9-10.9
				l-3.9,10.9H2550.7z"/>
			<path class="st13" d="M2560.6,355.4v-0.3c0-8.2,5.1-13.9,12.2-13.9c3.8,0,6.3,1.4,8.6,3.4l-2.7,3.5c-1.6-1.5-3.4-2.6-5.8-2.6
				c-4.3,0-7.5,3.9-7.5,9.7v0.2c0,5.9,3.2,9.8,7.5,9.8c2.6,0,4.3-1.2,6-2.8l2.6,3.2c-2.4,2.5-5.1,3.9-8.9,3.9
				C2565.6,369.2,2560.6,363.7,2560.6,355.4z"/>
			<path class="st13" d="M2583.8,355.4v-0.3c0-8.2,5.1-13.9,12.2-13.9c3.8,0,6.3,1.4,8.6,3.4l-2.7,3.5c-1.6-1.5-3.4-2.6-5.8-2.6
				c-4.3,0-7.5,3.9-7.5,9.7v0.2c0,5.9,3.2,9.8,7.5,9.8c2.6,0,4.3-1.2,6-2.8l2.6,3.2c-2.4,2.5-5.1,3.9-8.9,3.9
				C2588.8,369.2,2583.8,363.7,2583.8,355.4z"/>
			<path class="st13" d="M2607,355.5v-0.4c0-8.1,5-13.9,12.1-13.9c7.1,0,12,5.8,12,13.8v0.4c0,8.1-5,13.9-12.1,13.9
				S2607,363.5,2607,355.5z M2626.4,355.4v-0.3c0-5.8-3.1-9.8-7.4-9.8s-7.4,3.9-7.4,9.7v0.3c0,5.8,3.2,9.8,7.4,9.8
				S2626.4,361.3,2626.4,355.4z"/>
			<path class="st13" d="M2635.6,358.5v-16.8h4.5v16.8c0,4.4,2.1,6.7,5.6,6.7c3.4,0,5.6-2.2,5.6-6.5v-17h4.5v16.7
				c0,7.3-4,11-10.2,11C2639.6,369.3,2635.6,365.6,2635.6,358.5z"/>
			<path class="st13" d="M2661.5,341.6h4.2l12,18.2v-18.2h4.4v27.2h-3.8l-12.3-18.7v18.7h-4.4L2661.5,341.6L2661.5,341.6z"/>
			<path class="st13" d="M2693.4,345.8h-7.2v-4.2h18.8v4.2h-7.2v23h-4.5L2693.4,345.8L2693.4,345.8z"/>
			<path class="st13" d="M2706.9,365.3l2.7-3.4c2,1.8,4.3,3.2,7.2,3.2c2.6,0,4.3-1.4,4.3-3.5l0,0c0-1.7-0.9-2.8-5.2-4.4
				c-5.2-1.9-7.9-3.9-7.9-8.2v-0.1c0-4.5,3.6-7.6,8.6-7.6c3.2,0,6.1,1,8.6,3.2l-2.6,3.5c-1.9-1.5-3.9-2.6-6.1-2.6
				c-2.5,0-4,1.4-4,3.1l0,0c0,1.9,1,2.9,5.6,4.7c5.1,1.9,7.4,4,7.4,8v0.1c0,4.8-3.7,7.9-8.8,7.9
				C2713.2,369.2,2709.8,368,2706.9,365.3z"/>
		</g>
	</g>
	<g>
		<path class="st13" d="M2515.6,464.9h18.5v7.4h-18.5V464.9z"/>
		<path class="st13" d="M2566.3,453.2c-2.4-1.9-4.9-3.4-7.6-4v13.1c8.9,3.4,12.4,7.4,12.4,13.9v0.1c0,6.9-5,11.7-12.3,12.6v6.6h-5.3
			V489c-5-0.5-9.9-2.6-13.8-6.3l4.3-5.6c2.9,2.7,6,4.6,9.7,5.2v-13.7c-8.5-3.3-12.2-6.8-12.2-13.6v-0.1c0-6.7,4.9-11.5,12.1-12.4
			v-4.1h5.3v4.2c4.3,0.5,8.1,2.1,11.4,5L2566.3,453.2z M2553.7,460.4V449c-3.2,0.7-4.8,2.8-4.8,5.4v0.1
			C2548.9,457,2550,458.6,2553.7,460.4z M2558.7,470.4v11.9c3.3-0.7,5.1-2.8,5.1-5.6v-0.1C2563.8,474,2562.6,472.2,2558.7,470.4z"/>
		<path class="st13" d="M2584.2,450.1l-7.3,2.2l-1.3-6.6l10.8-3.6h5.4V489h-7.6V450.1z"/>
		<path class="st13" d="M2600.5,466.1v-0.7c0-14.1,6.9-23.7,17.7-23.7c10.6,0,17.5,9.4,17.5,23.6v0.7c0,14.1-6.9,23.7-17.7,23.7
			C2607.3,489.7,2600.5,480.2,2600.5,466.1z M2627.9,466v-0.5c0-10.4-4-16.7-9.8-16.7c-5.8,0-9.7,6.2-9.7,16.6v0.5
			c0,10.4,4,16.7,9.8,16.7C2624,482.6,2627.9,476.4,2627.9,466z"/>
		<path class="st13" d="M2642.2,466.1v-0.7c0-14.1,6.9-23.7,17.7-23.7c10.6,0,17.5,9.4,17.5,23.6v0.7c0,14.1-6.9,23.7-17.7,23.7
			C2649,489.7,2642.2,480.2,2642.2,466.1z M2669.5,466v-0.5c0-10.4-4-16.7-9.8-16.7s-9.7,6.2-9.7,16.6v0.5c0,10.4,4,16.7,9.8,16.7
			C2665.7,482.6,2669.5,476.4,2669.5,466z"/>
		<path class="st13" d="M2683.9,466.1v-0.7c0-14.1,6.9-23.7,17.7-23.7c10.6,0,17.5,9.4,17.5,23.6v0.7c0,14.1-6.9,23.7-17.7,23.7
			C2690.7,489.7,2683.9,480.2,2683.9,466.1z M2711.2,466v-0.5c0-10.4-4-16.7-9.8-16.7s-9.7,6.2-9.7,16.6v0.5c0,10.4,4,16.7,9.8,16.7
			C2707.4,482.6,2711.2,476.4,2711.2,466z"/>
	</g>
</g>
<g class="st4">
	<g>
		<g>
			<path class="st7" d="M1750.6,507.4h5.7l10.3,28.9h-6.2l-2.1-6.2h-9.9l-2.1,6.2h-6L1750.6,507.4z M1756.5,524.8l-3.1-9.4l-3.2,9.4
				H1756.5z"/>
			<path class="st7" d="M1768.1,525.6v-0.5c0-6.5,4.2-11.3,10.2-11.3c3.2,0,5.3,1.1,7.2,3l-3.2,4.2c-1.1-1.1-2.2-2-3.9-2
				c-2.7,0-4.5,2.5-4.5,6.1v0.2c0,3.7,1.7,6.2,4.6,6.2c1.7,0,2.8-0.8,4-2l3.1,3.9c-1.8,2-4,3.4-7.5,3.4
				C1772.2,536.8,1768.1,532.1,1768.1,525.6z"/>
			<path class="st7" d="M1787.4,525.6v-0.5c0-6.5,4.2-11.3,10.2-11.3c3.2,0,5.3,1.1,7.2,3l-3.2,4.2c-1.1-1.1-2.2-2-3.9-2
				c-2.7,0-4.5,2.5-4.5,6.1v0.2c0,3.7,1.7,6.2,4.6,6.2c1.7,0,2.8-0.8,4-2l3.1,3.9c-1.8,2-4,3.4-7.5,3.4
				C1791.5,536.8,1787.4,532.1,1787.4,525.6z"/>
			<path class="st7" d="M1806.7,525.6v-0.5c0-6.5,4.4-11.3,10.4-11.3s10.3,4.6,10.3,11.2v0.5c0,6.5-4.4,11.3-10.4,11.3
				C1811.1,536.8,1806.7,532.1,1806.7,525.6z M1821.6,525.5v-0.3c0-3.6-1.8-6.3-4.6-6.3c-2.9,0-4.6,2.7-4.6,6.2v0.3
				c0,3.5,1.9,6.3,4.6,6.3C1820,531.7,1821.6,529.1,1821.6,525.5z"/>
			<path class="st7" d="M1831.1,529.3v-15h5.8v13.3c0,2.6,1.2,3.9,3.1,3.9c2,0,3.2-1.3,3.2-3.9v-13.3h5.8v22h-5.8v-3
				c-1.2,1.8-2.9,3.4-5.6,3.4C1833.5,536.7,1831.1,533.8,1831.1,529.3z"/>
			<path class="st7" d="M1853.8,514.3h5.8v3c1.3-1.8,2.9-3.4,5.7-3.4c4.1,0,6.5,2.9,6.5,7.4v15h-5.8V523c0-2.6-1.1-3.9-3.1-3.9
				c-1.9,0-3.2,1.3-3.2,3.9v13.3h-5.8L1853.8,514.3L1853.8,514.3z"/>
			<path class="st7" d="M1877.2,530.8v-11.6h-2.2v-4.9h2.2v-5.6h5.8v5.6h4.4v4.9h-4.4v10.4c0,1.3,0.6,1.9,1.8,1.9
				c0.9,0,1.8-0.2,2.5-0.6v4.6c-1.1,0.7-2.5,1.2-4.3,1.2C1879.6,536.7,1877.2,535.3,1877.2,530.8z"/>
			<path class="st7" d="M1891.7,507.5h9.6c6.4,0,10.5,3.7,10.5,9.9v0.1c0,6.6-4.7,9.9-10.8,10.1h-3.4v8.7h-6L1891.7,507.5
				L1891.7,507.5z M1901,522.2c3.1,0,4.8-1.9,4.8-4.6l0,0c0-3-1.7-4.6-4.9-4.6h-3.2v9.3h3.3V522.2L1901,522.2z"/>
			<path class="st7" d="M1915.2,514.3h5.8v3.9c1.1-2.7,2.8-4.4,6-4.3v6.3h-0.2c-3.6,0-5.7,2.2-5.7,6.8v9.2h-5.8L1915.2,514.3
				L1915.2,514.3z"/>
			<path class="st7" d="M1928.8,525.6v-0.5c0-6.5,4.4-11.3,10.4-11.3s10.3,4.6,10.3,11.2v0.5c0,6.5-4.4,11.3-10.4,11.3
				C1933.2,536.8,1928.8,532.1,1928.8,525.6z M1943.7,525.5v-0.3c0-3.6-1.8-6.3-4.6-6.3c-2.9,0-4.6,2.7-4.6,6.2v0.3
				c0,3.5,1.8,6.3,4.6,6.3C1942,531.7,1943.7,529.1,1943.7,525.5z"/>
			<path class="st7" d="M1950.5,542.4v-4.6c0.4,0,0.7,0.1,1,0.1c1.2,0,2.1-0.7,2.1-2.3v-21.3h5.8v21.8c0,4.5-2.3,6.5-6.5,6.5
				C1951.8,542.6,1951.3,542.5,1950.5,542.4z M1953.5,506.6h6.1v5.3h-6.1V506.6z"/>
			<path class="st7" d="M1963.4,525.5v-0.4c0-6.5,4.1-11.3,9.6-11.3c6.3,0,9.4,5.1,9.4,11.7c0,0.3,0,1,0,1.9h-13.1
				c0.5,2.9,2.3,4.4,4.8,4.4c1.8,0,3.2-0.8,4.6-2.2l3,3.5c-2,2.2-4.6,3.5-7.8,3.5C1967.9,536.8,1963.4,532.4,1963.4,525.5z
				 M1976.8,523.6c-0.2-3-1.6-4.9-3.7-4.9s-3.5,1.8-3.9,4.9H1976.8z"/>
			<path class="st7" d="M1985.4,525.6v-0.5c0-6.5,4.2-11.3,10.2-11.3c3.2,0,5.3,1.1,7.2,3l-3.2,4.2c-1.1-1.1-2.2-2-3.9-2
				c-2.7,0-4.5,2.5-4.5,6.1v0.2c0,3.7,1.7,6.2,4.6,6.2c1.7,0,2.8-0.8,4-2l3.1,3.9c-1.8,2-4,3.4-7.5,3.4
				C1989.5,536.8,1985.4,532.1,1985.4,525.6z"/>
			<path class="st7" d="M2007,530.8v-11.6h-2.2v-4.9h2.2v-5.6h5.8v5.6h4.4v4.9h-4.4v10.4c0,1.3,0.6,1.9,1.8,1.9
				c0.9,0,1.8-0.2,2.5-0.6v4.6c-1.1,0.7-2.5,1.2-4.3,1.2C2009.4,536.7,2007,535.3,2007,530.8z"/>
			<path class="st7" d="M2019.6,525.6v-0.5c0-6.5,4.4-11.3,10.4-11.3s10.3,4.6,10.3,11.2v0.5c0,6.5-4.4,11.3-10.4,11.3
				C2024,536.8,2019.6,532.1,2019.6,525.6z M2034.5,525.5v-0.3c0-3.6-1.8-6.3-4.6-6.3c-2.9,0-4.6,2.7-4.6,6.2v0.3
				c0,3.5,1.8,6.3,4.6,6.3C2032.8,531.7,2034.5,529.1,2034.5,525.5z"/>
			<path class="st7" d="M2044.1,514.3h5.8v3.9c1.1-2.7,2.8-4.4,6-4.3v6.3h-0.2c-3.6,0-5.7,2.2-5.7,6.8v9.2h-5.8v-21.9H2044.1z"/>
		</g>
		<g>
			<path class="st3" d="M1708.3,492.3c-5.2-5.1-10-10.3-14.3-15.4l3.3-2.8c4.2,5,8.9,10.1,14,15.1L1708.3,492.3z M1686.8,467.6
				c-4.9-6.8-9-13.6-12.1-20.3l3.9-1.8c3,6.4,7,13,11.7,19.6L1686.8,467.6z M1670.6,437.5c-2.9-8.4-4.4-16.6-4.4-24.6
				c0-2.2,0.1-4.3,0.3-6.4l4.3,0.4c-0.2,2-0.3,4-0.3,6c0,7.5,1.4,15.3,4.1,23.2L1670.6,437.5z M1673.3,395.4l-4.1-1.3
				c4.1-12.8,12.1-22.1,14.7-22.1v2.2l0.9,1.9C1683.9,376.6,1677.2,383.2,1673.3,395.4z"/>
		</g>
		<g>
			<path class="st3" d="M2098.7,523.2v-4.3c0.1,0,9.3,0,24.5-0.8l0.2,4.3C2108,523.2,2098.8,523.2,2098.7,523.2z M2135.6,521.6
				l-0.3-4.3c10.1-0.7,20.3-1.6,30.5-2.7l0.5,4.3C2156,520,2145.7,520.9,2135.6,521.6z M2176.6,517.7l-0.5-4.3
				c7.7-0.9,15.4-2,23-3.1l0.6,4.3C2192.2,515.7,2184.4,516.7,2176.6,517.7z M2211.3,512.7l-0.7-4.3c8.1-1.3,16.2-2.8,24-4.4
				l0.8,4.2C2227.6,509.9,2219.5,511.4,2211.3,512.7z M2247.5,505.8l-0.9-4.2c10.1-2.2,20.1-4.6,29.7-7.2l1.1,4.2
				C2267.8,501.2,2257.7,503.6,2247.5,505.8z M2287.5,495.8l-1.2-4.2c7.5-2.2,15-4.5,22.1-6.9l1.4,4.1
				C2302.6,491.2,2295.1,493.6,2287.5,495.8z M2320.8,484.9l-1.5-4.1c7.8-2.8,15.4-5.9,22.7-9l1.7,4
				C2336.4,479,2328.7,482,2320.8,484.9z M2355,470.8l-1.8-3.9c2.7-1.3,5.4-2.6,8.1-3.9l1.9,3.9
				C2360.5,468.2,2357.7,469.5,2355,470.8z"/>
		</g>
	</g>
	<g>
		<path class="st3" d="M2349.9,499.8c-0.3,0-0.6-0.1-0.9-0.2c-1.1-0.5-1.5-1.8-1-2.9l15.7-32.5l-30.4-19.5c-1-0.6-1.3-2-0.6-3
			c0.6-1,2-1.3,3-0.6l33.6,21.6l-17.3,35.9C2351.5,499.3,2350.7,499.8,2349.9,499.8z"/>
	</g>
</g>
<g>
	<path class="st9" d="M1927.6,282h4.7l-5.6,22.9h11.5l-1.1,4.3H1921L1927.6,282z"/>
	<path class="st9" d="M1946.1,288.5h4.6l-5.1,20.7h-4.6L1946.1,288.5z M1947.8,281.1h4.9l-1.2,4.5h-4.9L1947.8,281.1z"/>
	<path class="st9" d="M1955.8,288.5h4.6l-0.5,2.4c1.4-1.6,3-2.8,5.2-2.8c2.4,0,4.1,1.4,4.7,3.7c1.7-2.3,3.9-3.7,6.6-3.7
		c3.2,0,5.3,2.1,5.3,5.2c0,1.2-0.3,2.6-0.6,4.1l-2.9,11.8h-4.6l2.9-11.9c0.2-1,0.4-1.9,0.4-2.4c0-1.7-0.9-2.6-2.6-2.6
		c-2,0-3.8,1.8-4.4,4.4l-3.1,12.6h-4.6l2.9-11.9c0.2-1,0.4-1.9,0.4-2.4c0-1.7-1-2.6-2.6-2.6c-2.1,0-3.8,1.9-4.4,4.5l-3,12.4h-4.6
		L1955.8,288.5z"/>
	<path class="st9" d="M1988.2,288.5h4.6l-5.1,20.7h-4.6L1988.2,288.5z M1989.9,281.1h4.9l-1.2,4.5h-4.9L1989.9,281.1z"/>
	<path class="st9" d="M1994.8,305.6c0-0.8,0.2-1.7,0.4-2.5l2.6-10.7h-2.3l1-4h2.3l1.3-5.4h4.6l-1.3,5.4h4.3l-1,4h-4.2l-2.6,10.7
		c-0.1,0.4-0.1,0.8-0.1,1c0,0.8,0.6,1.2,1.6,1.2c0.8,0,1.7-0.2,2.5-0.6l-1,4c-0.9,0.5-2.2,0.7-3.5,0.7
		C1996.5,309.5,1994.8,308,1994.8,305.6z"/>
	<path class="st9" d="M2013.7,282h4.7l-2.8,11.4h10.1l2.7-11.4h4.7l-6.6,27.2h-4.7l2.8-11.5h-10.1l-2.8,11.5h-4.7L2013.7,282z"/>
	<path class="st9" d="M2037.2,288.5h4.6l-5.1,20.7h-4.6L2037.2,288.5z M2038.9,281.1h4.9l-1.2,4.5h-4.9L2038.9,281.1z"/>
	<path class="st9" d="M2043.8,305.6c0-0.8,0.2-1.7,0.4-2.5l2.6-10.7h-2.3l1-4h2.3l1.3-5.4h4.6l-1.3,5.4h4.3l-1,4h-4.2l-2.6,10.7
		c-0.1,0.4-0.1,0.8-0.1,1c0,0.8,0.6,1.2,1.6,1.2c0.8,0,1.7-0.2,2.5-0.6l-1,4c-0.9,0.5-2.2,0.7-3.5,0.7
		C2045.5,309.5,2043.8,308,2043.8,305.6z"/>
</g>
<g>
	<g>
		<g>
			<path class="st8" d="M1736-125.6l4.1,1.4c3.3-9.7,6.9-19.3,10.7-28.5l-4-1.7C1742.9-145.1,1739.3-135.4,1736-125.6z"/>
			<path class="st8" d="M1726.6-93.1l4.2,1.1c1.9-7.6,4-15.1,6.1-22.3l-4.1-1.3C1730.6-108.3,1728.5-100.7,1726.6-93.1z"/>
			<path class="st8" d="M1751.8-165.6l3.9,1.8c3.4-7.4,7-14.7,10.9-21.7l-3.8-2.1C1758.9-180.5,1755.2-173.1,1751.8-165.6z"/>
			<path class="st8" d="M1719.1-57.6l4.3,0.7c1.4-8,3-16.1,4.7-23.9l-4.2-0.9C1722.1-73.8,1720.5-65.7,1719.1-57.6z"/>
			<path class="st8" d="M1906-325.3l1.9,3.9c7.2-3.6,14.7-6.9,22.3-9.9l-1.6-4C1920.9-332.2,1913.3-328.9,1906-325.3z"/>
			<path class="st8" d="M2014.4-357.6l0.5,4.3c15-1.9,24.2-2,24.3-2v-4.3C2038.9-359.6,2029.7-359.5,2014.4-357.6z"/>
			<path class="st8" d="M1971.9-349.5l1.1,4.2c9.9-2.5,19.9-4.6,29.8-6.3l-0.7-4.3C1992.1-354.2,1981.9-352.1,1971.9-349.5z"/>
			<path class="st8" d="M1939.5-339.5l1.5,4.1c7.1-2.6,14.5-5,22-7.1l-1.2-4.2C1954.3-344.6,1946.8-342.1,1939.5-339.5z"/>
		</g>
		<g>
			<path class="st8" d="M1718.7-43l-22.8-45.6c-0.5-1.1-0.1-2.4,1-2.9s2.4-0.1,2.9,1l20.4,40.8l41.1-32.9c0.9-0.7,2.3-0.6,3,0.3
				s0.6,2.3-0.3,3L1718.7-43z"/>
		</g>
	</g>
	<g>
		<path class="st8" d="M1772-223.8l6.8-6c2.1-1.8,4.3-2.7,6.5-2.6c1.9,0.1,3.6,1.1,5.2,2.9l0.1,0.1c2.4,2.8,2.5,5.7,1.3,8.3l9.8,3.4
			l-4.3,3.8l-8.6-3.1l-2.4,2.1l5.2,6l-3.8,3.3L1772-223.8z M1786.3-220.6c1.9-1.7,2-3.7,0.6-5.3l0,0c-1.6-1.8-3.5-1.8-5.4-0.1
			l-2.7,2.4l4.8,5.5L1786.3-220.6z"/>
		<path class="st8" d="M1788.3-238l11.8-10.2l3,3.4l-8,7l3.4,3.9l7-6.1l3,3.4l-7,6.1l3.5,4.1l8.1-7.1l3,3.4l-11.8,10.3L1788.3-238z"
			/>
		<path class="st8" d="M1809.7-250.5l-4.6,4l-3-3.5l12.9-11.3l3,3.5l-4.6,4l12.8,14.7l-3.7,3.3L1809.7-250.5z"/>
		<path class="st8" d="M1817.5-263.5l6.9-6c2.1-1.8,4.3-2.7,6.5-2.6c1.8,0.1,3.6,1.1,5.2,2.9l0.1,0.1c2.4,2.8,2.5,5.7,1.3,8.3
			l9.8,3.4l-4.3,3.8l-8.6-3.1l-2.4,2.1l5.2,6l-3.8,3.3L1817.5-263.5z M1831.9-260.3c1.9-1.7,2-3.7,0.6-5.3l0,0
			c-1.6-1.8-3.5-1.8-5.4-0.1l-2.7,2.4l4.8,5.5L1831.9-260.3z"/>
		<path class="st8" d="M1834-277.8l3.8-3.3l15.9,18.2l-3.8,3.3L1834-277.8z"/>
		<path class="st8" d="M1841.6-284.4l11.8-10.2l3,3.4l-8,7l3.4,3.9l7-6.1l3,3.4l-7,6.1l3.5,4.1l8.1-7.1l3,3.4l-11.8,10.3
			L1841.6-284.4z"/>
		<path class="st8" d="M1855-296.1l4.1-3.6l14.8,9.2l-7.1-15.9l4-3.5l9.8,23.7l-3.5,3L1855-296.1z"/>
		<path class="st8" d="M1873.1-311.8l11.8-10.2l3,3.4l-8,7l3.4,3.9l7-6.1l3,3.4l-7,6.1l3.5,4.1l8.1-7.1l3,3.4l-11.9,10.3
			L1873.1-311.8z"/>
	</g>
</g>
<g>
	<g>
		<g>
			<path class="st8" d="M2121.6,354.1l-0.1,4.3c4.7,0.2,9.9,0.3,15.3,0.3c4.9,0,10.1-0.1,15.4-0.3l-0.1-4.3
				C2140.8,354.5,2130.5,354.4,2121.6,354.1z"/>
			<path class="st8" d="M2162.4,353.6l0.3,4.3c7.8-0.5,15.7-1.1,23.3-2l-0.5-4.3C2177.9,352.5,2170.1,353.1,2162.4,353.6z"/>
			<path class="st8" d="M2360.1,281.3c0.1-0.1,0.1-0.1,0.2-0.2l-0.6-0.6L2360.1,281.3z"/>
			<path class="st8" d="M2084.6,355.3c0.4,0.1,9.4,1.5,24.6,2.5l0.3-4.4c-15-1-24.1-2.4-24.2-2.4L2084.6,355.3z"/>
			<path class="st8" d="M2215.8,346.9c-6.2,1.2-12.5,2.2-18.8,3.2l0.6,4.3c6.9-0.9,13.6-2.1,20.2-3.5L2215.8,346.9z"/>
			<path class="st8" d="M2415.5,189.6c-3.1,8-6.6,15.9-10.3,23.3l3.9,1.9c3.8-7.6,7.3-15.5,10.4-23.6L2415.5,189.6z"/>
			<path class="st8" d="M2364.7,270.7l3.1,3c5.4-5.6,10.5-11.6,15.4-17.7l-3.4-2.7C2375,259.3,2370,265.2,2364.7,270.7z"/>
			<path class="st8" d="M2386.6,244.1l3.5,2.5c4.7-6.7,9.1-13.7,13.2-20.9l-3.8-2.1C2395.6,230.7,2391.2,237.6,2386.6,244.1z"/>
		</g>
		<g>
			<path class="st8" d="M2435.7,229.4c-0.9,0-1.7-0.5-2-1.4l-15.3-38.6l-40.8,22.9c-1.1,0.6-2.4,0.2-2.9-0.8c-0.6-1-0.2-2.4,0.8-2.9
				l45.1-25.3l17.1,43.2c0.4,1.1-0.1,2.4-1.2,2.8C2436.2,229.3,2435.9,229.4,2435.7,229.4z"/>
		</g>
	</g>
	<g>
		<path class="st8" d="M2237.8,335.2l7-3.9c4.7-2.7,9.2-1.6,11.8,2.9v0.1c2.7,4.9,0.6,9.2-3.8,11.8l-2.5,1.4l3.6,6.4l-4.4,2.5
			L2237.8,335.2z M2250.6,342.2c2.3-1.3,2.7-3.4,1.6-5.4l0,0c-1.2-2.2-3.2-2.7-5.5-1.4l-2.4,1.3l3.8,6.8L2250.6,342.2z"/>
		<path class="st8" d="M2255.4,325.4l13.6-7.6l2.2,3.9l-9.2,5.2l2.6,4.5l8.1-4.6l2.2,3.9l-8.1,4.6l2.6,4.7l9.4-5.3l2.2,3.9
			l-13.7,7.7L2255.4,325.4z"/>
		<path class="st8" d="M2272.5,315.7l7.9-4.4c2.4-1.4,4.8-1.8,6.9-1.2c1.8,0.5,3.4,1.8,4.5,3.9l0.1,0.1c1.8,3.2,1.3,6.1-0.4,8.4
			l8.9,5.3l-5,2.8l-7.8-4.7l-2.7,1.5l3.9,6.9l-4.4,2.5L2272.5,315.7z M2285.9,321.8c2.2-1.3,2.7-3.2,1.7-5.1l0,0
			c-1.2-2.1-3.1-2.4-5.3-1.2l-3.1,1.8l3.6,6.4L2285.9,321.8z"/>
		<path class="st8" d="M2300.1,324.2l0.8-4.7c2.1,0.4,4.5,0.6,6.6-0.6c1.7-0.9,2.2-2.4,1.5-3.6l0,0c-0.6-1.1-1.6-1.4-5.2-0.8
			c-4.6,0.6-7.7,0.5-9.7-3.1v-0.1c-2.1-3.7-0.6-7.8,3.4-10c2.5-1.4,5.4-1.9,8.3-1.2l-0.6,4.7c-1.9-0.3-4-0.4-5.6,0.6
			c-1.5,0.8-2,2.1-1.4,3.2l0,0c0.7,1.2,1.7,1.4,5.8,0.9c4.5-0.6,7.4-0.2,9.2,3.1v0.1c2.2,3.9,0.6,8-3.5,10.3
			C2307,324.5,2303.7,325.1,2300.1,324.2z"/>
		<path class="st8" d="M2308.1,295.7l4.4-2.5l11.8,21.1l-4.4,2.5L2308.1,295.7z"/>
		<path class="st8" d="M2325.6,309.9l0.8-4.7c2.1,0.4,4.5,0.6,6.6-0.6c1.7-0.9,2.2-2.4,1.5-3.6l0,0c-0.6-1.1-1.6-1.4-5.2-0.8
			c-4.6,0.7-7.7,0.5-9.7-3.1V297c-2.1-3.7-0.6-7.8,3.4-10c2.5-1.4,5.4-1.9,8.3-1.2l-0.6,4.7c-1.9-0.3-4-0.4-5.6,0.6
			c-1.5,0.8-2,2.1-1.4,3.2l0,0c0.7,1.2,1.7,1.4,5.8,0.9c4.5-0.6,7.4-0.2,9.2,3.1v0.1c2.2,3.9,0.6,8-3.5,10.3
			C2332.5,310.2,2329.1,310.8,2325.6,309.9z"/>
		<path class="st8" d="M2339.3,283.6l-5.3,3l-2.3-4l14.9-8.4l2.3,4l-5.3,3l9.6,17.1l-4.3,2.4L2339.3,283.6z"/>
	</g>
</g>
</svg>
