<?xml version="1.0" encoding="utf-8"?>
<!-- Generator: Adobe Illustrator 19.1.0, SVG Export Plug-In . SVG Version: 6.00 Build 0)  -->
<svg version="1.1" id="_x30_6" xmlns="http://www.w3.org/2000/svg" xmlns:xlink="http://www.w3.org/1999/xlink" x="0px" y="0px"
	 viewBox="904 -554.1 2048 1348.1" style="enable-background:new 904 -554.1 2048 1348.1;" xml:space="preserve">
<style type="text/css">
	.st0{fill:#FFFFFF;}
	.st1{opacity:0.5;}
	.st2{fill:#DEE1E0;}
	.st3{fill:#197593;}
	.st4{opacity:0.25;}
	.st5{fill:#CAE1E8;}
	.st6{opacity:0.75;}
	.st7{fill:#004966;}
	.st8{fill:#D6902D;}
	.st9{fill:#0A9181;}
	.st10{fill:#E6F4F2;}
	.st11{fill:#DD9099;}
	.st12{fill:#94631E;}
	.st13{opacity:0.1;}
</style>
<g>
	<g>
		<path class="st0" d="M2818.3-194.2c-24.8,0-49.7-5.4-72.2-16.6c-4.2-2.1-8.9-4.7-11.7-9.1c-3.1-5-3-11.1-2.9-16l1.9-252.8
			c-0.9-28.2,195.2-71.1,199.9,4.8c10.1,76,4.1,162-1.2,237.8l-0.6,8.5l-0.4,0.4C2900.5-209.1,2859.4-194.2,2818.3-194.2z"/>
	</g>
</g>
<g>
	<g class="st1">
		<path class="st2" d="M2024.1-127.1l36.6,162.3c0,0,7.5,20.1,31.2,21c24,0.8,746.8-0.8,746.8-0.8s58.9-1,45.6-17.3
			c-13.1-16.1-124.9-199-124.9-199s-12.5-18.2-50-17.1c-35.8,1-629.9,31.6-659.4,32.6C2028.4-144.6,2023.5-136.9,2024.1-127.1z"/>
	</g>
	<g>
		<g>
			<g>
				<path class="st3" d="M2821.2-448.4c-21.5,0-46.3-3.4-65.3-18c-8.8-6.7-17.6-18.7-13.5-30.5c4.3-12.5,44.7-20.4,53.1-21.1l0,0
					c72.2-6.4,117.7-0.3,131.6,17.8c5.2,6.8,6.1,15.2,2.6,25c-4.3,12-20.1,15.4-28.6,17.2c-19.7,4.3-40,7.2-60.1,8.8
					C2834.9-448.8,2828.2-448.4,2821.2-448.4z M2795.6-515.1c-13.5,1.2-47.4,9.9-50.6,19.2c-3.5,10.3,4.6,21.2,12.6,27.3
					c24.5,18.7,59.1,18.4,83.1,16.6c20-1.5,40.1-4.5,59.7-8.7c11-2.4,23.1-5.7,26.5-15.4c3.2-9,2.5-16.2-2.2-22.3
					C2915.5-510.5,2885.6-523.1,2795.6-515.1L2795.6-515.1z"/>
			</g>
		</g>
		<g class="st4">
			<g>
				<path class="st5" d="M2791-523.6c-12.1,1.1-51.2,10.5-55,23.1c-3.8,12.5,4.6,25.9,14.2,34c24.9,21.1,58.7,23,89.7,20.6
					c21.4-1.6,42.8-4.9,63.8-9.7c11.5-2.6,25.3-6.6,29.2-18.9C2952.7-536.9,2823.5-526.5,2791-523.6z"/>
			</g>
		</g>
		<g>
			<g>
				<path class="st3" d="M2819.8-194.8c-24.6,0-49.1-5.4-71.4-16.4c-4.2-2.1-8.8-4.6-11.6-9c-3-4.9-3-10.9-2.9-15.8l1.9-249.9
					c0-0.8,0.6-1.4,1.4-1.4l0,0c0.8,0,1.4,0.6,1.4,1.4l-1.9,249.9c0,4.5-0.1,10.1,2.5,14.3c2.3,3.8,6.6,6.1,10.4,8
					c57,28.3,132.3,17.6,179.3-25.3l0.5-7.3c5.2-74.8,11.2-159.6,1.2-234.5c-0.1-0.8,0.4-1.5,1.2-1.6c0.8-0.1,1.5,0.4,1.6,1.2
					c10,75.2,4.1,160.2-1.2,235.1l-0.6,8.4l-0.4,0.4C2901-209.5,2860.4-194.8,2819.8-194.8z"/>
			</g>
		</g>
		<g class="st4">
			<g>
				<path class="st5" d="M2909.2-445.8c-21,4.8-42.3,8-63.8,9.7c-31.1,2.4-64.8,0.5-89.7-20.6c-5.3-4.5-10.2-10.6-12.9-17.2
					c-0.6,82.5-1.3,165.1-1.9,247.6c0,5.2,0,10.7,2.7,15c2.5,4,6.8,6.4,11,8.5c58.1,28.8,110.9,11.1,158.6-32.8
					C2918.5-311.5,2920.7-448.4,2909.2-445.8z"/>
			</g>
		</g>
	</g>
	<g>
		<g>
			<path class="st0" d="M2871.9,48.9h-794.7c-2.5,0-4.6-2.1-4.6-4.6v-509.8c0-2.5,2.1-4.6,4.6-4.6h794.7c2.5,0,4.6,2.1,4.6,4.6V44.2
				C2876.5,46.8,2874.4,48.9,2871.9,48.9z"/>
		</g>
		<g>
			<path class="st3" d="M2857.9,50.8h-766.6c-11.4,0-20.7-8.8-20.7-19.5v-483.8c0-10.8,9.3-19.5,20.7-19.5h766.6
				c11.4,0,20.7,8.8,20.7,19.5V31.2C2878.5,42,2869.3,50.8,2857.9,50.8z M2091.3-468.2c-9.2,0-16.7,7.1-16.7,15.7V31.2
				c0,8.7,7.5,15.7,16.7,15.7h766.6c9.2,0,16.7-7.1,16.7-15.7v-483.7c0-8.7-7.5-15.7-16.7-15.7H2091.3z"/>
		</g>
	</g>
	<g class="st1">
		<path class="st5" d="M2845.2-463.4h-745.6c-8.9,0-16.1,7.4-16.1,16.4v117.5h777.7v-117.4C2861.3-456,2854.1-463.4,2845.2-463.4z"
			/>
	</g>
	<g class="st6">
		<g>
			<path class="st7" d="M2323-418.6l3-3.8c2.3,2,4.8,3.6,8,3.6c2.9,0,4.8-1.6,4.8-3.9l0,0c0-1.9-1-3.2-5.8-5
				c-5.8-2.2-8.8-4.3-8.8-9.2v-0.1c0-5,4-8.5,9.7-8.5c3.5,0,6.8,1.1,9.6,3.6l-2.9,3.9c-2.1-1.7-4.4-2.9-6.8-2.9
				c-2.7,0-4.4,1.5-4.4,3.5l0,0c0,2.1,1.1,3.3,6.3,5.3c5.7,2.2,8.3,4.5,8.3,9v0.1c0,5.4-4.2,8.8-9.9,8.8
				C2330.1-414.2,2326.3-415.6,2323-418.6z"/>
			<path class="st7" d="M2354.5-440.4h-8v-4.7h21.1v4.7h-8v25.8h-5L2354.5-440.4L2354.5-440.4z"/>
			<path class="st7" d="M2369.8-429.6v-0.4c0-9.1,5.6-15.5,13.5-15.5s13.4,6.4,13.4,15.4v0.4c0,9.1-5.6,15.5-13.5,15.5
				C2375.3-414.2,2369.8-420.6,2369.8-429.6z M2391.5-429.7v-0.3c0-6.5-3.5-10.9-8.3-10.9s-8.2,4.3-8.2,10.9v0.3
				c0,6.5,3.5,10.9,8.3,10.9S2391.5-423.1,2391.5-429.7z"/>
			<path class="st7" d="M2402.2-445.1h11c3.5,0,6.3,1,8.1,2.9c1.6,1.6,2.5,3.9,2.5,6.7v0.2c0,4.7-2.6,7.6-6.3,8.9l7.2,11.8h-5.8
				l-6.5-10.8c-0.1,0-0.2,0-0.3,0h-4.9v10.7h-5L2402.2-445.1L2402.2-445.1z M2412.7-429.9c3.9,0,6.1-2.1,6.1-5.3v-0.1
				c0-3.4-2.2-5.2-6-5.2h-5.5v10.6H2412.7z"/>
			<path class="st7" d="M2429.4-445.1h19.2v4.6h-14.2v8.3h12.6v4.6h-12.6v8.5h14.4v4.6h-19.4V-445.1z"/>
			<path class="st7" d="M2454.1-445.1h9.3c8.7,0,14.4,6.1,14.4,15v0.3c0,8.9-5.7,15.1-14.4,15.1h-9.3V-445.1z M2459.1-440.5v21.3
				h4.2c5.6,0,9.3-4,9.3-10.5v-0.3c0-6.6-3.7-10.6-9.3-10.6h-4.2V-440.5z"/>
			<path class="st7" d="M2494.5-445.1h19.2v4.6h-14.2v8.3h12.6v4.6h-12.6v8.5h14.4v4.6h-19.4V-445.1z"/>
			<path class="st7" d="M2517-445.1h5.5l7.5,23l7.5-23h5.3l-10.5,30.6h-4.7L2517-445.1z"/>
			<path class="st7" d="M2547.1-445.1h19.2v4.6h-14.2v8.3h12.6v4.6h-12.6v8.5h14.4v4.6h-19.4V-445.1z"/>
			<path class="st7" d="M2571.8-445.1h4.7l13.4,20.3v-20.3h4.9v30.5h-4.3l-13.8-20.9v20.9h-5v-30.5H2571.8z"/>
			<path class="st7" d="M2607.5-440.4h-8v-4.7h21.1v4.7h-8v25.8h-5L2607.5-440.4L2607.5-440.4z"/>
			<path class="st7" d="M2622.6-418.6l3-3.8c2.3,2,4.8,3.6,8,3.6c2.9,0,4.8-1.6,4.8-3.9l0,0c0-1.9-1-3.2-5.8-5
				c-5.8-2.2-8.8-4.3-8.8-9.2v-0.1c0-5,4-8.5,9.7-8.5c3.5,0,6.8,1.1,9.6,3.6l-2.9,3.9c-2.1-1.7-4.4-2.9-6.8-2.9
				c-2.7,0-4.4,1.5-4.4,3.5l0,0c0,2.1,1.1,3.3,6.3,5.3c5.7,2.2,8.3,4.5,8.3,9v0.1c0,5.4-4.2,8.8-9.9,8.8
				C2629.7-414.2,2625.9-415.6,2622.6-418.6z"/>
		</g>
	</g>
	<g class="st1">
		<rect x="2087.9" y="-398.6" class="st0" width="769.1" height="4.3"/>
	</g>
	<g class="st1">
		<rect x="2087.9" y="-247.3" class="st3" width="773.4" height="4.3"/>
	</g>
	<g class="st1">
		<rect x="2087.9" y="-173.9" class="st3" width="773.4" height="4.3"/>
	</g>
	<g class="st1">
		<rect x="2087.9" y="-100.4" class="st3" width="773.4" height="4.3"/>
	</g>
	<g class="st1">
		<rect x="2087.9" y="-27" class="st3" width="773.4" height="4.3"/>
	</g>
	<g>
		<g>
			<path d="M2107.3-292.5h3.4l7.8,21.3h-3.7l-1.8-5h-8.2l-1.8,5h-3.5L2107.3-292.5z M2112-279.3l-3-8.5l-3,8.5H2112z"/>
			<path d="M2121.5-292.4h7.6c2.3,0,4.2,0.6,5.4,1.8c0.9,0.9,1.4,2.1,1.4,3.6v0.1c0,2.6-1.5,4-3.1,4.8c2.3,0.8,4,2.2,4,5.1v0.1
				c0,3.7-3,5.8-7.5,5.8h-7.8V-292.4z M2132.4-286.4c0-1.8-1.3-2.8-3.6-2.8h-3.9v5.9h3.7C2130.9-283.4,2132.4-284.4,2132.4-286.4
				L2132.4-286.4z M2129.2-280.4h-4.3v6.1h4.4c2.4,0,3.9-1.1,3.9-3v-0.1C2133.3-279.2,2131.9-280.4,2129.2-280.4z"/>
			<path d="M2139.5-281.7v-0.2c0-6.4,4-10.8,9.5-10.8c3,0,4.9,1.1,6.7,2.6l-2.1,2.7c-1.2-1.1-2.6-2.1-4.5-2.1c-3.3,0-5.8,3-5.8,7.5
				v0.1c0,4.6,2.5,7.6,5.8,7.6c2,0,3.4-0.9,4.7-2.2l2.1,2.5c-1.8,1.9-4,3-6.9,3C2143.4-270.9,2139.5-275.2,2139.5-281.7z"/>
			<path d="M2157.6-282.1h8.4v3.4h-8.4V-282.1z"/>
			<path d="M2171.2-288.9l-3.3,1l-0.6-3l4.9-1.6h2.5v21.3h-3.5V-288.9z"/>
			<path d="M2178.4-274l6.5-6.9c2.4-2.5,3.3-3.8,3.3-5.5c0-1.9-1.4-3-3.1-3s-2.8,0.9-4.2,2.7l-2.3-2.1c1.8-2.4,3.8-3.8,6.9-3.8
				c3.7,0,6.4,2.3,6.4,6v0.1c0,2.9-1.3,4.6-4.4,7.7l-4.2,4.6h8.7v3.2h-13.4v-3L2178.4-274L2178.4-274z"/>
			<path d="M2194.2-273.8l2.2-2.5c1.1,1.3,2.5,2.2,4.6,2.2c2,0,3.5-1.3,3.5-3.4v-0.1c0-2.2-1.9-3.4-4.8-3.4h-1.1l-0.5-2.2l5.1-6.1
				h-8v-3.1h12.4v2.8l-5.4,6.1c2.9,0.5,5.6,2.2,5.6,5.9v0.1c0,4-2.9,6.7-6.9,6.7C2198-270.9,2195.8-272,2194.2-273.8z"/>
		</g>
		<g>
			<path d="M2308.5-292.4h3.7l5.4,9.7l5.4-9.7h3.7v21.2h-3.5v-15l-5.6,9.8h-0.1l-5.6-9.7v14.9h-3.4V-292.4z"/>
			<path d="M2330.2-279v-0.3c0-4.7,3.1-8.2,7.4-8.2c4.2,0,7.4,3.5,7.4,8.2v0.3c0,4.7-3.1,8.2-7.4,8.2
				C2333.3-270.9,2330.2-274.3,2330.2-279z M2341.6-279.1v-0.2c0-3-1.7-5.2-4-5.2c-2.4,0-3.9,2.2-3.9,5.2v0.2c0,3,1.7,5.3,4,5.3
				S2341.6-276.1,2341.6-279.1z"/>
			<path d="M2348.1-287.2h3.4v2.4c0.9-1.4,2.2-2.7,4.4-2.7c3.1,0,4.9,2.2,4.9,5.6v10.7h-3.4v-9.8c0-2.2-1.1-3.5-2.9-3.5
				s-3,1.3-3,3.5v9.7h-3.4V-287.2z"/>
			<path d="M2363.8-279v-0.2c0-4.8,2.9-8.3,6.8-8.3c4.4,0,6.7,3.6,6.7,8.4c0,0.2,0,0.7,0,1.2h-10c0.3,2.7,2,4.1,4.1,4.1
				c1.5,0,2.6-0.7,3.7-1.7l1.8,2.1c-1.5,1.5-3.2,2.5-5.6,2.5C2367.1-270.9,2363.8-274,2363.8-279z M2374-280.3
				c-0.2-2.5-1.3-4.4-3.3-4.4c-1.9,0-3.2,1.7-3.5,4.4H2374z"/>
			<path d="M2389.3-287.2h3.5l-5.4,16.3c-1.1,3.2-2.4,4.4-4.7,4.4c-1.2,0-2.2-0.3-3.2-0.8l1-2.6c0.5,0.3,1.2,0.5,1.8,0.5
				c0.9,0,1.5-0.4,1.9-1.7l-5.7-16.1h3.6l3.7,11.6L2389.3-287.2z"/>
			<path d="M2394.4-274l2.1-2.6c1.6,1.4,3.3,2.5,5.6,2.5c2,0,3.3-1.1,3.3-2.7l0,0c0-1.3-0.7-2.2-4.1-3.4c-4-1.5-6.1-3-6.1-6.4v-0.1
				c0-3.5,2.8-5.9,6.7-5.9c2.5,0,4.7,0.8,6.7,2.5l-2,2.7c-1.5-1.2-3.1-2-4.8-2c-1.9,0-3.1,1.1-3.1,2.5l0,0c0,1.5,0.8,2.3,4.4,3.7
				c3.9,1.5,5.8,3.1,5.8,6.2v0.1c0,3.7-2.9,6.1-6.9,6.1C2399.3-270.9,2396.7-271.9,2394.4-274z"/>
			<path d="M2412-276.5v-10.7h3.4v9.8c0,2.2,1.1,3.5,2.8,3.5c1.8,0,3-1.3,3-3.5v-9.7h3.5v16h-3.5v-2.3c-0.9,1.4-2.2,2.6-4.4,2.6
				C2413.8-270.9,2412-273,2412-276.5z"/>
			<path d="M2432-273.6v2.4h-3.4V-293h3.4v8.4c1-1.5,2.4-2.9,4.7-2.9c3.2,0,6.2,2.7,6.2,8.1v0.4c0,5.4-3,8.1-6.2,8.1
				C2434.4-270.9,2433-272.2,2432-273.6z M2439.5-279.1v-0.3c0-3.2-1.7-5.2-3.7-5.2c-2.1,0-3.8,2-3.8,5.1v0.3c0,3.1,1.8,5.1,3.8,5.1
				C2437.9-273.9,2439.5-275.8,2439.5-279.1z"/>
			<path d="M2446.8-275.1v-9.2h-1.8v-2.9h1.8v-4.3h3.4v4.3h3.6v2.9h-3.6v8.5c0,1.2,0.6,1.8,1.7,1.8c0.7,0,1.3-0.2,1.8-0.5v2.8
				c-0.8,0.4-1.7,0.7-2.8,0.7C2448.6-270.9,2446.8-271.9,2446.8-275.1z"/>
			<path d="M2456.9-287.2h3.4v3.1c0.8-2.1,2.4-3.5,4.8-3.4v3.7h-0.2c-2.8,0-4.7,1.8-4.7,5.5v7.1h-3.4L2456.9-287.2L2456.9-287.2z"/>
			<path d="M2466.3-275.8v-0.2c0-3.4,2.3-5.1,5.7-5.1c1.5,0,2.6,0.3,3.7,0.6v-0.6c0-2.1-1.3-3.3-3.4-3.3c-1.5,0-2.8,0.5-3.9,1
				l-1-2.7c1.5-0.8,3.1-1.3,5.3-1.3c2.1,0,3.7,0.6,4.7,1.6c1.1,1.1,1.6,2.6,1.6,4.6v10h-3.4v-2c-0.9,1.4-2.4,2.3-4.4,2.3
				C2468.5-270.9,2466.3-272.7,2466.3-275.8z M2475.7-276.6v-1.6c-0.8-0.3-1.8-0.6-3-0.6c-2,0-3.1,1-3.1,2.7v0.1
				c0,1.6,1.1,2.5,2.6,2.5C2474.2-273.4,2475.7-274.8,2475.7-276.6z"/>
			<path d="M2481.9-279v-0.3c0-4.8,3.1-8.2,7.3-8.2c2.3,0,3.8,0.8,5.1,2.2l-1.9,2.5c-0.8-0.9-1.8-1.6-3.2-1.6
				c-2.2,0-3.9,2.1-3.9,5.2v0.2c0,3.1,1.6,5.2,4,5.2c1.4,0,2.3-0.7,3.3-1.6l1.8,2.3c-1.3,1.4-2.9,2.4-5.3,2.4
				C2484.9-270.9,2481.9-274.2,2481.9-279z"/>
			<path d="M2497.8-275.1v-9.2h-1.8v-2.9h1.8v-4.3h3.4v4.3h3.6v2.9h-3.6v8.5c0,1.2,0.6,1.8,1.7,1.8c0.7,0,1.3-0.2,1.8-0.5v2.8
				c-0.8,0.4-1.7,0.7-2.8,0.7C2499.6-270.9,2497.8-271.9,2497.8-275.1z"/>
			<path d="M2506.8-279v-0.2c0-4.8,2.9-8.3,6.8-8.3c4.4,0,6.7,3.6,6.7,8.4c0,0.2,0,0.7,0,1.2h-10c0.3,2.7,2,4.1,4.1,4.1
				c1.5,0,2.6-0.7,3.7-1.7l1.8,2.1c-1.5,1.5-3.2,2.5-5.6,2.5C2510-270.9,2506.8-274,2506.8-279z M2516.9-280.3
				c-0.2-2.5-1.3-4.4-3.3-4.4c-1.9,0-3.2,1.7-3.5,4.4H2516.9z"/>
			<path d="M2522.7-279v-0.4c0-5.4,3-8.1,6.2-8.1c2.3,0,3.7,1.3,4.7,2.7v-8.2h3.4v21.8h-3.4v-2.6c-1,1.5-2.4,2.9-4.7,2.9
				C2525.7-270.9,2522.7-273.6,2522.7-279z M2533.7-279.1v-0.3c0-3.1-1.8-5.1-3.8-5.1c-2.1,0-3.7,1.9-3.7,5.2v0.2
				c0,3.2,1.7,5.2,3.7,5.2S2533.7-275.9,2533.7-279.1z"/>
		</g>
		<g>
			<path d="M2600.3-288.9l-3.3,1l-0.6-3l4.9-1.6h2.5v21.3h-3.5V-288.9z"/>
			<path d="M2607.8-281.6v-0.3c0-6.4,3.1-10.8,8.1-10.8c4.8,0,8,4.3,8,10.7v0.3c0,6.4-3.1,10.8-8.1,10.8S2607.8-275.2,2607.8-281.6z
				 M2620.2-281.6v-0.2c0-4.7-1.8-7.6-4.4-7.6c-2.6,0-4.4,2.8-4.4,7.6v0.2c0,4.8,1.8,7.6,4.5,7.6
				C2618.4-274.1,2620.2-276.9,2620.2-281.6z"/>
			<path d="M2626.7-281.6v-0.3c0-6.4,3.1-10.8,8.1-10.8c4.8,0,8,4.3,8,10.7v0.3c0,6.4-3.1,10.8-8.1,10.8S2626.7-275.2,2626.7-281.6z
				 M2639.2-281.6v-0.2c0-4.7-1.8-7.6-4.4-7.6c-2.6,0-4.4,2.8-4.4,7.6v0.2c0,4.8,1.8,7.6,4.5,7.6
				C2637.4-274.1,2639.2-276.9,2639.2-281.6z"/>
			<path d="M2645.7-281.6v-0.3c0-6.4,3.1-10.8,8.1-10.8c4.8,0,8,4.3,8,10.7v0.3c0,6.4-3.1,10.8-8.1,10.8S2645.7-275.2,2645.7-281.6z
				 M2658.1-281.6v-0.2c0-4.7-1.8-7.6-4.4-7.6s-4.4,2.8-4.4,7.6v0.2c0,4.8,1.8,7.6,4.5,7.6C2656.4-274.1,2658.1-276.9,2658.1-281.6z
				"/>
		</g>
		<g>
			<path d="M2606.5-202.3h-9.4l-0.5-2.5l10.1-14.2h3.1v13.8h2.6v2.9h-2.6v4.6h-3.3V-202.3L2606.5-202.3z M2606.5-205.3v-8.5l-6,8.5
				H2606.5z"/>
			<path d="M2614.9-203.5L2614.9-203.5c0-2.7,1.4-4.3,3.4-5.3c-1.6-0.9-2.8-2.4-2.8-4.7v-0.1c0-3.3,2.8-5.7,6.6-5.7
				c3.8,0,6.6,2.4,6.6,5.7v0.1c0,2.3-1.2,3.8-2.8,4.7c2.1,1,3.5,2.5,3.5,5.1v0.1c0,3.7-3.1,6.1-7.2,6.1
				C2617.9-197.4,2614.9-199.8,2614.9-203.5z M2625.8-203.7L2625.8-203.7c0-2.1-1.6-3.4-3.8-3.4c-2.1,0-3.8,1.3-3.8,3.4v0.1
				c0,1.9,1.5,3.3,3.8,3.3C2624.4-200.4,2625.8-201.8,2625.8-203.7z M2625.3-213.2L2625.3-213.2c0-1.8-1.4-3.1-3.2-3.1
				c-1.9,0-3.2,1.2-3.2,3.1v0.1c0,1.9,1.4,3.2,3.2,3.2C2623.9-210,2625.3-211.3,2625.3-213.2z"/>
			<path d="M2631.9-208.1v-0.3c0-6.4,3.1-10.8,8.1-10.8c4.8,0,8,4.3,8,10.7v0.3c0,6.4-3.1,10.8-8.1,10.8S2631.9-201.7,2631.9-208.1z
				 M2644.4-208.2v-0.2c0-4.7-1.8-7.6-4.4-7.6s-4.4,2.8-4.4,7.6v0.2c0,4.8,1.8,7.6,4.5,7.6C2642.6-200.6,2644.4-203.5,2644.4-208.2z
				"/>
			<path d="M2650.9-208.1v-0.3c0-6.4,3.1-10.8,8.1-10.8c4.8,0,8,4.3,8,10.7v0.3c0,6.4-3.1,10.8-8.1,10.8S2650.9-201.7,2650.9-208.1z
				 M2663.3-208.2v-0.2c0-4.7-1.8-7.6-4.4-7.6c-2.6,0-4.4,2.8-4.4,7.6v0.2c0,4.8,1.8,7.6,4.5,7.6
				C2661.6-200.6,2663.3-203.5,2663.3-208.2z"/>
		</g>
		<g>
			<path d="M2606.5-128.9h-9.4l-0.5-2.5l10.1-14.2h3.1v13.8h2.6v2.9h-2.6v4.6h-3.3V-128.9L2606.5-128.9z M2606.5-131.8v-8.5l-6,8.5
				H2606.5z"/>
			<path d="M2614.9-130L2614.9-130c0-2.7,1.4-4.3,3.4-5.3c-1.6-0.9-2.8-2.4-2.8-4.7v-0.1c0-3.3,2.8-5.7,6.6-5.7
				c3.8,0,6.6,2.4,6.6,5.7v0.1c0,2.3-1.2,3.8-2.8,4.7c2.1,1,3.5,2.5,3.5,5.1v0.1c0,3.7-3.1,6.1-7.2,6.1
				C2617.9-124,2614.9-126.4,2614.9-130z M2625.8-130.2L2625.8-130.2c0-2.1-1.6-3.4-3.8-3.4c-2.1,0-3.8,1.3-3.8,3.4v0.1
				c0,1.9,1.5,3.3,3.8,3.3C2624.4-126.9,2625.8-128.3,2625.8-130.2z M2625.3-139.7L2625.3-139.7c0-1.8-1.4-3.1-3.2-3.1
				c-1.9,0-3.2,1.2-3.2,3.1v0.1c0,1.9,1.4,3.2,3.2,3.2C2623.9-136.5,2625.3-137.8,2625.3-139.7z"/>
			<path d="M2631.9-134.7v-0.3c0-6.4,3.1-10.8,8.1-10.8c4.8,0,8,4.3,8,10.7v0.3c0,6.4-3.1,10.8-8.1,10.8S2631.9-128.2,2631.9-134.7z
				 M2644.4-134.7v-0.2c0-4.7-1.8-7.6-4.4-7.6s-4.4,2.8-4.4,7.6v0.2c0,4.8,1.8,7.6,4.5,7.6C2642.6-127.2,2644.4-130,2644.4-134.7z"
				/>
			<path d="M2650.9-134.7v-0.3c0-6.4,3.1-10.8,8.1-10.8c4.8,0,8,4.3,8,10.7v0.3c0,6.4-3.1,10.8-8.1,10.8S2650.9-128.2,2650.9-134.7z
				 M2663.3-134.7v-0.2c0-4.7-1.8-7.6-4.4-7.6c-2.6,0-4.4,2.8-4.4,7.6v0.2c0,4.8,1.8,7.6,4.5,7.6
				C2661.6-127.2,2663.3-130,2663.3-134.7z"/>
		</g>
		<g>
			<path d="M2606.5-55.4h-9.4l-0.5-2.5l10.1-14.2h3.1v13.8h2.6v2.9h-2.6v4.6h-3.3V-55.4L2606.5-55.4z M2606.5-58.4v-8.5l-6,8.5
				H2606.5z"/>
			<path d="M2614.9-56.6L2614.9-56.6c0-2.7,1.4-4.3,3.4-5.3c-1.6-0.9-2.8-2.4-2.8-4.7v-0.1c0-3.3,2.8-5.7,6.6-5.7
				c3.8,0,6.6,2.4,6.6,5.7v0.1c0,2.3-1.2,3.8-2.8,4.7c2.1,1,3.5,2.5,3.5,5.1v0.1c0,3.7-3.1,6.1-7.2,6.1
				C2617.9-50.5,2614.9-52.9,2614.9-56.6z M2625.8-56.8L2625.8-56.8c0-2.1-1.6-3.4-3.8-3.4c-2.1,0-3.8,1.3-3.8,3.4v0.1
				c0,1.9,1.5,3.3,3.8,3.3C2624.4-53.5,2625.8-54.9,2625.8-56.8z M2625.3-66.3L2625.3-66.3c0-1.8-1.4-3.1-3.2-3.1
				c-1.9,0-3.2,1.2-3.2,3.1v0.1c0,1.9,1.4,3.2,3.2,3.2C2623.9-63.1,2625.3-64.4,2625.3-66.3z"/>
			<path d="M2631.9-61.2v-0.3c0-6.4,3.1-10.8,8.1-10.8c4.8,0,8,4.3,8,10.7v0.3c0,6.4-3.1,10.8-8.1,10.8S2631.9-54.8,2631.9-61.2z
				 M2644.4-61.3v-0.2c0-4.7-1.8-7.6-4.4-7.6s-4.4,2.8-4.4,7.6v0.2c0,4.8,1.8,7.6,4.5,7.6C2642.6-53.7,2644.4-56.6,2644.4-61.3z"/>
			<path d="M2650.9-61.2v-0.3c0-6.4,3.1-10.8,8.1-10.8c4.8,0,8,4.3,8,10.7v0.3c0,6.4-3.1,10.8-8.1,10.8S2650.9-54.8,2650.9-61.2z
				 M2663.3-61.3v-0.2c0-4.7-1.8-7.6-4.4-7.6c-2.6,0-4.4,2.8-4.4,7.6v0.2c0,4.8,1.8,7.6,4.5,7.6
				C2661.6-53.7,2663.3-56.6,2663.3-61.3z"/>
		</g>
		<g>
			<path d="M2735.7-288.9l-3.3,1l-0.6-3l4.9-1.6h2.5v21.3h-3.5V-288.9z"/>
			<path d="M2746.3-288.9l-3.3,1l-0.6-3l4.9-1.6h2.5v21.3h-3.5V-288.9z"/>
			<path d="M2754.2-287.2h3.9v4h-3.9V-287.2z M2754.2-275.2h3.9v4h-3.9V-275.2z"/>
			<path d="M2764.6-288.9l-3.3,1l-0.6-3l4.9-1.6h2.5v21.3h-3.5V-288.9z"/>
			<path d="M2771.8-274l6.5-6.9c2.4-2.5,3.3-3.8,3.3-5.5c0-1.9-1.4-3-3.1-3c-1.7,0-2.8,0.9-4.2,2.7l-2.3-2.1
				c1.8-2.4,3.8-3.8,6.9-3.8c3.7,0,6.4,2.3,6.4,6v0.1c0,2.9-1.3,4.6-4.4,7.7l-4.2,4.6h8.7v3.2H2772v-3L2771.8-274L2771.8-274z"/>
			<path d="M2803-292.5h3.4l7.8,21.3h-3.7l-1.8-5h-8.2l-1.8,5h-3.5L2803-292.5z M2807.7-279.3l-3-8.5l-3,8.5H2807.7z"/>
			<path d="M2817.2-292.4h3.7l5.4,9.7l5.4-9.7h3.7v21.2h-3.5v-15l-5.6,9.8h-0.1l-5.6-9.7v14.9h-3.4V-292.4z"/>
		</g>
	</g>
	<g>
		<g>
			<path d="M2107.3-219h3.4l7.8,21.3h-3.7l-1.8-5h-8.2l-1.8,5h-3.5L2107.3-219z M2112-205.8l-3-8.5l-3,8.5H2112z"/>
			<path d="M2121.5-218.9h7.6c2.3,0,4.2,0.6,5.4,1.8c0.9,0.9,1.4,2.1,1.4,3.6v0.1c0,2.6-1.5,4-3.1,4.8c2.3,0.8,4,2.2,4,5.1v0.1
				c0,3.7-3,5.8-7.5,5.8h-7.8V-218.9z M2132.4-213c0-1.8-1.3-2.8-3.6-2.8h-3.9v5.9h3.7C2130.9-209.9,2132.4-210.9,2132.4-213
				L2132.4-213z M2129.2-206.9h-4.3v6.1h4.4c2.4,0,3.9-1.1,3.9-3v-0.1C2133.3-205.8,2131.9-206.9,2129.2-206.9z"/>
			<path d="M2139.5-208.2v-0.2c0-6.4,4-10.8,9.5-10.8c3,0,4.9,1.1,6.7,2.6l-2.1,2.7c-1.2-1.1-2.6-2.1-4.5-2.1c-3.3,0-5.8,3-5.8,7.5
				v0.1c0,4.6,2.5,7.6,5.8,7.6c2,0,3.4-0.9,4.7-2.2l2.1,2.5c-1.8,1.9-4,3-6.9,3C2143.4-197.4,2139.5-201.7,2139.5-208.2z"/>
			<path d="M2157.6-208.7h8.4v3.4h-8.4V-208.7z"/>
			<path d="M2171.2-215.4l-3.3,1l-0.6-3l4.9-1.6h2.5v21.3h-3.5V-215.4z"/>
			<path d="M2178.4-200.5l6.5-6.9c2.4-2.5,3.3-3.8,3.3-5.5c0-1.9-1.4-3-3.1-3s-2.8,0.9-4.2,2.7l-2.3-2.1c1.8-2.4,3.8-3.8,6.9-3.8
				c3.7,0,6.4,2.3,6.4,6v0.1c0,2.9-1.3,4.6-4.4,7.7l-4.2,4.6h8.7v3.2h-13.4v-3L2178.4-200.5L2178.4-200.5z"/>
			<path d="M2194.2-200.3l2.2-2.5c1.1,1.3,2.5,2.2,4.6,2.2c2,0,3.5-1.3,3.5-3.4v-0.1c0-2.2-1.9-3.4-4.8-3.4h-1.1l-0.5-2.2l5.1-6.1
				h-8v-3.1h12.4v2.8l-5.4,6.1c2.9,0.5,5.6,2.2,5.6,5.9v0.1c0,4-2.9,6.7-6.9,6.7C2198-197.4,2195.8-198.6,2194.2-200.3z"/>
		</g>
		<g>
			<path d="M2308.5-218.9h3.5v17.9h9.1v3.2h-12.6V-218.9z"/>
			<path d="M2324-219.5h3.6v3.4h-3.6V-219.5z M2324.1-213.8h3.4v16h-3.4V-213.8z"/>
			<path d="M2331.6-213.8h3.4v2.3c0.9-1.4,2.2-2.6,4.3-2.6c2,0,3.4,1,4.1,2.6c1.1-1.5,2.5-2.6,4.7-2.6c3,0,4.9,2,4.9,5.6v10.7h-3.4
				v-9.7c0-2.3-1-3.5-2.7-3.5c-1.7,0-2.9,1.3-2.9,3.5v9.7h-3.4v-9.8c0-2.3-1-3.5-2.7-3.5c-1.7,0-2.9,1.4-2.9,3.6v9.7h-3.4V-213.8z"
				/>
			<path d="M2356.9-219.5h3.6v3.4h-3.6V-219.5z M2357-213.8h3.4v16h-3.4V-213.8z"/>
			<path d="M2365.1-201.6v-9.2h-1.8v-2.9h1.8v-4.4h3.4v4.3h3.6v2.9h-3.6v8.5c0,1.2,0.6,1.8,1.7,1.8c0.7,0,1.3-0.2,1.8-0.5v2.8
				c-0.8,0.4-1.7,0.7-2.8,0.7C2366.9-197.5,2365.1-198.5,2365.1-201.6z"/>
			<path d="M2375.6-218.9h3.5v8.9h8.3v-8.9h3.5v21.2h-3.5v-9h-8.3v9h-3.5V-218.9z"/>
			<path d="M2395.2-219.5h3.6v3.4h-3.6V-219.5z M2395.3-213.8h3.4v16h-3.4V-213.8z"/>
			<path d="M2403.5-201.6v-9.2h-1.8v-2.9h1.8v-4.4h3.4v4.3h3.6v2.9h-3.6v8.5c0,1.2,0.6,1.8,1.7,1.8c0.7,0,1.3-0.2,1.8-0.5v2.8
				c-0.8,0.4-1.7,0.7-2.8,0.7C2405.2-197.5,2403.5-198.5,2403.5-201.6z"/>
		</g>
		<g>
			<path d="M2727.4-208.1v-0.3c0-6.4,3.1-10.8,8.1-10.8c4.8,0,8,4.3,8,10.7v0.3c0,6.4-3.1,10.8-8.1,10.8S2727.4-201.7,2727.4-208.1z
				 M2739.8-208.2v-0.2c0-4.7-1.8-7.6-4.4-7.6c-2.6,0-4.4,2.8-4.4,7.6v0.2c0,4.8,1.8,7.6,4.5,7.6
				C2738.1-200.6,2739.8-203.5,2739.8-208.2z"/>
			<path d="M2749.3-215.4l-3.3,1l-0.6-3l4.9-1.6h2.5v21.3h-3.5V-215.4z"/>
			<path d="M2757.2-213.8h3.9v4h-3.9V-213.8z M2757.2-201.8h3.9v4h-3.9V-201.8z"/>
			<path d="M2767.6-215.4l-3.3,1l-0.6-3l4.9-1.6h2.5v21.3h-3.5V-215.4z"/>
			<path d="M2784.4-215.7h-9.2v-3.2h13v2.6l-8.1,18.6h-3.8L2784.4-215.7z"/>
			<path d="M2799.6-218.9h6.8c4.6,0,7.6,2.7,7.6,7.1v0.1c0,4.7-3.5,7.1-7.8,7.2h-3.1v6.9h-3.5V-218.9z M2806.2-207.8
				c2.7,0,4.3-1.6,4.3-4l0,0c0-2.5-1.6-3.9-4.3-3.9h-3.1v7.9H2806.2z"/>
			<path d="M2817.2-218.9h3.7l5.4,9.7l5.4-9.7h3.7v21.2h-3.5v-15l-5.6,9.8h-0.1l-5.6-9.7v14.9h-3.4V-218.9z"/>
		</g>
	</g>
	<g>
		<g>
			<path d="M2308.5-145.5h3.5v17.9h9.1v3.2h-12.6V-145.5z"/>
			<path d="M2324-146h3.6v3.4h-3.6V-146z M2324.1-140.3h3.4v16h-3.4V-140.3z"/>
			<path d="M2331.6-140.3h3.4v2.3c0.9-1.4,2.2-2.6,4.3-2.6c2,0,3.4,1,4.1,2.6c1.1-1.5,2.5-2.6,4.7-2.6c3,0,4.9,2,4.9,5.6v10.7h-3.4
				v-9.7c0-2.3-1-3.5-2.7-3.5c-1.7,0-2.9,1.3-2.9,3.5v9.7h-3.4v-9.8c0-2.3-1-3.5-2.7-3.5c-1.7,0-2.9,1.4-2.9,3.6v9.7h-3.4V-140.3z"
				/>
			<path d="M2356.9-146h3.6v3.4h-3.6V-146z M2357-140.3h3.4v16h-3.4V-140.3z"/>
			<path d="M2365.1-128.2v-9.2h-1.8v-2.9h1.8v-4.3h3.4v4.3h3.6v2.9h-3.6v8.5c0,1.2,0.6,1.8,1.7,1.8c0.7,0,1.3-0.2,1.8-0.5v2.8
				c-0.8,0.4-1.7,0.7-2.8,0.7C2366.9-124,2365.1-125,2365.1-128.2z"/>
			<path d="M2375.6-145.5h3.5v8.9h8.3v-8.9h3.5v21.2h-3.5v-9h-8.3v9h-3.5V-145.5z"/>
			<path d="M2395.2-146h3.6v3.4h-3.6V-146z M2395.3-140.3h3.4v16h-3.4V-140.3z"/>
			<path d="M2403.5-128.2v-9.2h-1.8v-2.9h1.8v-4.3h3.4v4.3h3.6v2.9h-3.6v8.5c0,1.2,0.6,1.8,1.7,1.8c0.7,0,1.3-0.2,1.8-0.5v2.8
				c-0.8,0.4-1.7,0.7-2.8,0.7C2405.2-124,2403.5-125,2403.5-128.2z"/>
		</g>
		<g>
			<path d="M2107.3-145.6h3.4l7.8,21.3h-3.7l-1.8-5h-8.2l-1.8,5h-3.5L2107.3-145.6z M2112-132.4l-3-8.5l-3,8.5H2112z"/>
			<path d="M2121.5-145.5h7.6c2.3,0,4.2,0.6,5.4,1.8c0.9,0.9,1.4,2.1,1.4,3.6v0.1c0,2.6-1.5,4-3.1,4.8c2.3,0.8,4,2.2,4,5.1v0.1
				c0,3.7-3,5.8-7.5,5.8h-7.8V-145.5z M2132.4-139.5c0-1.8-1.3-2.8-3.6-2.8h-3.9v5.9h3.7C2130.9-136.4,2132.4-137.5,2132.4-139.5
				L2132.4-139.5z M2129.2-133.5h-4.3v6.1h4.4c2.4,0,3.9-1.1,3.9-3v-0.1C2133.3-132.3,2131.9-133.5,2129.2-133.5z"/>
			<path d="M2139.5-134.8v-0.2c0-6.4,4-10.8,9.5-10.8c3,0,4.9,1.1,6.7,2.6l-2.1,2.7c-1.2-1.1-2.6-2.1-4.5-2.1c-3.3,0-5.8,3-5.8,7.5
				v0.1c0,4.6,2.5,7.6,5.8,7.6c2,0,3.4-0.9,4.7-2.2l2.1,2.5c-1.8,1.9-4,3-6.9,3C2143.4-124,2139.5-128.3,2139.5-134.8z"/>
			<path d="M2157.6-135.2h8.4v3.4h-8.4V-135.2z"/>
			<path d="M2171.2-142l-3.3,1l-0.6-3l4.9-1.6h2.5v21.3h-3.5V-142z"/>
			<path d="M2178.4-127.1l6.5-6.9c2.4-2.5,3.3-3.8,3.3-5.5c0-1.9-1.4-3-3.1-3s-2.8,0.9-4.2,2.7l-2.3-2.1c1.8-2.4,3.8-3.8,6.9-3.8
				c3.7,0,6.4,2.3,6.4,6v0.1c0,2.9-1.3,4.6-4.4,7.7l-4.2,4.6h8.7v3.2h-13.4v-3L2178.4-127.1L2178.4-127.1z"/>
			<path d="M2194.2-126.9l2.2-2.5c1.1,1.3,2.5,2.2,4.6,2.2c2,0,3.5-1.3,3.5-3.4v-0.1c0-2.2-1.9-3.4-4.8-3.4h-1.1l-0.5-2.2l5.1-6.1
				h-8v-3.1h12.4v2.8l-5.4,6.1c2.9,0.5,5.6,2.2,5.6,5.9v0.1c0,4-2.9,6.7-6.9,6.7C2198-124,2195.8-125.1,2194.2-126.9z"/>
		</g>
		<g>
			<path d="M2714.8-134.7v-0.3c0-6.4,3.1-10.8,8.1-10.8c4.8,0,8,4.3,8,10.7v0.3c0,6.4-3.1,10.8-8.1,10.8S2714.8-128.2,2714.8-134.7z
				 M2727.2-134.7v-0.2c0-4.7-1.8-7.6-4.4-7.6c-2.6,0-4.4,2.8-4.4,7.6v0.2c0,4.8,1.8,7.6,4.5,7.6
				C2725.5-127.2,2727.2-130,2727.2-134.7z"/>
			<path d="M2732.9-126.9l2.2-2.5c1.1,1.3,2.5,2.2,4.6,2.2c2,0,3.5-1.3,3.5-3.4v-0.1c0-2.2-1.9-3.4-4.8-3.4h-1.1l-0.5-2.2l5.1-6.1
				h-8v-3.1h12.4v2.8l-5.4,6.1c2.9,0.5,5.6,2.2,5.6,5.9v0.1c0,4-2.9,6.7-6.9,6.7C2736.7-124,2734.5-125.1,2732.9-126.9z"/>
			<path d="M2750.1-140.3h3.9v4h-3.9V-140.3z M2750.1-128.3h3.9v4h-3.9V-128.3z"/>
			<path d="M2757.2-127.1l6.5-6.9c2.4-2.5,3.3-3.8,3.3-5.5c0-1.9-1.4-3-3.1-3c-1.7,0-2.8,0.9-4.2,2.7l-2.3-2.1
				c1.8-2.4,3.8-3.8,6.9-3.8c3.7,0,6.4,2.3,6.4,6v0.1c0,2.9-1.3,4.6-4.4,7.7l-4.2,4.6h8.7v3.2h-13.4v-3L2757.2-127.1L2757.2-127.1z"
				/>
			<path d="M2782.3-128.9h-9.4l-0.5-2.5l10.1-14.2h3.1v13.8h2.6v2.9h-2.6v4.6h-3.3L2782.3-128.9L2782.3-128.9z M2782.3-131.8v-8.5
				l-6,8.5H2782.3z"/>
			<path d="M2799.6-145.5h6.8c4.6,0,7.6,2.7,7.6,7.1v0.1c0,4.7-3.5,7.1-7.8,7.2h-3.1v6.9h-3.5V-145.5z M2806.2-134.3
				c2.7,0,4.3-1.6,4.3-4l0,0c0-2.5-1.6-3.9-4.3-3.9h-3.1v7.9H2806.2z"/>
			<path d="M2817.2-145.5h3.7l5.4,9.7l5.4-9.7h3.7v21.2h-3.5v-15l-5.6,9.8h-0.1l-5.6-9.7v14.9h-3.4V-145.5z"/>
		</g>
	</g>
	<g>
		<g>
			<path d="M2308.5-72h3.5v17.9h9.1v3.2h-12.6V-72z"/>
			<path d="M2324-72.6h3.6v3.4h-3.6V-72.6z M2324.1-66.9h3.4v16h-3.4V-66.9z"/>
			<path d="M2331.6-66.9h3.4v2.3c0.9-1.4,2.2-2.6,4.3-2.6c2,0,3.4,1,4.1,2.6c1.1-1.5,2.5-2.6,4.7-2.6c3,0,4.9,2,4.9,5.6v10.7h-3.4
				v-9.7c0-2.3-1-3.5-2.7-3.5c-1.7,0-2.9,1.3-2.9,3.5v9.7h-3.4v-9.8c0-2.3-1-3.5-2.7-3.5c-1.7,0-2.9,1.4-2.9,3.6v9.7h-3.4V-66.9z"/>
			<path d="M2356.9-72.6h3.6v3.4h-3.6V-72.6z M2357-66.9h3.4v16h-3.4V-66.9z"/>
			<path d="M2365.1-54.7v-9.2h-1.8v-2.9h1.8v-4.3h3.4v4.3h3.6v2.9h-3.6v8.5c0,1.2,0.6,1.8,1.7,1.8c0.7,0,1.3-0.2,1.8-0.5v2.8
				c-0.8,0.4-1.7,0.7-2.8,0.7C2366.9-50.6,2365.1-51.6,2365.1-54.7z"/>
			<path d="M2375.6-72h3.5v8.9h8.3V-72h3.5v21.2h-3.5v-9h-8.3v9h-3.5V-72z"/>
			<path d="M2395.2-72.6h3.6v3.4h-3.6V-72.6z M2395.3-66.9h3.4v16h-3.4V-66.9z"/>
			<path d="M2403.5-54.7v-9.2h-1.8v-2.9h1.8v-4.3h3.4v4.3h3.6v2.9h-3.6v8.5c0,1.2,0.6,1.8,1.7,1.8c0.7,0,1.3-0.2,1.8-0.5v2.8
				c-0.8,0.4-1.7,0.7-2.8,0.7C2405.2-50.6,2403.5-51.6,2403.5-54.7z"/>
		</g>
		<g>
			<path d="M2107.3-72.1h3.4l7.8,21.3h-3.7l-1.8-5h-8.2l-1.8,5h-3.5L2107.3-72.1z M2112-58.9l-3-8.5l-3,8.5H2112z"/>
			<path d="M2121.5-72h7.6c2.3,0,4.2,0.6,5.4,1.8c0.9,0.9,1.4,2.1,1.4,3.6v0.1c0,2.6-1.5,4-3.1,4.8c2.3,0.8,4,2.2,4,5.1v0.1
				c0,3.7-3,5.8-7.5,5.8h-7.8V-72z M2132.4-66.1c0-1.8-1.3-2.8-3.6-2.8h-3.9v5.9h3.7C2130.9-63,2132.4-64,2132.4-66.1L2132.4-66.1z
				 M2129.2-60h-4.3v6.1h4.4c2.4,0,3.9-1.1,3.9-3V-57C2133.3-58.9,2131.9-60,2129.2-60z"/>
			<path d="M2139.5-61.3v-0.2c0-6.4,4-10.8,9.5-10.8c3,0,4.9,1.1,6.7,2.6l-2.1,2.7c-1.2-1.1-2.6-2.1-4.5-2.1c-3.3,0-5.8,3-5.8,7.5
				v0.1c0,4.6,2.5,7.6,5.8,7.6c2,0,3.4-0.9,4.7-2.2l2.1,2.5c-1.8,1.9-4,3-6.9,3C2143.4-50.5,2139.5-54.8,2139.5-61.3z"/>
			<path d="M2157.6-61.8h8.4v3.4h-8.4V-61.8z"/>
			<path d="M2171.2-68.5l-3.3,1l-0.6-3l4.9-1.6h2.5v21.3h-3.5V-68.5z"/>
			<path d="M2178.4-53.6l6.5-6.9c2.4-2.5,3.3-3.8,3.3-5.5c0-1.9-1.4-3-3.1-3s-2.8,0.9-4.2,2.7l-2.3-2.1c1.8-2.4,3.8-3.8,6.9-3.8
				c3.7,0,6.4,2.3,6.4,6v0.1c0,2.9-1.3,4.6-4.4,7.7l-4.2,4.6h8.7v3.2h-13.4v-3L2178.4-53.6L2178.4-53.6z"/>
			<path d="M2194.2-53.4l2.2-2.5c1.1,1.3,2.5,2.2,4.6,2.2c2,0,3.5-1.3,3.5-3.4l0,0c0-2.2-1.9-3.4-4.8-3.4h-1.1l-0.5-2.2l5.1-6.1h-8
				v-3.1h12.4v2.8l-5.4,6.1c2.9,0.5,5.6,2.2,5.6,5.9v0.1c0,4-2.9,6.7-6.9,6.7C2198-50.5,2195.8-51.7,2194.2-53.4z"/>
		</g>
		<g>
			<path d="M2721-61.2v-0.3c0-6.4,3.1-10.8,8.1-10.8c4.8,0,8,4.3,8,10.7v0.3c0,6.4-3.1,10.8-8.1,10.8S2721-54.8,2721-61.2z
				 M2733.5-61.3v-0.2c0-4.7-1.8-7.6-4.4-7.6c-2.6,0-4.4,2.8-4.4,7.6v0.2c0,4.8,1.8,7.6,4.5,7.6
				C2731.7-53.7,2733.5-56.6,2733.5-61.3z"/>
			<path d="M2739.6-53.2l2-2.6c1.4,1.2,2.8,2,4.5,2c2.3,0,3.8-1.5,3.8-3.8v-0.1c0-2.2-1.7-3.6-3.9-3.6c-1.3,0-2.3,0.4-3.2,0.8
				l-2.1-1.4l0.6-10.3h11.2v3.2h-8.2l-0.3,5c0.8-0.3,1.6-0.5,2.8-0.5c3.6,0,6.6,2.1,6.6,6.6v0.1c0,4.4-3,7.1-7.2,7.1
				C2743.6-50.5,2741.3-51.5,2739.6-53.2z"/>
			<path d="M2756.8-66.9h3.9v4h-3.9V-66.9z M2756.8-54.9h3.9v4h-3.9V-54.9z"/>
			<path d="M2763.8-53.2l2-2.6c1.4,1.2,2.8,2,4.5,2c2.3,0,3.8-1.5,3.8-3.8v-0.1c0-2.2-1.7-3.6-3.9-3.6c-1.3,0-2.3,0.4-3.2,0.8
				l-2.1-1.4l0.6-10.3h11.2v3.2h-8.2l-0.3,5c0.8-0.3,1.6-0.5,2.8-0.5c3.6,0,6.6,2.1,6.6,6.6v0.1c0,4.4-3,7.1-7.2,7.1
				C2767.7-50.5,2765.5-51.5,2763.8-53.2z"/>
			<path d="M2783.5-68.5l-3.3,1l-0.6-3l4.9-1.6h2.5v21.3h-3.5V-68.5z"/>
			<path d="M2799.6-72h6.8c4.6,0,7.6,2.7,7.6,7.1v0.1c0,4.7-3.5,7.1-7.8,7.2h-3.1v6.9h-3.5V-72z M2806.2-60.9c2.7,0,4.3-1.6,4.3-4
				l0,0c0-2.5-1.6-3.9-4.3-3.9h-3.1v7.9H2806.2z"/>
			<path d="M2817.2-72h3.7l5.4,9.7l5.4-9.7h3.7v21.2h-3.5v-15l-5.6,9.8h-0.1l-5.6-9.7v14.9h-3.4V-72z"/>
		</g>
	</g>
	<g>
		<g>
			<path d="M2107.3,1.3h3.4l7.8,21.3h-3.7l-1.8-5h-8.2l-1.8,5h-3.5L2107.3,1.3z M2112,14.5l-3-8.5l-3,8.5H2112z"/>
			<path d="M2121.5,1.4h7.6c2.3,0,4.2,0.6,5.4,1.8c0.9,0.9,1.4,2.1,1.4,3.6v0.1c0,2.6-1.5,4-3.1,4.8c2.3,0.8,4,2.2,4,5.1v0.1
				c0,3.7-3,5.8-7.5,5.8h-7.8V1.4z M2132.4,7.4c0-1.8-1.3-2.8-3.6-2.8h-3.9v5.9h3.7C2130.9,10.5,2132.4,9.4,2132.4,7.4L2132.4,7.4z
				 M2129.2,13.4h-4.3v6.1h4.4c2.4,0,3.9-1.1,3.9-3v-0.1C2133.3,14.6,2131.9,13.4,2129.2,13.4z"/>
			<path d="M2139.5,12.1v-0.2c0-6.4,4-10.8,9.5-10.8c3,0,4.9,1.1,6.7,2.6l-2.1,2.7c-1.2-1.1-2.6-2.1-4.5-2.1c-3.3,0-5.8,3-5.8,7.5
				v0.1c0,4.6,2.5,7.6,5.8,7.6c2,0,3.4-0.9,4.7-2.2l2.1,2.5c-1.8,1.9-4,3-6.9,3C2143.4,22.9,2139.5,18.6,2139.5,12.1z"/>
			<path d="M2157.6,11.7h8.4v3.4h-8.4V11.7z"/>
			<path d="M2171.2,4.9l-3.3,1l-0.6-3l4.9-1.6h2.5v21.3h-3.5V4.9z"/>
			<path d="M2178.4,19.8l6.5-6.9c2.4-2.5,3.3-3.8,3.3-5.5c0-1.9-1.4-3-3.1-3s-2.8,0.9-4.2,2.7l-2.3-2.1c1.8-2.4,3.8-3.8,6.9-3.8
				c3.7,0,6.4,2.3,6.4,6v0.1c0,2.9-1.3,4.6-4.4,7.7l-4.2,4.6h8.7v3.2h-13.4v-3H2178.4z"/>
			<path d="M2194.2,20l2.2-2.5c1.1,1.3,2.5,2.2,4.6,2.2c2,0,3.5-1.3,3.5-3.4v-0.1c0-2.2-1.9-3.4-4.8-3.4h-1.1l-0.5-2.2l5.1-6.1h-8
				V1.4h12.4v2.8l-5.4,6.1c2.9,0.5,5.6,2.2,5.6,5.9v0.1c0,4-2.9,6.7-6.9,6.7C2198,23,2195.8,21.8,2194.2,20z"/>
		</g>
		<g>
			<path d="M2308.5,1.4h3.5v17.9h9.1v3.2h-12.6V1.4z"/>
			<path d="M2322.9,14.8v-0.3c0-4.7,3.1-8.2,7.4-8.2c4.2,0,7.4,3.5,7.4,8.2v0.3c0,4.7-3.1,8.2-7.4,8.2
				C2326,23,2322.9,19.5,2322.9,14.8z M2334.3,14.7v-0.2c0-3-1.7-5.2-4-5.2c-2.4,0-3.9,2.2-3.9,5.2v0.2c0,3,1.7,5.3,4,5.3
				C2332.7,20,2334.3,17.7,2334.3,14.7z"/>
			<path d="M2339.9,18L2339.9,18c0-3.5,2.3-5.2,5.7-5.2c1.5,0,2.6,0.3,3.7,0.6v-0.7c0-2.1-1.3-3.3-3.4-3.3c-1.5,0-2.8,0.5-3.9,1
				l-1-2.7c1.5-0.8,3.1-1.3,5.3-1.3c2.1,0,3.7,0.6,4.7,1.6c1.1,1.1,1.6,2.6,1.6,4.6v10h-3.4v-2c-0.9,1.4-2.4,2.3-4.4,2.3
				C2342.2,22.9,2339.9,21.1,2339.9,18z M2349.3,17.2v-1.6c-0.8-0.3-1.8-0.6-3-0.6c-2,0-3.1,1-3.1,2.7v0.1c0,1.6,1.1,2.5,2.6,2.5
				C2347.8,20.4,2349.3,19,2349.3,17.2z"/>
			<path d="M2356.3,6.6h3.4V9c0.9-1.4,2.2-2.7,4.4-2.7c3.1,0,4.9,2.2,4.9,5.6v10.7h-3.4v-9.8c0-2.2-1.1-3.5-2.9-3.5
				c-1.8,0-3,1.3-3,3.5v9.7h-3.4V6.6z"/>
			<path d="M2374.7,1.4h6.8c4.6,0,7.6,2.7,7.6,7.1v0.1c0,4.7-3.5,7.1-7.8,7.2h-3.1v6.9h-3.5V1.4z M2381.2,12.6c2.7,0,4.3-1.6,4.3-4
				l0,0c0-2.5-1.6-3.9-4.3-3.9h-3.1v7.9H2381.2z"/>
			<path d="M2391.9,6.6h3.4v3.1c0.8-2.1,2.4-3.5,4.8-3.4V10h-0.2c-2.8,0-4.7,1.8-4.7,5.5v7.1h-3.4L2391.9,6.6L2391.9,6.6z"/>
			<path d="M2401.6,14.8v-0.3c0-4.7,3.1-8.2,7.4-8.2c4.2,0,7.4,3.5,7.4,8.2v0.3c0,4.7-3.1,8.2-7.4,8.2
				C2404.7,23,2401.6,19.5,2401.6,14.8z M2412.9,14.7v-0.2c0-3-1.7-5.2-4-5.2c-2.4,0-3.9,2.2-3.9,5.2v0.2c0,3,1.7,5.3,4,5.3
				C2411.4,20,2412.9,17.7,2412.9,14.7z"/>
			<path d="M2419.5,6.6h3.4v2.6c1-1.5,2.4-2.9,4.7-2.9c3.2,0,6.2,2.7,6.2,8.1v0.4c0,5.4-3,8.1-6.2,8.1c-2.3,0-3.7-1.3-4.7-2.7v7
				h-3.4V6.6z M2430.4,14.8v-0.3c0-3.2-1.7-5.2-3.7-5.2c-2.1,0-3.8,2-3.8,5.1v0.3c0,3.1,1.8,5.1,3.8,5.1
				C2428.7,19.9,2430.4,18,2430.4,14.8z"/>
			<path d="M2436.3,14.8v-0.3c0-4.7,3.1-8.2,7.4-8.2c4.2,0,7.4,3.5,7.4,8.2v0.3c0,4.7-3.1,8.2-7.4,8.2
				C2439.4,23,2436.3,19.5,2436.3,14.8z M2447.6,14.7v-0.2c0-3-1.7-5.2-4-5.2c-2.4,0-3.9,2.2-3.9,5.2v0.2c0,3,1.7,5.3,4,5.3
				C2446.1,20,2447.6,17.7,2447.6,14.7z"/>
			<path d="M2452.8,20.7l1.6-2.5c1.5,1.2,3,1.9,4.4,1.9s2.2-0.8,2.2-1.8l0,0c0-1.1-1.2-1.7-3.1-2.5c-2.4-1-4.4-2.1-4.4-4.8v-0.1
				c0-2.9,2.3-4.7,5.3-4.7c1.8,0,3.7,0.6,5.2,1.7l-1.5,2.5c-1.2-0.8-2.5-1.4-3.8-1.4s-2,0.7-2,1.6v0.1c0,1.1,1.3,1.6,3.1,2.4
				c2.5,1.1,4.4,2.3,4.4,4.8l0,0c0,3.1-2.4,4.9-5.5,4.9C2456.9,22.9,2454.7,22.2,2452.8,20.7z"/>
			<path d="M2466.6,14.8v-0.2c0-4.8,2.9-8.3,6.8-8.3c4.4,0,6.7,3.6,6.7,8.4c0,0.2,0,0.7,0,1.2h-10c0.3,2.7,2,4.1,4.1,4.1
				c1.5,0,2.6-0.7,3.7-1.7l1.8,2.1c-1.5,1.5-3.2,2.5-5.6,2.5C2469.8,23,2466.6,19.8,2466.6,14.8z M2476.8,13.5
				c-0.2-2.5-1.3-4.4-3.3-4.4c-1.9,0-3.2,1.7-3.5,4.4H2476.8z"/>
			<path d="M2482.5,14.8v-0.4c0-5.4,3-8.1,6.2-8.1c2.3,0,3.7,1.3,4.7,2.7V0.8h3.4v21.8h-3.4V20c-1,1.5-2.4,2.9-4.7,2.9
				C2485.5,22.9,2482.5,20.2,2482.5,14.8z M2493.5,14.8v-0.3c0-3.1-1.8-5.1-3.8-5.1c-2.1,0-3.7,1.9-3.7,5.2v0.2
				c0,3.2,1.7,5.2,3.7,5.2S2493.5,17.9,2493.5,14.8z"/>
		</g>
		<g>
			<path d="M2721,12.2v-0.3c0-6.4,3.1-10.8,8.1-10.8c4.8,0,8,4.3,8,10.7v0.3c0,6.4-3.1,10.8-8.1,10.8S2721,18.7,2721,12.2z
				 M2733.5,12.2v-0.3c0-4.7-1.8-7.6-4.4-7.6c-2.6,0-4.4,2.8-4.4,7.6v0.2c0,4.8,1.8,7.6,4.5,7.6
				C2731.7,19.7,2733.5,16.9,2733.5,12.2z"/>
			<path d="M2739.6,20.3l2-2.6c1.4,1.2,2.8,2,4.5,2c2.3,0,3.8-1.5,3.8-3.8l0,0c0-2.2-1.7-3.6-3.9-3.6c-1.3,0-2.3,0.4-3.2,0.8
				l-2.1-1.4l0.6-10.3h11.2v3.2h-8.2l-0.3,5c0.8-0.3,1.6-0.5,2.8-0.5c3.6,0,6.6,2.1,6.6,6.6v0.1c0,4.4-3,7.1-7.2,7.1
				C2743.6,23,2741.3,21.9,2739.6,20.3z"/>
			<path d="M2756.8,6.6h3.9v4h-3.9V6.6z M2756.8,18.6h3.9v4h-3.9V18.6z"/>
			<path d="M2763.8,20.3l2-2.6c1.4,1.2,2.8,2,4.5,2c2.3,0,3.8-1.5,3.8-3.8l0,0c0-2.2-1.7-3.6-3.9-3.6c-1.3,0-2.3,0.4-3.2,0.8
				l-2.1-1.4l0.6-10.3h11.2v3.2h-8.2l-0.3,5c0.8-0.3,1.6-0.5,2.8-0.5c3.6,0,6.6,2.1,6.6,6.6v0.1c0,4.4-3,7.1-7.2,7.1
				C2767.7,23,2765.5,21.9,2763.8,20.3z"/>
			<path d="M2783.5,4.9l-3.3,1l-0.6-3l4.9-1.6h2.5v21.3h-3.5V4.9z"/>
			<path d="M2799.6,1.4h6.8c4.6,0,7.6,2.7,7.6,7.1v0.1c0,4.7-3.5,7.1-7.8,7.2h-3.1v6.9h-3.5V1.4z M2806.2,12.6c2.7,0,4.3-1.6,4.3-4
				l0,0c0-2.5-1.6-3.9-4.3-3.9h-3.1v7.9H2806.2z"/>
			<path d="M2817.2,1.4h3.7l5.4,9.7l5.4-9.7h3.7v21.2h-3.5v-15l-5.6,9.8h-0.1l-5.6-9.7v14.9h-3.4V1.4z"/>
		</g>
	</g>
	<g class="st1">
		<g>
			<path class="st7" d="M2091.5-366.7h1.9l7,18.4h-2.1l-1.8-4.8h-8.2l-1.8,4.8h-2L2091.5-366.7z M2095.9-354.9l-3.4-9.3l-3.5,9.3
				H2095.9z"/>
			<path class="st7" d="M2101.8-357.4v-0.2c0-5.3,3.3-9.3,8.1-9.3c2.4,0,4,0.7,5.5,2l-1.2,1.6c-1.1-1-2.4-1.7-4.4-1.7
				c-3.5,0-6.1,3.1-6.1,7.5v0.1c0,4.6,2.5,7.6,6.2,7.6c1.6,0,3-0.6,3.9-1.3v-5.1h-4.6v-1.9h6.4v7.8c-1.4,1.1-3.5,2.1-5.9,2.1
				C2105-348.1,2101.8-351.9,2101.8-357.4z"/>
			<path class="st7" d="M2119.2-357.4v-0.2c0-5.3,3.3-9.3,8.1-9.3c2.4,0,4,0.7,5.5,2l-1.2,1.6c-1.1-1-2.4-1.7-4.4-1.7
				c-3.5,0-6.1,3.1-6.1,7.5v0.1c0,4.6,2.5,7.6,6.2,7.6c1.6,0,3-0.6,3.9-1.3v-5.1h-4.6v-1.9h6.4v7.8c-1.4,1.1-3.5,2.1-5.9,2.1
				C2122.4-348.1,2119.2-351.9,2119.2-357.4z"/>
			<path class="st7" d="M2137.4-366.6h6.2c2.1,0,3.8,0.6,4.8,1.7c0.9,0.9,1.4,2.2,1.4,3.8v0.1c0,2.9-1.8,4.6-4.3,5.3l4.9,7.5h-2.3
				l-4.6-7.1h-4.2v7.1h-2L2137.4-366.6L2137.4-366.6z M2143.3-357.2c3,0,4.6-1.5,4.6-3.8v-0.1c0-2.4-1.7-3.7-4.4-3.7h-4.2v7.6
				L2143.3-357.2L2143.3-357.2z"/>
			<path class="st7" d="M2153.6-366.6h11.1v1.8h-9.2v6.4h8.2v1.8h-8.2v6.5h9.3v1.8h-11.3L2153.6-366.6L2153.6-366.6z"/>
			<path class="st7" d="M2167.6-357.4v-0.2c0-5.3,3.3-9.3,8.1-9.3c2.4,0,4,0.7,5.5,2l-1.2,1.6c-1.1-1-2.4-1.7-4.4-1.7
				c-3.5,0-6.1,3.1-6.1,7.5v0.1c0,4.6,2.5,7.6,6.2,7.6c1.6,0,3-0.6,3.9-1.3v-5.1h-4.6v-1.9h6.4v7.8c-1.4,1.1-3.5,2.1-5.9,2.1
				C2170.8-348.1,2167.6-351.9,2167.6-357.4z"/>
			<path class="st7" d="M2191.3-366.7h1.9l7,18.4h-2.1l-1.8-4.8h-8.2l-1.8,4.8h-2L2191.3-366.7z M2195.7-354.9l-3.4-9.3l-3.5,9.3
				H2195.7z"/>
			<path class="st7" d="M2205.2-364.8h-5.1v-1.8h12.2v1.8h-5.1v16.4h-2V-364.8z"/>
			<path class="st7" d="M2215.5-366.6h11.1v1.8h-9.2v6.4h8.2v1.8h-8.2v6.5h9.3v1.8h-11.3L2215.5-366.6L2215.5-366.6z"/>
			<path class="st7" d="M2236.8-355.2v-11.5h2v11.4c0,3.4,1.8,5.4,4.6,5.4c2.8,0,4.6-1.8,4.6-5.3v-11.5h2v11.4
				c0,4.7-2.6,7.2-6.6,7.2C2239.5-348.1,2236.8-350.6,2236.8-355.2z"/>
			<path class="st7" d="M2253.9-355.2v-11.5h2v11.4c0,3.4,1.8,5.4,4.6,5.4c2.8,0,4.6-1.8,4.6-5.3v-11.5h2v11.4
				c0,4.7-2.6,7.2-6.6,7.2C2256.6-348.1,2253.9-350.6,2253.9-355.2z"/>
			<path class="st7" d="M2271.4-366.6h2v18.3h-2V-366.6z"/>
			<path class="st7" d="M2277.9-366.6h5.2c5.1,0,8.6,3.7,8.6,9v0.2c0,5.4-3.5,9.1-8.6,9.1h-5.2V-366.6z M2279.8-364.8v14.7h3.2
				c4,0,6.6-2.9,6.6-7.2v-0.2c0-4.3-2.6-7.3-6.6-7.3H2279.8z"/>
		</g>
	</g>
	<g class="st1">
		<g>
			<path class="st7" d="M2310.8-366.6h11.1v1.8h-9.2v6.4h8.2v1.8h-8.2v6.5h9.3v1.8h-11.3L2310.8-366.6L2310.8-366.6z"/>
			<path class="st7" d="M2324.3-366.6h2.1l5.4,15.6l5.4-15.6h2.1l-6.6,18.4h-1.8L2324.3-366.6z"/>
			<path class="st7" d="M2342.3-366.6h11.1v1.8h-9.2v6.4h8.2v1.8h-8.2v6.5h9.3v1.8h-11.3L2342.3-366.6L2342.3-366.6z"/>
			<path class="st7" d="M2357.1-366.6h1.9l9.6,14.4v-14.4h1.9v18.3h-1.6l-9.9-14.8v14.7h-1.9V-366.6z"/>
			<path class="st7" d="M2378.7-364.8h-5.1v-1.8h12.2v1.8h-5.1v16.4h-2V-364.8z"/>
			<path class="st7" d="M2395.1-357.4v-0.2c0-5.5,3.4-9.3,8-9.3c2.5,0,4.1,0.9,5.6,2.2l-1.2,1.5c-1.2-1.1-2.5-1.9-4.4-1.9
				c-3.4,0-6,3.1-6,7.5v0.1c0,4.5,2.6,7.5,6,7.5c1.9,0,3.2-0.8,4.5-2l1.2,1.4c-1.5,1.5-3.3,2.5-5.8,2.5
				C2398.5-348.1,2395.1-351.8,2395.1-357.4z"/>
			<path class="st7" d="M2411.8-366.6h2v16.5h8.5v1.8h-10.4L2411.8-366.6L2411.8-366.6z"/>
			<path class="st7" d="M2431-366.7h1.9l7,18.4h-2.1l-1.8-4.8h-8.2l-1.8,4.8h-2L2431-366.7z M2435.4-354.9l-3.4-9.3l-3.5,9.3H2435.4
				z"/>
			<path class="st7" d="M2441.5-350.7l1.2-1.5c1.5,1.4,3.1,2.3,5.1,2.3c2.2,0,3.7-1.3,3.7-3.1l0,0c0-1.5-0.7-2.5-4-3.7
				c-3.8-1.4-5.3-2.8-5.3-5.4l0,0c0-2.7,2.3-4.8,5.5-4.8c2.1,0,3.9,0.7,5.5,2.1l-1.2,1.5c-1.4-1.2-2.8-1.8-4.4-1.8
				c-2.1,0-3.4,1.3-3.4,2.8v0.1c0,1.6,0.8,2.5,4.3,3.8c3.7,1.4,5.1,2.9,5.1,5.3v0.1c0,2.9-2.4,5-5.7,5
				C2445.5-348.1,2443.4-348.9,2441.5-350.7z"/>
			<path class="st7" d="M2455.5-350.7l1.2-1.5c1.5,1.4,3.1,2.3,5.1,2.3c2.2,0,3.7-1.3,3.7-3.1l0,0c0-1.5-0.7-2.5-4-3.7
				c-3.8-1.4-5.3-2.8-5.3-5.4l0,0c0-2.7,2.3-4.8,5.5-4.8c2.1,0,3.9,0.7,5.5,2.1l-1.2,1.5c-1.4-1.2-2.8-1.8-4.4-1.8
				c-2.1,0-3.4,1.3-3.4,2.8v0.1c0,1.6,0.8,2.5,4.3,3.8c3.7,1.4,5.1,2.9,5.1,5.3v0.1c0,2.9-2.4,5-5.7,5
				C2459.5-348.1,2457.4-348.9,2455.5-350.7z"/>
		</g>
	</g>
	<g class="st1">
		<g>
			<path class="st7" d="M2517.5-366.6h11.1v1.8h-9.2v6.4h8.2v1.8h-8.2v6.5h9.3v1.8h-11.3L2517.5-366.6L2517.5-366.6z"/>
			<path class="st7" d="M2531-366.6h2.1l5.4,15.6l5.4-15.6h2.1l-6.6,18.4h-1.8L2531-366.6z"/>
			<path class="st7" d="M2549-366.6h11.1v1.8h-9.2v6.4h8.2v1.8h-8.2v6.5h9.3v1.8H2549V-366.6z"/>
			<path class="st7" d="M2563.8-366.6h1.9l9.6,14.4v-14.4h1.9v18.3h-1.6l-9.8-14.7v14.7h-1.9L2563.8-366.6L2563.8-366.6z"/>
			<path class="st7" d="M2585.4-364.8h-5.1v-1.8h12.2v1.8h-5.1v16.4h-2V-364.8z"/>
			<path class="st7" d="M2602.5-366.6h5.5c3.9,0,6.4,2.2,6.4,5.8v0.1c0,3.9-2.9,6-6.7,6h-3.3v6.4h-2L2602.5-366.6L2602.5-366.6z
				 M2607.8-356.6c2.8,0,4.6-1.6,4.6-4.2l0,0c0-2.7-1.8-4.1-4.5-4.1h-3.4v8.3H2607.8z"/>
			<path class="st7" d="M2617.6-366.6h6.2c2.1,0,3.8,0.6,4.8,1.7c0.9,0.9,1.4,2.2,1.4,3.8v0.1c0,2.9-1.8,4.6-4.3,5.3l4.9,7.5h-2.4
				l-4.6-7.1h-4.2v7.1h-2v-18.4H2617.6L2617.6-366.6z M2623.5-357.2c3,0,4.6-1.5,4.6-3.8v-0.1c0-2.4-1.7-3.7-4.4-3.7h-4.2v7.6
				L2623.5-357.2L2623.5-357.2z"/>
			<path class="st7" d="M2633.1-357.4v-0.2c0-5.4,3.2-9.3,7.9-9.3c4.6,0,7.8,3.9,7.8,9.3v0.2c0,5.4-3.2,9.3-7.9,9.3
				C2636.2-348.1,2633.1-352,2633.1-357.4z M2646.8-357.4v-0.2c0-4.4-2.5-7.5-5.8-7.5s-5.8,3.1-5.8,7.5v0.2c0,4.4,2.5,7.5,5.8,7.5
				S2646.8-353,2646.8-357.4z"/>
			<path class="st7" d="M2652.5-366.6h5.5c3.9,0,6.4,2.2,6.4,5.8v0.1c0,3.9-2.9,6-6.7,6h-3.3v6.4h-2L2652.5-366.6L2652.5-366.6z
				 M2657.8-356.6c2.8,0,4.6-1.6,4.6-4.2l0,0c0-2.7-1.8-4.1-4.5-4.1h-3.4v8.3H2657.8z"/>
			<path class="st7" d="M2667.5-366.6h11.1v1.8h-9.2v6.4h8.2v1.8h-8.2v6.5h9.3v1.8h-11.3L2667.5-366.6L2667.5-366.6z"/>
			<path class="st7" d="M2682.3-366.6h6.2c2.1,0,3.8,0.6,4.8,1.7c0.9,0.9,1.4,2.2,1.4,3.8v0.1c0,2.9-1.8,4.6-4.3,5.3l4.9,7.5h-2.4
				l-4.6-7.1h-4.2v7.1h-2v-18.4H2682.3L2682.3-366.6z M2688.2-357.2c3,0,4.6-1.5,4.6-3.8v-0.1c0-2.4-1.7-3.7-4.4-3.7h-4.2v7.6
				L2688.2-357.2L2688.2-357.2z"/>
			<path class="st7" d="M2702.2-364.8h-5.1v-1.8h12.2v1.8h-5.1v16.4h-2V-364.8z"/>
			<path class="st7" d="M2712.7-366.6h2v18.3h-2V-366.6z"/>
			<path class="st7" d="M2719.2-366.6h11.1v1.8h-9.2v6.4h8.2v1.8h-8.2v6.5h9.3v1.8h-11.3L2719.2-366.6L2719.2-366.6z"/>
			<path class="st7" d="M2732.7-350.7l1.2-1.5c1.5,1.4,3.1,2.3,5.1,2.3c2.2,0,3.7-1.3,3.7-3.1l0,0c0-1.5-0.7-2.5-4-3.7
				c-3.8-1.4-5.3-2.8-5.3-5.4l0,0c0-2.7,2.3-4.8,5.5-4.8c2.1,0,3.9,0.7,5.5,2.1l-1.2,1.5c-1.4-1.2-2.8-1.8-4.4-1.8
				c-2.1,0-3.4,1.3-3.4,2.8v0.1c0,1.6,0.8,2.5,4.3,3.8c3.7,1.4,5.1,2.9,5.1,5.3v0.1c0,2.9-2.4,5-5.7,5
				C2736.7-348.1,2734.6-348.9,2732.7-350.7z"/>
		</g>
	</g>
	<g class="st1">
		<g>
			<path class="st7" d="M2783.3-364.8h-5.1v-1.8h12.2v1.8h-5.1v16.4h-2V-364.8z"/>
			<path class="st7" d="M2793.8-366.6h2v18.3h-2V-366.6z"/>
			<path class="st7" d="M2800.3-366.6h2l5.6,9.8l5.6-9.8h2v18.3h-2v-14.8l-5.6,9.8h-0.1l-5.6-9.8v14.7h-1.9V-366.6z"/>
			<path class="st7" d="M2819.9-366.6h11.1v1.8h-9.2v6.4h8.2v1.8h-8.2v6.5h9.3v1.8h-11.3L2819.9-366.6L2819.9-366.6z"/>
		</g>
	</g>
</g>
<g class="st1">
	<path class="st2" d="M2056,318.1l-535.3-135.9c-2.5-0.6-4-3.2-3.4-5.7l92.6-364.7c0.6-2.5,3.2-4,5.7-3.4l535.3,135.9
		c2.5,0.6,4,3.2,3.4,5.7l-92.6,364.7C2061.1,317.2,2058.5,318.7,2056,318.1z"/>
</g>
<g>
	<path class="st0" d="M2081.8,293.3l-546.7-78.4c-2.6-0.4-4.3-2.7-4-5.3l53.4-372.4c0.4-2.6,2.7-4.3,5.3-4l546.7,78.5
		c2.6,0.4,4.3,2.7,4,5.3l-53.4,372.4C2086.7,291.9,2084.3,293.7,2081.8,293.3z"/>
	<path class="st8" d="M2069.3,293.5c-1.1,0-2.2-0.1-3.2-0.2l-515.9-74c-5.9-0.9-11.2-4-14.8-8.8c-3.6-4.8-5.1-10.7-4.2-16.6
		l49-341.6c1.8-12.2,13.1-20.8,25.4-19l515.9,74c5.9,0.9,11.2,4,14.8,8.8c3.6,4.8,5.1,10.7,4.2,16.6l-49,341.6
		c-0.9,5.9-4,11.2-8.8,14.8C2078.7,292,2074.1,293.5,2069.3,293.5z M1602.4-162.6c-8.9,0-16.6,6.5-17.9,15.5l-49,341.6
		c-0.7,4.8,0.5,9.6,3.4,13.4c2.9,3.9,7.1,6.4,11.9,7.1l515.9,74c4.8,0.7,9.6-0.5,13.4-3.4c3.9-2.9,6.4-7.1,7.1-11.9l49-341.6
		c0.7-4.8-0.5-9.6-3.4-13.4c-2.9-3.9-7.1-6.4-11.9-7.1l-515.9-74C1604.1-162.6,1603.2-162.6,1602.4-162.6z"/>
</g>
<g>
	<g class="st1">
		<path class="st2" d="M939.7-352.8l21.9,60.8c0,0,2.4,5.9,10.3,5.4c7.9-0.5,209.7-20.5,209.7-20.5s13.8-1.6,11.6-5.5
			c-2.2-3.9-25.9-60.6-25.9-60.6s-2.3-5.3-12.2-4.6c-9.6,0.6-195.2,17.4-205.9,18.2C941.3-358.9,939.5-356.1,939.7-352.8z"/>
	</g>
	<g>
		<path class="st0" d="M965.1-480.9l16.1,164.4c0,0,1.8,16.1,8.9,16.1c7.1,0,189.5-17.9,189.5-17.9s12.5-1.8,10.7-12.5
			c-1.8-10.7-19.6-164.4-19.6-164.4s-1.8-14.3-10.7-14.3c-8.7,0-176.3,12.3-185.9,12.5C966.9-496.8,965.1-489.8,965.1-480.9z"/>
		<path class="st3" d="M990.2-298.2c-8.8,0-10.9-16.2-11.1-18L963-480.9c0-4.4,0-18,11-18.2c4.3-0.1,41.5-2.7,80.8-5.5
			c49.2-3.5,100.1-7,105.1-7l0,0c10.7,0,12.8,15.5,12.9,16.2c0.2,1.6,17.9,153.8,19.6,164.3c0.6,3.5-0.1,6.5-1.9,9.1
			c-3.6,4.9-10.3,5.9-10.6,5.9C1172.4-315.4,997.3-298.2,990.2-298.2z M967.3-481l16.1,164.3c0.5,4.6,2.9,14.1,6.8,14.1
			c5.6,0,126.2-11.7,189.2-17.9l0,0c0,0,5.2-0.8,7.7-4.2c1.2-1.6,1.5-3.5,1.1-5.8c-1.8-10.7-18.9-158.3-19.7-164.5
			c0-0.1-1.7-12.4-8.6-12.4l0,0c-4.8,0-57.9,3.7-104.8,7c-39.4,2.8-76.6,5.4-81,5.5C970.8-494.7,967.3-493,967.3-481z"/>
	</g>
	<g class="st1">
		<path class="st5" d="M1176-488.1c-0.7-6.8-1.1-8.5-1.1-8.5s-1.7-16.5-10.7-16.5s-179.3,14.4-186.5,14.4s-9,8.2-9,18.5l0.9,8.2
			C1017.1-476.1,1116.5-483.7,1176-488.1z"/>
	</g>
	<g>
		<g>
			<path class="st5" d="M983.3-481.5l-4.7,0.4c-0.4,0-0.7-0.3-0.8-0.7l-0.3-4.7c0-0.4,0.3-0.7,0.7-0.8l4.7-0.3
				c0.4,0,0.7,0.3,0.8,0.7l0.3,4.7C984-481.8,983.7-481.5,983.3-481.5z"/>
		</g>
		<g>
			<path class="st5" d="M993.5-482.2l-4.7,0.3c-0.4,0-0.7-0.3-0.8-0.7l-0.3-4.7c0-0.4,0.3-0.7,0.7-0.8l4.7-0.3
				c0.4,0,0.7,0.3,0.8,0.7l0.3,4.7C994.2-482.6,993.9-482.2,993.5-482.2z"/>
		</g>
		<g>
			<path class="st5" d="M1003.7-482.9l-4.7,0.3c-0.4,0-0.7-0.3-0.8-0.7l-0.2-4.6c0-0.4,0.3-0.7,0.7-0.8l4.7-0.3
				c0.4,0,0.7,0.3,0.8,0.7l0.3,4.7C1004.4-483.3,1004.1-482.9,1003.7-482.9z"/>
		</g>
	</g>
</g>
<g>
	<path class="st7" d="M1037.8-411.4h8.4l15.2,42.6h-9.1l-3.1-9.2h-14.6l-3.1,9.2h-8.8L1037.8-411.4z M1046.5-385.7l-4.6-13.8
		l-4.7,13.8H1046.5z"/>
	<path class="st7" d="M1066.6-411.1h14.1c9.5,0,15.5,5.5,15.5,14.5v0.1c0,9.7-7,14.6-15.9,14.8h-5v12.9h-8.8L1066.6-411.1
		L1066.6-411.1z M1080.3-389.5c4.5,0,7.1-2.8,7.1-6.8v-0.1c0-4.4-2.5-6.8-7.2-6.8h-4.8v13.7L1080.3-389.5L1080.3-389.5z"/>
	<path class="st7" d="M1101.9-411.1h14.1c9.5,0,15.5,5.5,15.5,14.5v0.1c0,9.7-7,14.6-15.9,14.8h-5v12.9h-8.8L1101.9-411.1
		L1101.9-411.1z M1115.6-389.5c4.5,0,7.1-2.8,7.1-6.8v-0.1c0-4.4-2.5-6.8-7.2-6.8h-4.8v13.7L1115.6-389.5L1115.6-389.5z"/>
</g>
<g>
	<path class="st7" d="M1646.8,539.6h6.3v24.7h12.3v5.8h-18.7v-30.5H1646.8z"/>
	<path class="st7" d="M1667.8,558.7v-0.5c0-6.9,4.7-11.9,11-11.9c6.3,0,10.9,4.9,10.9,11.9v0.5c0,6.9-4.7,11.9-11,11.9
		C1672.4,570.6,1667.8,565.7,1667.8,558.7z M1683.6,558.7v-0.3c0-3.8-1.9-6.7-4.9-6.7c-3.1,0-4.9,2.8-4.9,6.6v0.3
		c0,3.8,2,6.7,4.9,6.7C1681.9,565.3,1683.6,562.4,1683.6,558.7z"/>
	<path class="st7" d="M1692.6,563.4v-0.3c0-5.1,3.4-7.5,8.1-7.5c2,0,3.4,0.4,4.9,1v-0.7c0-2.7-1.6-4.1-4.4-4.1
		c-2.2,0-3.9,0.7-5.4,1.3l-1.7-4.8c2.3-1.1,4.6-1.9,8-1.9c3.2,0,5.6,0.9,7.1,2.4c1.6,1.6,2.4,4.1,2.4,7.1v14.2h-6.1v-2.5
		c-1.4,1.8-3.3,3-6.1,3C1695.7,570.5,1692.6,568,1692.6,563.4z M1705.7,562.4v-2c-0.9-0.4-2.2-0.7-3.4-0.7c-2.3,0-3.7,1.1-3.7,3.3
		v0.1c0,1.9,1.2,2.9,3,2.9C1704,566.1,1705.7,564.6,1705.7,562.4z"/>
	<path class="st7" d="M1716.4,546.8h6.2v3.1c1.4-1.9,3.1-3.6,6-3.6c4.4,0,6.9,3.1,6.9,7.9v15.9h-6.2V556c0-2.7-1.2-4.1-3.3-4.1
		c-2,0-3.4,1.4-3.4,4.1v14.1h-6.2V546.8z"/>
	<path class="st7" d="M1740.8,539.6h10.2c6.8,0,11.2,4,11.2,10.5v0.1c0,7-5,10.5-11.4,10.7h-3.6v9.3h-6.3L1740.8,539.6L1740.8,539.6
		z M1750.7,555.2c3.3,0,5.1-2,5.1-4.9l0,0c0-3.2-1.8-4.9-5.2-4.9h-3.4v9.8H1750.7z"/>
	<path class="st7" d="M1765.7,546.8h6.2v4.1c1.1-2.8,3-4.7,6.3-4.5v6.7h-0.3c-3.8,0-6.1,2.4-6.1,7.2v9.8h-6.2L1765.7,546.8
		L1765.7,546.8z"/>
	<path class="st7" d="M1780.1,558.7v-0.5c0-6.9,4.7-11.9,11-11.9s10.9,4.9,10.9,11.9v0.5c0,6.9-4.7,11.9-11,11.9
		C1784.8,570.6,1780.1,565.7,1780.1,558.7z M1796,558.7v-0.3c0-3.8-1.9-6.7-4.9-6.7c-3.1,0-4.9,2.8-4.9,6.6v0.3c0,3.8,2,6.7,4.9,6.7
		C1794.2,565.3,1796,562.4,1796,558.7z"/>
	<path class="st7" d="M1806.2,546.8h6.2v3.2c1.4-2,3.2-3.7,6.3-3.7c4.6,0,8.9,3.8,8.9,11.8v0.7c0,8-4.2,11.8-8.9,11.8
		c-3.1,0-5-1.7-6.3-3.4v9.6h-6.2V546.8z M1821.4,558.7v-0.4c0-4-2-6.5-4.5-6.5c-2.6,0-4.6,2.5-4.6,6.5v0.4c0,4,2,6.5,4.6,6.5
		C1819.4,565.1,1821.4,562.6,1821.4,558.7z"/>
	<path class="st7" d="M1830.8,558.7v-0.5c0-6.9,4.7-11.9,11-11.9c6.3,0,10.9,4.9,10.9,11.9v0.5c0,6.9-4.7,11.9-11,11.9
		C1835.4,570.6,1830.8,565.7,1830.8,558.7z M1846.6,558.7v-0.3c0-3.8-1.9-6.7-4.9-6.7c-3.1,0-4.9,2.8-4.9,6.6v0.3
		c0,3.8,2,6.7,4.9,6.7C1844.8,565.3,1846.6,562.4,1846.6,558.7z"/>
	<path class="st7" d="M1855,567.3l2.7-4.4c2.1,1.6,4.3,2.6,6.2,2.6c1.7,0,2.5-0.8,2.5-1.8v-0.1c0-1.4-1.7-1.9-4.3-3
		c-3.3-1.4-6.1-3.1-6.1-7.1v-0.1c0-4.5,3.5-7.1,8-7.1c2.5,0,5.4,0.9,7.7,2.5l-2.5,4.4c-1.7-1.1-3.7-2-5.3-2c-1.5,0-2.3,0.7-2.3,1.7
		v0.1c0,1.2,1.7,1.9,4.2,3.1c3.4,1.6,6.2,3.3,6.2,7v0.1c0,4.8-3.6,7.3-8.2,7.3C1861.1,570.5,1857.9,569.6,1855,567.3z"/>
	<path class="st7" d="M1874.7,563.4v-0.3c0-5.1,3.4-7.5,8.1-7.5c2,0,3.4,0.4,4.9,1v-0.7c0-2.7-1.6-4.1-4.4-4.1
		c-2.2,0-3.9,0.7-5.4,1.3l-1.7-4.8c2.3-1.1,4.6-1.9,8-1.9c3.2,0,5.6,0.9,7.1,2.4c1.6,1.6,2.4,4.1,2.4,7.1v14.2h-6.1v-2.5
		c-1.4,1.8-3.3,3-6.1,3C1877.8,570.5,1874.7,568,1874.7,563.4z M1887.8,562.4v-2c-0.9-0.4-2.2-0.7-3.4-0.7c-2.3,0-3.7,1.1-3.7,3.3
		v0.1c0,1.9,1.2,2.9,3,2.9C1886,566.1,1887.8,564.6,1887.8,562.4z"/>
	<path class="st7" d="M1898.7,538.6h6.2v31.5h-6.2V538.6z"/>
	<path class="st7" d="M1910.7,539.6h11.5c3.5,0,6.4,1,8.3,2.9c1.7,1.7,2.6,4.1,2.6,7.1v0.2c0,4.6-2.3,7.5-5.7,9l6.5,11.3h-7.2
		l-5.6-10h-4v10h-6.3L1910.7,539.6L1910.7,539.6z M1921.6,554.5c3.2,0,5-1.8,5-4.6l0,0c0-3.1-1.9-4.6-5.1-4.6h-4.5v9.2H1921.6z"/>
	<path class="st7" d="M1936,558.7v-0.4c0-6.9,4.3-12,10.2-12c6.7,0,9.9,5.4,9.9,12.4c0,0.4,0,1.1,0,2h-13.9c0.5,3.1,2.4,4.7,5.1,4.7
		c1.9,0,3.4-0.9,4.9-2.3l3.2,3.7c-2.1,2.4-4.8,3.7-8.3,3.7C1940.8,570.6,1936,566,1936,558.7z M1950.2,556.6c-0.3-3.2-1.7-5.2-4-5.2
		s-3.7,1.9-4.1,5.2H1950.2z"/>
	<path class="st7" d="M1959,563.4v-0.3c0-5.1,3.4-7.5,8.1-7.5c2,0,3.4,0.4,4.9,1v-0.7c0-2.7-1.6-4.1-4.4-4.1c-2.2,0-3.9,0.7-5.4,1.3
		l-1.7-4.8c2.3-1.1,4.6-1.9,8-1.9c3.2,0,5.6,0.9,7.1,2.4c1.6,1.6,2.4,4.1,2.4,7.1v14.2h-6.1v-2.5c-1.4,1.8-3.3,3-6.1,3
		C1962.1,570.5,1959,568,1959,563.4z M1972.1,562.4v-2c-0.9-0.4-2.2-0.7-3.4-0.7c-2.3,0-3.7,1.1-3.7,3.3v0.1c0,1.9,1.2,2.9,3,2.9
		C1970.3,566.1,1972.1,564.6,1972.1,562.4z"/>
	<path class="st7" d="M1981.8,558.8v-0.5c0-6.9,4.5-11.9,10.8-11.9c3.4,0,5.6,1.1,7.6,3.1l-3.4,4.5c-1.1-1.2-2.3-2.1-4.2-2.1
		c-2.8,0-4.8,2.7-4.8,6.5v0.2c0,3.9,1.8,6.6,4.9,6.6c1.8,0,3-0.9,4.2-2.1l3.3,4.1c-1.9,2.1-4.3,3.6-7.9,3.6
		C1986.2,570.6,1981.8,565.7,1981.8,558.8z"/>
	<path class="st7" d="M2004.7,564.3V552h-2.4v-5.2h2.4v-6h6.2v6h4.6v5.2h-4.6v11c0,1.4,0.6,2,1.9,2c1,0,1.9-0.3,2.7-0.7v4.9
		c-1.2,0.7-2.7,1.2-4.6,1.2C2007.4,570.5,2004.7,569.1,2004.7,564.3z"/>
	<path class="st7" d="M2018.1,558.7v-0.5c0-6.9,4.7-11.9,11-11.9s10.9,4.9,10.9,11.9v0.5c0,6.9-4.7,11.9-11,11.9
		C2022.7,570.6,2018.1,565.7,2018.1,558.7z M2033.9,558.7v-0.3c0-3.8-1.9-6.7-4.9-6.7c-3.1,0-4.9,2.8-4.9,6.6v0.3
		c0,3.8,2,6.7,4.9,6.7C2032.1,565.3,2033.9,562.4,2033.9,558.7z"/>
	<path class="st7" d="M2044.1,546.8h6.2v4.1c1.1-2.8,3-4.7,6.3-4.5v6.7h-0.3c-3.8,0-6.1,2.4-6.1,7.2v9.8h-6.2L2044.1,546.8
		L2044.1,546.8z"/>
</g>
<g>
	<g>
		<g>
			<path class="st9" d="M1400.2-177.8c-3.3,0-6.5,0-9.8-0.1l0.1-4.3c7.8,0.1,15.5,0.1,23.2-0.1l0.1,4.3
				C1409.2-177.8,1404.7-177.8,1400.2-177.8z M1379.9-178.1c-10.5-0.3-20.8-1-30.7-1.9l0.4-4.3c9.8,0.9,20.1,1.5,30.4,1.9
				L1379.9-178.1z M1425.4-178.2l-0.2-4.3c7.8-0.3,16.1-0.7,24.4-1.2l0.3,4.3C1441.5-178.9,1433.2-178.5,1425.4-178.2z
				 M1462.1-180.4l-0.3-4.3c9.6-0.8,19.6-1.7,30.4-2.8l0.4,4.3C1481.8-182,1471.8-181.1,1462.1-180.4z M1337-181.2
				c-8.3-1-16.5-2.2-24.4-3.5l0.7-4.3c7.8,1.4,15.9,2.5,24.1,3.5L1337-181.2z M1503.1-184.3l-0.5-4.3c7.9-0.9,15.5-1.7,22.7-2.6
				l0.7,2.1l0.2,2.1C1518.6-186,1511-185.1,1503.1-184.3z M1301.1-187c-7.8-1.6-15.4-3.4-22.8-5.4l1.1-4.2c7.3,2,14.8,3.8,22.5,5.4
				L1301.1-187z M1537.8-188.2l-0.5-4.3c7.6-0.9,16.5-1.9,24.4-2.5l0.4,4.3C1554.2-190.1,1545.4-189.1,1537.8-188.2z M1574.2-191.6
				l-0.2-4.3c1.8-0.1,3.4-0.1,5-0.1l0.1,4.3C1577.6-191.7,1575.9-191.6,1574.2-191.6z M1268.2-195.3c-10-3.1-19.7-6.6-29-10.5l1.7-4
				c9.1,3.8,18.7,7.3,28.6,10.3L1268.2-195.3z M1228-210.8c-7.5-3.5-14.8-7.4-21.8-11.6l2.2-3.7c6.9,4.1,14.1,7.9,21.5,11.4
				L1228-210.8z M1196.2-228.6c-6.5-4.3-12.9-8.9-19-13.8l2.7-3.4c6,4.8,12.2,9.3,18.7,13.5L1196.2-228.6z M1169.1-249.1
				c-7.7-6.7-15.1-14-21.9-21.7l3.2-2.9c6.7,7.6,14,14.7,21.5,21.3L1169.1-249.1z M1139.2-280.2c-5.1-6.3-10-13-14.5-19.9l3.6-2.4
				c4.5,6.8,9.3,13.4,14.3,19.6L1139.2-280.2z"/>
		</g>
		<g>
			<path class="st9" d="M1554.3-160.9c-0.5,0-1-0.2-1.4-0.5c-0.9-0.8-1-2.1-0.2-3l23-26.8l-23-26.6c-0.8-0.9-0.7-2.3,0.2-3
				c0.9-0.8,2.3-0.7,3,0.2l24.2,28c0.7,0.8,0.7,2,0,2.8l-24.2,28.2C1555.5-161.2,1554.9-160.9,1554.3-160.9z"/>
		</g>
	</g>
	<g>
		<g>
			<path class="st10" d="M1411.7-117.7h-203.1c-32.7,0-59.5-26.8-59.5-59.5l0,0c0-32.7,26.8-59.5,59.5-59.5h203.1
				c32.7,0,59.5,26.8,59.5,59.5l0,0C1471.2-144.5,1444.4-117.7,1411.7-117.7z"/>
		</g>
		<g>
			<path class="st0" d="M1405.9-129.8h-196.4c-26.6,0-48.3-21.7-48.3-48.3l0,0c0-26.6,21.7-48.3,48.3-48.3h196.4
				c26.6,0,48.3,21.7,48.3,48.3l0,0C1454.2-151.6,1432.5-129.8,1405.9-129.8z"/>
		</g>
		<g>
			<path class="st9" d="M1179.9-170.7l4.2-3.6c2,2.2,3.7,3.4,5.6,3.4c1.6,0,2.7-1,2.7-2.3c0-1.1-0.7-2-3.3-3.9
				c-3-2.3-4.9-4.4-4.9-7.3c0-2.3,0.9-4.3,2.2-5.6c1.6-1.6,3.9-2.6,6.5-2.6c3.9,0,6.6,1.7,8.5,3.9l-3.9,3.9c-1.7-1.8-3-2.8-4.9-2.8
				c-1.7,0-2.6,1.1-2.6,2.3s0.6,1.9,3.3,3.9c2.9,2.1,5,4.2,5,7.4c0,2.4-0.9,4.3-2.3,5.7c-1.6,1.6-4.1,2.5-6.6,2.5
				C1185.5-166,1182.2-167.7,1179.9-170.7z"/>
			<path class="st9" d="M1216.2-166.3h-5.5l0.4-1.9c-1.2,1.1-2.7,2.2-4.7,2.2c-2.9,0-4.8-1.9-4.8-5.1c0-1,0.3-2.5,0.7-4l2.7-11.2
				h5.6l-2.7,11.3c-0.2,0.9-0.3,1.7-0.3,2.2c0,1.3,0.6,1.9,1.9,1.9c1.7,0,2.8-1.4,3.2-3.4l2.9-12h5.5L1216.2-166.3z"/>
			<path class="st9" d="M1226.4-169l-0.6,2.6h-5.5l6.5-26.8h5.6l-2.1,8.7c1.5-1.5,2.9-2.3,4.8-2.3c3.3,0,6.1,2.8,6.1,8.1
				c0,3.8-1.4,7.6-3.7,10c-1.7,1.7-3.8,2.6-6,2.6C1229-166,1227.4-167.2,1226.4-169z M1233-171.8c1.4-1.4,2.3-3.8,2.3-6.4
				c0-2.4-1-3.9-3-3.9c-0.9,0-1.9,0.4-2.6,1.1c-1.5,1.5-2.3,4.1-2.3,6.4c0,2.4,1.2,3.9,3,3.9C1231.3-170.7,1232.3-171,1233-171.8z"
				/>
			<path class="st9" d="M1243.5-169.9c0-0.8,0.2-1.6,0.4-2.6l2.2-9.1h-2.1l1.2-4.8h2.1l1.2-4.9h5.6l-1.2,4.9h3.5l-1.2,4.8h-3.5
				l-2.2,9c-0.1,0.3-0.1,0.6-0.1,0.8c0,0.5,0.4,0.9,1.1,0.9c0.8,0,1.7-0.2,2.3-0.6l-1.2,4.7c-0.9,0.5-2.3,0.8-3.7,0.8
				C1245-166.1,1243.5-167.6,1243.5-169.9z"/>
			<path class="st9" d="M1259.8-186.4h5.5l-0.8,3.2c1.5-2.3,3.3-3.7,6.1-3.5l-1.6,5.8h-0.3c-3.2,0-5.2,1.5-6.2,5.8l-2.1,8.8h-5.5
				L1259.8-186.4z"/>
			<path class="st9" d="M1268.2-171.3c0-2,0.7-3.9,2-5.2c1.4-1.4,3.4-2.1,5.8-2.1c1.7,0,3,0.3,4.3,0.9l0.1-0.3
				c0.1-0.6,0.3-1.2,0.3-1.8c0-1.1-0.6-2-2.9-2c-1.4,0-2.9,0.4-4.3,1.1l-1.2-4.4c1.8-0.8,4-1.4,6.5-1.4c4.8,0,7.3,2,7.3,5.5
				c0,1.3-0.3,2.6-0.6,3.9l-2.6,10.9h-5.4l0.5-2.1c-1.3,1.5-2.9,2.4-4.8,2.4C1270.1-166,1268.2-168.3,1268.2-171.3z M1279.3-173.4
				l0.3-1.3c-0.7-0.3-1.7-0.6-2.5-0.6c-1,0-1.9,0.3-2.4,0.9c-0.6,0.6-1,1.6-1,2.6c0,1.2,0.7,2.1,2,2.1
				C1277.6-169.7,1278.9-171.6,1279.3-173.4z"/>
			<path class="st9" d="M1288.5-174.4c0-3.6,1.4-7.1,3.6-9.4c1.9-1.8,4-2.9,6.8-2.9c3.6,0,5.4,1.4,6.8,3.6l-4,3.2
				c-0.9-1.3-1.7-2.1-2.9-2.1c-1,0-1.8,0.4-2.5,1.2c-1.4,1.4-2.4,4.2-2.4,6.4c0,2.5,1.1,3.8,2.7,3.8c1.2,0,2-0.6,3.2-1.5l2.7,3.5
				c-1.6,1.5-3.4,2.7-6.2,2.7C1291.5-166,1288.5-169.2,1288.5-174.4z"/>
			<path class="st9" d="M1306-169.9c0-0.8,0.2-1.6,0.4-2.6l2.2-9.1h-2.2l1.2-4.8h2.1l1.2-4.9h5.6l-1.2,4.9h3.5l-1.2,4.8h-3.5l-2.2,9
				c-0.1,0.3-0.1,0.6-0.1,0.8c0,0.5,0.4,0.9,1.1,0.9c0.8,0,1.7-0.2,2.3-0.6l-1.2,4.7c-0.9,0.5-2.3,0.8-3.7,0.8
				C1307.5-166.1,1306-167.6,1306-169.9z"/>
			<path class="st9" d="M1343.4-194.6l-0.7,2.8c2,0.6,3.8,1.8,5,3.1l-3.8,3.7c-0.8-0.8-1.7-1.4-2.7-1.9l-1.5,5.5
				c3,1.6,5.1,3.8,5.1,6.8c0,5-4,8.3-9.2,8.3l-1,3.6h-3.7l1.2-4c-2.6-0.7-4.8-2-6.3-4l4-3.5c1.2,1.4,2.4,2.3,3.7,2.7l1.6-5.9
				c-2.9-1.6-5.1-3.4-5.1-7c0-4.7,3.6-8,9.1-8l0.7-2.2H1343.4z M1336.7-183.1l1.2-4.4c-1.5,0.2-2.3,1.3-2.3,2.4
				C1335.6-184.4,1335.8-183.8,1336.7-183.1z M1338-175.7l-1.3,4.6c1.4-0.4,2.3-1.4,2.3-2.7C1339-174.6,1338.8-175.1,1338-175.7z"/>
			<path class="st9" d="M1357.4-171.8h-10.1l-0.4-4.3l15.3-16.4h5.5l-3.9,16.1h2.8l-1.2,4.6h-2.7l-1.3,5.5h-5.3L1357.4-171.8z
				 M1358.5-176.4l2.2-8.8l-7.9,8.8H1358.5z"/>
			<path class="st9" d="M1368.5-173.1c0-4.5,2.9-6.4,5.6-7.3c-1.7-1.2-2.5-2.7-2.5-4.8c0-3.6,2.9-7.6,8.6-7.6c4.6,0,7.8,2.7,7.8,6.7
				c0,3.8-2.1,5.8-4.9,6.8c2.1,1.2,3.3,2.7,3.3,5.3c0,4-3.4,8-9.5,8C1372.5-166,1368.5-168.7,1368.5-173.1z M1381-174.1
				c0-2-1.3-3.2-3.4-3.2c-2,0-3.7,1.6-3.7,3.6c0,1.9,1.4,3.2,3.3,3.2C1379.3-170.5,1380.9-172.1,1381-174.1z M1382.8-185.3
				c0-1.5-0.8-2.8-2.9-2.8c-1.8,0-3.2,1.6-3.2,3.4c0,1.5,0.9,2.9,2.8,2.9C1381.3-181.8,1382.8-183.4,1382.8-185.3z"/>
			<path class="st9" d="M1411.5-182.6c0,4.5-1.6,10.3-4.9,13.6c-2,2-4.4,3.1-7.5,3.1c-5.1,0-8.7-3.7-8.7-10.1
				c0-4.5,1.6-10.4,4.9-13.6c1.9-2,4.4-3.1,7.4-3.1C1407.9-192.7,1411.5-189,1411.5-182.6z M1402.3-172.2c2.2-2.2,3.5-7.2,3.5-10.4
				c0-3.6-1.4-5-3.4-5c-1,0-1.9,0.4-2.7,1.2c-2.2,2.2-3.5,7.2-3.5,10.4c0,3.6,1.4,5,3.4,5C1400.5-171,1401.5-171.4,1402.3-172.2z"/>
			<path class="st9" d="M1434.8-182.6c0,4.5-1.6,10.3-4.9,13.6c-2,2-4.4,3.1-7.5,3.1c-5.1,0-8.7-3.7-8.7-10.1
				c0-4.5,1.6-10.4,4.9-13.6c1.9-2,4.4-3.1,7.4-3.1C1431.2-192.7,1434.8-189,1434.8-182.6z M1425.5-172.2c2.2-2.2,3.5-7.2,3.5-10.4
				c0-3.6-1.4-5-3.4-5c-1,0-1.9,0.4-2.7,1.2c-2.2,2.2-3.5,7.2-3.5,10.4c0,3.6,1.4,5,3.4,5C1423.8-171,1424.7-171.4,1425.5-172.2z"/>
		</g>
	</g>
</g>
<g class="st4">
	<g>
		<g class="st1">
			<path class="st2" d="M2353.9,360.2l22.8,82.3c0,0,4.6,15,18.7,15.8c14.3,0.8,444.3,6.7,444.3,6.7s35-0.2,27-12.4
				c-8-12.1-75.8-110.4-75.8-110.4s-7.6-13.6-29.9-13.2c-21.3,0.4-374.4,17.3-392,17.8C2356.3,347.3,2353.5,353,2353.9,360.2z"/>
		</g>
		<g>
			<g>
				<path class="st0" d="M2871.8,450.7h-474.7c-2.5,0-4.6-2.1-4.6-4.6V199.9c0-2.5,2.1-4.6,4.6-4.6h474.7c2.5,0,4.6,2.1,4.6,4.6
					v246.2C2876.4,448.6,2874.3,450.7,2871.8,450.7z"/>
			</g>
			<g>
				<path class="st11" d="M2856.4,452.6h-444c-12.2,0-22.1-8.8-22.1-19.5V212.9c0-10.8,9.9-19.5,22.1-19.5h444
					c12.2,0,22.1,8.8,22.1,19.5v220.2C2878.5,443.9,2868.6,452.6,2856.4,452.6z M2412.4,197.2c-9.8,0-17.8,7.1-17.8,15.7v220.2
					c0,8.7,8,15.7,17.8,15.7h444c9.8,0,17.8-7.1,17.8-15.7V212.9c0-8.7-8-15.7-17.8-15.7H2412.4z"/>
			</g>
		</g>
		<g class="st4">
			<path class="st11" d="M2848.3,202h-432c-9.5,0-17.3,7.4-17.3,16.4v48.4h466.6v-48.4C2865.6,209.4,2857.8,202,2848.3,202z"/>
		</g>
		<g>
			<path class="st11" d="M2544.8,223.4h4.4l10,27.4h-4.7l-2.3-6.4h-10.6l-2.3,6.4h-4.6L2544.8,223.4z M2550.7,240.3l-3.9-10.9
				l-3.9,10.9H2550.7z"/>
			<path class="st11" d="M2560.6,237.3V237c0-8.2,5.1-13.9,12.2-13.9c3.8,0,6.3,1.4,8.6,3.4l-2.7,3.5c-1.6-1.5-3.4-2.6-5.8-2.6
				c-4.3,0-7.5,3.9-7.5,9.7v0.2c0,5.9,3.2,9.8,7.5,9.8c2.6,0,4.3-1.2,6-2.8l2.6,3.2c-2.4,2.5-5.1,3.9-8.9,3.9
				C2565.6,251.1,2560.6,245.6,2560.6,237.3z"/>
			<path class="st11" d="M2583.8,237.3V237c0-8.2,5.1-13.9,12.2-13.9c3.8,0,6.3,1.4,8.6,3.4l-2.7,3.5c-1.6-1.5-3.4-2.6-5.8-2.6
				c-4.3,0-7.5,3.9-7.5,9.7v0.2c0,5.9,3.2,9.8,7.5,9.8c2.6,0,4.3-1.2,6-2.8l2.6,3.2c-2.4,2.5-5.1,3.9-8.9,3.9
				C2588.8,251.1,2583.8,245.6,2583.8,237.3z"/>
			<path class="st11" d="M2607,237.4V237c0-8.1,5-13.9,12.1-13.9c7.1,0,12,5.8,12,13.8v0.4c0,8.1-5,13.9-12.1,13.9
				S2607,245.4,2607,237.4z M2626.4,237.3V237c0-5.8-3.1-9.8-7.4-9.8s-7.4,3.9-7.4,9.7v0.3c0,5.8,3.2,9.8,7.4,9.8
				S2626.4,243.2,2626.4,237.3z"/>
			<path class="st11" d="M2635.6,240.4v-16.8h4.5v16.8c0,4.4,2.1,6.7,5.6,6.7c3.4,0,5.6-2.2,5.6-6.5v-17h4.5v16.7
				c0,7.3-4,11-10.2,11C2639.6,251.2,2635.6,247.5,2635.6,240.4z"/>
			<path class="st11" d="M2661.5,223.5h4.2l12,18.2v-18.2h4.4v27.2h-3.8L2666,232v18.7h-4.4L2661.5,223.5L2661.5,223.5z"/>
			<path class="st11" d="M2693.4,227.7h-7.2v-4.2h18.8v4.2h-7.2v23h-4.5L2693.4,227.7L2693.4,227.7z"/>
			<path class="st11" d="M2706.9,247.2l2.7-3.4c2,1.8,4.3,3.2,7.2,3.2c2.6,0,4.3-1.4,4.3-3.5l0,0c0-1.7-0.9-2.8-5.2-4.4
				c-5.2-1.9-7.9-3.9-7.9-8.2v-0.1c0-4.5,3.6-7.6,8.6-7.6c3.2,0,6.1,1,8.6,3.2l-2.6,3.5c-1.9-1.5-3.9-2.6-6.1-2.6
				c-2.5,0-4,1.4-4,3.1l0,0c0,1.9,1,2.9,5.6,4.7c5.1,1.9,7.4,4,7.4,8v0.1c0,4.8-3.7,7.9-8.8,7.9
				C2713.2,251.1,2709.8,249.9,2706.9,247.2z"/>
		</g>
	</g>
	<g>
		<path class="st11" d="M2515.6,346.8h18.5v7.4h-18.5V346.8z"/>
		<path class="st11" d="M2566.3,335.1c-2.4-1.9-4.9-3.4-7.6-4v13.1c8.9,3.4,12.4,7.4,12.4,13.9v0.1c0,6.9-5,11.7-12.3,12.6v6.6h-5.3
			v-6.5c-5-0.5-9.9-2.6-13.8-6.3l4.3-5.6c2.9,2.7,6,4.6,9.7,5.2v-13.7c-8.5-3.3-12.2-6.8-12.2-13.6v-0.1c0-6.7,4.9-11.5,12.1-12.4
			v-4.1h5.3v4.2c4.3,0.5,8.1,2.1,11.4,5L2566.3,335.1z M2553.7,342.3v-11.4c-3.2,0.7-4.8,2.8-4.8,5.4v0.1
			C2548.9,338.9,2550,340.5,2553.7,342.3z M2558.7,352.3v11.9c3.3-0.7,5.1-2.8,5.1-5.6v-0.1C2563.8,355.9,2562.6,354.1,2558.7,352.3
			z"/>
		<path class="st11" d="M2584.2,332l-7.3,2.2l-1.3-6.6l10.8-3.6h5.4v46.9h-7.6V332z"/>
		<path class="st11" d="M2600.5,348v-0.7c0-14.1,6.9-23.7,17.7-23.7c10.6,0,17.5,9.4,17.5,23.6v0.7c0,14.1-6.9,23.7-17.7,23.7
			C2607.3,371.6,2600.5,362.1,2600.5,348z M2627.9,347.9v-0.5c0-10.4-4-16.7-9.8-16.7c-5.8,0-9.7,6.2-9.7,16.6v0.5
			c0,10.4,4,16.7,9.8,16.7C2624,364.5,2627.9,358.3,2627.9,347.9z"/>
		<path class="st11" d="M2642.2,348v-0.7c0-14.1,6.9-23.7,17.7-23.7c10.6,0,17.5,9.4,17.5,23.6v0.7c0,14.1-6.9,23.7-17.7,23.7
			C2649,371.6,2642.2,362.1,2642.2,348z M2669.5,347.9v-0.5c0-10.4-4-16.7-9.8-16.7s-9.7,6.2-9.7,16.6v0.5c0,10.4,4,16.7,9.8,16.7
			C2665.7,364.5,2669.5,358.3,2669.5,347.9z"/>
		<path class="st11" d="M2683.9,348v-0.7c0-14.1,6.9-23.7,17.7-23.7c10.6,0,17.5,9.4,17.5,23.6v0.7c0,14.1-6.9,23.7-17.7,23.7
			C2690.7,371.6,2683.9,362.1,2683.9,348z M2711.2,347.9v-0.5c0-10.4-4-16.7-9.8-16.7s-9.7,6.2-9.7,16.6v0.5c0,10.4,4,16.7,9.8,16.7
			C2707.4,364.5,2711.2,358.3,2711.2,347.9z"/>
	</g>
</g>
<g>
	<path class="st12" d="M1626.3-86.7h4.9l3.5,12.7l9.5-12.7h5.4l-6.6,27.2h-4.7L1643-79l-10,12.9h-0.2l-3.7-12.8l-4.7,19.4h-4.7
		L1626.3-86.7z"/>
	<path class="st12" d="M1668.6-71.7c0,3.7-1.4,7.4-3.8,9.7c-1.8,1.9-4.2,3-6.8,3c-5,0-8.2-3.6-8.2-8.8c0-3.7,1.4-7.4,3.8-9.8
		c1.8-1.9,4.2-3,6.8-3C1665.4-80.6,1668.6-77,1668.6-71.7z M1661.4-64.5c1.7-1.7,2.6-4.7,2.6-7.1c0-3.3-1.6-5-3.9-5
		c-1.2,0-2.4,0.6-3.3,1.4c-1.7,1.7-2.6,4.7-2.6,7.1c0,3.3,1.6,5,3.9,5C1659.4-63.1,1660.5-63.6,1661.4-64.5z"/>
	<path class="st12" d="M1674.9-80.2h4.6l-0.5,2.4c1.3-1.5,3.1-2.8,5.4-2.8c3.1,0,5.2,2,5.2,5.4c0,1-0.3,2.4-0.6,3.9l-2.8,11.8h-4.7
		l2.9-11.9c0.3-1,0.4-1.9,0.4-2.4c0-1.7-0.9-2.6-2.7-2.6c-2.2,0-3.9,1.9-4.5,4.5l-3,12.4h-4.6L1674.9-80.2z"/>
	<path class="st12" d="M1696.5-68.2v0.3c0,3.1,1.5,5.1,4.1,5.1c1.8,0,3-0.6,4.4-1.7l2,3.2c-1.8,1.4-3.9,2.3-6.6,2.3
		c-5.1,0-8.2-3.4-8.2-8.8c0-3.7,1.5-7.4,3.9-9.8c1.8-1.8,4-3,6.8-3c4.4,0,7.1,3.2,7.1,7.6c0,1.4-0.2,3-0.9,4.8H1696.5z M1697-71.2
		h8.6c0.2-0.7,0.2-1.2,0.2-2c0-2-1-3.6-3.2-3.6c-1.3,0-2.5,0.6-3.4,1.5C1698.2-74.3,1697.4-72.9,1697-71.2z"/>
	<path class="st12" d="M1713.4-80.2h4.7l0.8,15.2l7.5-15.2h4.9l-11.4,21.1c-2.2,4-4.1,5.6-7,5.6c-1.7,0-3.2-0.6-4.3-1.6l2.2-3.2
		c0.7,0.5,1.4,0.9,2.1,0.9c0.9,0,1.6-0.5,2.4-1.9L1713.4-80.2z"/>
	<path class="st12" d="M1729.6-64l3.6-3c2,2.4,4,3.8,6.5,3.8c2.3,0,3.9-1.5,3.9-3.4c0-1.4-0.9-2.6-3.9-4.6c-3.6-2.5-5.5-4.6-5.5-7.6
		c0-2.3,0.9-4.2,2.2-5.5c1.7-1.7,4-2.7,6.7-2.7c3.9,0,6.7,1.8,8.7,4l-3.3,3.2c-1.8-1.9-3.5-3.1-5.6-3.1c-2.4,0-3.8,1.6-3.8,3.2
		c0,1.5,0.9,2.6,4,4.7c3.4,2.3,5.4,4.4,5.4,7.7c0,2.3-0.9,4.2-2.3,5.7c-1.6,1.6-4.2,2.6-6.8,2.6C1735.3-59.1,1731.9-61,1729.6-64z"
		/>
	<path class="st12" d="M1752.3-64.5c0-1,0.2-2.4,0.6-3.9l2.8-11.8h4.6l-2.9,11.8c-0.2,1-0.4,1.9-0.4,2.4c0,1.7,0.9,2.7,2.7,2.7
		c2.2,0,4-1.9,4.5-4.5l3-12.4h4.6l-5.1,20.7h-4.6l0.6-2.4c-1.3,1.5-3.1,2.8-5.4,2.8C1754.4-59.1,1752.3-61.1,1752.3-64.5z"/>
	<path class="st12" d="M1777.2-62.9l-0.8,3.4h-4.6l6.8-28.1h4.6l-2.4,9.9c1.6-1.8,3.3-3,5.6-3c3.6,0,6.5,3,6.5,8.3
		c0,4-1.4,7.9-3.9,10.4c-1.8,1.7-3.9,2.7-6.2,2.7C1780-59.1,1778.2-60.7,1777.2-62.9z M1785.4-64.5c1.7-1.7,2.7-4.5,2.7-7.4
		c0-3-1.3-4.8-3.7-4.8c-1.3,0-2.5,0.5-3.5,1.6c-1.7,1.7-2.7,4.6-2.7,7.3c0,2.9,1.6,4.7,3.9,4.7C1783.2-63.1,1784.5-63.5,1785.4-64.5
		z"/>
	<path class="st12" d="M1796-63.1c0-0.8,0.2-1.7,0.4-2.5l2.6-10.7h-2.3l1-4h2.3l1.3-5.4h4.6l-1.3,5.4h4.3l-1,4h-4.2l-2.6,10.7
		c-0.1,0.4-0.1,0.8-0.1,1c0,0.8,0.6,1.2,1.6,1.2c0.8,0,1.7-0.2,2.5-0.6l-1,4c-0.9,0.5-2.2,0.7-3.5,0.7
		C1797.6-59.2,1796-60.7,1796-63.1z"/>
	<path class="st12" d="M1812.8-80.2h4.6l-0.9,3.7c1.8-2.6,3.8-4.3,7-4.1l-1.3,4.8h-0.3c-3.5,0-6.1,2-7.3,6.8l-2.3,9.5h-4.6
		L1812.8-80.2z"/>
	<path class="st12" d="M1821.2-64.6c0-2.1,0.7-4,2.1-5.4c1.4-1.4,3.6-2.2,6-2.2c1.9,0,3.6,0.4,5.1,1l0.1-0.5
		c0.2-0.7,0.3-1.4,0.3-2.1c0-1.6-1-2.7-3.6-2.7c-1.6,0-3.1,0.4-4.6,1.1l-1.1-3.7c1.8-0.8,3.9-1.3,6.4-1.3c4.8,0,7.4,2.1,7.4,5.7
		c0,1.2-0.2,2.4-0.6,3.8l-2.7,11.5h-4.5l0.6-2.5c-1.5,1.8-3.3,2.9-5.6,2.9C1823.4-59.1,1821.2-61.3,1821.2-64.6z M1833.4-66.9
		l0.4-1.7c-1-0.4-2.4-0.7-3.7-0.7c-1.4,0-2.4,0.4-3.2,1.2c-0.7,0.7-1.2,1.9-1.2,3.1c0,1.6,1,2.7,2.7,2.7
		C1830.9-62.4,1832.8-64.5,1833.4-66.9z"/>
	<path class="st12" d="M1842.1-67.6c0-3.8,1.5-7.5,3.9-9.9c1.9-1.9,4.2-3,7-3c3.6,0,5.5,1.6,6.8,3.7l-3.4,2.7
		c-0.9-1.4-1.9-2.4-3.5-2.4c-1.3,0-2.4,0.6-3.3,1.5c-1.7,1.7-2.8,4.7-2.8,7.3c0,3.1,1.6,4.7,3.7,4.7c1.5,0,2.5-0.7,3.8-1.8l2.3,3
		c-1.6,1.5-3.6,2.7-6.4,2.7C1845.4-59.1,1842.1-62.3,1842.1-67.6z"/>
	<path class="st12" d="M1860.8-63.1c0-0.8,0.2-1.7,0.4-2.5l2.6-10.7h-2.3l1-4h2.3l1.3-5.4h4.6l-1.3,5.4h4.3l-1,4h-4.2l-2.6,10.7
		c-0.1,0.4-0.1,0.8-0.1,1c0,0.8,0.6,1.2,1.6,1.2c0.8,0,1.7-0.2,2.5-0.6l-1,4c-0.9,0.5-2.2,0.7-3.5,0.7
		C1862.4-59.2,1860.8-60.7,1860.8-63.1z"/>
	<path class="st12" d="M1877.9-68.2v0.3c0,3.1,1.5,5.1,4.1,5.1c1.8,0,3-0.6,4.4-1.7l2,3.2c-1.8,1.4-3.9,2.3-6.6,2.3
		c-5.1,0-8.2-3.4-8.2-8.8c0-3.7,1.5-7.4,3.9-9.8c1.8-1.8,4-3,6.8-3c4.4,0,7.1,3.2,7.1,7.6c0,1.4-0.2,3-0.9,4.8H1877.9z M1878.3-71.2
		h8.6c0.2-0.7,0.2-1.2,0.2-2c0-2-1-3.6-3.2-3.6c-1.3,0-2.5,0.6-3.4,1.5C1879.6-74.3,1878.8-72.9,1878.3-71.2z"/>
	<path class="st12" d="M1905.9-62c-1.6,1.7-3.3,2.9-5.6,2.9c-3.6,0-6.5-3-6.5-8.3c0-3.9,1.4-7.9,3.9-10.4c1.8-1.7,3.9-2.7,6.2-2.7
		c2.8,0,4.6,1.6,5.6,3.7l2.6-10.7h4.6l-6.9,28.1h-4.6L1905.9-62z M1905.7-64.6c1.7-1.7,2.7-4.6,2.7-7.3c0-2.9-1.6-4.7-3.9-4.7
		c-1.1,0-2.3,0.5-3.3,1.4c-1.7,1.7-2.7,4.5-2.7,7.4c0,3,1.3,4.8,3.7,4.8C1903.5-63.1,1904.7-63.6,1905.7-64.6z"/>
	<path class="st12" d="M1941.2-89.1l-0.7,2.8c2.3,0.7,4.2,1.9,5.5,3.3l-3.2,3.2c-1.1-1-2.2-1.8-3.5-2.3l-1.9,7.3
		c3.4,1.8,5.5,4,5.5,7.1c0,5-4,8.4-9.5,8.4h-0.1l-1.1,3.7h-3.2l1.2-4.1c-2.8-0.7-5.2-2.1-6.8-4.2l3.4-3c1.4,1.6,3,2.7,4.7,3.2l2-7.8
		c-3.4-1.8-5.5-3.7-5.5-7.2c0-4.6,3.7-8,9.3-8h0.2l0.7-2.3h3L1941.2-89.1L1941.2-89.1z M1934.7-76.3l1.7-6.5
		c-2.4,0.1-3.8,1.7-3.8,3.4C1932.6-78.3,1933-77.4,1934.7-76.3z M1936-70.2l-1.8,6.8c2.3-0.2,3.8-1.9,3.8-3.9
		C1938-68.4,1937.5-69.2,1936-70.2z"/>
	<path class="st12" d="M1953.3-81.7l-4.4,1.2v-4.2l7-2.2h3.3l-6.7,27.4h-4.7L1953.3-81.7z"/>
	<path class="st12" d="M1982.5-76.9c0,4.9-1.8,11.2-5.3,14.7c-2,2-4.5,3.2-7.5,3.2c-5.3,0-8.7-3.8-8.7-10.2c0-5,1.8-11.2,5.3-14.7
		c2-2,4.5-3.2,7.4-3.2C1979.1-87.1,1982.5-83.3,1982.5-76.9z M1973.6-64.9c2.6-2.6,4.1-8.1,4.1-12c0-4-1.6-6-4.2-6
		c-1.3,0-2.5,0.6-3.5,1.6c-2.6,2.6-4.1,8.1-4.1,12c0,4,1.6,6,4.2,6C1971.4-63.3,1972.6-63.9,1973.6-64.9z"/>
	<path class="st12" d="M2006.7-76.9c0,4.9-1.8,11.2-5.3,14.7c-2,2-4.5,3.2-7.5,3.2c-5.3,0-8.7-3.8-8.7-10.2c0-5,1.8-11.2,5.3-14.7
		c2-2,4.5-3.2,7.4-3.2C2003.2-87.1,2006.7-83.3,2006.7-76.9z M1997.8-64.9c2.6-2.6,4.1-8.1,4.1-12c0-4-1.6-6-4.2-6
		c-1.3,0-2.5,0.6-3.5,1.6c-2.6,2.6-4.1,8.1-4.1,12c0,4,1.6,6,4.2,6C1995.5-63.3,1996.7-63.9,1997.8-64.9z"/>
	<path class="st12" d="M2030.8-76.9c0,4.9-1.8,11.2-5.3,14.7c-2,2-4.5,3.2-7.5,3.2c-5.3,0-8.7-3.8-8.7-10.2c0-5,1.8-11.2,5.3-14.7
		c2-2,4.5-3.2,7.4-3.2C2027.4-87.1,2030.8-83.3,2030.8-76.9z M2021.9-64.9c2.6-2.6,4.1-8.1,4.1-12c0-4-1.6-6-4.2-6
		c-1.3,0-2.5,0.6-3.5,1.6c-2.6,2.6-4.1,8.1-4.1,12c0,4,1.6,6,4.2,6C2019.6-63.3,2020.9-63.9,2021.9-64.9z"/>
</g>
<g>
	<path class="st12" d="M1622-26.2h4.7l-5.6,22.9h11.5l-1.1,4.3h-16.2L1622-26.2z"/>
	<path class="st12" d="M1640.4-19.7h4.6L1639.9,1h-4.6L1640.4-19.7z M1642.1-27.1h4.9l-1.2,4.5h-4.9L1642.1-27.1z"/>
	<path class="st12" d="M1650.1-19.7h4.6l-0.5,2.4c1.4-1.6,3-2.8,5.2-2.8c2.4,0,4.1,1.4,4.7,3.7c1.7-2.3,3.9-3.7,6.6-3.7
		c3.2,0,5.3,2.1,5.3,5.2c0,1.2-0.3,2.6-0.6,4.1L1672.5,1h-4.6l2.9-11.9c0.2-1,0.4-1.9,0.4-2.4c0-1.7-0.9-2.6-2.6-2.6
		c-2,0-3.8,1.8-4.4,4.4l-3.1,12.6h-4.6l2.9-11.9c0.2-1,0.4-1.9,0.4-2.4c0-1.7-1-2.6-2.6-2.6c-2.1,0-3.8,1.9-4.4,4.5l-3,12.4h-4.6
		L1650.1-19.7z"/>
	<path class="st12" d="M1682.6-19.7h4.6L1682.1,1h-4.6L1682.6-19.7z M1684.3-27.1h4.9l-1.2,4.5h-4.9L1684.3-27.1z"/>
	<path class="st12" d="M1689.2-2.6c0-0.8,0.2-1.7,0.4-2.5l2.6-10.7h-2.3l1-4h2.3l1.3-5.4h4.6l-1.3,5.4h4.3l-1,4h-4.2l-2.6,10.7
		c-0.1,0.4-0.1,0.8-0.1,1c0,0.8,0.6,1.2,1.6,1.2c0.8,0,1.7-0.2,2.5-0.6l-1,4c-0.9,0.5-2.2,0.7-3.5,0.7
		C1690.8,1.3,1689.2-0.2,1689.2-2.6z"/>
	<path class="st12" d="M1708-26.2h4.7l-2.8,11.4h10.1l2.7-11.4h4.7L1720.8,1h-4.7l2.8-11.5h-10.1L1706,1h-4.7L1708-26.2z"/>
	<path class="st12" d="M1731.6-19.7h4.6L1731.1,1h-4.6L1731.6-19.7z M1733.2-27.1h4.9l-1.2,4.5h-4.9L1733.2-27.1z"/>
	<path class="st12" d="M1738.2-2.6c0-0.8,0.2-1.7,0.4-2.5l2.6-10.7h-2.3l1-4h2.3l1.3-5.4h4.6l-1.3,5.4h4.3l-1,4h-4.2l-2.6,10.7
		c-0.1,0.4-0.1,0.8-0.1,1c0,0.8,0.6,1.2,1.6,1.2c0.8,0,1.7-0.2,2.5-0.6l-1,4c-0.9,0.5-2.2,0.7-3.5,0.7
		C1739.8,1.3,1738.2-0.2,1738.2-2.6z"/>
	<path class="st12" d="M1760.7-6.9c0-5.8,2.3-10.9,6.1-14.7c2.1-2.1,4.8-3.9,7.9-5.1l1.6,3.3c-2.3,1.1-4.2,2.5-5.8,4
		c-3.5,3.5-5.2,7.8-5.2,12.4c0,4.3,1.7,7.6,4.5,10.7l-2.9,2.7C1763.1,2.9,1760.7-1.2,1760.7-6.9z"/>
	<path class="st12" d="M1773.5-2.8l11.8-10.3c2.8-2.4,4.1-4.2,4.1-6.2s-1.3-3.1-3.4-3.1c-2,0-3.6,1.1-5.6,3l-2.9-3
		c2.2-2.5,5.1-4.2,8.8-4.2c4.9,0,8,2.9,8,6.8c0,3.7-1.8,6.1-5.7,9.3l-8.4,7.4h10.8l-1.1,4.1h-17.3L1773.5-2.8z"/>
	<path class="st12" d="M1804.6-13.1l4.9-6.6h5.4l-8.6,10.3l3.9,10.4h-4.9l-2.2-7.1l-5.2,7.1h-5.4l8.9-10.8l-3.7-9.9h4.9L1804.6-13.1
		z"/>
	<path class="st12" d="M1826.6-13.4c0,5.8-2.3,10.9-6.1,14.7c-2.1,2.1-4.8,3.9-7.9,5.1l-1.6-3.3c2.3-1.1,4.2-2.5,5.8-4
		c3.5-3.5,5.2-7.8,5.2-12.4c0-4.3-1.7-7.6-4.5-10.7l2.9-2.7C1824.2-23.3,1826.6-19.1,1826.6-13.4z"/>
</g>
<g>
	<path class="st12" d="M1927.6,142.3h4.7l-5.6,22.9h11.5l-1.1,4.3H1921L1927.6,142.3z"/>
	<path class="st12" d="M1946.1,148.8h4.6l-5.1,20.7h-4.6L1946.1,148.8z M1947.8,141.4h4.9l-1.2,4.5h-4.9L1947.8,141.4z"/>
	<path class="st12" d="M1955.8,148.8h4.6l-0.5,2.4c1.4-1.6,3-2.8,5.2-2.8c2.4,0,4.1,1.4,4.7,3.7c1.7-2.3,3.9-3.7,6.6-3.7
		c3.2,0,5.3,2.1,5.3,5.2c0,1.2-0.3,2.6-0.6,4.1l-2.9,11.8h-4.6l2.9-11.9c0.2-1,0.4-1.9,0.4-2.4c0-1.7-0.9-2.6-2.6-2.6
		c-2,0-3.8,1.8-4.4,4.4l-3.1,12.6h-4.6l2.9-11.9c0.2-1,0.4-1.9,0.4-2.4c0-1.7-1-2.6-2.6-2.6c-2.1,0-3.8,1.9-4.4,4.5l-3,12.4h-4.6
		L1955.8,148.8z"/>
	<path class="st12" d="M1988.2,148.8h4.6l-5.1,20.7h-4.6L1988.2,148.8z M1989.9,141.4h4.9l-1.2,4.5h-4.9L1989.9,141.4z"/>
	<path class="st12" d="M1994.8,165.9c0-0.8,0.2-1.7,0.4-2.5l2.6-10.7h-2.3l1-4h2.3l1.3-5.4h4.6l-1.3,5.4h4.3l-1,4h-4.2l-2.6,10.7
		c-0.1,0.4-0.1,0.8-0.1,1c0,0.8,0.6,1.2,1.6,1.2c0.8,0,1.7-0.2,2.5-0.6l-1,4c-0.9,0.5-2.2,0.7-3.5,0.7
		C1996.5,169.8,1994.8,168.3,1994.8,165.9z"/>
	<path class="st12" d="M2013.7,142.3h4.7l-2.8,11.4h10.1l2.7-11.4h4.7l-6.6,27.2h-4.7l2.8-11.5h-10.1l-2.8,11.5h-4.7L2013.7,142.3z"
		/>
	<path class="st12" d="M2037.2,148.8h4.6l-5.1,20.7h-4.6L2037.2,148.8z M2038.9,141.4h4.9l-1.2,4.5h-4.9L2038.9,141.4z"/>
	<path class="st12" d="M2043.8,165.9c0-0.8,0.2-1.7,0.4-2.5l2.6-10.7h-2.3l1-4h2.3l1.3-5.4h4.6l-1.3,5.4h4.3l-1,4h-4.2l-2.6,10.7
		c-0.1,0.4-0.1,0.8-0.1,1c0,0.8,0.6,1.2,1.6,1.2c0.8,0,1.7-0.2,2.5-0.6l-1,4c-0.9,0.5-2.2,0.7-3.5,0.7
		C2045.5,169.8,2043.8,168.3,2043.8,165.9z"/>
</g>
<g>
	<path class="st12" d="M1820.8,198.5h4.7l-5.6,22.9h11.5l-1.1,4.3h-16.2L1820.8,198.5z"/>
	<path class="st12" d="M1852.7,213.4c0,3.7-1.4,7.4-3.8,9.7c-1.8,1.9-4.2,3-6.8,3c-5,0-8.2-3.6-8.2-8.8c0-3.7,1.4-7.4,3.8-9.8
		c1.8-1.9,4.2-3,6.8-3C1849.6,204.6,1852.7,208.1,1852.7,213.4z M1845.6,220.7c1.7-1.7,2.6-4.7,2.6-7.1c0-3.3-1.6-5-3.9-5
		c-1.2,0-2.4,0.6-3.3,1.4c-1.7,1.7-2.6,4.7-2.6,7.1c0,3.3,1.6,5,3.9,5C1843.5,222.1,1844.7,221.6,1845.6,220.7z"/>
	<path class="st12" d="M1854.3,220.6c0-2.1,0.7-4,2.1-5.4c1.4-1.4,3.6-2.2,6-2.2c1.9,0,3.6,0.4,5.1,1l0.1-0.5
		c0.2-0.7,0.3-1.4,0.3-2.1c0-1.6-1-2.7-3.6-2.7c-1.6,0-3.1,0.4-4.6,1.1l-1.1-3.7c1.8-0.8,3.9-1.3,6.4-1.3c4.8,0,7.4,2.1,7.4,5.7
		c0,1.2-0.2,2.4-0.6,3.8l-2.7,11.5h-4.5l0.6-2.5c-1.5,1.8-3.3,2.9-5.6,2.9C1856.4,226.1,1854.3,223.8,1854.3,220.6z M1866.5,218.2
		l0.4-1.7c-1-0.4-2.4-0.7-3.7-0.7c-1.4,0-2.4,0.4-3.2,1.2c-0.7,0.7-1.2,1.9-1.2,3.1c0,1.6,1,2.7,2.7,2.7
		C1864,222.8,1865.9,220.6,1866.5,218.2z"/>
	<path class="st12" d="M1878.9,205h4.6l-0.5,2.4c1.3-1.5,3.1-2.8,5.4-2.8c3.1,0,5.2,2,5.2,5.4c0,1-0.3,2.4-0.6,3.9l-2.8,11.8h-4.7
		l2.9-11.9c0.3-1,0.4-1.9,0.4-2.4c0-1.7-0.9-2.6-2.7-2.6c-2.2,0-3.9,1.9-4.5,4.5l-3,12.4h-4.6L1878.9,205z"/>
	<path class="st12" d="M1901.8,198.5h6.7c3.5,0,5.9,0.7,7.6,2.4c1.3,1.3,2,3.1,2,5.4c0,2.8-1,5.3-2.8,7.2c-2.1,2.1-5.4,3.4-9.5,3.4
		h-3.8l-2.1,8.8h-4.7L1901.8,198.5z M1908.3,202.7h-2.8l-2.4,10h3c2.5,0,4.4-0.7,5.6-1.9c1.1-1.1,1.6-2.6,1.6-4.2
		c0-1.2-0.4-2.1-1-2.8C1911.3,203,1910,202.7,1908.3,202.7z"/>
	<path class="st12" d="M1922.4,205h4.6l-0.9,3.7c1.8-2.6,3.8-4.3,7-4.1l-1.3,4.8h-0.3c-3.5,0-6.1,2-7.3,6.8l-2.3,9.5h-4.6
		L1922.4,205z"/>
	<path class="st12" d="M1951.2,213.4c0,3.7-1.4,7.4-3.8,9.7c-1.8,1.9-4.2,3-6.8,3c-5,0-8.2-3.6-8.2-8.8c0-3.7,1.4-7.4,3.8-9.8
		c1.8-1.9,4.2-3,6.8-3C1948,204.6,1951.2,208.1,1951.2,213.4z M1944,220.7c1.7-1.7,2.6-4.7,2.6-7.1c0-3.3-1.6-5-3.9-5
		c-1.2,0-2.4,0.6-3.3,1.4c-1.7,1.7-2.6,4.7-2.6,7.1c0,3.3,1.6,5,3.9,5C1942,222.1,1943.1,221.6,1944,220.7z"/>
	<path class="st12" d="M1957.9,222.3l-2.2,9.2h-4.6l6.5-26.6h4.6l-0.6,2.6c1.6-1.8,3.3-3,5.6-3c3.6,0,6.5,3,6.5,8.3
		c0,4-1.4,7.9-3.9,10.4c-1.8,1.7-3.9,2.7-6.2,2.7C1960.7,226,1958.9,224.4,1957.9,222.3z M1966.1,220.7c1.7-1.7,2.7-4.5,2.7-7.4
		c0-3-1.3-4.8-3.7-4.8c-1.3,0-2.5,0.5-3.5,1.6c-1.7,1.7-2.7,4.6-2.7,7.3c0,2.9,1.6,4.7,3.9,4.7
		C1963.9,222.1,1965.2,221.6,1966.1,220.7z"/>
	<path class="st12" d="M1995.2,213.4c0,3.7-1.4,7.4-3.8,9.7c-1.8,1.9-4.2,3-6.8,3c-5,0-8.2-3.6-8.2-8.8c0-3.7,1.4-7.4,3.8-9.8
		c1.8-1.9,4.2-3,6.8-3C1992,204.6,1995.2,208.1,1995.2,213.4z M1988,220.7c1.7-1.7,2.6-4.7,2.6-7.1c0-3.3-1.6-5-3.9-5
		c-1.2,0-2.4,0.6-3.3,1.4c-1.7,1.7-2.6,4.7-2.6,7.1c0,3.3,1.6,5,3.9,5C1986,222.1,1987.1,221.6,1988,220.7z"/>
	<path class="st12" d="M1995.7,222.3l2.8-2.8c1.9,2,3.6,3,5.3,3c1.5,0,2.7-1,2.7-2.3c0-1.2-0.8-1.9-3.2-3.5
		c-2.8-1.8-4.2-3.4-4.2-5.9c0-3.3,2.7-6.2,7.1-6.2c2.9,0,5.4,1.4,7,3.1l-2.6,3c-1.8-1.8-3.2-2.6-4.7-2.6c-1.4,0-2.5,1-2.5,2.2
		c0,1.1,0.7,1.8,3.2,3.3c3.2,2.1,4.3,3.8,4.3,6c0,3.5-3.1,6.3-7.3,6.3C2000.5,226.1,1997.8,224.7,1995.7,222.3z"/>
	<path class="st12" d="M2018.7,217v0.3c0,3.1,1.5,5.1,4.1,5.1c1.8,0,3-0.6,4.4-1.7l2,3.2c-1.8,1.4-3.9,2.3-6.6,2.3
		c-5.1,0-8.2-3.4-8.2-8.8c0-3.7,1.5-7.4,3.9-9.8c1.8-1.8,4-3,6.8-3c4.4,0,7.1,3.2,7.1,7.6c0,1.4-0.2,3-0.9,4.8L2018.7,217
		L2018.7,217z M2019.2,213.9h8.6c0.2-0.7,0.2-1.2,0.2-2c0-2-1-3.6-3.2-3.6c-1.3,0-2.5,0.6-3.4,1.5
		C2020.4,210.8,2019.6,212.3,2019.2,213.9z"/>
	<path class="st12" d="M2046.7,223.1c-1.6,1.7-3.3,2.9-5.6,2.9c-3.6,0-6.5-3-6.5-8.3c0-3.9,1.4-7.9,3.9-10.4
		c1.8-1.7,3.9-2.7,6.2-2.7c2.8,0,4.6,1.6,5.6,3.7l2.6-10.7h4.6l-6.9,28.1h-4.6L2046.7,223.1z M2046.5,220.6c1.7-1.7,2.7-4.6,2.7-7.3
		c0-2.9-1.6-4.7-3.9-4.7c-1.1,0-2.3,0.5-3.3,1.4c-1.7,1.7-2.7,4.5-2.7,7.4c0,3,1.3,4.8,3.7,4.8
		C2044.3,222.1,2045.5,221.6,2046.5,220.6z"/>
</g>
<g>
	<path class="st3" d="M1627.1,560.6c-1.5-0.4-3.1-0.9-4.5-1.3l1.3-4.1c1.4,0.5,2.9,0.9,4.4,1.3L1627.1,560.6z M1611.5,554.9
		c-7.5-3.4-14.2-7.8-20-12.9l2.9-3.2c5.5,4.8,11.9,8.9,19,12.2L1611.5,554.9z M1584,534.4c-6.5-7.7-11.6-16.8-15.2-27.3l4.1-1.4
		c3.4,9.9,8.3,18.6,14.4,25.9L1584,534.4z M1565.4,495.1c-1.7-7.6-2.7-15.9-3.1-24.6l4.3-0.2c0.4,8.5,1.4,16.6,3,23.9L1565.4,495.1z
		 M1566.5,458.8l-4.3-0.1c0.2-7.4,0.7-15.3,1.7-23.4l4.3,0.5C1567.3,443.8,1566.7,451.5,1566.5,458.8z M1569.6,425.6l-4.3-0.7
		c1.5-9.6,3.6-19.7,6.1-30.2l4.2,1C1573.2,406.1,1571.1,416.1,1569.6,425.6z M1578.8,383.9l-4.2-1.1c2.1-7.6,4.5-15.6,7.1-23.6
		l4.1,1.3C1583.2,368.5,1580.9,376.4,1578.8,383.9z M1589.5,349.6l-4.1-1.4c2.5-7.2,5.2-14.6,8.1-21.9l4,1.6
		C1594.7,335.1,1592,342.4,1589.5,349.6z M1601.4,318.1l-4-1.6c3.8-9.4,7.9-18.9,12.2-28.2l3.9,1.8
		C1609.3,299.4,1605.2,308.8,1601.4,318.1z M1618.7,278.9l-3.9-1.9c6.5-13.7,11-22,11-22.1l3.8,2.1
		C1629.6,257.1,1625.1,265.4,1618.7,278.9z"/>
</g>
<g>
	<path class="st3" d="M2196.3,571.2h-2.3v-4.3h2.2c9.2,0,16.7-0.1,22.2-0.3l0.1,4.3C2213.1,571.1,2205.6,571.2,2196.3,571.2z
		 M2182.4,571.1c-6.8-0.1-14.5-0.1-23.3-0.3l0.1-4.3c8.8,0.1,16.5,0.2,23.3,0.3L2182.4,571.1z M2148.7,570.7
		c-9.2-0.2-19.3-0.3-30.6-0.6l0.1-4.3c11.3,0.2,21.5,0.4,30.6,0.6L2148.7,570.7z M2105.8,569.9c-7.7-0.2-15.8-0.4-24.5-0.6l0.1-4.3
		c8.6,0.2,16.8,0.4,24.5,0.6L2105.8,569.9z M2228.4,569.3l-0.4-0.1l-1.8-2.1h2.2l0.4-2.1c0.1,0,0.4,0.1,0.7,0.2l-0.5,2h1.5h-1.5
		L2228.4,569.3z"/>
</g>
<g class="st13">
	<polygon class="st8" points="2087.9,107 1556.4,102.6 1569.4,29.2 2105.1,29.2 	"/>
</g>
<g class="st6">
	<path class="st8" d="M1658.7,50h4.9l11.2,30.6h-5.3l-2.5-7.2h-11.8l-2.5,7.2h-5.1L1658.7,50z M1665.4,68.9l-4.4-12.2l-4.4,12.2
		H1665.4z"/>
	<path class="st8" d="M1676.5,65.6v-0.3c0-9,5.8-15.5,14-15.5c4.1,0,7,1.2,9.7,3.4l-3,4c-1.7-1.6-3.7-2.7-6.7-2.7
		c-5,0-8.7,4.5-8.7,10.8v0.3c0,6.9,3.7,11,8.9,11c2.1,0,4-0.7,5.4-1.6v-6.7h-6.4v-4.4h11.2v13.7c-2.6,2-6.1,3.7-10.4,3.7
		C1682.1,81,1676.5,74.9,1676.5,65.6z"/>
	<path class="st8" d="M1705.6,65.6v-0.3c0-9,5.8-15.5,14-15.5c4.1,0,7,1.2,9.7,3.4l-3,4c-1.7-1.6-3.7-2.7-6.7-2.7
		c-5,0-8.7,4.5-8.7,10.8v0.3c0,6.9,3.7,11,8.9,11c2.1,0,4-0.7,5.4-1.6v-6.7h-6.4v-4.4h11.2v13.7c-2.6,2-6.1,3.7-10.4,3.7
		C1711.3,81,1705.6,74.9,1705.6,65.6z"/>
	<path class="st8" d="M1735.9,50.1h11c3.5,0,6.3,1,8.1,2.9c1.6,1.6,2.5,3.9,2.5,6.7v0.2c0,4.7-2.6,7.6-6.3,8.9l7.2,11.8h-5.8
		l-6.5-10.8c-0.1,0-0.2,0-0.3,0h-4.9v10.7h-5V50.1z M1746.4,65.3c3.9,0,6.1-2.1,6.1-5.3v-0.1c0-3.4-2.2-5.2-6-5.2h-5.5v10.6
		L1746.4,65.3L1746.4,65.3z"/>
	<path class="st8" d="M1763,50.1h19.2v4.6H1768V63h12.6v4.6H1768v8.5h14.4v4.6H1763V50.1z"/>
	<path class="st8" d="M1786.5,65.6v-0.3c0-9,5.8-15.5,14-15.5c4.1,0,7,1.2,9.7,3.4l-3,4c-1.7-1.6-3.7-2.7-6.7-2.7
		c-5,0-8.7,4.5-8.7,10.8v0.3c0,6.9,3.7,11,8.9,11c2.1,0,4-0.7,5.4-1.6v-6.7h-6.4v-4.4h11.2v13.7c-2.6,2-6.1,3.7-10.4,3.7
		C1792.1,81,1786.5,74.9,1786.5,65.6z"/>
	<path class="st8" d="M1825.7,50h4.9l11.2,30.6h-5.3l-2.5-7.2h-11.8l-2.5,7.2h-5.1L1825.7,50z M1832.4,68.9l-4.4-12.2l-4.4,12.2
		H1832.4z"/>
	<path class="st8" d="M1849,54.8h-8v-4.7h21.1v4.7h-8v25.8h-5.1V54.8z"/>
	<path class="st8" d="M1866.8,50.1h19.2v4.6h-14.2V63h12.6v4.6h-12.6v8.5h14.4v4.6h-19.4V50.1z"/>
	<path class="st8" d="M1902.7,50.1h11c3.5,0,6.3,1,8.1,2.9c1.6,1.6,2.5,3.9,2.5,6.7v0.2c0,4.7-2.6,7.6-6.3,8.9l7.2,11.8h-5.8
		l-6.5-10.8c-0.1,0-0.2,0-0.3,0h-4.9v10.7h-5V50.1z M1913.2,65.3c3.9,0,6.1-2.1,6.1-5.3v-0.1c0-3.4-2.2-5.2-6-5.2h-5.5v10.6
		L1913.2,65.3L1913.2,65.3z"/>
	<path class="st8" d="M1928.7,65.6v-0.4c0-9.1,5.6-15.5,13.5-15.5s13.4,6.4,13.4,15.4v0.4c0,9.1-5.6,15.5-13.5,15.5
		C1934.3,81.1,1928.7,74.6,1928.7,65.6z M1950.5,65.5v-0.3c0-6.5-3.5-10.9-8.3-10.9s-8.2,4.3-8.2,10.9v0.3c0,6.5,3.5,10.9,8.3,10.9
		C1947,76.4,1950.5,72.1,1950.5,65.5z"/>
	<path class="st8" d="M1960.1,65.6v-0.4c0-9.1,5.6-15.5,13.5-15.5s13.4,6.4,13.4,15.4v0.4c0,9.1-5.6,15.5-13.5,15.5
		C1965.6,81.1,1960.1,74.6,1960.1,65.6z M1981.8,65.5v-0.3c0-6.5-3.5-10.9-8.3-10.9s-8.2,4.3-8.2,10.9v0.3c0,6.5,3.5,10.9,8.3,10.9
		C1978.4,76.4,1981.8,72.1,1981.8,65.5z"/>
	<path class="st8" d="M1997.2,54.8h-8v-4.7h21.1v4.7h-8v25.8h-5L1997.2,54.8L1997.2,54.8z"/>
</g>
<g class="st4">
	<g>
		<path class="st7" d="M1750.6,389.3h5.7l10.3,28.9h-6.2l-2.1-6.2h-9.9l-2.1,6.2h-6L1750.6,389.3z M1756.5,406.7l-3.1-9.4l-3.2,9.4
			H1756.5z"/>
		<path class="st7" d="M1768.1,407.5V407c0-6.5,4.2-11.3,10.2-11.3c3.2,0,5.3,1.1,7.2,3l-3.2,4.2c-1.1-1.1-2.2-2-3.9-2
			c-2.7,0-4.5,2.5-4.5,6.1v0.2c0,3.7,1.7,6.2,4.6,6.2c1.7,0,2.8-0.8,4-2l3.1,3.9c-1.8,2-4,3.4-7.5,3.4
			C1772.2,418.7,1768.1,414,1768.1,407.5z"/>
		<path class="st7" d="M1787.4,407.5V407c0-6.5,4.2-11.3,10.2-11.3c3.2,0,5.3,1.1,7.2,3l-3.2,4.2c-1.1-1.1-2.2-2-3.9-2
			c-2.7,0-4.5,2.5-4.5,6.1v0.2c0,3.7,1.7,6.2,4.6,6.2c1.7,0,2.8-0.8,4-2l3.1,3.9c-1.8,2-4,3.4-7.5,3.4
			C1791.5,418.7,1787.4,414,1787.4,407.5z"/>
		<path class="st7" d="M1806.7,407.5V407c0-6.5,4.4-11.3,10.4-11.3s10.3,4.6,10.3,11.2v0.5c0,6.5-4.4,11.3-10.4,11.3
			C1811.1,418.7,1806.7,414,1806.7,407.5z M1821.6,407.4v-0.3c0-3.6-1.8-6.3-4.6-6.3c-2.9,0-4.6,2.7-4.6,6.2v0.3
			c0,3.5,1.9,6.3,4.6,6.3C1820,413.6,1821.6,411,1821.6,407.4z"/>
		<path class="st7" d="M1831.1,411.2v-15h5.8v13.3c0,2.6,1.2,3.9,3.1,3.9c2,0,3.2-1.3,3.2-3.9v-13.3h5.8v22h-5.8v-3
			c-1.2,1.8-2.9,3.4-5.6,3.4C1833.5,418.6,1831.1,415.7,1831.1,411.2z"/>
		<path class="st7" d="M1853.8,396.2h5.8v3c1.3-1.8,2.9-3.4,5.7-3.4c4.1,0,6.5,2.9,6.5,7.4v15h-5.8v-13.3c0-2.6-1.1-3.9-3.1-3.9
			c-1.9,0-3.2,1.3-3.2,3.9v13.3h-5.8L1853.8,396.2L1853.8,396.2z"/>
		<path class="st7" d="M1877.2,412.7v-11.6h-2.2v-4.9h2.2v-5.6h5.8v5.6h4.4v4.9h-4.4v10.4c0,1.3,0.6,1.9,1.8,1.9
			c0.9,0,1.8-0.2,2.5-0.6v4.6c-1.1,0.7-2.5,1.2-4.3,1.2C1879.6,418.6,1877.2,417.2,1877.2,412.7z"/>
		<path class="st7" d="M1891.7,389.4h9.6c6.4,0,10.5,3.7,10.5,9.9v0.1c0,6.6-4.7,9.9-10.8,10.1h-3.4v8.7h-6L1891.7,389.4
			L1891.7,389.4z M1901,404.1c3.1,0,4.8-1.9,4.8-4.6l0,0c0-3-1.7-4.6-4.9-4.6h-3.2v9.3h3.3V404.1L1901,404.1z"/>
		<path class="st7" d="M1915.2,396.2h5.8v3.9c1.1-2.7,2.8-4.4,6-4.3v6.3h-0.2c-3.6,0-5.7,2.2-5.7,6.8v9.2h-5.8L1915.2,396.2
			L1915.2,396.2z"/>
		<path class="st7" d="M1928.8,407.5V407c0-6.5,4.4-11.3,10.4-11.3s10.3,4.6,10.3,11.2v0.5c0,6.5-4.4,11.3-10.4,11.3
			C1933.2,418.7,1928.8,414,1928.8,407.5z M1943.7,407.4v-0.3c0-3.6-1.8-6.3-4.6-6.3c-2.9,0-4.6,2.7-4.6,6.2v0.3
			c0,3.5,1.8,6.3,4.6,6.3C1942,413.6,1943.7,411,1943.7,407.4z"/>
		<path class="st7" d="M1950.5,424.3v-4.6c0.4,0,0.7,0.1,1,0.1c1.2,0,2.1-0.7,2.1-2.3v-21.3h5.8V418c0,4.5-2.3,6.5-6.5,6.5
			C1951.8,424.5,1951.3,424.4,1950.5,424.3z M1953.5,388.5h6.1v5.3h-6.1V388.5z"/>
		<path class="st7" d="M1963.4,407.4V407c0-6.5,4.1-11.3,9.6-11.3c6.3,0,9.4,5.1,9.4,11.7c0,0.3,0,1,0,1.9h-13.1
			c0.5,2.9,2.3,4.4,4.8,4.4c1.8,0,3.2-0.8,4.6-2.2l3,3.5c-2,2.2-4.6,3.5-7.8,3.5C1967.9,418.7,1963.4,414.3,1963.4,407.4z
			 M1976.8,405.5c-0.2-3-1.6-4.9-3.7-4.9s-3.5,1.8-3.9,4.9H1976.8z"/>
		<path class="st7" d="M1985.4,407.5V407c0-6.5,4.2-11.3,10.2-11.3c3.2,0,5.3,1.1,7.2,3l-3.2,4.2c-1.1-1.1-2.2-2-3.9-2
			c-2.7,0-4.5,2.5-4.5,6.1v0.2c0,3.7,1.7,6.2,4.6,6.2c1.7,0,2.8-0.8,4-2l3.1,3.9c-1.8,2-4,3.4-7.5,3.4
			C1989.5,418.7,1985.4,414,1985.4,407.5z"/>
		<path class="st7" d="M2007,412.7v-11.6h-2.2v-4.9h2.2v-5.6h5.8v5.6h4.4v4.9h-4.4v10.4c0,1.3,0.6,1.9,1.8,1.9
			c0.9,0,1.8-0.2,2.5-0.6v4.6c-1.1,0.7-2.5,1.2-4.3,1.2C2009.4,418.6,2007,417.2,2007,412.7z"/>
		<path class="st7" d="M2019.6,407.5V407c0-6.5,4.4-11.3,10.4-11.3s10.3,4.6,10.3,11.2v0.5c0,6.5-4.4,11.3-10.4,11.3
			C2024,418.7,2019.6,414,2019.6,407.5z M2034.5,407.4v-0.3c0-3.6-1.8-6.3-4.6-6.3c-2.9,0-4.6,2.7-4.6,6.2v0.3
			c0,3.5,1.8,6.3,4.6,6.3C2032.8,413.6,2034.5,411,2034.5,407.4z"/>
		<path class="st7" d="M2044.1,396.2h5.8v3.9c1.1-2.7,2.8-4.4,6-4.3v6.3h-0.2c-3.6,0-5.7,2.2-5.7,6.8v9.2h-5.8v-21.9H2044.1z"/>
	</g>
	<g>
		<path class="st3" d="M1708.3,374.2c-5.2-5.1-10-10.3-14.3-15.4l3.3-2.8c4.2,5,8.9,10.1,14,15.1L1708.3,374.2z M1686.8,349.5
			c-4.9-6.8-9-13.6-12.1-20.3l3.9-1.8c3,6.4,7,13,11.7,19.6L1686.8,349.5z M1670.6,319.4c-2.9-8.4-4.4-16.6-4.4-24.6
			c0-2.2,0.1-4.3,0.3-6.4l4.3,0.4c-0.2,2-0.3,4-0.3,6c0,7.5,1.4,15.3,4.1,23.2L1670.6,319.4z M1673.3,277.3l-4.1-1.3
			c4.1-12.8,12.1-22.1,14.7-22.1v2.2l0.9,1.9C1683.9,258.5,1677.2,265.1,1673.3,277.3z"/>
	</g>
	<g>
		<path class="st3" d="M2098.7,405.1v-4.3c0.1,0,9.3,0,24.5-0.8l0.2,4.3C2108,405.1,2098.8,405.1,2098.7,405.1z M2135.6,403.5
			l-0.3-4.3c10.1-0.7,20.3-1.6,30.5-2.7l0.5,4.3C2156,401.9,2145.7,402.8,2135.6,403.5z M2176.6,399.6l-0.5-4.3
			c7.7-0.9,15.4-2,23-3.1l0.6,4.3C2192.2,397.6,2184.4,398.6,2176.6,399.6z M2211.3,394.6l-0.7-4.3c8.1-1.3,16.2-2.8,24-4.4l0.8,4.2
			C2227.6,391.8,2219.5,393.3,2211.3,394.6z M2247.5,387.7l-0.9-4.2c10.1-2.2,20.1-4.6,29.7-7.2l1.1,4.2
			C2267.8,383.1,2257.7,385.5,2247.5,387.7z M2287.5,377.7l-1.2-4.2c7.5-2.2,15-4.5,22.1-6.9l1.4,4.1
			C2302.6,373.1,2295.1,375.5,2287.5,377.7z M2320.8,366.8l-1.5-4.1c7.8-2.8,15.4-5.9,22.7-9l1.7,4
			C2336.4,360.9,2328.7,363.9,2320.8,366.8z M2355,352.7l-1.8-3.9c2.7-1.3,5.4-2.6,8.1-3.9l1.9,3.9
			C2360.5,350.1,2357.7,351.4,2355,352.7z"/>
	</g>
	<g>
		<path class="st3" d="M2349.9,381.7c-0.3,0-0.6-0.1-0.9-0.2c-1.1-0.5-1.5-1.8-1-2.9l15.7-32.5l-30.4-19.5c-1-0.6-1.3-2-0.6-3
			c0.6-1,2-1.3,3-0.6l33.6,21.6l-17.3,35.9C2351.5,381.2,2350.7,381.7,2349.9,381.7z"/>
	</g>
</g>
<g>
	<path class="st3" d="M2210.1,601.3c-0.4,0-0.9-0.1-1.3-0.4c-1-0.7-1.2-2.1-0.5-3l21.4-29l-26.2-24.8c-0.9-0.8-0.9-2.2-0.1-3.1
		c0.8-0.9,2.2-0.9,3.1-0.1l29,27.4l-23.7,32.1C2211.5,601,2210.8,601.3,2210.1,601.3z"/>
</g>
<g>
	<g class="st1">
		<path class="st2" d="M2250.2,589.2l22.8,82.3c0,0,4.6,15,18.7,15.8c14.3,0.8,401.1,6.7,401.1,6.7s35-0.2,27-12.4
			c-8-12.1-32.6-110.4-32.6-110.4s-7.6-13.6-29.9-13.2c-21.3,0.4-374.4,17.3-392,17.8C2252.6,576.3,2249.8,582,2250.2,589.2z"/>
	</g>
	<g>
		<g>
			<path class="st0" d="M2724.9,679.7h-431.5c-2.5,0-4.6-2.1-4.6-4.6V428.9c0-2.5,2.1-4.6,4.6-4.6h431.5c2.5,0,4.6,2.1,4.6,4.6
				v246.2C2729.5,677.6,2727.4,679.7,2724.9,679.7z"/>
		</g>
		<g>
			<path class="st11" d="M2709.5,681.6h-400.8c-12.2,0-22.1-8.8-22.1-19.5V441.9c0-10.8,9.9-19.5,22.1-19.5h400.8
				c12.2,0,22.1,8.8,22.1,19.5v220.2C2731.6,672.9,2721.7,681.6,2709.5,681.6z M2308.8,426.2c-9.8,0-17.8,7.1-17.8,15.7v220.2
				c0,8.7,8,15.7,17.8,15.7h400.8c9.8,0,17.8-7.1,17.8-15.7V441.9c0-8.7-8-15.7-17.8-15.7H2308.8z"/>
		</g>
	</g>
	<g>
		<path class="st11" d="M2394.7,463.9h6.4c4.4,0,7.2,2.5,7.2,6.7v0.1c0,4.4-3.3,6.8-7.4,6.8h-2.9v6.5h-3.3L2394.7,463.9
			L2394.7,463.9z M2400.9,474.5c2.5,0,4-1.5,4-3.8l0,0c0-2.4-1.5-3.7-4-3.7h-2.9v7.5L2400.9,474.5L2400.9,474.5z"/>
		<path class="st11" d="M2411.3,463.9h7.2c2.3,0,4.1,0.7,5.4,1.9c1.1,1.1,1.7,2.6,1.7,4.4v0.1c0,3.1-1.7,5-4.1,5.9l4.7,7.8h-3.8
			l-4.3-7.1c-0.1,0-0.1,0-0.2,0h-3.2v7.1h-3.3L2411.3,463.9L2411.3,463.9z M2418.2,473.9c2.6,0,4-1.4,4-3.5v-0.1
			c0-2.3-1.5-3.4-3.9-3.4h-3.6v7H2418.2z"/>
		<path class="st11" d="M2428.5,474.1v-0.3c0-5.9,3.7-10.2,8.9-10.2c5.2,0,8.8,4.2,8.8,10.2v0.3c0,5.9-3.7,10.2-8.9,10.2
			C2432.1,484.3,2428.5,480.1,2428.5,474.1z M2442.8,474.1v-0.2c0-4.3-2.3-7.2-5.5-7.2c-3.1,0-5.4,2.8-5.4,7.2v0.2
			c0,4.3,2.3,7.2,5.5,7.2C2440.6,481.3,2442.8,478.4,2442.8,474.1z"/>
		<path class="st11" d="M2449.8,463.9h6.4c4.4,0,7.2,2.5,7.2,6.7v0.1c0,4.4-3.3,6.8-7.4,6.8h-2.9v6.5h-3.3L2449.8,463.9
			L2449.8,463.9z M2456,474.5c2.5,0,4-1.5,4-3.8l0,0c0-2.4-1.5-3.7-4-3.7h-2.9v7.5L2456,474.5L2456,474.5z"/>
		<path class="st11" d="M2465.7,474.1v-0.3c0-5.9,3.7-10.2,8.9-10.2c5.2,0,8.8,4.2,8.8,10.2v0.3c0,5.9-3.7,10.2-8.9,10.2
			C2469.3,484.3,2465.7,480.1,2465.7,474.1z M2480,474.1v-0.2c0-4.3-2.3-7.2-5.5-7.2c-3.1,0-5.4,2.8-5.4,7.2v0.2
			c0,4.3,2.3,7.2,5.5,7.2C2477.8,481.3,2480,478.4,2480,474.1z"/>
		<path class="st11" d="M2485.5,481.3l2-2.5c1.5,1.3,3.1,2.4,5.3,2.4c1.9,0,3.1-1.1,3.1-2.5l0,0c0-1.3-0.7-2.1-3.8-3.3
			c-3.8-1.4-5.8-2.8-5.8-6v-0.1c0-3.3,2.6-5.6,6.4-5.6c2.3,0,4.5,0.7,6.3,2.3l-1.9,2.5c-1.4-1.1-2.9-1.9-4.5-1.9
			c-1.8,0-2.9,1-2.9,2.3l0,0c0,1.4,0.7,2.1,4.1,3.5c3.7,1.4,5.4,3,5.4,5.9v0.1c0,3.5-2.7,5.8-6.5,5.8
			C2490.1,484.2,2487.6,483.3,2485.5,481.3z"/>
		<path class="st11" d="M2502.6,463.9h12.6v3h-9.3v5.4h8.3v3h-8.3v5.6h9.5v3h-12.8L2502.6,463.9L2502.6,463.9z"/>
		<path class="st11" d="M2518.8,463.9h6.1c5.7,0,9.5,4,9.5,9.9v0.2c0,5.9-3.8,9.9-9.5,9.9h-6.1V463.9z M2522.2,466.9v14h2.8
			c3.7,0,6.1-2.6,6.1-6.9v-0.2c0-4.3-2.4-7-6.1-7L2522.2,466.9L2522.2,466.9z"/>
		<path class="st11" d="M2545.5,463.9h3.3v17h8.6v3.1h-11.9V463.9z"/>
		<path class="st11" d="M2558.6,474.1v-0.3c0-5.9,3.7-10.2,8.9-10.2c5.2,0,8.8,4.2,8.8,10.2v0.3c0,5.9-3.7,10.2-8.9,10.2
			C2562.2,484.3,2558.6,480.1,2558.6,474.1z M2572.9,474.1v-0.2c0-4.3-2.3-7.2-5.5-7.2c-3.1,0-5.4,2.8-5.4,7.2v0.2
			c0,4.3,2.3,7.2,5.5,7.2C2570.7,481.2,2572.9,478.4,2572.9,474.1z"/>
		<path class="st11" d="M2584.8,463.8h3.2l7.4,20.1h-3.5l-1.7-4.7h-7.8l-1.7,4.7h-3.3L2584.8,463.8z M2589.2,476.3l-2.9-8l-2.9,8
			H2589.2z"/>
		<path class="st11" d="M2598.2,463.9h3.1l8.8,13.4v-13.4h3.2v20h-2.8l-9.1-13.8v13.8h-3.3v-20H2598.2z"/>
	</g>
	<g class="st4">
		<g>
			<path class="st11" d="M2708.1,447c5.8-4.1,4.7-7.5-2.4-7.5h-393.2c-7.1,0-8.2,3.4-2.5,7.6L2496.4,583c5.8,4.2,15.2,4.2,21,0.1
				L2708.1,447z"/>
		</g>
	</g>
	<g class="st4">
		<g>
			<path class="st11" d="M2308.2,661.9c-0.6,0-1.2-0.3-1.7-0.8c-0.8-0.9-0.6-2.3,0.3-3l125.3-103.7c0.9-0.8,2.3-0.6,3,0.3
				c0.8,0.9,0.6,2.3-0.3,3l-125.3,103.7C2309.2,661.8,2308.7,661.9,2308.2,661.9z"/>
		</g>
	</g>
	<g class="st4">
		<g>
			<path class="st11" d="M2712.2,659.2c-0.5,0-0.9-0.1-1.3-0.4l-129.6-98.3c-1-0.7-1.1-2.1-0.4-3c0.7-1,2.1-1.1,3-0.4l129.6,98.3
				c1,0.7,1.1,2.1,0.4,3C2713.5,658.9,2712.8,659.2,2712.2,659.2z"/>
		</g>
	</g>
</g>
<g>
	<g>
		<g>
			<path class="st8" d="M1736-243.7l4.1,1.4c3.3-9.7,6.9-19.3,10.7-28.5l-4-1.7C1742.9-263.2,1739.3-253.5,1736-243.7z"/>
			<path class="st8" d="M1726.6-211.2l4.2,1.1c1.9-7.6,4-15.1,6.1-22.3l-4.1-1.3C1730.6-226.4,1728.5-218.8,1726.6-211.2z"/>
			<path class="st8" d="M1751.8-283.7l3.9,1.8c3.4-7.4,7-14.7,10.9-21.7l-3.8-2.1C1758.9-298.6,1755.2-291.2,1751.8-283.7z"/>
			<path class="st8" d="M1719.1-175.7l4.3,0.7c1.4-8,3-16.1,4.7-23.9l-4.2-0.9C1722.1-191.9,1720.5-183.8,1719.1-175.7z"/>
			<path class="st8" d="M1906-443.4l1.9,3.9c7.2-3.6,14.7-6.9,22.3-9.9l-1.6-4C1920.9-450.3,1913.3-447,1906-443.4z"/>
			<path class="st8" d="M2014.4-475.7l0.5,4.3c15-1.9,24.2-2,24.3-2v-4.3C2038.9-477.7,2029.7-477.6,2014.4-475.7z"/>
			<path class="st8" d="M1971.9-467.6l1.1,4.2c9.9-2.5,19.9-4.6,29.8-6.3l-0.7-4.3C1992.1-472.3,1981.9-470.2,1971.9-467.6z"/>
			<path class="st8" d="M1939.5-457.6l1.5,4.1c7.1-2.6,14.5-5,22-7.1l-1.2-4.2C1954.3-462.7,1946.8-460.2,1939.5-457.6z"/>
		</g>
		<g>
			<path class="st8" d="M1718.7-161.1l-22.8-45.6c-0.5-1.1-0.1-2.4,1-2.9s2.4-0.1,2.9,1l20.4,40.8l41.1-32.9c0.9-0.7,2.3-0.6,3,0.3
				s0.6,2.3-0.3,3L1718.7-161.1z"/>
		</g>
	</g>
	<g>
		<path class="st8" d="M1772-341.9l6.8-6c2.1-1.8,4.3-2.7,6.5-2.6c1.9,0.1,3.6,1.1,5.2,2.9l0.1,0.1c2.4,2.8,2.5,5.7,1.3,8.3l9.8,3.4
			l-4.3,3.8l-8.6-3.1l-2.4,2.1l5.2,6l-3.8,3.3L1772-341.9z M1786.3-338.7c1.9-1.7,2-3.7,0.6-5.3l0,0c-1.6-1.8-3.5-1.8-5.4-0.1
			l-2.7,2.4l4.8,5.5L1786.3-338.7z"/>
		<path class="st8" d="M1788.3-356.1l11.8-10.2l3,3.4l-8,7l3.4,3.9l7-6.1l3,3.4l-7,6.1l3.5,4.1l8.1-7.1l3,3.4l-11.8,10.3
			L1788.3-356.1z"/>
		<path class="st8" d="M1809.7-368.6l-4.6,4l-3-3.5l12.9-11.3l3,3.5l-4.6,4l12.8,14.7l-3.7,3.3L1809.7-368.6z"/>
		<path class="st8" d="M1817.5-381.6l6.9-6c2.1-1.8,4.3-2.7,6.5-2.6c1.8,0.1,3.6,1.1,5.2,2.9l0.1,0.1c2.4,2.8,2.5,5.7,1.3,8.3
			l9.8,3.4l-4.3,3.8l-8.6-3.1l-2.4,2.1l5.2,6l-3.8,3.3L1817.5-381.6z M1831.9-378.4c1.9-1.7,2-3.7,0.6-5.3l0,0
			c-1.6-1.8-3.5-1.8-5.4-0.1l-2.7,2.4l4.8,5.5L1831.9-378.4z"/>
		<path class="st8" d="M1834-395.9l3.8-3.3l15.9,18.2l-3.8,3.3L1834-395.9z"/>
		<path class="st8" d="M1841.6-402.5l11.8-10.2l3,3.4l-8,7l3.4,3.9l7-6.1l3,3.4l-7,6.1l3.5,4.1l8.1-7.1l3,3.4l-11.8,10.3
			L1841.6-402.5z"/>
		<path class="st8" d="M1855-414.2l4.1-3.6l14.8,9.2l-7.1-15.9l4-3.5l9.8,23.7l-3.5,3L1855-414.2z"/>
		<path class="st8" d="M1873.1-429.9l11.8-10.2l3,3.4l-8,7l3.4,3.9l7-6.1l3,3.4l-7,6.1l3.5,4.1l8.1-7.1l3,3.4l-11.9,10.3
			L1873.1-429.9z"/>
	</g>
</g>
<g>
	<g>
		<g>
			<path class="st8" d="M2121.6,236l-0.1,4.3c4.7,0.2,9.9,0.3,15.3,0.3c4.9,0,10.1-0.1,15.4-0.3l-0.1-4.3
				C2140.8,236.4,2130.5,236.3,2121.6,236z"/>
			<path class="st8" d="M2162.4,235.5l0.3,4.3c7.8-0.5,15.7-1.1,23.3-2l-0.5-4.3C2177.9,234.4,2170.1,235,2162.4,235.5z"/>
			<path class="st8" d="M2360.1,163.2c0.1-0.1,0.1-0.1,0.2-0.2l-0.6-0.6L2360.1,163.2z"/>
			<path class="st8" d="M2084.6,237.2c0.4,0.1,9.4,1.5,24.6,2.5l0.3-4.4c-15-1-24.1-2.4-24.2-2.4L2084.6,237.2z"/>
			<path class="st8" d="M2215.8,228.8c-6.2,1.2-12.5,2.2-18.8,3.2l0.6,4.3c6.9-0.9,13.6-2.1,20.2-3.5L2215.8,228.8z"/>
			<path class="st8" d="M2415.5,71.5c-3.1,8-6.6,15.9-10.3,23.3l3.9,1.9c3.8-7.6,7.3-15.5,10.4-23.6L2415.5,71.5z"/>
			<path class="st8" d="M2364.7,152.6l3.1,3c5.4-5.6,10.5-11.6,15.4-17.7l-3.4-2.7C2375,141.2,2370,147.1,2364.7,152.6z"/>
			<path class="st8" d="M2386.6,126l3.5,2.5c4.7-6.7,9.1-13.7,13.2-20.9l-3.8-2.1C2395.6,112.6,2391.2,119.5,2386.6,126z"/>
		</g>
		<g>
			<path class="st8" d="M2435.7,111.3c-0.9,0-1.7-0.5-2-1.4l-15.3-38.6l-40.8,22.9c-1.1,0.6-2.4,0.2-2.9-0.8c-0.6-1-0.2-2.4,0.8-2.9
				l45.1-25.3l17.1,43.2c0.4,1.1-0.1,2.4-1.2,2.8C2436.2,111.2,2435.9,111.3,2435.7,111.3z"/>
		</g>
	</g>
	<g>
		<path class="st8" d="M2237.8,217.1l7-3.9c4.7-2.7,9.2-1.6,11.8,2.9v0.1c2.7,4.9,0.6,9.2-3.8,11.8l-2.5,1.4l3.6,6.4l-4.4,2.5
			L2237.8,217.1z M2250.6,224.1c2.3-1.3,2.7-3.4,1.6-5.4l0,0c-1.2-2.2-3.2-2.7-5.5-1.4l-2.4,1.3l3.8,6.8L2250.6,224.1z"/>
		<path class="st8" d="M2255.4,207.3l13.6-7.6l2.2,3.9l-9.2,5.2l2.6,4.5l8.1-4.6l2.2,3.9l-8.1,4.6l2.6,4.7l9.4-5.3l2.2,3.9
			l-13.7,7.7L2255.4,207.3z"/>
		<path class="st8" d="M2272.5,197.6l7.9-4.4c2.4-1.4,4.8-1.8,6.9-1.2c1.8,0.5,3.4,1.8,4.5,3.9l0.1,0.1c1.8,3.2,1.3,6.1-0.4,8.4
			l8.9,5.3l-5,2.8l-7.8-4.7l-2.7,1.5l3.9,6.9l-4.4,2.5L2272.5,197.6z M2285.9,203.7c2.2-1.3,2.7-3.2,1.7-5.1l0,0
			c-1.2-2.1-3.1-2.4-5.3-1.2l-3.1,1.8l3.6,6.4L2285.9,203.7z"/>
		<path class="st8" d="M2300.1,206.1l0.8-4.7c2.1,0.4,4.5,0.6,6.6-0.6c1.7-0.9,2.2-2.4,1.5-3.6l0,0c-0.6-1.1-1.6-1.4-5.2-0.8
			c-4.6,0.6-7.7,0.5-9.7-3.1v-0.1c-2.1-3.7-0.6-7.8,3.4-10c2.5-1.4,5.4-1.9,8.3-1.2l-0.6,4.7c-1.9-0.3-4-0.4-5.6,0.6
			c-1.5,0.8-2,2.1-1.4,3.2l0,0c0.7,1.2,1.7,1.4,5.8,0.9c4.5-0.6,7.4-0.2,9.2,3.1v0.1c2.2,3.9,0.6,8-3.5,10.3
			C2307,206.4,2303.7,207,2300.1,206.1z"/>
		<path class="st8" d="M2308.1,177.6l4.4-2.5l11.8,21.1l-4.4,2.5L2308.1,177.6z"/>
		<path class="st8" d="M2325.6,191.8l0.8-4.7c2.1,0.4,4.5,0.6,6.6-0.6c1.7-0.9,2.2-2.4,1.5-3.6l0,0c-0.6-1.1-1.6-1.4-5.2-0.8
			c-4.6,0.7-7.7,0.5-9.7-3.1v-0.1c-2.1-3.7-0.6-7.8,3.4-10c2.5-1.4,5.4-1.9,8.3-1.2l-0.6,4.7c-1.9-0.3-4-0.4-5.6,0.6
			c-1.5,0.8-2,2.1-1.4,3.2l0,0c0.7,1.2,1.7,1.4,5.8,0.9c4.5-0.6,7.4-0.2,9.2,3.1v0.1c2.2,3.9,0.6,8-3.5,10.3
			C2332.5,192.1,2329.1,192.7,2325.6,191.8z"/>
		<path class="st8" d="M2339.3,165.5l-5.3,3l-2.3-4l14.9-8.4l2.3,4l-5.3,3l9.6,17.1l-4.3,2.4L2339.3,165.5z"/>
	</g>
</g>
</svg>
