<?xml version="1.0" encoding="utf-8"?>
<!-- Generator: Adobe Illustrator 19.1.0, SVG Export Plug-In . SVG Version: 6.00 Build 0)  -->
<svg version="1.1" id="_x30_1" xmlns="http://www.w3.org/2000/svg" xmlns:xlink="http://www.w3.org/1999/xlink" x="0px" y="0px"
	 viewBox="904 -342 2048 925" style="enable-background:new 904 -342 2048 925;" xml:space="preserve">
<style type="text/css">
	.st0{fill:#FFFFFF;}
	.st1{opacity:0.5;}
	.st2{fill:#DEE1E0;}
	.st3{fill:#197593;}
	.st4{opacity:0.25;}
	.st5{fill:#CAE1E8;}
	.st6{opacity:0.75;}
	.st7{fill:#004966;}
	.st8{fill:#D6902D;}
	.st9{fill:#94631E;}
	.st10{opacity:0.1;}
	.st11{fill:#0A9181;}
	.st12{fill:#E6F4F2;}
</style>
<g>
	<g>
		<path class="st0" d="M2818.3,17.9c-24.8,0-49.7-5.4-72.2-16.6c-4.2-2.1-8.9-4.7-11.7-9.1c-3.1-5-3-11.1-2.9-16l1.9-252.8
			c-0.9-28.2,195.2-71.1,199.9,4.8c10.1,76,4.1,162-1.2,237.8l-0.6,8.5l-0.4,0.4C2900.5,3,2859.4,17.9,2818.3,17.9z"/>
	</g>
</g>
<g>
	<g class="st1">
		<path class="st2" d="M2024.1,85l36.6,162.3c0,0,7.5,20.1,31.2,21c24,0.8,746.8-0.8,746.8-0.8s58.9-1,45.6-17.3
			c-13.1-16.1-124.9-199-124.9-199s-12.5-18.2-50-17.1c-35.8,1-629.9,31.6-659.4,32.6C2028.4,67.5,2023.5,75.2,2024.1,85z"/>
	</g>
	<g>
		<g>
			<g>
				<path class="st3" d="M2821.2-236.3c-21.5,0-46.3-3.4-65.3-18c-8.8-6.7-17.6-18.7-13.5-30.5c4.3-12.5,44.7-20.4,53.1-21.1l0,0
					c72.2-6.4,117.7-0.3,131.6,17.8c5.2,6.8,6.1,15.2,2.6,25c-4.3,12-20.1,15.4-28.6,17.2c-19.7,4.3-40,7.2-60.1,8.8
					C2834.9-236.7,2828.2-236.3,2821.2-236.3z M2795.6-303c-13.5,1.2-47.4,9.9-50.6,19.2c-3.5,10.3,4.6,21.2,12.6,27.3
					c24.5,18.7,59.1,18.4,83.1,16.6c20-1.5,40.1-4.5,59.7-8.7c11-2.4,23.1-5.7,26.5-15.4c3.2-9,2.5-16.2-2.2-22.3
					C2915.5-298.4,2885.6-311,2795.6-303L2795.6-303z"/>
			</g>
		</g>
		<g class="st4">
			<g>
				<path class="st5" d="M2791-311.5c-12.1,1.1-51.2,10.5-55,23.1c-3.8,12.5,4.6,25.9,14.2,34c24.9,21.1,58.7,23,89.7,20.6
					c21.4-1.6,42.8-4.9,63.8-9.7c11.5-2.6,25.3-6.6,29.2-18.9C2952.7-324.8,2823.5-314.4,2791-311.5z"/>
			</g>
		</g>
		<g>
			<g>
				<path class="st3" d="M2819.8,17.3c-24.6,0-49.1-5.4-71.4-16.4c-4.2-2.1-8.8-4.6-11.6-9c-3-4.9-3-10.9-2.9-15.8l1.9-249.9
					c0-0.8,0.6-1.4,1.4-1.4l0,0c0.8,0,1.4,0.6,1.4,1.4l-1.9,249.9c0,4.5-0.1,10.1,2.5,14.3c2.3,3.8,6.6,6.1,10.4,8
					c57,28.3,132.3,17.6,179.3-25.3l0.5-7.3c5.2-74.8,11.2-159.6,1.2-234.5c-0.1-0.8,0.4-1.5,1.2-1.6c0.8-0.1,1.5,0.4,1.6,1.2
					c10,75.2,4.1,160.2-1.2,235.1l-0.6,8.4l-0.4,0.4C2901,2.6,2860.4,17.3,2819.8,17.3z"/>
			</g>
		</g>
		<g class="st4">
			<g>
				<path class="st5" d="M2909.2-233.7c-21,4.8-42.3,8-63.8,9.7c-31.1,2.4-64.8,0.5-89.7-20.6c-5.3-4.5-10.2-10.6-12.9-17.2
					c-0.6,82.5-1.3,165.1-1.9,247.6c0,5.2,0,10.7,2.7,15c2.5,4,6.8,6.4,11,8.5c58.1,28.8,110.9,11.1,158.6-32.8
					C2918.5-99.4,2920.7-236.3,2909.2-233.7z"/>
			</g>
		</g>
	</g>
	<g>
		<g>
			<path class="st0" d="M2871.9,261h-794.7c-2.5,0-4.6-2.1-4.6-4.6v-509.8c0-2.5,2.1-4.6,4.6-4.6h794.7c2.5,0,4.6,2.1,4.6,4.6v509.7
				C2876.5,258.9,2874.4,261,2871.9,261z"/>
		</g>
		<g>
			<path class="st3" d="M2857.9,262.9h-766.6c-11.4,0-20.7-8.8-20.7-19.5v-483.8c0-10.8,9.3-19.5,20.7-19.5h766.6
				c11.4,0,20.7,8.8,20.7,19.5v483.7C2878.5,254.1,2869.3,262.9,2857.9,262.9z M2091.3-256.1c-9.2,0-16.7,7.1-16.7,15.7v483.7
				c0,8.7,7.5,15.7,16.7,15.7h766.6c9.2,0,16.7-7.1,16.7-15.7v-483.7c0-8.7-7.5-15.7-16.7-15.7H2091.3z"/>
		</g>
	</g>
	<g class="st1">
		<path class="st5" d="M2845.2-251.3h-745.6c-8.9,0-16.1,7.4-16.1,16.4v117.5h777.7v-117.4C2861.3-243.9,2854.1-251.3,2845.2-251.3z
			"/>
	</g>
	<g class="st6">
		<g>
			<path class="st7" d="M2323-206.5l3-3.8c2.3,2,4.8,3.6,8,3.6c2.9,0,4.8-1.6,4.8-3.9l0,0c0-1.9-1-3.2-5.8-5
				c-5.8-2.2-8.8-4.3-8.8-9.2v-0.1c0-5,4-8.5,9.7-8.5c3.5,0,6.8,1.1,9.6,3.6l-2.9,3.9c-2.1-1.7-4.4-2.9-6.8-2.9
				c-2.7,0-4.4,1.5-4.4,3.5l0,0c0,2.1,1.1,3.3,6.3,5.3c5.7,2.2,8.3,4.5,8.3,9v0.1c0,5.4-4.2,8.8-9.9,8.8
				C2330.1-202.1,2326.3-203.5,2323-206.5z"/>
			<path class="st7" d="M2354.5-228.3h-8v-4.7h21.1v4.7h-8v25.8h-5L2354.5-228.3L2354.5-228.3z"/>
			<path class="st7" d="M2369.8-217.5v-0.4c0-9.1,5.6-15.5,13.5-15.5s13.4,6.4,13.4,15.4v0.4c0,9.1-5.6,15.5-13.5,15.5
				C2375.3-202.1,2369.8-208.5,2369.8-217.5z M2391.5-217.6v-0.3c0-6.5-3.5-10.9-8.3-10.9s-8.2,4.3-8.2,10.9v0.3
				c0,6.5,3.5,10.9,8.3,10.9S2391.5-211,2391.5-217.6z"/>
			<path class="st7" d="M2402.2-233h11c3.5,0,6.3,1,8.1,2.9c1.6,1.6,2.5,3.9,2.5,6.7v0.2c0,4.7-2.6,7.6-6.3,8.9l7.2,11.8h-5.8
				l-6.5-10.8c-0.1,0-0.2,0-0.3,0h-4.9v10.7h-5L2402.2-233L2402.2-233z M2412.7-217.8c3.9,0,6.1-2.1,6.1-5.3v-0.1
				c0-3.4-2.2-5.2-6-5.2h-5.5v10.6H2412.7z"/>
			<path class="st7" d="M2429.4-233h19.2v4.6h-14.2v8.3h12.6v4.6h-12.6v8.5h14.4v4.6h-19.4V-233z"/>
			<path class="st7" d="M2454.1-233h9.3c8.7,0,14.4,6.1,14.4,15v0.3c0,8.9-5.7,15.1-14.4,15.1h-9.3V-233z M2459.1-228.4v21.3h4.2
				c5.6,0,9.3-4,9.3-10.5v-0.3c0-6.6-3.7-10.6-9.3-10.6h-4.2V-228.4z"/>
			<path class="st7" d="M2494.5-233h19.2v4.6h-14.2v8.3h12.6v4.6h-12.6v8.5h14.4v4.6h-19.4V-233z"/>
			<path class="st7" d="M2517-233h5.5l7.5,23l7.5-23h5.3l-10.5,30.6h-4.7L2517-233z"/>
			<path class="st7" d="M2547.1-233h19.2v4.6h-14.2v8.3h12.6v4.6h-12.6v8.5h14.4v4.6h-19.4V-233z"/>
			<path class="st7" d="M2571.8-233h4.7l13.4,20.3V-233h4.9v30.5h-4.3l-13.8-20.9v20.9h-5V-233H2571.8z"/>
			<path class="st7" d="M2607.5-228.3h-8v-4.7h21.1v4.7h-8v25.8h-5L2607.5-228.3L2607.5-228.3z"/>
			<path class="st7" d="M2622.6-206.5l3-3.8c2.3,2,4.8,3.6,8,3.6c2.9,0,4.8-1.6,4.8-3.9l0,0c0-1.9-1-3.2-5.8-5
				c-5.8-2.2-8.8-4.3-8.8-9.2v-0.1c0-5,4-8.5,9.7-8.5c3.5,0,6.8,1.1,9.6,3.6l-2.9,3.9c-2.1-1.7-4.4-2.9-6.8-2.9
				c-2.7,0-4.4,1.5-4.4,3.5l0,0c0,2.1,1.1,3.3,6.3,5.3c5.7,2.2,8.3,4.5,8.3,9v0.1c0,5.4-4.2,8.8-9.9,8.8
				C2629.7-202.1,2625.9-203.5,2622.6-206.5z"/>
		</g>
	</g>
	<g class="st1">
		<rect x="2087.9" y="-186.5" class="st0" width="769.1" height="4.3"/>
	</g>
	<g class="st1">
		<rect x="2087.9" y="-35.2" class="st3" width="773.4" height="4.3"/>
	</g>
	<g class="st1">
		<rect x="2087.9" y="38.2" class="st3" width="773.4" height="4.3"/>
	</g>
	<g class="st1">
		<rect x="2087.9" y="111.7" class="st3" width="773.4" height="4.3"/>
	</g>
	<g class="st1">
		<rect x="2087.9" y="185.1" class="st3" width="773.4" height="4.3"/>
	</g>
	<g class="st1">
		<g>
			<path class="st7" d="M2091.5-154.6h1.9l7,18.4h-2.1l-1.8-4.8h-8.2l-1.8,4.8h-2L2091.5-154.6z M2095.9-142.8l-3.4-9.3l-3.5,9.3
				H2095.9z"/>
			<path class="st7" d="M2101.8-145.3v-0.2c0-5.3,3.3-9.3,8.1-9.3c2.4,0,4,0.7,5.5,2l-1.2,1.6c-1.1-1-2.4-1.7-4.4-1.7
				c-3.5,0-6.1,3.1-6.1,7.5v0.1c0,4.6,2.5,7.6,6.2,7.6c1.6,0,3-0.6,3.9-1.3v-5.1h-4.6v-1.9h6.4v7.8c-1.4,1.1-3.5,2.1-5.9,2.1
				C2105-136,2101.8-139.8,2101.8-145.3z"/>
			<path class="st7" d="M2119.2-145.3v-0.2c0-5.3,3.3-9.3,8.1-9.3c2.4,0,4,0.7,5.5,2l-1.2,1.6c-1.1-1-2.4-1.7-4.4-1.7
				c-3.5,0-6.1,3.1-6.1,7.5v0.1c0,4.6,2.5,7.6,6.2,7.6c1.6,0,3-0.6,3.9-1.3v-5.1h-4.6v-1.9h6.4v7.8c-1.4,1.1-3.5,2.1-5.9,2.1
				C2122.4-136,2119.2-139.8,2119.2-145.3z"/>
			<path class="st7" d="M2137.4-154.5h6.2c2.1,0,3.8,0.6,4.8,1.7c0.9,0.9,1.4,2.2,1.4,3.8v0.1c0,2.9-1.8,4.6-4.3,5.3l4.9,7.5h-2.3
				l-4.6-7.1h-4.2v7.1h-2L2137.4-154.5L2137.4-154.5z M2143.3-145.1c3,0,4.6-1.5,4.6-3.8v-0.1c0-2.4-1.7-3.7-4.4-3.7h-4.2v7.6
				L2143.3-145.1L2143.3-145.1z"/>
			<path class="st7" d="M2153.6-154.5h11.1v1.8h-9.2v6.4h8.2v1.8h-8.2v6.5h9.3v1.8h-11.3L2153.6-154.5L2153.6-154.5z"/>
			<path class="st7" d="M2167.6-145.3v-0.2c0-5.3,3.3-9.3,8.1-9.3c2.4,0,4,0.7,5.5,2l-1.2,1.6c-1.1-1-2.4-1.7-4.4-1.7
				c-3.5,0-6.1,3.1-6.1,7.5v0.1c0,4.6,2.5,7.6,6.2,7.6c1.6,0,3-0.6,3.9-1.3v-5.1h-4.6v-1.9h6.4v7.8c-1.4,1.1-3.5,2.1-5.9,2.1
				C2170.8-136,2167.6-139.8,2167.6-145.3z"/>
			<path class="st7" d="M2191.3-154.6h1.9l7,18.4h-2.1l-1.8-4.8h-8.2l-1.8,4.8h-2L2191.3-154.6z M2195.7-142.8l-3.4-9.3l-3.5,9.3
				H2195.7z"/>
			<path class="st7" d="M2205.2-152.7h-5.1v-1.8h12.2v1.8h-5.1v16.4h-2V-152.7z"/>
			<path class="st7" d="M2215.5-154.5h11.1v1.8h-9.2v6.4h8.2v1.8h-8.2v6.5h9.3v1.8h-11.3L2215.5-154.5L2215.5-154.5z"/>
			<path class="st7" d="M2236.8-143.1v-11.5h2v11.4c0,3.4,1.8,5.4,4.6,5.4c2.8,0,4.6-1.8,4.6-5.3v-11.5h2v11.4
				c0,4.7-2.6,7.2-6.6,7.2C2239.5-136,2236.8-138.5,2236.8-143.1z"/>
			<path class="st7" d="M2253.9-143.1v-11.5h2v11.4c0,3.4,1.8,5.4,4.6,5.4c2.8,0,4.6-1.8,4.6-5.3v-11.5h2v11.4
				c0,4.7-2.6,7.2-6.6,7.2C2256.6-136,2253.9-138.5,2253.9-143.1z"/>
			<path class="st7" d="M2271.4-154.5h2v18.3h-2V-154.5z"/>
			<path class="st7" d="M2277.9-154.5h5.2c5.1,0,8.6,3.7,8.6,9v0.2c0,5.4-3.5,9.1-8.6,9.1h-5.2V-154.5z M2279.8-152.7v14.7h3.2
				c4,0,6.6-2.9,6.6-7.2v-0.2c0-4.3-2.6-7.3-6.6-7.3H2279.8z"/>
		</g>
	</g>
	<g class="st1">
		<g>
			<path class="st7" d="M2310.8-154.5h11.1v1.8h-9.2v6.4h8.2v1.8h-8.2v6.5h9.3v1.8h-11.3L2310.8-154.5L2310.8-154.5z"/>
			<path class="st7" d="M2324.3-154.5h2.1l5.4,15.6l5.4-15.6h2.1l-6.6,18.4h-1.8L2324.3-154.5z"/>
			<path class="st7" d="M2342.3-154.5h11.1v1.8h-9.2v6.4h8.2v1.8h-8.2v6.5h9.3v1.8h-11.3L2342.3-154.5L2342.3-154.5z"/>
			<path class="st7" d="M2357.1-154.5h1.9l9.6,14.4v-14.4h1.9v18.3h-1.6L2359-151v14.7h-1.9V-154.5z"/>
			<path class="st7" d="M2378.7-152.7h-5.1v-1.8h12.2v1.8h-5.1v16.4h-2V-152.7z"/>
			<path class="st7" d="M2395.1-145.3v-0.2c0-5.5,3.4-9.3,8-9.3c2.5,0,4.1,0.9,5.6,2.2l-1.2,1.5c-1.2-1.1-2.5-1.9-4.4-1.9
				c-3.4,0-6,3.1-6,7.5v0.1c0,4.5,2.6,7.5,6,7.5c1.9,0,3.2-0.8,4.5-2l1.2,1.4c-1.5,1.5-3.3,2.5-5.8,2.5
				C2398.5-136,2395.1-139.7,2395.1-145.3z"/>
			<path class="st7" d="M2411.8-154.5h2v16.5h8.5v1.8h-10.4L2411.8-154.5L2411.8-154.5z"/>
			<path class="st7" d="M2431-154.6h1.9l7,18.4h-2.1l-1.8-4.8h-8.2l-1.8,4.8h-2L2431-154.6z M2435.4-142.8l-3.4-9.3l-3.5,9.3H2435.4
				z"/>
			<path class="st7" d="M2441.5-138.6l1.2-1.5c1.5,1.4,3.1,2.3,5.1,2.3c2.2,0,3.7-1.3,3.7-3.1l0,0c0-1.5-0.7-2.5-4-3.7
				c-3.8-1.4-5.3-2.8-5.3-5.4l0,0c0-2.7,2.3-4.8,5.5-4.8c2.1,0,3.9,0.7,5.5,2.1l-1.2,1.5c-1.4-1.2-2.8-1.8-4.4-1.8
				c-2.1,0-3.4,1.3-3.4,2.8v0.1c0,1.6,0.8,2.5,4.3,3.8c3.7,1.4,5.1,2.9,5.1,5.3v0.1c0,2.9-2.4,5-5.7,5
				C2445.5-136,2443.4-136.8,2441.5-138.6z"/>
			<path class="st7" d="M2455.5-138.6l1.2-1.5c1.5,1.4,3.1,2.3,5.1,2.3c2.2,0,3.7-1.3,3.7-3.1l0,0c0-1.5-0.7-2.5-4-3.7
				c-3.8-1.4-5.3-2.8-5.3-5.4l0,0c0-2.7,2.3-4.8,5.5-4.8c2.1,0,3.9,0.7,5.5,2.1l-1.2,1.5c-1.4-1.2-2.8-1.8-4.4-1.8
				c-2.1,0-3.4,1.3-3.4,2.8v0.1c0,1.6,0.8,2.5,4.3,3.8c3.7,1.4,5.1,2.9,5.1,5.3v0.1c0,2.9-2.4,5-5.7,5
				C2459.5-136,2457.4-136.8,2455.5-138.6z"/>
		</g>
	</g>
	<g class="st1">
		<g>
			<path class="st7" d="M2517.5-154.5h11.1v1.8h-9.2v6.4h8.2v1.8h-8.2v6.5h9.3v1.8h-11.3L2517.5-154.5L2517.5-154.5z"/>
			<path class="st7" d="M2531-154.5h2.1l5.4,15.6l5.4-15.6h2.1l-6.6,18.4h-1.8L2531-154.5z"/>
			<path class="st7" d="M2549-154.5h11.1v1.8h-9.2v6.4h8.2v1.8h-8.2v6.5h9.3v1.8H2549V-154.5z"/>
			<path class="st7" d="M2563.8-154.5h1.9l9.6,14.4v-14.4h1.9v18.3h-1.6l-9.8-14.7v14.7h-1.9L2563.8-154.5L2563.8-154.5z"/>
			<path class="st7" d="M2585.4-152.7h-5.1v-1.8h12.2v1.8h-5.1v16.4h-2V-152.7z"/>
			<path class="st7" d="M2602.5-154.5h5.5c3.9,0,6.4,2.2,6.4,5.8v0.1c0,3.9-2.9,6-6.7,6h-3.3v6.4h-2L2602.5-154.5L2602.5-154.5z
				 M2607.8-144.5c2.8,0,4.6-1.6,4.6-4.2l0,0c0-2.7-1.8-4.1-4.5-4.1h-3.4v8.3H2607.8z"/>
			<path class="st7" d="M2617.6-154.5h6.2c2.1,0,3.8,0.6,4.8,1.7c0.9,0.9,1.4,2.2,1.4,3.8v0.1c0,2.9-1.8,4.6-4.3,5.3l4.9,7.5h-2.4
				l-4.6-7.1h-4.2v7.1h-2v-18.4L2617.6-154.5L2617.6-154.5z M2623.5-145.1c3,0,4.6-1.5,4.6-3.8v-0.1c0-2.4-1.7-3.7-4.4-3.7h-4.2v7.6
				L2623.5-145.1L2623.5-145.1z"/>
			<path class="st7" d="M2633.1-145.3v-0.2c0-5.4,3.2-9.3,7.9-9.3c4.6,0,7.8,3.9,7.8,9.3v0.2c0,5.4-3.2,9.3-7.9,9.3
				C2636.2-136,2633.1-139.9,2633.1-145.3z M2646.8-145.3v-0.2c0-4.4-2.5-7.5-5.8-7.5s-5.8,3.1-5.8,7.5v0.2c0,4.4,2.5,7.5,5.8,7.5
				S2646.8-140.9,2646.8-145.3z"/>
			<path class="st7" d="M2652.5-154.5h5.5c3.9,0,6.4,2.2,6.4,5.8v0.1c0,3.9-2.9,6-6.7,6h-3.3v6.4h-2L2652.5-154.5L2652.5-154.5z
				 M2657.8-144.5c2.8,0,4.6-1.6,4.6-4.2l0,0c0-2.7-1.8-4.1-4.5-4.1h-3.4v8.3H2657.8z"/>
			<path class="st7" d="M2667.5-154.5h11.1v1.8h-9.2v6.4h8.2v1.8h-8.2v6.5h9.3v1.8h-11.3L2667.5-154.5L2667.5-154.5z"/>
			<path class="st7" d="M2682.3-154.5h6.2c2.1,0,3.8,0.6,4.8,1.7c0.9,0.9,1.4,2.2,1.4,3.8v0.1c0,2.9-1.8,4.6-4.3,5.3l4.9,7.5h-2.4
				l-4.6-7.1h-4.2v7.1h-2v-18.4L2682.3-154.5L2682.3-154.5z M2688.2-145.1c3,0,4.6-1.5,4.6-3.8v-0.1c0-2.4-1.7-3.7-4.4-3.7h-4.2v7.6
				L2688.2-145.1L2688.2-145.1z"/>
			<path class="st7" d="M2702.2-152.7h-5.1v-1.8h12.2v1.8h-5.1v16.4h-2V-152.7z"/>
			<path class="st7" d="M2712.7-154.5h2v18.3h-2V-154.5z"/>
			<path class="st7" d="M2719.2-154.5h11.1v1.8h-9.2v6.4h8.2v1.8h-8.2v6.5h9.3v1.8h-11.3L2719.2-154.5L2719.2-154.5z"/>
			<path class="st7" d="M2732.7-138.6l1.2-1.5c1.5,1.4,3.1,2.3,5.1,2.3c2.2,0,3.7-1.3,3.7-3.1l0,0c0-1.5-0.7-2.5-4-3.7
				c-3.8-1.4-5.3-2.8-5.3-5.4l0,0c0-2.7,2.3-4.8,5.5-4.8c2.1,0,3.9,0.7,5.5,2.1l-1.2,1.5c-1.4-1.2-2.8-1.8-4.4-1.8
				c-2.1,0-3.4,1.3-3.4,2.8v0.1c0,1.6,0.8,2.5,4.3,3.8c3.7,1.4,5.1,2.9,5.1,5.3v0.1c0,2.9-2.4,5-5.7,5
				C2736.7-136,2734.6-136.8,2732.7-138.6z"/>
		</g>
	</g>
	<g class="st1">
		<g>
			<path class="st7" d="M2783.3-152.7h-5.1v-1.8h12.2v1.8h-5.1v16.4h-2V-152.7z"/>
			<path class="st7" d="M2793.8-154.5h2v18.3h-2V-154.5z"/>
			<path class="st7" d="M2800.3-154.5h2l5.6,9.8l5.6-9.8h2v18.3h-2V-151l-5.6,9.8h-0.1l-5.6-9.8v14.7h-1.9V-154.5z"/>
			<path class="st7" d="M2819.9-154.5h11.1v1.8h-9.2v6.4h8.2v1.8h-8.2v6.5h9.3v1.8h-11.3L2819.9-154.5L2819.9-154.5z"/>
		</g>
	</g>
</g>
<g class="st1">
	<path class="st2" d="M2056,530.2l-535.3-135.9c-2.5-0.6-4-3.2-3.4-5.7l92.6-364.7c0.6-2.5,3.2-4,5.7-3.4l535.3,135.9
		c2.5,0.6,4,3.2,3.4,5.7l-92.6,364.7C2061.1,529.3,2058.5,530.8,2056,530.2z"/>
</g>
<g>
	<path class="st0" d="M2081.8,505.4L1535.1,427c-2.6-0.4-4.3-2.7-4-5.3l53.4-372.4c0.4-2.6,2.7-4.3,5.3-4l546.7,78.5
		c2.6,0.4,4.3,2.7,4,5.3l-53.4,372.4C2086.7,504,2084.3,505.8,2081.8,505.4z"/>
	<path class="st8" d="M2069.3,505.6c-1.1,0-2.2-0.1-3.2-0.2l-515.9-74c-5.9-0.9-11.2-4-14.8-8.8c-3.6-4.8-5.1-10.7-4.2-16.6
		l49-341.6c1.8-12.2,13.1-20.8,25.4-19l515.9,74c5.9,0.9,11.2,4,14.8,8.8c3.6,4.8,5.1,10.7,4.2,16.6l-49,341.6
		c-0.9,5.9-4,11.2-8.8,14.8C2078.7,504.1,2074.1,505.6,2069.3,505.6z M1602.4,49.5c-8.9,0-16.6,6.5-17.9,15.5l-49,341.6
		c-0.7,4.8,0.5,9.6,3.4,13.4c2.9,3.9,7.1,6.4,11.9,7.1l515.9,74c4.8,0.7,9.6-0.5,13.4-3.4c3.9-2.9,6.4-7.1,7.1-11.9l49-341.6
		c0.7-4.8-0.5-9.6-3.4-13.4c-2.9-3.9-7.1-6.4-11.9-7.1l-515.9-74C1604.1,49.5,1603.2,49.5,1602.4,49.5z"/>
</g>
<g>
	<g class="st1">
		<path class="st2" d="M939.7-140.7l21.9,60.8c0,0,2.4,5.9,10.3,5.4C979.8-75,1181.6-95,1181.6-95s13.8-1.6,11.6-5.5
			c-2.2-3.9-25.9-60.6-25.9-60.6s-2.3-5.3-12.2-4.6c-9.6,0.6-195.2,17.4-205.9,18.2C941.3-146.8,939.5-144,939.7-140.7z"/>
	</g>
	<g>
		<path class="st0" d="M965.1-268.8l16.1,164.4c0,0,1.8,16.1,8.9,16.1c7.1,0,189.5-17.9,189.5-17.9s12.5-1.8,10.7-12.5
			c-1.8-10.7-19.6-164.4-19.6-164.4s-1.8-14.3-10.7-14.3c-8.7,0-176.3,12.3-185.9,12.5C966.9-284.7,965.1-277.7,965.1-268.8z"/>
		<path class="st3" d="M990.2-86.1c-8.8,0-10.9-16.2-11.1-18L963-268.8c0-4.4,0-18,11-18.2c4.3-0.1,41.5-2.7,80.8-5.5
			c49.2-3.5,100.1-7,105.1-7l0,0c10.7,0,12.8,15.5,12.9,16.2c0.2,1.6,17.9,153.8,19.6,164.3c0.6,3.5-0.1,6.5-1.9,9.1
			c-3.6,4.9-10.3,5.9-10.6,5.9C1172.4-103.3,997.3-86.1,990.2-86.1z M967.3-268.9l16.1,164.3c0.5,4.6,2.9,14.1,6.8,14.1
			c5.6,0,126.2-11.7,189.2-17.9l0,0c0,0,5.2-0.8,7.7-4.2c1.2-1.6,1.5-3.5,1.1-5.8c-1.8-10.7-18.9-158.3-19.7-164.5
			c0-0.1-1.7-12.4-8.6-12.4l0,0c-4.8,0-57.9,3.7-104.8,7c-39.4,2.8-76.6,5.4-81,5.5C970.8-282.6,967.3-280.9,967.3-268.9z"/>
	</g>
	<g class="st1">
		<path class="st5" d="M1176-276c-0.7-6.8-1.1-8.5-1.1-8.5s-1.7-16.5-10.7-16.5s-179.3,14.4-186.5,14.4s-9,8.2-9,18.5l0.9,8.2
			C1017.1-264,1116.5-271.6,1176-276z"/>
	</g>
	<g>
		<g>
			<path class="st5" d="M983.3-269.4l-4.7,0.4c-0.4,0-0.7-0.3-0.8-0.7l-0.3-4.7c0-0.4,0.3-0.7,0.7-0.8l4.7-0.3
				c0.4,0,0.7,0.3,0.8,0.7l0.3,4.7C984-269.7,983.7-269.4,983.3-269.4z"/>
		</g>
		<g>
			<path class="st5" d="M993.5-270.1l-4.7,0.3c-0.4,0-0.7-0.3-0.8-0.7l-0.3-4.7c0-0.4,0.3-0.7,0.7-0.8l4.7-0.3
				c0.4,0,0.7,0.3,0.8,0.7l0.3,4.7C994.2-270.5,993.9-270.1,993.5-270.1z"/>
		</g>
		<g>
			<path class="st5" d="M1003.7-270.8l-4.7,0.3c-0.4,0-0.7-0.3-0.8-0.7l-0.2-4.6c0-0.4,0.3-0.7,0.7-0.8l4.7-0.3
				c0.4,0,0.7,0.3,0.8,0.7l0.3,4.7C1004.4-271.2,1004.1-270.8,1003.7-270.8z"/>
		</g>
	</g>
</g>
<g>
	<path class="st7" d="M1037.8-199.3h8.4l15.2,42.6h-9.1l-3.1-9.2h-14.6l-3.1,9.2h-8.8L1037.8-199.3z M1046.5-173.6l-4.6-13.8
		l-4.7,13.8H1046.5z"/>
	<path class="st7" d="M1066.6-199h14.1c9.5,0,15.5,5.5,15.5,14.5v0.1c0,9.7-7,14.6-15.9,14.8h-5v12.9h-8.8L1066.6-199L1066.6-199z
		 M1080.3-177.4c4.5,0,7.1-2.8,7.1-6.8v-0.1c0-4.4-2.5-6.8-7.2-6.8h-4.8v13.7L1080.3-177.4L1080.3-177.4z"/>
	<path class="st7" d="M1101.9-199h14.1c9.5,0,15.5,5.5,15.5,14.5v0.1c0,9.7-7,14.6-15.9,14.8h-5v12.9h-8.8L1101.9-199L1101.9-199z
		 M1115.6-177.4c4.5,0,7.1-2.8,7.1-6.8v-0.1c0-4.4-2.5-6.8-7.2-6.8h-4.8v13.7L1115.6-177.4L1115.6-177.4z"/>
</g>
<g>
	<g>
		<g>
			<path class="st8" d="M1736-31.6l4.1,1.4c3.3-9.7,6.9-19.3,10.7-28.5l-4-1.7C1742.9-51.1,1739.3-41.4,1736-31.6z"/>
			<path class="st8" d="M1726.6,0.9l4.2,1.1c1.9-7.6,4-15.1,6.1-22.3l-4.1-1.3C1730.6-14.3,1728.5-6.7,1726.6,0.9z"/>
			<path class="st8" d="M1751.8-71.6l3.9,1.8c3.4-7.4,7-14.7,10.9-21.7l-3.8-2.1C1758.9-86.5,1755.2-79.1,1751.8-71.6z"/>
			<path class="st8" d="M1719.1,36.4l4.3,0.7c1.4-8,3-16.1,4.7-23.9l-4.2-0.9C1722.1,20.2,1720.5,28.3,1719.1,36.4z"/>
			<path class="st8" d="M1906-231.3l1.9,3.9c7.2-3.6,14.7-6.9,22.3-9.9l-1.6-4C1920.9-238.2,1913.3-234.9,1906-231.3z"/>
			<path class="st8" d="M2014.4-263.6l0.5,4.3c15-1.9,24.2-2,24.3-2v-4.3C2038.9-265.6,2029.7-265.5,2014.4-263.6z"/>
			<path class="st8" d="M1971.9-255.5l1.1,4.2c9.9-2.5,19.9-4.6,29.8-6.3l-0.7-4.3C1992.1-260.2,1981.9-258.1,1971.9-255.5z"/>
			<path class="st8" d="M1939.5-245.5l1.5,4.1c7.1-2.6,14.5-5,22-7.1l-1.2-4.2C1954.3-250.6,1946.8-248.1,1939.5-245.5z"/>
		</g>
		<g>
			<path class="st8" d="M1718.7,51l-22.8-45.6c-0.5-1.1-0.1-2.4,1-2.9s2.4-0.1,2.9,1l20.4,40.8l41.1-32.9c0.9-0.7,2.3-0.6,3,0.3
				s0.6,2.3-0.3,3L1718.7,51z"/>
		</g>
	</g>
	<g>
		<path class="st8" d="M1772-129.8l6.8-6c2.1-1.8,4.3-2.7,6.5-2.6c1.9,0.1,3.6,1.1,5.2,2.9l0.1,0.1c2.4,2.8,2.5,5.7,1.3,8.3l9.8,3.4
			l-4.3,3.8l-8.6-3.1l-2.4,2.1l5.2,6l-3.8,3.3L1772-129.8z M1786.3-126.6c1.9-1.7,2-3.7,0.6-5.3l0,0c-1.6-1.8-3.5-1.8-5.4-0.1
			l-2.7,2.4l4.8,5.5L1786.3-126.6z"/>
		<path class="st8" d="M1788.3-144l11.8-10.2l3,3.4l-8,7l3.4,3.9l7-6.1l3,3.4l-7,6.1l3.5,4.1l8.1-7.1l3,3.4l-11.8,10.3L1788.3-144z"
			/>
		<path class="st8" d="M1809.7-156.5l-4.6,4l-3-3.5l12.9-11.3l3,3.5l-4.6,4l12.8,14.7l-3.7,3.3L1809.7-156.5z"/>
		<path class="st8" d="M1817.5-169.5l6.9-6c2.1-1.8,4.3-2.7,6.5-2.6c1.8,0.1,3.6,1.1,5.2,2.9l0.1,0.1c2.4,2.8,2.5,5.7,1.3,8.3
			l9.8,3.4l-4.3,3.8l-8.6-3.1l-2.4,2.1l5.2,6l-3.8,3.3L1817.5-169.5z M1831.9-166.3c1.9-1.7,2-3.7,0.6-5.3l0,0
			c-1.6-1.8-3.5-1.8-5.4-0.1l-2.7,2.4l4.8,5.5L1831.9-166.3z"/>
		<path class="st8" d="M1834-183.8l3.8-3.3l15.9,18.2l-3.8,3.3L1834-183.8z"/>
		<path class="st8" d="M1841.6-190.4l11.8-10.2l3,3.4l-8,7l3.4,3.9l7-6.1l3,3.4l-7,6.1l3.5,4.1l8.1-7.1l3,3.4l-11.8,10.3
			L1841.6-190.4z"/>
		<path class="st8" d="M1855-202.1l4.1-3.6l14.8,9.2l-7.1-15.9l4-3.5l9.8,23.7l-3.5,3L1855-202.1z"/>
		<path class="st8" d="M1873.1-217.8l11.8-10.2l3,3.4l-8,7l3.4,3.9l7-6.1l3,3.4l-7,6.1l3.5,4.1l8.1-7.1l3,3.4l-11.9,10.3
			L1873.1-217.8z"/>
	</g>
</g>
<g>
	<path class="st9" d="M1621.1,166.3c0-5.8,2.3-10.9,6.1-14.7c2.1-2.1,4.8-3.9,7.9-5.1l1.6,3.3c-2.3,1.1-4.2,2.5-5.8,4
		c-3.5,3.5-5.2,7.8-5.2,12.4c0,4.3,1.7,7.6,4.5,10.7l-2.9,2.7C1623.5,176.1,1621.1,172,1621.1,166.3z"/>
	<path class="st9" d="M1638.8,165.5v0.3c0,3.1,1.5,5.1,4.1,5.1c1.8,0,3-0.6,4.4-1.7l2,3.2c-1.8,1.4-3.9,2.3-6.6,2.3
		c-5.1,0-8.2-3.4-8.2-8.8c0-3.7,1.5-7.4,3.9-9.8c1.8-1.8,4-3,6.8-3c4.4,0,7.1,3.2,7.1,7.6c0,1.4-0.2,3-0.9,4.8L1638.8,165.5
		L1638.8,165.5z M1639.3,162.5h8.6c0.2-0.7,0.2-1.2,0.2-2c0-2-1-3.6-3.2-3.6c-1.3,0-2.5,0.6-3.4,1.5
		C1640.5,159.4,1639.7,160.8,1639.3,162.5z"/>
	<path class="st9" d="M1658.4,153.5h4.6l-0.5,2.4c1.4-1.6,3-2.8,5.2-2.8c2.4,0,4.1,1.4,4.7,3.7c1.7-2.3,3.9-3.7,6.6-3.7
		c3.2,0,5.3,2.1,5.3,5.2c0,1.2-0.3,2.6-0.6,4.1l-2.9,11.8h-4.6l2.9-11.9c0.2-1,0.4-1.9,0.4-2.4c0-1.7-0.9-2.6-2.6-2.6
		c-2,0-3.8,1.8-4.4,4.4l-3.1,12.6h-4.6l2.9-11.9c0.2-1,0.4-1.9,0.4-2.4c0-1.7-1-2.6-2.6-2.6c-2.1,0-3.8,1.9-4.4,4.5l-3,12.4h-4.6
		L1658.4,153.5z"/>
	<path class="st9" d="M1690.9,170.8l-2.2,9.2h-4.6l6.5-26.6h4.6l-0.6,2.6c1.6-1.8,3.3-3,5.6-3c3.6,0,6.5,3,6.5,8.3
		c0,4-1.4,7.9-3.9,10.4c-1.8,1.7-3.9,2.7-6.2,2.7C1693.7,174.6,1691.9,173,1690.9,170.8z M1699.1,169.2c1.7-1.7,2.7-4.5,2.7-7.4
		c0-3-1.3-4.8-3.7-4.8c-1.3,0-2.5,0.5-3.5,1.6c-1.7,1.7-2.7,4.6-2.7,7.3c0,2.9,1.6,4.7,3.9,4.7
		C1696.9,170.7,1698.2,170.2,1699.1,169.2z"/>
	<path class="st9" d="M1709.7,170.7c0-0.8,0.2-1.7,0.4-2.5l2.6-10.7h-2.3l1-4h2.3l1.3-5.4h4.6l-1.3,5.4h4.3l-1,4h-4.2l-2.6,10.7
		c-0.1,0.4-0.1,0.8-0.1,1c0,0.8,0.6,1.2,1.6,1.2c0.8,0,1.7-0.2,2.5-0.6l-1,4c-0.9,0.5-2.2,0.7-3.5,0.7
		C1711.4,174.5,1709.7,173,1709.7,170.7z"/>
	<path class="st9" d="M1724.7,153.5h4.7l0.8,15.2l7.5-15.2h4.9l-11.5,21.1c-2.2,4-4.1,5.6-7,5.6c-1.7,0-3.2-0.6-4.3-1.6l2.2-3.2
		c0.7,0.5,1.4,0.9,2.1,0.9c0.9,0,1.6-0.5,2.4-1.9L1724.7,153.5z"/>
	<path class="st9" d="M1754.1,159.8c0,5.8-2.3,10.9-6.1,14.7c-2.1,2.1-4.8,3.9-7.9,5.1l-1.6-3.3c2.3-1.1,4.2-2.5,5.8-4
		c3.5-3.5,5.2-7.8,5.2-12.4c0-4.3-1.7-7.6-4.5-10.7l2.9-2.7C1751.8,150,1754.1,154.1,1754.1,159.8z"/>
</g>
<g class="st10">
	<polygon class="st8" points="2087.9,319.1 1556.4,314.7 1569.4,241.3 2105.1,241.3 	"/>
</g>
<g class="st6">
	<path class="st8" d="M1658.7,262.1h4.9l11.2,30.6h-5.3l-2.5-7.2h-11.8l-2.5,7.2h-5.1L1658.7,262.1z M1665.4,281l-4.4-12.2
		l-4.4,12.2H1665.4z"/>
	<path class="st8" d="M1676.5,277.7v-0.3c0-9,5.8-15.5,14-15.5c4.1,0,7,1.2,9.7,3.4l-3,4c-1.7-1.6-3.7-2.7-6.7-2.7
		c-5,0-8.7,4.5-8.7,10.8v0.3c0,6.9,3.7,11,8.9,11c2.1,0,4-0.7,5.4-1.6v-6.7h-6.4V276h11.2v13.7c-2.6,2-6.1,3.7-10.4,3.7
		C1682.1,293.1,1676.5,287,1676.5,277.7z"/>
	<path class="st8" d="M1705.6,277.7v-0.3c0-9,5.8-15.5,14-15.5c4.1,0,7,1.2,9.7,3.4l-3,4c-1.7-1.6-3.7-2.7-6.7-2.7
		c-5,0-8.7,4.5-8.7,10.8v0.3c0,6.9,3.7,11,8.9,11c2.1,0,4-0.7,5.4-1.6v-6.7h-6.4V276h11.2v13.7c-2.6,2-6.1,3.7-10.4,3.7
		C1711.3,293.1,1705.6,287,1705.6,277.7z"/>
	<path class="st8" d="M1735.9,262.2h11c3.5,0,6.3,1,8.1,2.9c1.6,1.6,2.5,3.9,2.5,6.7v0.2c0,4.7-2.6,7.6-6.3,8.9l7.2,11.8h-5.8
		l-6.5-10.8c-0.1,0-0.2,0-0.3,0h-4.9v10.7h-5V262.2z M1746.4,277.4c3.9,0,6.1-2.1,6.1-5.3V272c0-3.4-2.2-5.2-6-5.2h-5.5v10.6
		L1746.4,277.4L1746.4,277.4z"/>
	<path class="st8" d="M1763,262.2h19.2v4.6H1768v8.3h12.6v4.6H1768v8.5h14.4v4.6H1763V262.2z"/>
	<path class="st8" d="M1786.5,277.7v-0.3c0-9,5.8-15.5,14-15.5c4.1,0,7,1.2,9.7,3.4l-3,4c-1.7-1.6-3.7-2.7-6.7-2.7
		c-5,0-8.7,4.5-8.7,10.8v0.3c0,6.9,3.7,11,8.9,11c2.1,0,4-0.7,5.4-1.6v-6.7h-6.4V276h11.2v13.7c-2.6,2-6.1,3.7-10.4,3.7
		C1792.1,293.1,1786.5,287,1786.5,277.7z"/>
	<path class="st8" d="M1825.7,262.1h4.9l11.2,30.6h-5.3l-2.5-7.2h-11.8l-2.5,7.2h-5.1L1825.7,262.1z M1832.4,281l-4.4-12.2
		l-4.4,12.2H1832.4z"/>
	<path class="st8" d="M1849,266.9h-8v-4.7h21.1v4.7h-8v25.8h-5.1V266.9z"/>
	<path class="st8" d="M1866.8,262.2h19.2v4.6h-14.2v8.3h12.6v4.6h-12.6v8.5h14.4v4.6h-19.4V262.2z"/>
	<path class="st8" d="M1902.7,262.2h11c3.5,0,6.3,1,8.1,2.9c1.6,1.6,2.5,3.9,2.5,6.7v0.2c0,4.7-2.6,7.6-6.3,8.9l7.2,11.8h-5.8
		l-6.5-10.8c-0.1,0-0.2,0-0.3,0h-4.9v10.7h-5V262.2z M1913.2,277.4c3.9,0,6.1-2.1,6.1-5.3V272c0-3.4-2.2-5.2-6-5.2h-5.5v10.6
		L1913.2,277.4L1913.2,277.4z"/>
	<path class="st8" d="M1928.7,277.7v-0.4c0-9.1,5.6-15.5,13.5-15.5s13.4,6.4,13.4,15.4v0.4c0,9.1-5.6,15.5-13.5,15.5
		C1934.3,293.2,1928.7,286.7,1928.7,277.7z M1950.5,277.6v-0.3c0-6.5-3.5-10.9-8.3-10.9s-8.2,4.3-8.2,10.9v0.3
		c0,6.5,3.5,10.9,8.3,10.9C1947,288.5,1950.5,284.2,1950.5,277.6z"/>
	<path class="st8" d="M1960.1,277.7v-0.4c0-9.1,5.6-15.5,13.5-15.5s13.4,6.4,13.4,15.4v0.4c0,9.1-5.6,15.5-13.5,15.5
		C1965.6,293.2,1960.1,286.7,1960.1,277.7z M1981.8,277.6v-0.3c0-6.5-3.5-10.9-8.3-10.9s-8.2,4.3-8.2,10.9v0.3
		c0,6.5,3.5,10.9,8.3,10.9C1978.4,288.5,1981.8,284.2,1981.8,277.6z"/>
	<path class="st8" d="M1997.2,266.9h-8v-4.7h21.1v4.7h-8v25.8h-5L1997.2,266.9L1997.2,266.9z"/>
</g>
<g>
	<g>
		<path class="st11" d="M1191.8-208.1l-1-4.2c7.8-1.8,15.9-3.6,24-5.2l0.8,4.2C1207.6-211.7,1199.5-209.9,1191.8-208.1z
			 M1627.9-211.3c-6.9-1-14.6-2-23-3.1l0.5-4.3c8.5,1.1,16.2,2.1,23.1,3.1L1627.9-211.3z M1227.7-215.5l-0.8-4.3
			c9.8-1.7,20-3.3,30.3-4.7l0.6,4.3C1247.6-218.8,1237.5-217.2,1227.7-215.5z M1594.5-215.7c-9.4-1.2-19.6-2.3-30.4-3.5l0.5-4.3
			c10.8,1.1,21,2.3,30.5,3.5L1594.5-215.7z M1551.9-220.4c-7.8-0.8-16-1.5-24.4-2.3l0.4-4.3c8.4,0.7,16.6,1.5,24.4,2.3L1551.9-220.4
			z M1268.1-221.5l-0.5-4.3c7.6-0.9,15.4-1.8,23.2-2.5l0.4,4.3C1283.5-223.2,1275.7-222.4,1268.1-221.5z M1516-223.6
			c-7.6-0.6-15.3-1.2-23.2-1.7l0.3-4.3c7.9,0.5,15.7,1.1,23.2,1.7L1516-223.6z M1302.8-225l-0.4-4.3c8-0.7,16.2-1.2,24.5-1.7
			l0.2,4.3C1318.9-226.2,1310.7-225.7,1302.8-225z M1482.4-226c-10.2-0.6-20.5-1.1-30.5-1.5l0.2-4.3c10.1,0.4,20.4,0.9,30.6,1.5
			L1482.4-226z M1339.4-227.3l-0.2-4.3c10-0.5,20.3-0.8,30.7-1l0.1,4.3C1359.6-228.2,1349.3-227.8,1339.4-227.3z M1439.6-227.9
			c-8.1-0.3-16.2-0.4-24.5-0.6l0.1-4.3c8.3,0.1,16.4,0.3,24.5,0.6L1439.6-227.9z M1380.3-228.5l-0.1-4.3c7.8-0.1,15.6-0.1,23.3-0.1
			v4.3C1395.9-228.6,1388.1-228.6,1380.3-228.5z"/>
	</g>
	<g>
		<path class="st11" d="M1619.1-190.8c-0.5,0-1.1-0.2-1.5-0.6c-0.9-0.8-0.9-2.2-0.1-3.1l18.3-19.7l-14.3-25.3
			c-0.6-1-0.2-2.4,0.8-2.9c1-0.6,2.4-0.2,2.9,0.8l15,26.7c0.5,0.8,0.3,1.8-0.3,2.5l-19.4,20.8C1620.2-191,1619.6-190.8,1619.1-190.8
			z"/>
	</g>
</g>
<g>
	<g>
		<path class="st12" d="M1519.7-160.6h-203.1c-32.7,0-59.5-26.8-59.5-59.5l0,0c0-32.7,26.8-59.5,59.5-59.5h203.1
			c32.7,0,59.5,26.8,59.5,59.5l0,0C1579.2-187.3,1552.4-160.6,1519.7-160.6z"/>
	</g>
	<g>
		<path class="st0" d="M1513.9-172.6h-196.4c-26.6,0-48.3-21.7-48.3-48.3l0,0c0-26.6,21.7-48.3,48.3-48.3h196.4
			c26.6,0,48.3,21.7,48.3,48.3l0,0C1562.2-194.4,1540.5-172.6,1513.9-172.6z"/>
	</g>
	<g>
		<path class="st11" d="M1290.1-213.5l4.2-3.6c2,2.2,3.7,3.4,5.6,3.4c1.6,0,2.7-1,2.7-2.3c0-1.1-0.7-2-3.3-3.9
			c-3-2.3-4.9-4.4-4.9-7.3c0-2.3,0.9-4.3,2.2-5.6c1.6-1.6,3.9-2.6,6.5-2.6c3.9,0,6.6,1.7,8.5,3.9l-3.9,3.9c-1.7-1.8-3-2.8-4.9-2.8
			c-1.7,0-2.6,1.1-2.6,2.3c0,1.2,0.6,1.9,3.3,3.9c2.9,2.1,5,4.2,5,7.4c0,2.4-0.9,4.3-2.3,5.7c-1.6,1.6-4.1,2.5-6.6,2.5
			C1295.7-208.8,1292.3-210.5,1290.1-213.5z"/>
		<path class="st11" d="M1326.3-209.1h-5.5l0.4-1.9c-1.2,1.1-2.7,2.2-4.7,2.2c-2.9,0-4.8-1.9-4.8-5.1c0-1,0.3-2.5,0.7-4l2.7-11.2
			h5.6l-2.7,11.3c-0.2,0.9-0.3,1.7-0.3,2.2c0,1.3,0.6,1.9,1.9,1.9c1.7,0,2.8-1.4,3.2-3.4l2.9-12h5.5L1326.3-209.1z"/>
		<path class="st11" d="M1336.5-211.8l-0.6,2.6h-5.5l6.5-26.8h5.6l-2.1,8.7c1.5-1.5,2.9-2.3,4.8-2.3c3.3,0,6.1,2.8,6.1,8.1
			c0,3.8-1.4,7.6-3.7,10c-1.7,1.7-3.8,2.6-6,2.6C1339.2-208.8,1337.6-210,1336.5-211.8z M1343.2-214.6c1.4-1.4,2.3-3.8,2.3-6.4
			c0-2.4-1-3.9-3-3.9c-0.9,0-1.9,0.4-2.6,1.1c-1.5,1.5-2.3,4.1-2.3,6.4c0,2.4,1.2,3.9,3,3.9C1341.4-213.5,1342.4-213.9,1343.2-214.6
			z"/>
		<path class="st11" d="M1353.7-212.7c0-0.8,0.2-1.6,0.4-2.6l2.2-9.1h-2.2l1.2-4.8h2.1l1.2-4.9h5.6l-1.2,4.9h3.5l-1.2,4.8h-3.5
			l-2.2,9c-0.1,0.3-0.1,0.6-0.1,0.8c0,0.5,0.4,0.9,1.1,0.9c0.8,0,1.7-0.2,2.3-0.6l-1.2,4.7c-0.9,0.5-2.3,0.8-3.7,0.8
			C1355.2-208.9,1353.7-210.4,1353.7-212.7z"/>
		<path class="st11" d="M1370-229.2h5.5l-0.8,3.2c1.5-2.3,3.3-3.7,6.1-3.5l-1.6,5.8h-0.3c-3.2,0-5.2,1.5-6.2,5.8l-2.1,8.8h-5.5
			L1370-229.2z"/>
		<path class="st11" d="M1378.4-214.1c0-2,0.7-3.9,2-5.2c1.4-1.4,3.4-2.1,5.8-2.1c1.7,0,3,0.3,4.3,0.9l0.1-0.3
			c0.1-0.6,0.3-1.2,0.3-1.8c0-1.1-0.6-2-2.9-2c-1.4,0-2.9,0.4-4.3,1.1l-1.2-4.4c1.8-0.8,4-1.4,6.5-1.4c4.8,0,7.3,2,7.3,5.5
			c0,1.3-0.3,2.6-0.6,3.9l-2.6,10.9h-5.4l0.5-2.1c-1.3,1.5-2.9,2.4-4.8,2.4C1380.2-208.8,1378.4-211.1,1378.4-214.1z M1389.5-216.3
			l0.3-1.3c-0.7-0.3-1.7-0.6-2.5-0.6c-1,0-1.9,0.3-2.4,0.9c-0.6,0.6-1,1.6-1,2.6c0,1.2,0.7,2.1,2,2.1
			C1387.8-212.6,1389-214.4,1389.5-216.3z"/>
		<path class="st11" d="M1398.6-217.2c0-3.6,1.4-7.1,3.6-9.4c1.9-1.8,4-2.9,6.8-2.9c3.6,0,5.4,1.4,6.8,3.6l-4,3.2
			c-0.9-1.3-1.7-2.1-2.9-2.1c-1,0-1.8,0.4-2.5,1.2c-1.4,1.4-2.4,4.2-2.4,6.4c0,2.5,1.1,3.8,2.7,3.8c1.2,0,2-0.6,3.2-1.5l2.7,3.5
			c-1.6,1.5-3.4,2.7-6.2,2.7C1401.7-208.8,1398.6-212,1398.6-217.2z"/>
		<path class="st11" d="M1416.1-212.7c0-0.8,0.2-1.6,0.4-2.6l2.2-9.1h-2.2l1.2-4.8h2.1l1.2-4.9h5.6l-1.2,4.9h3.5l-1.2,4.8h-3.5
			l-2.2,9c-0.1,0.3-0.1,0.6-0.1,0.8c0,0.5,0.4,0.9,1.1,0.9c0.8,0,1.7-0.2,2.3-0.6l-1.2,4.7c-0.9,0.5-2.3,0.8-3.7,0.8
			C1417.7-208.9,1416.1-210.4,1416.1-212.7z"/>
		<path class="st11" d="M1453.5-237.4l-0.7,2.8c2,0.6,3.8,1.8,5,3.1l-3.8,3.7c-0.8-0.8-1.7-1.4-2.7-1.9l-1.5,5.5
			c3,1.6,5.1,3.8,5.1,6.8c0,5-4,8.3-9.2,8.3l-1,3.6h-3.7l1.2-4c-2.6-0.7-4.8-2-6.3-4l4-3.5c1.2,1.4,2.4,2.3,3.7,2.7l1.6-5.9
			c-2.9-1.6-5.1-3.4-5.1-7c0-4.7,3.6-8,9.1-8l0.7-2.2H1453.5z M1446.8-225.9l1.2-4.4c-1.5,0.2-2.3,1.3-2.3,2.4
			C1445.8-227.3,1446-226.6,1446.8-225.9z M1448.2-218.5l-1.3,4.6c1.4-0.4,2.3-1.4,2.3-2.7C1449.2-217.4,1448.9-217.9,1448.2-218.5z
			"/>
		<path class="st11" d="M1464.4-229.2l-3.9,1v-4.9l7.1-2.1h3.9l-6.4,26.1h-5.6L1464.4-229.2z"/>
		<path class="st11" d="M1494.1-225.4c0,4.5-1.6,10.3-4.9,13.6c-2,2-4.4,3.1-7.5,3.1c-5.1,0-8.7-3.7-8.7-10.1
			c0-4.5,1.6-10.4,4.9-13.6c1.9-2,4.4-3.1,7.4-3.1C1490.5-235.5,1494.1-231.9,1494.1-225.4z M1484.9-215c2.2-2.2,3.5-7.2,3.5-10.4
			c0-3.6-1.4-5-3.4-5c-1,0-1.9,0.4-2.7,1.2c-2.2,2.2-3.5,7.2-3.5,10.4c0,3.6,1.4,5,3.4,5C1483.1-213.8,1484.1-214.2,1484.9-215z"/>
		<path class="st11" d="M1517.4-225.4c0,4.5-1.6,10.3-4.9,13.6c-2,2-4.4,3.1-7.5,3.1c-5.1,0-8.7-3.7-8.7-10.1
			c0-4.5,1.6-10.4,4.9-13.6c1.9-2,4.4-3.1,7.4-3.1C1513.8-235.5,1517.4-231.9,1517.4-225.4z M1508.2-215c2.2-2.2,3.5-7.2,3.5-10.4
			c0-3.6-1.4-5-3.4-5c-1,0-1.9,0.4-2.7,1.2c-2.2,2.2-3.5,7.2-3.5,10.4c0,3.6,1.4,5,3.4,5C1506.4-213.8,1507.3-214.2,1508.2-215z"/>
		<path class="st11" d="M1540.6-225.4c0,4.5-1.6,10.3-4.9,13.6c-2,2-4.4,3.1-7.5,3.1c-5.1,0-8.7-3.7-8.7-10.1
			c0-4.5,1.6-10.4,4.9-13.6c1.9-2,4.4-3.1,7.4-3.1C1537-235.5,1540.6-231.9,1540.6-225.4z M1531.4-215c2.2-2.2,3.5-7.2,3.5-10.4
			c0-3.6-1.4-5-3.4-5c-1,0-1.9,0.4-2.7,1.2c-2.2,2.2-3.5,7.2-3.5,10.4c0,3.6,1.4,5,3.4,5C1529.7-213.8,1530.6-214.2,1531.4-215z"/>
	</g>
</g>
<g>
	<path class="st9" d="M1650.5,376h4.9l3.5,12.7l9.5-12.7h5.4l-6.6,27.2h-4.7l4.7-19.5l-10,12.9h-0.2l-3.7-12.8l-4.7,19.4h-4.7
		L1650.5,376z"/>
	<path class="st9" d="M1692.8,391c0,3.7-1.4,7.4-3.8,9.7c-1.8,1.9-4.2,3-6.8,3c-5,0-8.2-3.6-8.2-8.8c0-3.7,1.4-7.4,3.8-9.8
		c1.8-1.9,4.2-3,6.8-3C1689.6,382.1,1692.8,385.7,1692.8,391z M1685.6,398.2c1.7-1.7,2.6-4.7,2.6-7.1c0-3.3-1.6-5-3.9-5
		c-1.2,0-2.4,0.6-3.3,1.4c-1.7,1.7-2.6,4.7-2.6,7.1c0,3.3,1.6,5,3.9,5C1683.6,399.6,1684.7,399.1,1685.6,398.2z"/>
	<path class="st9" d="M1699.2,382.5h4.6l-0.5,2.4c1.3-1.5,3.1-2.8,5.4-2.8c3.1,0,5.2,2,5.2,5.4c0,1-0.3,2.4-0.6,3.9l-2.8,11.8h-4.7
		l2.9-11.9c0.3-1,0.4-1.9,0.4-2.4c0-1.7-0.9-2.6-2.7-2.6c-2.2,0-3.9,1.9-4.5,4.5l-3,12.4h-4.6L1699.2,382.5z"/>
	<path class="st9" d="M1720.7,394.5v0.3c0,3.1,1.5,5.1,4.1,5.1c1.8,0,3-0.6,4.4-1.7l2,3.2c-1.8,1.4-3.9,2.3-6.6,2.3
		c-5.1,0-8.2-3.4-8.2-8.8c0-3.7,1.5-7.4,3.9-9.8c1.8-1.8,4-3,6.8-3c4.4,0,7.1,3.2,7.1,7.6c0,1.4-0.2,3-0.9,4.8L1720.7,394.5
		L1720.7,394.5z M1721.2,391.5h8.6c0.2-0.7,0.2-1.2,0.2-2c0-2-1-3.6-3.2-3.6c-1.3,0-2.5,0.6-3.4,1.5
		C1722.5,388.4,1721.7,389.8,1721.2,391.5z"/>
	<path class="st9" d="M1737.7,382.5h4.7l0.8,15.2l7.5-15.2h4.9l-11.5,21.1c-2.2,4-4.1,5.6-7,5.6c-1.7,0-3.2-0.6-4.3-1.6l2.2-3.2
		c0.7,0.5,1.4,0.9,2.1,0.9c0.9,0,1.6-0.5,2.4-1.9L1737.7,382.5z"/>
	<path class="st9" d="M1753.8,398.7l3.6-3c2,2.4,4,3.8,6.5,3.8c2.3,0,3.9-1.5,3.9-3.4c0-1.4-0.9-2.6-3.9-4.6
		c-3.6-2.5-5.5-4.6-5.5-7.6c0-2.3,0.9-4.2,2.2-5.5c1.7-1.7,4-2.7,6.7-2.7c3.9,0,6.7,1.8,8.7,4l-3.3,3.2c-1.8-1.9-3.5-3.1-5.6-3.1
		c-2.4,0-3.8,1.6-3.8,3.2c0,1.5,0.9,2.6,4,4.7c3.4,2.3,5.4,4.4,5.4,7.7c0,2.3-0.9,4.2-2.3,5.7c-1.6,1.6-4.2,2.6-6.8,2.6
		C1759.5,403.6,1756.1,401.7,1753.8,398.7z"/>
	<path class="st9" d="M1776.5,398.2c0-1,0.2-2.4,0.6-3.9l2.8-11.8h4.6l-2.9,11.8c-0.2,1-0.4,1.9-0.4,2.4c0,1.7,0.9,2.7,2.7,2.7
		c2.2,0,4-1.9,4.5-4.5l3-12.4h4.6l-5.1,20.7h-4.6l0.6-2.4c-1.3,1.5-3.1,2.8-5.4,2.8C1778.6,403.6,1776.5,401.6,1776.5,398.2z"/>
	<path class="st9" d="M1801.4,399.8l-0.8,3.4h-4.6l6.8-28.1h4.6l-2.4,9.9c1.6-1.8,3.3-3,5.6-3c3.6,0,6.5,3,6.5,8.3
		c0,4-1.4,7.9-3.9,10.4c-1.8,1.7-3.9,2.7-6.2,2.7C1804.2,403.6,1802.4,402,1801.4,399.8z M1809.6,398.2c1.7-1.7,2.7-4.5,2.7-7.4
		c0-3-1.3-4.8-3.7-4.8c-1.3,0-2.5,0.5-3.5,1.6c-1.7,1.7-2.7,4.6-2.7,7.3c0,2.9,1.6,4.7,3.9,4.7
		C1807.5,399.6,1808.7,399.2,1809.6,398.2z"/>
	<path class="st9" d="M1820.2,399.6c0-0.8,0.2-1.7,0.4-2.5l2.6-10.7h-2.3l1-4h2.3l1.3-5.4h4.6l-1.3,5.4h4.3l-1,4h-4.2l-2.6,10.7
		c-0.1,0.4-0.1,0.8-0.1,1c0,0.8,0.6,1.2,1.6,1.2c0.8,0,1.7-0.2,2.5-0.6l-1,4c-0.9,0.5-2.2,0.7-3.5,0.7
		C1821.9,403.5,1820.2,402,1820.2,399.6z"/>
	<path class="st9" d="M1837,382.5h4.6l-0.9,3.7c1.8-2.6,3.8-4.3,7-4.1l-1.3,4.8h-0.3c-3.5,0-6.1,2-7.3,6.8l-2.3,9.5h-4.5L1837,382.5
		z"/>
	<path class="st9" d="M1845.5,398.1c0-2.1,0.7-4,2.1-5.4s3.6-2.2,6-2.2c1.9,0,3.6,0.4,5.1,1l0.1-0.5c0.2-0.7,0.3-1.4,0.3-2.1
		c0-1.6-1-2.7-3.6-2.7c-1.6,0-3.1,0.4-4.6,1.1l-1.1-3.7c1.8-0.8,3.9-1.3,6.4-1.3c4.8,0,7.4,2.1,7.4,5.7c0,1.2-0.2,2.4-0.6,3.8
		l-2.7,11.5h-4.5l0.6-2.5c-1.5,1.8-3.3,2.9-5.6,2.9C1847.6,403.6,1845.5,401.4,1845.5,398.1z M1857.7,395.8l0.4-1.7
		c-1-0.4-2.4-0.7-3.7-0.7c-1.4,0-2.4,0.4-3.2,1.2c-0.7,0.7-1.2,1.9-1.2,3.1c0,1.6,1,2.7,2.7,2.7
		C1855.2,400.3,1857.1,398.2,1857.7,395.8z"/>
	<path class="st9" d="M1866.4,395.1c0-3.8,1.5-7.5,3.9-9.9c1.9-1.9,4.2-3,7-3c3.6,0,5.5,1.6,6.8,3.7l-3.4,2.7
		c-0.9-1.4-1.9-2.4-3.5-2.4c-1.3,0-2.4,0.6-3.3,1.5c-1.7,1.7-2.8,4.7-2.8,7.3c0,3.1,1.6,4.7,3.7,4.7c1.5,0,2.5-0.7,3.8-1.8l2.3,3
		c-1.6,1.5-3.6,2.7-6.4,2.7C1869.7,403.6,1866.4,400.4,1866.4,395.1z"/>
	<path class="st9" d="M1885,399.6c0-0.8,0.2-1.7,0.4-2.5l2.6-10.7h-2.3l1-4h2.3l1.3-5.4h4.6l-1.3,5.4h4.3l-1,4h-4.2l-2.6,10.7
		c-0.1,0.4-0.1,0.8-0.1,1c0,0.8,0.6,1.2,1.6,1.2c0.8,0,1.7-0.2,2.5-0.6l-1,4c-0.9,0.5-2.2,0.7-3.5,0.7
		C1886.7,403.5,1885,402,1885,399.6z"/>
	<path class="st9" d="M1902.1,394.5v0.3c0,3.1,1.5,5.1,4.1,5.1c1.8,0,3-0.6,4.4-1.7l2,3.2c-1.8,1.4-3.9,2.3-6.6,2.3
		c-5.1,0-8.2-3.4-8.2-8.8c0-3.7,1.5-7.4,3.9-9.8c1.8-1.8,4-3,6.8-3c4.4,0,7.1,3.2,7.1,7.6c0,1.4-0.2,3-0.9,4.8L1902.1,394.5
		L1902.1,394.5z M1902.6,391.5h8.6c0.2-0.7,0.2-1.2,0.2-2c0-2-1-3.6-3.2-3.6c-1.3,0-2.5,0.6-3.4,1.5
		C1903.8,388.4,1903,389.8,1902.6,391.5z"/>
	<path class="st9" d="M1930.1,400.7c-1.6,1.7-3.3,2.9-5.6,2.9c-3.6,0-6.5-3-6.5-8.3c0-3.9,1.4-7.9,3.9-10.4c1.8-1.7,3.9-2.7,6.2-2.7
		c2.8,0,4.6,1.6,5.6,3.7l2.6-10.7h4.6l-6.9,28.1h-4.6L1930.1,400.7z M1930,398.1c1.7-1.7,2.7-4.6,2.7-7.3c0-2.9-1.6-4.7-3.9-4.7
		c-1.1,0-2.3,0.5-3.3,1.4c-1.7,1.7-2.7,4.5-2.7,7.4c0,3,1.3,4.8,3.7,4.8C1927.7,399.6,1928.9,399.1,1930,398.1z"/>
	<path class="st9" d="M1965.4,373.6l-0.7,2.8c2.3,0.7,4.2,1.9,5.5,3.3l-3.2,3.2c-1-1-2.2-1.8-3.5-2.3l-1.9,7.3
		c3.4,1.8,5.5,4,5.5,7.1c0,5-4,8.4-9.5,8.4h-0.1l-1.1,3.7h-3.2l1.2-4.1c-2.8-0.7-5.2-2.1-6.8-4.2l3.4-3c1.4,1.6,3,2.7,4.7,3.2l2-7.8
		c-3.4-1.8-5.5-3.7-5.5-7.2c0-4.6,3.7-8,9.3-8h0.2l0.7-2.3h3V373.6z M1958.9,386.4l1.7-6.5c-2.4,0.1-3.8,1.7-3.8,3.4
		C1956.9,384.4,1957.2,385.3,1958.9,386.4z M1960.2,392.5l-1.8,6.8c2.3-0.2,3.8-1.9,3.8-3.9C1962.2,394.3,1961.7,393.5,1960.2,392.5
		z"/>
	<path class="st9" d="M1977.5,381l-4.4,1.2V378l7-2.2h3.3l-6.7,27.4h-4.7L1977.5,381z"/>
	<path class="st9" d="M2006.8,385.8c0,4.9-1.8,11.2-5.3,14.7c-2,2-4.5,3.2-7.5,3.2c-5.3,0-8.7-3.8-8.7-10.2c0-5,1.8-11.2,5.3-14.7
		c2-2,4.5-3.2,7.4-3.2C2003.3,375.6,2006.8,379.4,2006.8,385.8z M1997.8,397.8c2.6-2.6,4.1-8.1,4.1-12c0-4-1.6-6-4.2-6
		c-1.3,0-2.5,0.6-3.5,1.6c-2.6,2.6-4.1,8.1-4.1,12c0,4,1.6,6,4.2,6C1995.6,399.4,1996.8,398.8,1997.8,397.8z"/>
	<path class="st9" d="M2030.9,385.8c0,4.9-1.8,11.2-5.3,14.7c-2,2-4.5,3.2-7.5,3.2c-5.3,0-8.7-3.8-8.7-10.2c0-5,1.8-11.2,5.3-14.7
		c2-2,4.5-3.2,7.4-3.2C2027.4,375.6,2030.9,379.4,2030.9,385.8z M2022,397.8c2.6-2.6,4.1-8.1,4.1-12c0-4-1.6-6-4.2-6
		c-1.3,0-2.5,0.6-3.5,1.6c-2.6,2.6-4.1,8.1-4.1,12c0,4,1.6,6,4.2,6C2019.7,399.4,2020.9,398.8,2022,397.8z"/>
	<path class="st9" d="M2055.1,385.8c0,4.9-1.8,11.2-5.3,14.7c-2,2-4.5,3.2-7.5,3.2c-5.3,0-8.7-3.8-8.7-10.2c0-5,1.8-11.2,5.3-14.7
		c2-2,4.5-3.2,7.4-3.2C2051.6,375.6,2055.1,379.4,2055.1,385.8z M2046.1,397.8c2.6-2.6,4.1-8.1,4.1-12c0-4-1.6-6-4.2-6
		c-1.3,0-2.5,0.6-3.5,1.6c-2.6,2.6-4.1,8.1-4.1,12c0,4,1.6,6,4.2,6C2043.9,399.4,2045.1,398.8,2046.1,397.8z"/>
</g>
</svg>
