<?xml version="1.0" encoding="utf-8"?>
<!-- Generator: Adobe Illustrator 19.1.0, SVG Export Plug-In . SVG Version: 6.00 Build 0)  -->
<svg version="1.1" id="a02" xmlns="http://www.w3.org/2000/svg" xmlns:xlink="http://www.w3.org/1999/xlink" x="0px" y="0px"
	 viewBox="904 -314 2048 868" style="enable-background:new 904 -314 2048 868;" xml:space="preserve">
<style type="text/css">
	.st0{fill:#FFFFFF;}
	.st1{opacity:0.5;}
	.st2{fill:#DEE1E0;}
	.st3{fill:#197593;}
	.st4{opacity:0.25;}
	.st5{fill:#CAE1E8;}
	.st6{opacity:0.35;}
	.st7{fill:#004966;}
	.st8{opacity:0.48;}
	.st9{opacity:0.15;}
	.st10{fill:#0A9181;}
</style>
<g>
	<g>
		<path class="st0" d="M2266.6,297.1c-37.1,0-74.2-8.1-107.8-24.8c-6.3-3.1-13.3-7-17.4-13.6c-4.6-7.4-4.5-16.5-4.4-23.9l2.9-377.4
			c-1.3-42.1,291.5-106.1,298.5,7.1c15.1,113.5,6.1,241.8-1.8,355l-0.9,12.7l-0.6,0.6C2389.3,274.9,2328,297.1,2266.6,297.1z"/>
	</g>
</g>
<g class="st1">
	<path class="st2" d="M2661.7,465.4c-3.3-9.2-32-141.2-32-141.2s-19.6-97.3-40.7-97.4c-11-0.1-108.3,68.6-230.1,46.4
		c-58.8,37-122.3,45.9-190.8,11.9c-6.3-3.1-11.2-8.2-16.6-12.9c-7.5-6.5-11.9-16-11.8-23.8c0.3-39.7,2.9-125.7,0-129.6V84.2
		c0,0-78.2,3.3-80.6,3.3c-16.8,0.1-21.7,6.1-22.4,13.7l131.6,374.5c0,0,2.8,13.8,19.6,13.9c16.8,0.1,447.4-13.6,447.4-13.6
		S2665,474.7,2661.7,465.4z"/>
</g>
<g class="st1">
	<path class="st2" d="M1049.9,139l53,147.1c0,0,5.8,14.3,24.9,13.1c19.1-1.2,507-49.6,507-49.6s33.4-3.8,28-13.3
		c-5.4-9.5-62.5-146.4-62.5-146.4s-5.6-12.7-29.6-11.1c-23.2,1.5-471.9,42.2-497.7,44.1C1053.8,124.2,1049.4,130.9,1049.9,139z"/>
</g>
<g>
	<g>
		<g>
			<path class="st3" d="M2268.7-85.8c-32.5,0-69.9-5.2-98.6-27.2c-13.2-10.1-26.5-28.2-20.5-46c6.4-18.9,67.5-30.7,80.1-31.9l0,0
				c109-9.7,177.7-0.4,198.8,26.8c7.9,10.2,9.2,22.9,3.9,37.7c-6.5,18.1-30.4,23.2-43.2,26c-29.8,6.4-60.4,10.9-90.7,13.2
				C2289.4-86.4,2279.3-85.8,2268.7-85.8z M2230.2-186.6c-20.4,1.8-71.6,15-76.4,28.9c-5.3,15.6,6.9,32,19,41.2
				c37,28.3,89.3,27.8,125.5,25c30.2-2.3,60.5-6.8,90.2-13.2c16.6-3.6,34.8-8.6,40.1-23.2c4.8-13.5,3.8-24.5-3.3-33.6
				C2411.1-179.5,2365.9-198.6,2230.2-186.6L2230.2-186.6z"/>
		</g>
	</g>
	<g class="st4">
		<g>
			<path class="st5" d="M2223.1-199.4c-18.3,1.6-77.3,15.8-83.1,34.9c-5.7,18.9,6.9,39.1,21.4,51.4C2199-81.3,2250-78.4,2296.9-82
				c32.4-2.5,64.6-7.4,96.3-14.6c17.4-4,38.3-10,44.1-28.5C2467.3-219.4,2272.2-203.8,2223.1-199.4z"/>
		</g>
	</g>
	<g>
		<g>
			<path class="st3" d="M2266.6,297.1c-37.1,0-74.2-8.1-107.8-24.8c-6.3-3.1-13.3-7-17.4-13.6c-4.6-7.4-4.5-16.5-4.4-23.9l2.9-377.4
				c0-1.2,1-2.1,2.2-2.1l0,0c1.2,0,2.2,0.9,2.1,2.1l-2.9,377.4c-0.1,6.8-0.1,15.2,3.8,21.5c3.5,5.7,10,9.2,15.7,12
				c86.1,42.7,199.8,26.6,270.7-38.2l0.8-11c7.9-113,16.9-241.1,1.8-354.1c-0.2-1.2,0.7-2.3,1.9-2.4c1.2-0.2,2.3,0.7,2.4,1.9
				c15.1,113.5,6.1,241.8-1.8,355l-0.9,12.7l-0.6,0.6C2389.3,274.9,2328,297.1,2266.6,297.1z"/>
		</g>
	</g>
	<g class="st4">
		<g>
			<path class="st5" d="M2401.6-81.9c-31.7,7.3-63.9,12.1-96.3,14.6c-46.9,3.6-97.9,0.7-135.5-31.1c-8-6.8-15.4-15.9-19.5-26
				c-1,124.6-1.9,249.2-2.9,373.8c-0.1,7.8,0,16.1,4.1,22.7c3.7,6,10.2,9.7,16.6,12.9c87.8,43.6,167.4,16.8,239.5-49.6
				C2415.6,120.9,2419-85.9,2401.6-81.9z"/>
		</g>
	</g>
	<g class="st6">
		<g>
			<path class="st5" d="M2401.6,108.2c-31.7,7.3-63.8,75.4-96.3,75.4c-144,0-150.9-107.8-155-117.9c-1,124.6-1.9,46.1-2.9,170.8
				c-0.1,7.8,0,16.1,4.1,22.7c3.7,6,10.2,9.7,16.6,12.9c87.8,43.6,167.4,16.8,239.5-49.6C2415.6,107.9,2419,104.3,2401.6,108.2z"/>
		</g>
	</g>
</g>
<g>
	<path class="st0" d="M1111.4-170.6l38.9,397.5c0,0,4.3,38.9,21.6,38.9c17.3,0,458-43.2,458-43.2s30.2-4.3,25.9-30.2
		s-47.5-397.5-47.5-397.5s-4.3-34.5-25.9-34.6c-20.9-0.1-426.1,29.7-449.4,30.2C1115.7-209.1,1111.4-192.3,1111.4-170.6z"/>
	<path class="st3" d="M1171.9,267.9c-19,0-23.6-39.1-23.8-40.8l-38.9-397.7c0-17.4,2.5-40.5,23.7-41c10.5-0.3,100.5-6.6,195.7-13.3
		c118.8-8.3,241.7-17,253.6-17c0,0,0,0,0.1,0c23.2,0.1,27.9,35,28.1,36.5c0.4,3.7,43.3,371.8,47.5,397.4c1.3,7.6-0.1,14.2-4.1,19.6
		c-7.9,10.7-23,13-23.6,13.1C1612.1,226.4,1189.1,267.9,1171.9,267.9z M1113.6-170.8l38.9,397.4c1.1,10.3,6.9,36.9,19.5,36.9
		c17,0,453.4-42.8,457.8-43.2c0,0,13.9-2.1,20.7-11.4c3.3-4.5,4.4-10,3.3-16.4c-4.3-25.7-47.1-393.9-47.5-397.6
		c0-0.3-4.3-32.6-23.8-32.7c0,0,0,0-0.1,0c-11.8,0-140.1,9-253.3,17c-95.3,6.7-185.3,13-195.9,13.3
		C1119.6-207,1113.6-195.7,1113.6-170.8z"/>
</g>
<g class="st1">
	<path class="st5" d="M1621.2-188.1c-1.7-16.4-2.6-20.6-2.6-20.6s-4.3-39.8-26-39.8c-21.7,0-433.5,34.8-450.9,34.8
		s-21.7,19.9-21.7,44.8l2.2,19.9C1237-159.2,1477.2-177.4,1621.2-188.1z"/>
</g>
<g>
	<g>
		<path class="st5" d="M1155.6-172.1l-11.8,0.8c-0.8,0.1-1.5-0.6-1.6-1.4l-0.8-11.8c-0.1-0.8,0.6-1.5,1.4-1.6l11.8-0.8
			c0.8-0.1,1.5,0.6,1.6,1.4l0.8,11.8C1157-172.9,1156.4-172.1,1155.6-172.1z"/>
	</g>
	<g>
		<path class="st5" d="M1180.2-173.8l-11.8,0.8c-0.8,0.1-1.5-0.6-1.6-1.4l-0.8-11.8c-0.1-0.8,0.6-1.5,1.4-1.6l11.8-0.8
			c0.8-0.1,1.5,0.6,1.6,1.4l0.8,11.8C1181.7-174.6,1181.1-173.9,1180.2-173.8z"/>
	</g>
	<g>
		<path class="st5" d="M1204.9-175.5l-11.8,0.8c-0.8,0.1-1.5-0.6-1.6-1.4l-0.8-11.8c-0.1-0.8,0.6-1.5,1.4-1.6l11.8-0.8
			c0.8-0.1,1.5,0.6,1.6,1.4l0.8,11.8C1206.4-176.3,1205.7-175.6,1204.9-175.5z"/>
	</g>
</g>
<g>
	<g>
		<path class="st0" d="M2655.7,466.6H2207c-2.5,0-4.6-2.1-4.6-4.6V34.9c0-2.5,2.1-4.6,4.6-4.6h448.7c2.5,0,4.6,2.1,4.6,4.6V462
			C2660.4,464.6,2658.3,466.6,2655.7,466.6z"/>
	</g>
	<g>
		<path class="st3" d="M2640.4,468.8h-418c-12.2,0-22.1-9.9-22.1-22.1V50.2c0-12.2,9.9-22.1,22.1-22.1h418
			c12.2,0,22.1,9.9,22.1,22.1v396.4C2662.5,458.9,2652.6,468.8,2640.4,468.8z M2222.3,32.4c-9.8,0-17.8,8-17.8,17.8v396.4
			c0,9.8,8,17.8,17.8,17.8h418c9.8,0,17.8-8,17.8-17.8V50.2c0-9.8-8-17.8-17.8-17.8L2222.3,32.4L2222.3,32.4z"/>
	</g>
</g>
<g>
	<path class="st7" d="M1192.1-18.9h9.5l17.4,48.7h-10.4l-3.6-10.5h-16.7l-3.5,10.5h-10.1L1192.1-18.9z M1202,10.5l-5.3-15.8
		l-5.3,15.8H1202z"/>
	<path class="st7" d="M1225-18.6h16.1c10.9,0,17.7,6.3,17.7,16.6v0.1c0,11.1-8,16.7-18.1,16.9h-5.7v14.7h-10V-18.6z M1240.7,6.1
		c5.2,0,8.1-3.2,8.1-7.7v-0.1c0-5.1-2.9-7.8-8.2-7.8h-5.5V6.1H1240.7z"/>
	<path class="st7" d="M1265.4-18.6h16.1c10.9,0,17.7,6.3,17.7,16.6v0.1c0,11.1-8,16.7-18.1,16.9h-5.7v14.7h-10V-18.6z M1281,6.1
		c5.2,0,8.1-3.2,8.1-7.7v-0.1c0-5.1-2.9-7.8-8.2-7.8h-5.5V6.1H1281z"/>
	<path class="st7" d="M1305.8-18.6h10v39.2h19.6v9.2h-29.6V-18.6z"/>
	<path class="st7" d="M1342.4-18.6h10v48.4h-10V-18.6z"/>
	<path class="st7" d="M1360.7,6V5.4c0-14.7,9.1-24.6,21.9-24.6c7.2,0,11.8,2.6,15.6,6.4l-6,7.7c-2.9-3-5.9-4.8-9.9-4.8
		c-6.5,0-11.3,6-11.3,15.4v0.2c0,9.6,5,15.5,11.4,15.5c3.9,0,6.7-1.8,10-5l6,7.1c-4.4,4.5-9,7.3-16.4,7.3
		C1369.3,30.5,1360.7,20.8,1360.7,6z"/>
	<path class="st7" d="M1418.9-18.9h9.5l17.4,48.7h-10.4l-3.6-10.5h-16.7l-3.5,10.5h-10L1418.9-18.9z M1428.8,10.5l-5.3-15.8
		l-5.3,15.8H1428.8z"/>
	<path class="st7" d="M1456.1-9.3h-12.2v-9.3h34.3v9.3H1466v39.1h-10L1456.1-9.3L1456.1-9.3z"/>
	<path class="st7" d="M1485.4-18.6h10v48.4h-10V-18.6z"/>
	<path class="st7" d="M1503.7,6.1V5.3c0-14.5,9.1-24.7,21.9-24.7c12.9,0,21.9,10.1,21.9,24.6V6c0,14.5-9.1,24.7-21.9,24.7
		C1512.7,30.7,1503.7,20.6,1503.7,6.1z M1537.1,5.9V5.4c0-9.5-4.8-15.6-11.5-15.6c-6.8,0-11.5,5.9-11.5,15.5v0.5
		c0,9.5,4.9,15.6,11.6,15.6C1532.3,21.4,1537.1,15.4,1537.1,5.9z"/>
	<path class="st7" d="M1555.4-18.6h9.2l18.5,28.2v-28.2h9.8v48.4h-8.6l-19.2-29.3v29.3h-9.8L1555.4-18.6L1555.4-18.6z"/>
</g>
<g>
	<path class="st7" d="M2514.3-96.8h15.6c14,0,23.1,9.7,23.1,23.9v0.6c0,14.2-9.1,23.9-23.1,23.9h-15.6V-96.8z M2524.4-87.8v30.3h5.5
		c7.6,0,12.8-5.3,12.8-14.9v-0.3c0-9.6-5.2-15-12.8-15h-5.5V-87.8z"/>
	<path class="st7" d="M2572-97.1h9.5l17.4,48.7h-10.4l-3.6-10.5h-16.7l-3.5,10.5h-10.1L2572-97.1z M2581.9-67.8l-5.3-15.8l-5.3,15.8
		H2581.9z"/>
	<path class="st7" d="M2609.2-87.6H2597v-9.3h34.3v9.3h-12.2v39.1h-10L2609.2-87.6L2609.2-87.6z"/>
	<path class="st7" d="M2646.8-97.1h9.5l17.4,48.7h-10.4l-3.6-10.5H2643l-3.5,10.5h-10.1L2646.8-97.1z M2656.7-67.8l-5.3-15.8
		l-5.3,15.8H2656.7z"/>
	<path class="st7" d="M2679.7-96.8h18c5.4,0,9.9,1.5,12.7,4.2c2.1,2.2,3.3,4.8,3.3,8.2v0.2c0,5.7-3.1,8.7-6.6,10.6
		c5.2,2,8.6,5.2,8.6,11.5v0.3c0,8.7-7,13.3-17.5,13.3h-18.5V-96.8z M2703.7-82.6c0-3.5-2.5-5.4-6.8-5.4h-7.5v11h7
		C2700.9-77,2703.7-78.8,2703.7-82.6L2703.7-82.6z M2698.2-68.6h-8.8v11.3h9c4.5,0,7.3-1.9,7.3-5.7v0
		C2705.8-66.5,2703.2-68.6,2698.2-68.6z"/>
	<path class="st7" d="M2736.5-97.1h9.5l17.4,48.7H2753l-3.6-10.5h-16.7l-3.5,10.5h-10.1L2736.5-97.1z M2746.4-67.8l-5.3-15.8
		l-5.3,15.8H2746.4z"/>
	<path class="st7" d="M2765.4-54.9l5.9-7.4c3.2,2.8,7.2,5.5,12,5.5c3.9,0,6.2-1.9,6.2-4.8v-0.1c0-2.4-1.4-3.9-8.3-6.6
		c-8.6-3.3-13.9-6.6-13.9-14.9v-0.1c0-8.4,6.5-14.2,15.8-14.2c5.7,0,11.2,1.9,15.6,5.9l-5.6,7.6c-3-2.5-6.6-4.5-10.3-4.5
		c-3.5,0-5.6,1.7-5.6,4.2v0.1c0,2.8,1.7,4.1,9.2,7.2c8.4,3.3,13,6.9,13,14.5v0.1c0,9-6.8,14.5-16.2,14.5
		C2777.2-47.8,2770.8-49.9,2765.4-54.9z"/>
	<path class="st7" d="M2807-96.8h31.2v9.1H2817v10.4h18.7v9.1H2817v10.8h21.5v9.1H2807V-96.8z"/>
</g>
<g class="st1">
	<path class="st5" d="M2632.2,36.7h-406.1c-9.5,0-17.3,7.4-17.3,16.4v48.4h440.7V53.1C2649.6,44.1,2641.8,36.7,2632.2,36.7z"/>
</g>
<g class="st8">
	<g>
		<path class="st7" d="M2374.6,59.7h-8V55h21.1v4.7h-8v25.8h-5L2374.6,59.7L2374.6,59.7z"/>
		<path class="st7" d="M2398.1,54.8h4.9l11.2,30.6h-5.3l-2.5-7.2h-11.8l-2.5,7.2h-5.1L2398.1,54.8z M2404.8,73.8l-4.4-12.2
			l-4.4,12.2H2404.8z"/>
		<path class="st7" d="M2418.5,55h10.9c3.3,0,6.1,0.9,7.8,2.6c1.4,1.3,2,3,2,5.1v0.1c0,3.7-2.2,5.7-4.5,6.8c3.4,1.2,5.8,3.2,5.8,7.3
			v0.2c0,5.4-4.4,8.3-10.8,8.3h-11.2V55L2418.5,55z M2434.2,63.6c0-2.6-1.9-4-5.1-4h-5.6V68h5.3C2432.1,68,2434.2,66.5,2434.2,63.6
			L2434.2,63.6z M2429.6,72.2h-6.1v8.7h6.4c3.5,0,5.7-1.5,5.7-4.3v-0.1C2435.5,73.9,2433.5,72.2,2429.6,72.2z"/>
		<path class="st7" d="M2445.6,55h5v25.8h13.1v4.7h-18.1V55z"/>
		<path class="st7" d="M2468.3,55h19.2v4.6h-14.2v8.3h12.6v4.6h-12.6V81h14.4v4.6h-19.4V55z"/>
	</g>
</g>
<g class="st9">
	<path class="st10" d="M2611.6,343.5H2264c-6.6,0-12-5.4-12-12V212.9c0-6.6,5.4-12,12-12h347.6c6.6,0,12,5.4,12,12v118.6
		C2623.6,338.1,2618.2,343.5,2611.6,343.5z"/>
</g>
<g>
	<path class="st10" d="M2304.6,258.2h6.4l12,35.2l12.2-35.2h6.3l-15.7,43.2h-5.4L2304.6,258.2z"/>
	<path class="st10" d="M2345.5,288.6v-0.3c0-8.8,6.3-13.8,15.8-13.8c4.5,0,7.8,0.7,11,1.7v-2.6c0-6.9-4-10.6-11-10.6
		c-4.3,0-8,1.3-10.9,2.9l-1.9-4.9c4-2,8.2-3.5,13.5-3.5c5.2,0,9.2,1.5,12,4.3c2.6,2.6,4.1,6.6,4.1,11.6V301h-5.8v-6.3
		c-2.6,4-6.8,7.2-13.1,7.2C2352.1,302,2345.5,297.1,2345.5,288.6z M2372.4,286.2v-5.4c-2.7-1-6.2-1.7-10.4-1.7
		c-6.8,0-10.6,3.5-10.6,9v0.2c0,5.4,4,8.7,9.1,8.7C2367.2,297.1,2372.4,292.4,2372.4,286.2z"/>
	<path class="st10" d="M2390.2,241.6h5.9v59.5h-5.9V241.6z"/>
	<path class="st10" d="M2408.3,286.3v-28.2h5.9v26.4c0,7.7,3.6,11.9,9.9,11.9s10.9-4.9,10.9-12.2V258h5.9v42.9h-5.9v-7
		c-2.4,4.3-6.3,7.8-12.7,7.8C2413.5,301.9,2408.3,295.9,2408.3,286.3z"/>
	<path class="st10" d="M2450.7,280v-0.4c0-13.1,7.7-22.2,17.7-22.2c10.8,0,17.2,9.2,17.2,22.2c0,0.6,0,1.7-0.1,2.5h-28.8
		c0.7,9.5,6.5,14.7,13.3,14.7c4.7,0,8.2-2,11.1-4.9l3.4,3.8c-3.9,4-8.3,6.4-14.7,6.4C2459.3,302,2450.7,293.6,2450.7,280z
		 M2479.7,277.4c-0.4-8.2-4.3-14.8-11.3-14.8c-6.3,0-11.1,5.8-11.7,14.8H2479.7z"/>
	<path class="st10" d="M2530.9,278.1l-19.4-34.7h10.9l13.3,24.9l13.4-24.9h10.6l-19.4,34.6v23.1h-9.6v-23H2530.9z"/>
</g>
<g>
	<g>
		<g>
			<g>
				<path class="st10" d="M1711-16c-1.4,0.6-3,0.3-3.5-0.8s0.3-2.5,1.7-3.1l22.9-10.1c1.4-0.6,3-0.2,3.5,0.9s-0.3,2.5-1.8,3.1
					L1711-16z M2097.6-21.1c-0.5,1.1-2.1,1.4-3.5,0.8l-17-7.7c-1.4-0.6-2.2-2-1.7-3.1c0.5-1.1,2-1.5,3.4-0.9l17.2,7.8
					C2097.4-23.5,2098.2-22.1,2097.6-21.1z M1750.3-32.7c-1.5,0.6-3,0.1-3.4-1s0.4-2.5,1.8-3l17.8-6.5c1.5-0.5,3,0,3.4,1.1
					s-0.5,2.5-2,3L1750.3-32.7z M2064.1-35.8c-0.5,1.1-2,1.5-3.5,1l-23.3-8.6c-1.5-0.5-2.4-1.9-2-3c0.4-1.1,1.9-1.6,3.4-1.1
					l23.6,8.6C2063.7-38.3,2064.5-36.9,2064.1-35.8z M1784.3-44.6c-1.5,0.5-3-0.1-3.4-1.2c-0.4-1.1,0.6-2.4,2.1-2.9l17-5
					c1.5-0.4,3,0.2,3.3,1.3s-0.7,2.4-2.2,2.9L1784.3-44.6z M2025.3-49.6c-0.3,1.1-1.8,1.7-3.3,1.3l-16.8-4.7
					c-1.5-0.4-2.5-1.7-2.2-2.8s1.7-1.8,3.2-1.4l17,4.8C2024.7-52,2025.6-50.7,2025.3-49.6z M1816.6-53.6c-1.5,0.3-3-0.3-3.3-1.5
					c-0.3-1.2,0.7-2.4,2.3-2.7l24.6-5.2c1.5-0.3,2.9,0.4,3.1,1.6s-0.9,2.4-2.4,2.7L1816.6-53.6z M1991.6-58.4
					c-0.3,1.2-1.7,1.9-3.3,1.6l-18.3-3.4c-1.5-0.3-2.6-1.5-2.4-2.6s1.6-1.9,3.1-1.7l18.6,3.4C1990.8-60.9,1991.9-59.6,1991.6-58.4z
					 M1858.4-61.6c-1.5,0.2-2.9-0.6-3.1-1.8c-0.2-1.2,1-2.3,2.5-2.5l18.9-2.2c1.6-0.2,2.9,0.7,3,1.9c0.1,1.2-1.1,2.3-2.6,2.4
					L1858.4-61.6z M1955.5-64.7c-0.2,1.2-1.6,2-3.1,1.9l-24.7-2c-1.6-0.1-2.8-1.1-2.7-2.3c0.1-1.2,1.4-2.1,2.9-2l25.1,2
					C1954.5-66.9,1955.7-65.8,1955.5-64.7z M1894.2-64.8c-1.6,0.1-2.9-0.9-2.9-2c-0.1-1.2,1.2-2.2,2.7-2.3c0,0,10.2-0.4,16.7-0.4
					c1.3,0,1.3,0,1.3,0c1.4,0,2.6,1,2.6,2.2s-1.3,2.2-2.9,2.2c0,0-0.1,0-1.5,0C1904-65.2,1894.2-64.8,1894.2-64.8z"/>
			</g>
		</g>
	</g>
	<g>
		<path class="st10" d="M2054,10.6c-0.7,0-1.3-0.3-1.8-0.9c-0.7-1-0.5-2.3,0.5-3l41.1-29L2074-70.8c-0.5-1.1,0.1-2.4,1.2-2.8
			c1.1-0.5,2.4,0.1,2.8,1.2l20.4,50.1c0.4,0.9,0.1,2-0.8,2.6l-42.5,30C2054.9,10.4,2054.5,10.6,2054,10.6z"/>
	</g>
</g>
</svg>
