<?xml version="1.0" encoding="utf-8"?>
<!-- Generator: Adobe Illustrator 19.1.0, SVG Export Plug-In . SVG Version: 6.00 Build 0)  -->
<svg version="1.1" id="Layer_1" xmlns="http://www.w3.org/2000/svg" xmlns:xlink="http://www.w3.org/1999/xlink" x="0px" y="0px"
	 viewBox="904 -437 2048 1115" style="enable-background:new 904 -437 2048 1115;" xml:space="preserve">
<style type="text/css">
	.st0{fill:#FFFFFF;}
	.st1{opacity:0.5;}
	.st2{fill:#DEE1E0;}
	.st3{fill:#197593;}
	.st4{opacity:0.25;}
	.st5{fill:#CAE1E8;}
	.st6{opacity:0.35;}
	.st7{fill:#004966;}
	.st8{opacity:0.48;}
	.st9{fill:#DD9099;}
	.st10{fill:#0A9181;}
	.st11{opacity:0.1;}
</style>
<g>
	<g>
		<path class="st0" d="M2190-75.8c-25.1,0-50.3-5.3-73.1-16.4c-4.3-2-9-4.6-11.8-9c-3.1-4.9-3-10.9-3-15.8l2-249.2
			c-0.9-27.8,197.6-70.1,202.3,4.7c10.2,74.9,4.1,159.7-1.2,234.4l-0.6,8.4l-0.4,0.4C2273.1-90.5,2231.6-75.8,2190-75.8z"/>
	</g>
</g>
<g id="_x30_4">
	<g class="st1">
		<path class="st2" d="M2751.9,103.8c-2.2-6.1-73.3-146.7-73.3-146.7s-259-76-273-76.1c-7.3,0-71.7,45.4-152.4,30.7
			c-39,24.5-81,30.4-126.4,7.9c-4.2-2.1-7.4-5.4-11-8.5c-5-4.3-7.9-10.6-7.8-15.7c0.2-26.3,1.9-83.3,0-85.8v-22.9
			c0,0-51.8,2.2-53.3,2.2c-11.2,0.1-14.3,4-14.9,9.1L2140,97.7c0,0,1.9,9.1,13,9.2c11.1,0,581.5,4,581.5,4
			S2754.1,109.9,2751.9,103.8z"/>
	</g>
	<g>
		<g>
			<g>
				<path class="st3" d="M2193.6-326.1c-21.5,0-46.3-3.4-65.3-18c-8.8-6.7-17.6-18.7-13.5-30.5c4.3-12.5,44.7-20.4,53.1-21.1l0,0
					c72.2-6.4,117.7-0.3,131.6,17.8c5.2,6.8,6.1,15.2,2.6,25c-4.3,12-20.1,15.4-28.6,17.2c-19.7,4.3-40,7.2-60.1,8.8
					C2207.3-326.5,2200.6-326.1,2193.6-326.1z M2168-392.8c-13.5,1.2-47.4,9.9-50.6,19.2c-3.5,10.3,4.6,21.2,12.6,27.3
					c24.5,18.7,59.1,18.4,83.1,16.6c20-1.5,40.1-4.5,59.7-8.7c11-2.4,23.1-5.7,26.5-15.4c3.2-9,2.5-16.2-2.2-22.3
					C2287.9-388.2,2257.9-400.8,2168-392.8L2168-392.8z"/>
			</g>
		</g>
		<g class="st4">
			<g>
				<path class="st5" d="M2163.4-401.3c-12.1,1.1-51.2,10.5-55,23.1c-3.8,12.5,4.6,25.9,14.2,34c24.9,21.1,58.7,23,89.7,20.6
					c21.4-1.6,42.8-4.9,63.8-9.7c11.5-2.6,25.3-6.6,29.2-18.9C2325.1-414.6,2195.9-404.2,2163.4-401.3z"/>
			</g>
		</g>
		<g>
			<g>
				<path class="st3" d="M2192.2-72.5c-24.6,0-49.1-5.4-71.4-16.4c-4.2-2.1-8.8-4.6-11.6-9c-3-4.9-3-10.9-2.9-15.8l1.9-249.9
					c0-0.8,0.6-1.4,1.4-1.4l0,0c0.8,0,1.4,0.6,1.4,1.4l-1.9,249.9c0,4.5-0.1,10.1,2.5,14.3c2.3,3.8,6.6,6.1,10.4,8
					c57,28.3,132.3,17.6,179.3-25.3l0.5-7.3c5.2-74.8,11.2-159.6,1.2-234.5c-0.1-0.8,0.4-1.5,1.2-1.6c0.8-0.1,1.5,0.4,1.6,1.2
					c10,75.2,4.1,160.2-1.2,235.1l-0.6,8.4l-0.4,0.4C2273.4-87.2,2232.8-72.5,2192.2-72.5z"/>
			</g>
		</g>
		<g class="st4">
			<g>
				<path class="st5" d="M2281.5-323.5c-21,4.8-42.3,8-63.8,9.7c-31.1,2.4-64.8,0.5-89.7-20.6c-5.3-4.5-10.2-10.6-12.9-17.2
					c-0.6,82.5-1.3,165.1-1.9,247.6c0,5.2,0,10.7,2.7,15c2.5,4,6.8,6.4,11,8.5c58.1,28.8,110.9,11.1,158.6-32.8
					C2290.8-189.2,2293.1-326.1,2281.5-323.5z"/>
			</g>
		</g>
		<g class="st6">
			<g>
				<path class="st5" d="M2281.5-197.6c-21,4.8-42.2,49.9-63.8,49.9c-95.4,0-99.9-71.4-102.7-78.1c-0.6,82.5-1.3,30.6-1.9,113.1
					c0,5.2,0,10.7,2.7,15c2.5,4,6.8,6.4,11,8.5c58.1,28.8,110.9,11.1,158.6-32.8C2290.8-197.8,2293.1-200.2,2281.5-197.6z"/>
			</g>
		</g>
	</g>
	<g>
		<g class="st1">
			<path class="st2" d="M986.1-133.2l37.6,104.3c0,0,4.1,10.2,17.7,9.3C1055-20.4,1401-54.7,1401-54.7s23.7-2.7,19.9-9.4
				c-3.9-6.7-44.4-103.9-44.4-103.9s-4-9-21-7.9c-16.5,1.1-334.8,29.9-353.1,31.3C988.9-143.7,985.7-138.9,986.1-133.2z"/>
		</g>
		<g>
			<path class="st0" d="M1029.7-352.9l27.6,282c0,0,3.1,27.6,15.3,27.6c12.2,0,324.9-30.7,324.9-30.7s21.5-3.1,18.4-21.5
				s-33.7-282-33.7-282s-3.1-24.5-18.4-24.5c-14.9,0-302.3,21-318.8,21.5C1032.8-380.2,1029.7-368.2,1029.7-352.9z"/>
			<path class="st3" d="M1072.6-41.1c-13.8,0-17.1-26.5-17.5-29.5l-27.5-282.3c0-12.6,1.8-29.4,17.4-29.7
				c7.4-0.2,71.2-4.7,138.6-9.4c84.4-5.9,171.6-12.1,180.2-12.1c0,0,0,0,0.1,0c17,0.1,20.4,25.3,20.5,26.4
				c0.3,2.7,30.7,263.8,33.7,281.9c0.9,5.5-0.1,10.4-3,14.4c-5.7,7.8-16.7,9.5-17.2,9.6C1385-70.5,1084.9-41.1,1072.6-41.1z
				 M1031.9-353l27.6,281.9c0.8,7.1,4.7,25.6,13.2,25.6c12,0,321.6-30.3,324.7-30.6c0,0,9.6-1.5,14.2-7.8c2.2-3,3-6.8,2.2-11.1
				c-3-18.2-32.5-271.3-33.7-282.1c0-0.2-3-22.6-16.3-22.6l0,0c-8.3,0-99.4,6.4-179.8,12c-67.5,4.7-131.3,9.2-138.8,9.4
				C1036-378.1,1031.9-370.3,1031.9-353z"/>
		</g>
		<g class="st1">
			<path class="st5" d="M1391.4-365.3c-1.2-11.6-1.9-14.6-1.9-14.6s-3.1-28.2-18.5-28.2s-307.5,24.7-319.8,24.7
				c-12.3,0-15.3,14.1-15.3,31.8l1.5,14.1C1118.9-344.7,1289.2-357.6,1391.4-365.3z"/>
		</g>
		<g>
			<g>
				<path class="st5" d="M1060.9-353.9l-8.1,0.6c-0.7,0-1.3-0.5-1.3-1.1l-0.6-8.1c0-0.7,0.5-1.3,1.1-1.3l8.1-0.6
					c0.7,0,1.3,0.5,1.3,1.1l0.6,8.1C1062.1-354.5,1061.6-353.9,1060.9-353.9z"/>
			</g>
			<g>
				<path class="st5" d="M1078.4-355.1l-8.1,0.6c-0.7,0-1.3-0.5-1.3-1.1l-0.6-8.1c0-0.7,0.5-1.3,1.1-1.3l8.1-0.6
					c0.7,0,1.3,0.5,1.3,1.1l0.6,8.1C1079.6-355.7,1079.1-355.2,1078.4-355.1z"/>
			</g>
			<g>
				<path class="st5" d="M1095.9-356.3l-8.1,0.6c-0.7,0-1.3-0.5-1.3-1.1l-0.6-8.1c0-0.7,0.5-1.3,1.1-1.3l8.1-0.6
					c0.7,0,1.3,0.5,1.3,1.1l0.6,8.1C1097.1-357,1096.6-356.4,1095.9-356.3z"/>
			</g>
		</g>
	</g>
	<g>
		<g>
			<path class="st0" d="M2762.6,93.4h-604.3c-2.5,0-4.6-2.1-4.6-4.6V-287c0-2.5,2.1-4.6,4.6-4.6h604.3c2.5,0,4.6,2.1,4.6,4.6V88.8
				C2767.2,91.3,2765.2,93.4,2762.6,93.4z"/>
		</g>
		<g>
			<path class="st3" d="M2747.3,95.3h-573.6c-12.2,0-22.1-8.8-22.1-19.5V-274c0-10.8,9.9-19.5,22.1-19.5h573.6
				c12.2,0,22.1,8.8,22.1,19.5V75.8C2769.4,86.5,2759.5,95.3,2747.3,95.3z M2173.7-289.7c-9.8,0-17.8,7.1-17.8,15.7V75.8
				c0,8.7,8,15.7,17.8,15.7h573.6c9.8,0,17.8-7.1,17.8-15.7V-274c0-8.7-8-15.7-17.8-15.7H2173.7z"/>
		</g>
	</g>
	<g>
		<path class="st7" d="M1190.9-247.6h9.5l17.4,48.7h-10.4l-3.6-10.5h-16.7l-3.5,10.5h-10.1L1190.9-247.6z M1200.8-218.3l-5.3-15.8
			l-5.3,15.8H1200.8z"/>
		<path class="st7" d="M1223.8-247.4h16.1c10.9,0,17.7,6.3,17.7,16.6v0.1c0,11.1-8,16.7-18.1,16.9h-5.7v14.7h-10V-247.4z
			 M1239.4-222.7c5.2,0,8.1-3.2,8.1-7.7v-0.1c0-5.1-2.9-7.8-8.2-7.8h-5.5v15.6H1239.4z"/>
		<path class="st7" d="M1264.2-247.4h16.1c10.9,0,17.7,6.3,17.7,16.6v0.1c0,11.1-8,16.7-18.1,16.9h-5.7v14.7h-10V-247.4z
			 M1279.8-222.7c5.2,0,8.1-3.2,8.1-7.7v-0.1c0-5.1-2.9-7.8-8.2-7.8h-5.5v15.6H1279.8z"/>
	</g>
	<g>
		<path class="st7" d="M1493.2,184.7h16.1c10.9,0,17.7,6.3,17.7,16.6v0.1c0,11.1-8,16.7-18.1,16.9h-5.7V233h-10V184.7z
			 M1508.9,209.4c5.2,0,8.1-3.2,8.1-7.7v-0.1c0-5.1-2.9-7.8-8.2-7.8h-5.5v15.6H1508.9z"/>
		<path class="st7" d="M1533.6,184.7h18.2c5.6,0,10.1,1.6,13.1,4.6c2.6,2.6,4.1,6.4,4.1,11.2v0.3c0,7.3-3.7,12-9,14.3l10.3,18h-11.5
			l-8.9-15.9h-6.3v15.9h-10L1533.6,184.7L1533.6,184.7z M1551,208.4c5.1,0,7.9-2.9,7.9-7.3V201c0-4.8-3-7.3-8.1-7.3h-7.2v14.6
			L1551,208.4L1551,208.4z"/>
		<path class="st7" d="M1575.2,209.4v-0.8c0-14.5,9.1-24.7,21.9-24.7c12.9,0,21.9,10.1,21.9,24.6v0.8c0,14.5-9.1,24.7-21.9,24.7
			C1584.2,234,1575.2,223.9,1575.2,209.4z M1608.6,209.2v-0.5c0-9.5-4.8-15.6-11.5-15.6c-6.8,0-11.5,5.9-11.5,15.5v0.5
			c0,9.5,4.9,15.6,11.6,15.6C1603.8,224.7,1608.6,218.7,1608.6,209.2z"/>
		<path class="st7" d="M1620.7,227.6l6.1-7.1c2,2.3,4.1,3.8,6.8,3.8c3.4,0,5.5-2.1,5.5-7.1v-32.5h10.1v33c0,5.4-1.5,9.3-4.2,12
			c-2.6,2.6-6.5,4-11.1,4C1628,233.8,1623.5,231.1,1620.7,227.6z"/>
		<path class="st7" d="M1658.4,184.7h31.2v9.1h-21.2v10.4h18.6v9.1h-18.7v10.8h21.5v9.1h-31.5L1658.4,184.7L1658.4,184.7
			L1658.4,184.7z"/>
		<path class="st7" d="M1695.8,209.3v-0.6c0-14.7,9.1-24.6,21.9-24.6c7.2,0,11.8,2.6,15.6,6.4l-6,7.7c-2.9-3-5.9-4.8-9.9-4.8
			c-6.5,0-11.3,6-11.3,15.4v0.2c0,9.6,5,15.5,11.4,15.5c3.9,0,6.7-1.8,10-5l6,7.1c-4.4,4.5-9,7.3-16.4,7.3
			C1704.4,233.8,1695.8,224.1,1695.8,209.3z"/>
		<path class="st7" d="M1749.6,194h-12.2v-9.3h34.3v9.3h-12.2v39.1h-10L1749.6,194L1749.6,194z"/>
		<path class="st7" d="M1774.9,209.4v-0.8c0-14.5,9.1-24.7,21.9-24.7c12.9,0,21.9,10.1,21.9,24.6v0.8c0,14.5-9.1,24.7-21.9,24.7
			C1783.9,234,1774.9,223.9,1774.9,209.4z M1808.3,209.2v-0.5c0-9.5-4.8-15.6-11.5-15.6c-6.8,0-11.5,5.9-11.5,15.5v0.5
			c0,9.5,4.9,15.6,11.6,15.6C1803.5,224.7,1808.3,218.7,1808.3,209.2z"/>
		<path class="st7" d="M1826.6,184.7h18.2c5.6,0,10.1,1.6,13.1,4.6c2.6,2.6,4.1,6.4,4.1,11.2v0.3c0,7.3-3.7,12-9,14.3l10.3,18h-11.5
			l-8.9-15.9h-6.3v15.9h-10L1826.6,184.7L1826.6,184.7z M1844,208.4c5.1,0,7.9-2.9,7.9-7.3V201c0-4.8-3-7.3-8.1-7.3h-7.2v14.6
			L1844,208.4L1844,208.4z"/>
	</g>
	<g class="st1">
		<path class="st5" d="M2739.1-284.9h-561.6c-9.5,0-17.3,7.4-17.3,16.4v48.4h596.3v-48.4C2756.4-277.5,2748.7-284.9,2739.1-284.9z"
			/>
	</g>
	<g class="st8">
		<g>
			<path class="st7" d="M2308.9-240.2l3-3.8c2.3,2,4.8,3.6,8,3.6c2.9,0,4.8-1.6,4.8-3.9l0,0c0-1.9-1-3.2-5.8-5
				c-5.8-2.2-8.8-4.3-8.8-9.2v-0.1c0-5,4-8.5,9.7-8.5c3.5,0,6.8,1.1,9.6,3.6l-2.9,3.9c-2.1-1.7-4.4-2.9-6.8-2.9
				c-2.7,0-4.4,1.5-4.4,3.5l0,0c0,2.1,1.1,3.3,6.3,5.3c5.7,2.2,8.3,4.5,8.3,9v0.1c0,5.4-4.2,8.8-9.9,8.8
				C2316-235.8,2312.2-237.1,2308.9-240.2z"/>
			<path class="st7" d="M2340.4-261.9h-8v-4.7h21.1v4.7h-8v25.8h-5L2340.4-261.9L2340.4-261.9z"/>
			<path class="st7" d="M2355.7-251.2v-0.4c0-9.1,5.6-15.5,13.5-15.5s13.4,6.4,13.4,15.4v0.4c0,9.1-5.6,15.5-13.5,15.5
				C2361.2-235.7,2355.7-242.1,2355.7-251.2z M2377.4-251.2v-0.3c0-6.5-3.5-10.9-8.3-10.9c-4.8,0-8.2,4.3-8.2,10.9v0.3
				c0,6.5,3.5,10.9,8.3,10.9C2374-240.4,2377.4-244.7,2377.4-251.2z"/>
			<path class="st7" d="M2388.1-266.6h11c3.5,0,6.3,1,8.1,2.9c1.6,1.6,2.5,3.9,2.5,6.7v0.2c0,4.7-2.6,7.6-6.3,8.9l7.2,11.8h-5.8
				l-6.5-10.8c-0.1,0-0.2,0-0.3,0h-4.9v10.7h-5L2388.1-266.6L2388.1-266.6z M2398.6-251.5c3.9,0,6.1-2.1,6.1-5.3v-0.1
				c0-3.4-2.2-5.2-6-5.2h-5.5v10.6H2398.6z"/>
			<path class="st7" d="M2415.3-266.6h19.2v4.6h-14.2v8.3h12.6v4.6h-12.6v8.5h14.4v4.6h-19.4V-266.6z"/>
			<path class="st7" d="M2440-266.6h9.3c8.7,0,14.4,6.1,14.4,15v0.3c0,8.9-5.7,15.1-14.4,15.1h-9.3V-266.6z M2445-262.1v21.3h4.2
				c5.6,0,9.3-4,9.3-10.5v-0.3c0-6.6-3.7-10.6-9.3-10.6h-4.2V-262.1z"/>
			<path class="st7" d="M2480.4-266.6h19.2v4.6h-14.2v8.3h12.6v4.6h-12.6v8.5h14.4v4.6h-19.4V-266.6z"/>
			<path class="st7" d="M2502.9-266.6h5.5l7.5,23l7.5-23h5.3l-10.5,30.6h-4.7L2502.9-266.6z"/>
			<path class="st7" d="M2533-266.6h19.2v4.6H2538v8.3h12.6v4.6H2538v8.5h14.4v4.6H2533V-266.6z"/>
			<path class="st7" d="M2557.7-266.6h4.7l13.4,20.3v-20.3h4.9v30.5h-4.3l-13.8-20.9v20.9h-5v-30.5H2557.7z"/>
			<path class="st7" d="M2593.4-261.9h-8v-4.7h21.1v4.7h-8v25.8h-5L2593.4-261.9L2593.4-261.9z"/>
			<path class="st7" d="M2608.5-240.2l3-3.8c2.3,2,4.8,3.6,8,3.6c2.9,0,4.8-1.6,4.8-3.9l0,0c0-1.9-1-3.2-5.8-5
				c-5.8-2.2-8.8-4.3-8.8-9.2v-0.1c0-5,4-8.5,9.7-8.5c3.5,0,6.8,1.1,9.6,3.6l-2.9,3.9c-2.1-1.7-4.4-2.9-6.8-2.9
				c-2.7,0-4.4,1.5-4.4,3.5l0,0c0,2.1,1.1,3.3,6.3,5.3c5.7,2.2,8.3,4.5,8.3,9v0.1c0,5.4-4.2,8.8-9.9,8.8
				C2615.6-235.8,2611.8-237.1,2608.5-240.2z"/>
		</g>
	</g>
	<g>
		<g class="st1">
			<path class="st2" d="M2318.2,456.6l40.1,142.8c0,0,4.6,15,18.7,15.8c14.3,0.8,444.3,6.7,444.3,6.7s35-0.2,27-12.4
				c-8-12.1-93-170.9-93-170.9s-7.6-13.6-29.9-13.2c-21.3,0.4-374.4,17.3-392,17.8C2320.6,443.6,2317.8,449.3,2318.2,456.6z"/>
		</g>
		<g>
			<g>
				<path class="st0" d="M2853.3,598.9h-474.7c-2.5,0-4.6-2.1-4.6-4.6V218.5c0-2.5,2.1-4.6,4.6-4.6h474.7c2.5,0,4.6,2.1,4.6,4.6
					v375.8C2858,596.8,2855.9,598.9,2853.3,598.9z"/>
			</g>
			<g>
				<path class="st9" d="M2838,600.8h-444c-12.2,0-22.1-8.8-22.1-19.5V231.5c0-10.8,9.9-19.5,22.1-19.5h444
					c12.2,0,22.1,8.8,22.1,19.5v349.8C2860.1,592.1,2850.2,600.8,2838,600.8z M2394,215.8c-9.8,0-17.8,7.1-17.8,15.7v349.8
					c0,8.7,8,15.7,17.8,15.7h444c9.8,0,17.8-7.1,17.8-15.7V231.5c0-8.7-8-15.7-17.8-15.7H2394z"/>
			</g>
		</g>
		<g class="st4">
			<path class="st9" d="M2829.9,220.6h-432c-9.5,0-17.3,7.4-17.3,16.4v48.4h466.6V237C2847.2,228,2839.4,220.6,2829.9,220.6z"/>
		</g>
	</g>
	<g>
		<g>
			<path class="st10" d="M1577.5-197c-5.6,0-11.2,0-16.8-0.1l0.1-4.3c8.1,0.1,16.2,0.1,24.5,0.1v4.3
				C1582.7-197,1580.1-197,1577.5-197z M1597.6-197.1l-0.1-4.3c10-0.1,20.3-0.4,30.6-0.8l0.2,4.3
				C1617.9-197.5,1607.6-197.3,1597.6-197.1z M1549.1-197.3c-7.8-0.2-15.6-0.4-23.3-0.8l0.2-4.3c7.7,0.3,15.4,0.6,23.2,0.8
				L1549.1-197.3z M1638.6-198.3l-0.2-4.3c7.7-0.3,15.5-0.7,23.2-1.1l0.2,4.3C1654.1-199,1646.4-198.6,1638.6-198.3z M1515.4-198.6
				c-10.5-0.6-20.8-1.3-30.6-2.2l0.4-4.3c9.8,0.9,20,1.6,30.5,2.2L1515.4-198.6z M1673.5-200.1l-0.3-4.3c8.1-0.5,16.3-1.1,24.4-1.7
				l0.3,4.3C1689.9-201.2,1681.7-200.6,1673.5-200.1z M1472.5-202.1c-8.4-0.9-16.6-1.9-24.4-3.1l0.6-4.3c7.8,1.1,15.9,2.1,24.2,3
				L1472.5-202.1z M1710.3-202.8l-0.4-4.3c10.2-0.8,20.4-1.7,30.5-2.7l0.4,4.3C1730.7-204.5,1720.5-203.6,1710.3-202.8z
				 M1751.3-206.5l-0.4-4.3c7.8-0.8,15.5-1.6,23.1-2.4l0.5,4.3C1766.8-208.1,1759-207.2,1751.3-206.5z M1436.6-206.9
				c-7.9-1.3-15.6-2.7-23-4.3l0.9-4.2c7.3,1.5,15,3,22.8,4.2L1436.6-206.9z M1786-210.2l-0.5-4.3c8.2-0.9,16.3-1.9,24.3-2.9l0.5,4.3
				C1802.3-212.1,1794.2-211.1,1786-210.2z M1403.4-213.4c-10.4-2.4-20.4-5.1-29.7-8.1l1.3-4.1c9.2,2.9,19.1,5.6,29.4,8
				L1403.4-213.4z M1822.5-214.7l-0.6-4.3c10.3-1.3,20.4-2.7,30.3-4.1l0.6,4.3C1843-217.4,1832.8-216,1822.5-214.7z M1863.3-220.3
				l-0.6-4.3c7.8-1.1,15.5-2.3,23-3.4l0.7,4.3C1878.7-222.5,1871.1-221.4,1863.3-220.3z M1897.8-225.5l-0.7-4.3
				c8.2-1.3,16.3-2.6,24.2-3.9l0.7,4.3C1914.2-228.1,1906.1-226.8,1897.8-225.5z M1362.1-225.5c-8-2.9-15.7-6.1-22.8-9.4l1.8-3.9
				c7,3.3,14.5,6.4,22.4,9.3L1362.1-225.5z M1934.1-231.4l-0.7-4.3c10.4-1.8,20.5-3.6,30.2-5.3l0.8,4.3
				C1954.7-235,1944.6-233.2,1934.1-231.4z M1974.6-238.6l-0.8-4.2c8-1.5,15.6-2.9,22.9-4.3l0.8,4.2
				C1990.2-241.5,1982.6-240.1,1974.6-238.6z M2008.9-245.2l-0.8-4.2c8.6-1.7,16.6-3.4,24-4.9l0.9,4.2
				C2025.6-248.6,2017.6-246.9,2008.9-245.2z M2045-252.8l-0.9-4.2c10.5-2.3,19.8-4.5,27-6.3l1.1,4.2
				C2064.9-257.2,2055.5-255.1,2045-252.8z"/>
		</g>
		<g>
			<path class="st10" d="M2052.7-222.1c-0.4,0-0.7-0.1-1.1-0.3c-1-0.6-1.4-1.9-0.8-2.9l20.8-37l-34.3-25.1c-1-0.7-1.2-2.1-0.5-3
				c0.7-1,2.1-1.2,3-0.5l35.8,26.3c0.9,0.6,1.1,1.8,0.6,2.8l-21.7,38.7C2054.2-222.5,2053.4-222.1,2052.7-222.1z"/>
		</g>
	</g>
	<g class="st11">
		<circle class="st10" cx="1713" cy="-213.6" r="123.1"/>
	</g>
	<g class="st11">
		<circle class="st10" cx="1713" cy="-213.6" r="97.2"/>
	</g>
	<g>
		<circle class="st0" cx="1713" cy="-213.6" r="79.9"/>
	</g>
	<g>
		<path class="st10" d="M1670.2-222.3h17.7l-1.4,5.4h-11.7l-1.3,5.8h10.3l-1.4,5.3h-10.3l-1.4,6h11.9l-1.4,5.4h-17.9L1670.2-222.3z"
			/>
		<path class="st10" d="M1688.4-216h6.1l0.2,14.2l6.9-14.2h6.3l-12.3,21.7h-5.4L1688.4-216z"/>
		<path class="st10" d="M1712.1-203.1c0.1,2.7,1.3,4.3,3.5,4.3c1.6,0,2.6-0.5,4.1-1.6l2.5,4c-1.8,1.4-4.1,2.3-6.8,2.3
			c-5.6,0-8.8-3.6-8.8-9.4c0-3.7,1.5-7.4,4-9.9c1.9-1.9,4.2-3.1,7.2-3.1c4.6,0,7.6,3.3,7.6,8c0,1.4-0.3,3.2-1,5.3L1712.1-203.1
			L1712.1-203.1z M1712.6-206.8h7.2c0.2-0.8,0.2-1.2,0.2-1.9c0-1.7-0.9-2.9-2.6-2.9c-1.1,0-2.1,0.5-2.9,1.3
			C1713.6-209.5,1713-208.2,1712.6-206.8z"/>
		<path class="st10" d="M1731.2-216h5.9l-0.5,2c1.2-1.2,2.9-2.3,5-2.3c3.1,0,5.2,2,5.2,5.5c0,1.1-0.3,2.7-0.7,4.3l-2.9,12.1h-6
			l2.9-12.1c0.2-1,0.4-1.9,0.4-2.3c0-1.4-0.7-2.1-2.1-2.1c-1.8,0-3,1.6-3.5,3.6l-3.1,12.9h-5.9L1731.2-216z"/>
		<path class="st10" d="M1749.3-198.3c0-0.9,0.2-1.8,0.4-2.8l2.4-9.8h-2.3l1.3-5.1h2.2l1.3-5.3h6l-1.3,5.3h3.8l-1.3,5.1h-3.7
			l-2.4,9.7c-0.1,0.4-0.1,0.7-0.1,0.9c0,0.5,0.4,0.9,1.2,0.9s1.8-0.2,2.5-0.6l-1.3,5c-1,0.5-2.5,0.8-4,0.8
			C1750.9-194.2,1749.3-195.9,1749.3-198.3z"/>
	</g>
	<g>
		<path class="st3" d="M1743.7,144.5l-3.5-2.5c4.6-6.5,10.1-12.7,16.6-18.6l2.9,3.2C1753.4,132.3,1748.1,138.3,1743.7,144.5z
			 M1768.4,119.3l-2.6-3.4c5.9-4.5,12.5-8.9,19.6-13l2.2,3.7C1780.6,110.6,1774.2,114.9,1768.4,119.3z M1796.6,101.7l-2-3.8
			c8.6-4.4,18.1-8.6,28.2-12.4l1.5,4C1814.5,93.3,1805.1,97.4,1796.6,101.7z M1835.9,85.4l-1.4-4.1c7.4-2.5,15.4-4.9,23.6-7.2
			l1.1,4.2C1851.1,80.5,1843.3,82.9,1835.9,85.4z M1870.5,75.3l-1-4.2c7.3-1.8,15-3.5,22.8-5.1l0.9,4.2
			C1885.3,71.8,1877.7,73.5,1870.5,75.3z M1903.3,68.2l-0.8-4.2c9.7-1.8,19.9-3.5,30.3-5l0.6,4.3C1923.1,64.8,1913,66.4,1903.3,68.2
			z M1945.6,61.7l-0.5-4.3c8-1,16.2-1.9,24.4-2.8l0.4,4.3C1961.7,59.7,1953.5,60.6,1945.6,61.7z M1981.5,57.8l-0.4-4.3
			c8.1-0.7,15.8-1.3,23.3-1.7l0.3,4.3C1997.2,56.6,1989.5,57.2,1981.5,57.8z M2015,55.5l-0.2-4.3c10.3-0.5,20.6-0.9,30.7-1.2
			l0.1,4.3C2035.6,54.6,2025.3,55,2015,55.5z M2082.3,54.3c0,0-9.2-0.3-24.4-0.1v-4.3c15.4-0.2,24.6,0.1,24.6,0.1L2082.3,54.3z"/>
	</g>
	<g>
		<g>
			<path class="st3" d="M2316.9,372.5c-0.5,0-1-0.2-1.4-0.6c-0.9-0.8-1-2.2-0.2-3.1l28.4-31.6l-27.9-32.1c-0.8-0.9-0.7-2.3,0.2-3
				c0.9-0.8,2.3-0.7,3,0.2l30.4,34.9l-30.9,34.4C2318.1,372.2,2317.5,372.5,2316.9,372.5z"/>
		</g>
		<g>
			<path class="st3" d="M2278.5,342.9v-4.3c7.8,0,15.6-0.1,23.2-0.3l0.1,4.3C2294.1,342.8,2286.3,342.9,2278.5,342.9z M2268,342.9
				c-10.1-0.1-20.4-0.3-30.7-0.7l0.2-4.3c10.2,0.4,20.5,0.6,30.6,0.7L2268,342.9z M2313.4,342.2l-0.2-4.3c4.4-0.2,8.8-0.4,13.2-0.6
				l0.2,4.3C2322.2,341.8,2317.8,342,2313.4,342.2z M2225.1,341.7c-8.2-0.4-16.4-0.9-24.5-1.5l0.3-4.3c8.1,0.6,16.2,1.1,24.4,1.5
				L2225.1,341.7z M2188.9,339.2c-7.8-0.6-15.6-1.4-23.2-2.2l0.4-4.3c7.6,0.8,15.4,1.5,23.1,2.2L2188.9,339.2z M2155.3,336
				c-10.1-1.1-20.3-2.4-30.5-3.8l0.6-4.3c10.1,1.4,20.3,2.7,30.3,3.8L2155.3,336z M2112.7,330.4c-8.2-1.2-16.3-2.5-24.2-3.8l0.7-4.3
				c7.9,1.3,16,2.6,24.2,3.8L2112.7,330.4z M2077,324.6c-7.8-1.4-15.4-2.8-22.9-4.3l0.8-4.2c7.5,1.5,15.1,2.9,22.9,4.3L2077,324.6z
				 M2043.8,318.3c-10-2-20.1-4.2-30-6.5l1-4.2c9.9,2.2,20,4.4,29.9,6.4L2043.8,318.3z M2001.9,309.1c-8.3-2-16.2-3.9-23.8-5.9
				l1.1-4.2c7.6,1.9,15.5,3.9,23.8,5.8L2001.9,309.1z M1966.7,300.3c-7.9-2.1-15.4-4.2-22.5-6.2l1.2-4.2c7.1,2,14.5,4.1,22.4,6.2
				L1966.7,300.3z M1934.2,291.2c-10-2.9-19.9-6-29.4-9l1.3-4.1c9.4,3,19.3,6,29.3,9L1934.2,291.2z M1893.2,278.4
				c-14.8-5-23.2-8.2-23.3-8.2l1.6-4c0.1,0,8.3,3.2,23.1,8.1L1893.2,278.4z"/>
		</g>
	</g>
	<g class="st1">
		<rect x="2162.3" y="-146.7" class="st3" width="587.6" height="4.3"/>
	</g>
	<g class="st1">
		<rect x="2164.5" y="-68.9" class="st3" width="587.6" height="4.3"/>
	</g>
	<g class="st1">
		<rect x="2164.5" y="8.9" class="st3" width="587.6" height="4.3"/>
	</g>
	<g>
		<path d="M2204.4-197.7h17.2v4.1h-12.7v7.4h11.2v4.1h-11.2v7.6h12.9v4.1h-17.3L2204.4-197.7L2204.4-197.7z"/>
		<path d="M2224-191.1h4.6l4.6,15l4.7-15h4.6l-7.2,20.8h-4.1L2224-191.1z"/>
		<path d="M2243.8-180.6v-0.3c0-6.2,3.7-10.6,8.8-10.6c5.6,0,8.6,4.7,8.6,10.9c0,0.3,0,0.9,0,1.5h-12.9c0.4,3.5,2.5,5.3,5.2,5.3
			c1.9,0,3.4-0.9,4.7-2.2l2.3,2.7c-1.9,2-4.2,3.2-7.2,3.2C2247.9-170.1,2243.8-174.1,2243.8-180.6z M2256.9-182.2
			c-0.2-3.3-1.7-5.6-4.3-5.6c-2.4,0-4.1,2.1-4.4,5.6H2256.9z"/>
		<path d="M2265.1-191.1h4.4v3c1.2-1.8,2.8-3.4,5.6-3.4c4,0,6.3,2.8,6.3,7.2v13.8h-4.4v-12.6c0-2.9-1.4-4.5-3.7-4.5
			s-3.9,1.7-3.9,4.6v12.5h-4.4L2265.1-191.1L2265.1-191.1z"/>
		<path d="M2287.1-175.5v-11.9h-2.3v-3.8h2.3v-5.6h4.4v5.6h4.6v3.8h-4.6v11c0,1.6,0.8,2.3,2.2,2.3c0.9,0,1.6-0.2,2.4-0.6v3.6
			c-1,0.5-2.2,0.9-3.7,0.9C2289.4-170.2,2287.1-171.5,2287.1-175.5z"/>
		<path d="M2313.5-193.2l-4.3,1.3l-0.7-3.9l6.3-2.1h3.2v27.4h-4.5V-193.2z"/>
	</g>
	<g>
		<path d="M2204.4-115.6h17.2v4.1h-12.7v7.4h11.2v4.1h-11.2v7.6h12.9v4.1h-17.3L2204.4-115.6L2204.4-115.6z"/>
		<path d="M2224-109h4.6l4.6,15l4.7-15h4.6l-7.2,20.8h-4.1L2224-109z"/>
		<path d="M2243.8-98.5v-0.3c0-6.2,3.7-10.6,8.8-10.6c5.6,0,8.6,4.7,8.6,10.9c0,0.3,0,0.9,0,1.5h-12.9c0.4,3.5,2.5,5.3,5.2,5.3
			c1.9,0,3.4-0.9,4.7-2.2l2.3,2.7c-1.9,2-4.2,3.2-7.2,3.2C2247.9-88,2243.8-92,2243.8-98.5z M2256.9-100.1c-0.2-3.3-1.7-5.6-4.3-5.6
			c-2.4,0-4.1,2.1-4.4,5.6H2256.9z"/>
		<path d="M2265.1-109h4.4v3c1.2-1.8,2.8-3.4,5.6-3.4c4,0,6.3,2.8,6.3,7.2v13.8h-4.4V-101c0-2.9-1.4-4.5-3.7-4.5s-3.9,1.7-3.9,4.6
			v12.5h-4.4L2265.1-109L2265.1-109z"/>
		<path d="M2287.1-93.4v-11.9h-2.3v-3.8h2.3v-5.6h4.4v5.6h4.6v3.8h-4.6v11c0,1.6,0.8,2.3,2.2,2.3c0.9,0,1.6-0.2,2.4-0.6v3.6
			c-1,0.5-2.2,0.9-3.7,0.9C2289.4-88.1,2287.1-89.4,2287.1-93.4z"/>
		<path d="M2309.3-92l8.3-8.9c3.1-3.2,4.2-4.9,4.2-7.1c0-2.5-1.8-3.9-4-3.9c-2.1,0-3.7,1.2-5.4,3.5l-3-2.8c2.3-3.1,4.9-4.9,8.8-4.9
			c4.7,0,8.2,3,8.2,7.7v0.1c0,3.7-1.7,5.9-5.7,9.9l-5.4,5.9h11.2v4.1h-17.2V-92z"/>
	</g>
	<g>
		<path d="M2204.4-42.2h17.2v4.1h-12.7v7.4h11.2v4.1h-11.2v7.6h12.9v4.1h-17.3L2204.4-42.2L2204.4-42.2z"/>
		<path d="M2224-35.6h4.6l4.6,15l4.7-15h4.6l-7.2,20.8h-4.1L2224-35.6z"/>
		<path d="M2243.8-25v-0.3c0-6.2,3.7-10.6,8.8-10.6c5.6,0,8.6,4.7,8.6,10.9c0,0.3,0,0.9,0,1.5h-12.9c0.4,3.5,2.5,5.3,5.2,5.3
			c1.9,0,3.4-0.9,4.7-2.2l2.3,2.7c-1.9,2-4.2,3.2-7.2,3.2C2247.9-14.5,2243.8-18.6,2243.8-25z M2256.9-26.6
			c-0.2-3.3-1.7-5.6-4.3-5.6c-2.4,0-4.1,2.1-4.4,5.6H2256.9z"/>
		<path d="M2265.1-35.6h4.4v3c1.2-1.8,2.8-3.4,5.6-3.4c4,0,6.3,2.8,6.3,7.2V-15h-4.4v-12.6c0-2.9-1.4-4.5-3.7-4.5s-3.9,1.7-3.9,4.6
			V-15h-4.4L2265.1-35.6L2265.1-35.6z"/>
		<path d="M2287.1-19.9v-11.9h-2.3v-3.8h2.3v-5.6h4.4v5.6h4.6v3.8h-4.6v11c0,1.6,0.8,2.3,2.2,2.3c0.9,0,1.6-0.2,2.4-0.6v3.6
			c-1,0.5-2.2,0.9-3.7,0.9C2289.4-14.7,2287.1-15.9,2287.1-19.9z"/>
		<path d="M2308.8-18.3l2.8-3.2c1.5,1.6,3.3,2.8,5.9,2.8c2.5,0,4.5-1.7,4.5-4.3v-0.1c0-2.8-2.4-4.4-6.2-4.4h-1.4l-0.6-2.8l6.6-7.9
			h-10.3v-4h15.9v3.5l-6.9,7.9c3.8,0.6,7.2,2.8,7.2,7.5v0.1c0,5.1-3.7,8.6-8.9,8.6C2313.7-14.5,2310.8-16.1,2308.8-18.3z"/>
	</g>
	<g>
		<path class="st9" d="M2829.9,337.3h-436.4c-4.8,0-8.6-3.9-8.6-8.6c0-4.8,3.9-8.6,8.6-8.6h436.4c4.8,0,8.6,3.9,8.6,8.6
			C2838.5,333.4,2834.7,337.3,2829.9,337.3z"/>
	</g>
	<g>
		<path class="st9" d="M2765.1,405h-371.6c-4.8,0-8.6-3.9-8.6-8.6s3.9-8.6,8.6-8.6h371.6c4.8,0,8.6,3.9,8.6,8.6
			S2769.8,405,2765.1,405z"/>
	</g>
	<g>
		<path class="st9" d="M2700.3,472.6h-306.8c-4.8,0-8.6-3.9-8.6-8.6s3.9-8.6,8.6-8.6h306.8c4.8,0,8.6,3.9,8.6,8.6
			S2705,472.6,2700.3,472.6z"/>
	</g>
	<g>
		<path class="st9" d="M2537.1,237.9h4.4l10.1,27.7h-4.8l-2.3-6.5h-10.7l-2.3,6.5h-4.6L2537.1,237.9z M2543.1,255.1l-3.9-11.1
			l-3.9,11.1H2543.1z"/>
		<path class="st9" d="M2553.2,252v-0.3c0-8.4,5.2-14.1,12.3-14.1c3.9,0,6.4,1.4,8.7,3.4l-2.8,3.5c-1.6-1.5-3.4-2.7-5.9-2.7
			c-4.3,0-7.6,3.9-7.6,9.8v0.2c0,6,3.3,9.9,7.6,9.9c2.6,0,4.4-1.2,6.1-2.9l2.7,3.2c-2.4,2.5-5.2,3.9-9,3.9
			C2558.2,266,2553.2,260.4,2553.2,252z"/>
		<path class="st9" d="M2576.6,252v-0.3c0-8.4,5.2-14.1,12.3-14.1c3.9,0,6.4,1.4,8.7,3.4l-2.8,3.5c-1.6-1.5-3.4-2.7-5.9-2.7
			c-4.3,0-7.6,3.9-7.6,9.8v0.2c0,6,3.3,9.9,7.6,9.9c2.6,0,4.4-1.2,6.1-2.9l2.7,3.2c-2.4,2.5-5.2,3.9-9,3.9
			C2581.7,266,2576.6,260.4,2576.6,252z"/>
		<path class="st9" d="M2600.1,252.1v-0.4c0-8.2,5-14.1,12.3-14.1c7.2,0,12.2,5.8,12.2,14v0.4c0,8.2-5,14.1-12.3,14.1
			C2605.1,266.1,2600.1,260.2,2600.1,252.1z M2619.8,252v-0.3c0-5.9-3.2-9.9-7.5-9.9s-7.4,3.9-7.4,9.9v0.3c0,5.9,3.2,9.9,7.5,9.9
			C2616.7,261.9,2619.8,258,2619.8,252z"/>
		<path class="st9" d="M2629.2,255.1V238h4.6v17c0,4.5,2.2,6.8,5.7,6.8s5.7-2.2,5.7-6.6V238h4.5v16.9c0,7.4-4.1,11.1-10.3,11.1
			C2633.2,266.1,2629.2,262.3,2629.2,255.1z"/>
		<path class="st9" d="M2655.4,238.1h4.3l12.1,18.4v-18.4h4.5v27.6h-3.9l-12.5-19v19h-4.5V238.1z"/>
		<path class="st9" d="M2687.7,242.3h-7.3V238h19.1v4.3h-7.3v23.3h-4.6v-23.3H2687.7z"/>
		<path class="st9" d="M2701.4,262l2.8-3.4c2,1.9,4.3,3.3,7.3,3.3c2.6,0,4.3-1.5,4.3-3.5l0,0c0-1.7-0.9-2.9-5.3-4.5
			c-5.2-2-8-3.9-8-8.3v-0.1c0-4.5,3.6-7.7,8.7-7.7c3.2,0,6.1,1,8.7,3.2l-2.6,3.5c-1.9-1.5-4-2.6-6.2-2.6c-2.5,0-4,1.4-4,3.2l0,0
			c0,1.9,1,3,5.7,4.8c5.1,2,7.5,4.1,7.5,8.1v0.1c0,4.8-3.8,8-8.9,8C2707.8,266,2704.4,264.8,2701.4,262z"/>
	</g>
</g>
</svg>
