<?xml version="1.0" encoding="utf-8"?>
<!-- Generator: Adobe Illustrator 19.1.0, SVG Export Plug-In . SVG Version: 6.00 Build 0)  -->
<svg version="1.1" id="Layer_1" xmlns="http://www.w3.org/2000/svg" xmlns:xlink="http://www.w3.org/1999/xlink" x="0px" y="0px"
	 viewBox="904 -554 2048 1348" style="enable-background:new 904 -554 2048 1348;" xml:space="preserve">
<style type="text/css">
	.st0{fill:#FFFFFF;}
	.st1{opacity:0.5;}
	.st2{fill:#DEE1E0;}
	.st3{fill:#197593;}
	.st4{opacity:0.25;}
	.st5{fill:#CAE1E8;}
	.st6{opacity:0.35;}
	.st7{fill:#004966;}
	.st8{opacity:0.48;}
	.st9{fill:#DD9099;}
	.st10{fill:#0A9181;}
	.st11{opacity:0.1;}
</style>
<g>
	<g>
		<path class="st0" d="M2190-190.8c-25.1,0-50.3-5.3-73.1-16.4c-4.3-2-9-4.6-11.8-9c-3.1-4.9-3-10.9-3-15.8l2-249.2
			c-0.9-27.8,197.6-70.1,202.3,4.7c10.2,74.9,4.1,159.7-1.2,234.4l-0.6,8.4l-0.4,0.4C2273.1-205.5,2231.6-190.8,2190-190.8z"/>
	</g>
</g>
<g id="_x30_7">
	<g class="st1">
		<path class="st2" d="M2751.9-11.9c-2.2-6.1-73.3-146.7-73.3-146.7s-259-76-273-76.1c-7.3,0-71.7,45.4-152.4,30.7
			c-39,24.5-81,30.4-126.4,7.9c-4.2-2.1-7.4-5.4-11-8.5c-5-4.3-7.9-10.6-7.8-15.7c0.2-26.3,1.9-83.3,0-85.8V-329
			c0,0-51.8,2.2-53.3,2.2c-11.2,0.1-14.3,4-14.9,9.1L2140-18c0,0,1.9,9.1,13,9.2c11.1,0,581.5,4,581.5,4S2754.1-5.8,2751.9-11.9z"/>
	</g>
	<g>
		<g>
			<g>
				<path class="st3" d="M2193.6-441.8c-21.5,0-46.3-3.4-65.3-18c-8.8-6.7-17.6-18.7-13.5-30.5c4.3-12.5,44.7-20.4,53.1-21.1l0,0
					c72.2-6.4,117.7-0.3,131.6,17.8c5.2,6.8,6.1,15.2,2.6,25c-4.3,12-20.1,15.4-28.6,17.2c-19.7,4.3-40,7.2-60.1,8.8
					C2207.3-442.2,2200.6-441.8,2193.6-441.8z M2168-508.5c-13.5,1.2-47.4,9.9-50.6,19.2c-3.5,10.3,4.6,21.2,12.6,27.3
					c24.5,18.7,59.1,18.4,83.1,16.6c20-1.5,40.1-4.5,59.7-8.7c11-2.4,23.1-5.7,26.5-15.4c3.2-9,2.5-16.2-2.2-22.3
					C2287.9-503.9,2257.9-516.5,2168-508.5L2168-508.5z"/>
			</g>
		</g>
		<g class="st4">
			<g>
				<path class="st5" d="M2163.4-517c-12.1,1.1-51.2,10.5-55,23.1c-3.8,12.5,4.6,25.9,14.2,34c24.9,21.1,58.7,23,89.7,20.6
					c21.4-1.6,42.8-4.9,63.8-9.7c11.5-2.6,25.3-6.6,29.2-18.9C2325.1-530.3,2195.9-519.9,2163.4-517z"/>
			</g>
		</g>
		<g>
			<g>
				<path class="st3" d="M2192.2-188.2c-24.6,0-49.1-5.4-71.4-16.4c-4.2-2.1-8.8-4.6-11.6-9c-3-4.9-3-10.9-2.9-15.8l1.9-249.9
					c0-0.8,0.6-1.4,1.4-1.4l0,0c0.8,0,1.4,0.6,1.4,1.4l-1.9,249.9c0,4.5-0.1,10.1,2.5,14.3c2.3,3.8,6.6,6.1,10.4,8
					c57,28.3,132.3,17.6,179.3-25.3l0.5-7.3c5.2-74.8,11.2-159.6,1.2-234.5c-0.1-0.8,0.4-1.5,1.2-1.6c0.8-0.1,1.5,0.4,1.6,1.2
					c10,75.2,4.1,160.2-1.2,235.1l-0.6,8.4l-0.4,0.4C2273.4-202.9,2232.8-188.2,2192.2-188.2z"/>
			</g>
		</g>
		<g class="st4">
			<g>
				<path class="st5" d="M2281.5-439.2c-21,4.8-42.3,8-63.8,9.7c-31.1,2.4-64.8,0.5-89.7-20.6c-5.3-4.5-10.2-10.6-12.9-17.2
					c-0.6,82.5-1.3,165.1-1.9,247.6c0,5.2,0,10.7,2.7,15c2.5,4,6.8,6.4,11,8.5c58.1,28.8,110.9,11.1,158.6-32.8
					C2290.8-304.9,2293.1-441.8,2281.5-439.2z"/>
			</g>
		</g>
		<g class="st6">
			<g>
				<path class="st5" d="M2281.5-313.3c-21,4.8-42.2,49.9-63.8,49.9c-95.4,0-99.9-71.4-102.7-78.1c-0.6,82.5-1.3,30.6-1.9,113.1
					c0,5.2,0,10.7,2.7,15c2.5,4,6.8,6.4,11,8.5c58.1,28.8,110.9,11.1,158.6-32.8C2290.8-313.5,2293.1-315.9,2281.5-313.3z"/>
			</g>
		</g>
	</g>
	<g>
		<g class="st1">
			<path class="st2" d="M986.1-248.9l37.6,104.3c0,0,4.1,10.2,17.7,9.3c13.6-0.8,359.6-35.1,359.6-35.1s23.7-2.7,19.9-9.4
				c-3.9-6.7-44.4-103.9-44.4-103.9s-4-9-21-7.9c-16.5,1.1-334.8,29.9-353.1,31.3C988.9-259.4,985.7-254.6,986.1-248.9z"/>
		</g>
		<g>
			<path class="st0" d="M1029.7-468.6l27.6,282c0,0,3.1,27.6,15.3,27.6c12.2,0,324.9-30.7,324.9-30.7s21.5-3.1,18.4-21.5
				s-33.7-282-33.7-282s-3.1-24.5-18.4-24.5c-14.9,0-302.3,21-318.8,21.5C1032.8-495.9,1029.7-483.9,1029.7-468.6z"/>
			<path class="st3" d="M1072.6-156.8c-13.8,0-17.1-26.5-17.5-29.5l-27.5-282.3c0-12.6,1.8-29.4,17.4-29.7
				c7.4-0.2,71.2-4.7,138.6-9.4c84.4-5.9,171.6-12.1,180.2-12.1c0,0,0,0,0.1,0c17,0.1,20.4,25.3,20.5,26.4
				c0.3,2.7,30.7,263.8,33.7,281.9c0.9,5.5-0.1,10.4-3,14.4c-5.7,7.8-16.7,9.5-17.2,9.6C1385-186.2,1084.9-156.8,1072.6-156.8z
				 M1031.9-468.7l27.6,281.9c0.8,7.1,4.7,25.6,13.2,25.6c12,0,321.6-30.3,324.7-30.6c0,0,9.6-1.5,14.2-7.8c2.2-3,3-6.8,2.2-11.1
				c-3-18.2-32.5-271.3-33.7-282.1c0-0.2-3-22.6-16.3-22.6l0,0c-8.3,0-99.4,6.4-179.8,12c-67.5,4.7-131.3,9.2-138.8,9.4
				C1036-493.8,1031.9-486,1031.9-468.7z"/>
		</g>
		<g class="st1">
			<path class="st5" d="M1391.4-481c-1.2-11.6-1.9-14.6-1.9-14.6s-3.1-28.2-18.5-28.2s-307.5,24.7-319.8,24.7
				c-12.3,0-15.3,14.1-15.3,31.8l1.5,14.1C1118.9-460.4,1289.2-473.3,1391.4-481z"/>
		</g>
		<g>
			<g>
				<path class="st5" d="M1060.9-469.6l-8.1,0.6c-0.7,0-1.3-0.5-1.3-1.1l-0.6-8.1c0-0.7,0.5-1.3,1.1-1.3l8.1-0.6
					c0.7,0,1.3,0.5,1.3,1.1l0.6,8.1C1062.1-470.2,1061.6-469.6,1060.9-469.6z"/>
			</g>
			<g>
				<path class="st5" d="M1078.4-470.8l-8.1,0.6c-0.7,0-1.3-0.5-1.3-1.1l-0.6-8.1c0-0.7,0.5-1.3,1.1-1.3l8.1-0.6
					c0.7,0,1.3,0.5,1.3,1.1l0.6,8.1C1079.6-471.4,1079.1-470.9,1078.4-470.8z"/>
			</g>
			<g>
				<path class="st5" d="M1095.9-472l-8.1,0.6c-0.7,0-1.3-0.5-1.3-1.1l-0.6-8.1c0-0.7,0.5-1.3,1.1-1.3l8.1-0.6
					c0.7,0,1.3,0.5,1.3,1.1l0.6,8.1C1097.1-472.7,1096.6-472.1,1095.9-472z"/>
			</g>
		</g>
	</g>
	<g>
		<g>
			<path class="st0" d="M2762.6-22.3h-604.3c-2.5,0-4.6-2.1-4.6-4.6v-375.8c0-2.5,2.1-4.6,4.6-4.6h604.3c2.5,0,4.6,2.1,4.6,4.6
				v375.8C2767.2-24.4,2765.2-22.3,2762.6-22.3z"/>
		</g>
		<g>
			<path class="st3" d="M2747.3-20.4h-573.6c-12.2,0-22.1-8.8-22.1-19.5v-349.8c0-10.8,9.9-19.5,22.1-19.5h573.6
				c12.2,0,22.1,8.8,22.1,19.5v349.8C2769.4-29.2,2759.5-20.4,2747.3-20.4z M2173.7-405.4c-9.8,0-17.8,7.1-17.8,15.7v349.8
				c0,8.7,8,15.7,17.8,15.7h573.6c9.8,0,17.8-7.1,17.8-15.7v-349.8c0-8.7-8-15.7-17.8-15.7H2173.7z"/>
		</g>
	</g>
	<g>
		<path class="st7" d="M1190.9-363.3h9.5l17.4,48.7h-10.4l-3.6-10.5h-16.7l-3.5,10.5h-10.1L1190.9-363.3z M1200.8-334l-5.3-15.8
			l-5.3,15.8H1200.8z"/>
		<path class="st7" d="M1223.8-363.1h16.1c10.9,0,17.7,6.3,17.7,16.6v0.1c0,11.1-8,16.7-18.1,16.9h-5.7v14.7h-10V-363.1z
			 M1239.4-338.4c5.2,0,8.1-3.2,8.1-7.7v-0.1c0-5.1-2.9-7.8-8.2-7.8h-5.5v15.6H1239.4z"/>
		<path class="st7" d="M1264.2-363.1h16.1c10.9,0,17.7,6.3,17.7,16.6v0.1c0,11.1-8,16.7-18.1,16.9h-5.7v14.7h-10V-363.1z
			 M1279.8-338.4c5.2,0,8.1-3.2,8.1-7.7v-0.1c0-5.1-2.9-7.8-8.2-7.8h-5.5v15.6H1279.8z"/>
	</g>
	<g>
		<path class="st7" d="M1493.2,69h16.1c10.9,0,17.7,6.3,17.7,16.6v0.1c0,11.1-8,16.7-18.1,16.9h-5.7v14.7h-10V69z M1508.9,93.7
			c5.2,0,8.1-3.2,8.1-7.7v-0.1c0-5.1-2.9-7.8-8.2-7.8h-5.5v15.6H1508.9z"/>
		<path class="st7" d="M1533.6,69h18.2c5.6,0,10.1,1.6,13.1,4.6c2.6,2.6,4.1,6.4,4.1,11.2v0.3c0,7.3-3.7,12-9,14.3l10.3,18h-11.5
			l-8.9-15.9h-6.3v15.9h-10L1533.6,69L1533.6,69z M1551,92.7c5.1,0,7.9-2.9,7.9-7.3v-0.1c0-4.8-3-7.3-8.1-7.3h-7.2v14.6L1551,92.7
			L1551,92.7z"/>
		<path class="st7" d="M1575.2,93.7v-0.8c0-14.5,9.1-24.7,21.9-24.7c12.9,0,21.9,10.1,21.9,24.6v0.8c0,14.5-9.1,24.7-21.9,24.7
			C1584.2,118.3,1575.2,108.2,1575.2,93.7z M1608.6,93.5V93c0-9.5-4.8-15.6-11.5-15.6c-6.8,0-11.5,5.9-11.5,15.5v0.5
			c0,9.5,4.9,15.6,11.6,15.6C1603.8,109,1608.6,103,1608.6,93.5z"/>
		<path class="st7" d="M1620.7,111.9l6.1-7.1c2,2.3,4.1,3.8,6.8,3.8c3.4,0,5.5-2.1,5.5-7.1V69h10.1v33c0,5.4-1.5,9.3-4.2,12
			c-2.6,2.6-6.5,4-11.1,4C1628,118.1,1623.5,115.4,1620.7,111.9z"/>
		<path class="st7" d="M1658.4,69h31.2v9.1h-21.2v10.4h18.6v9.1h-18.7v10.8h21.5v9.1h-31.5L1658.4,69L1658.4,69z"/>
		<path class="st7" d="M1695.8,93.6V93c0-14.7,9.1-24.6,21.9-24.6c7.2,0,11.8,2.6,15.6,6.4l-6,7.7c-2.9-3-5.9-4.8-9.9-4.8
			c-6.5,0-11.3,6-11.3,15.4v0.2c0,9.6,5,15.5,11.4,15.5c3.9,0,6.7-1.8,10-5l6,7.1c-4.4,4.5-9,7.3-16.4,7.3
			C1704.4,118.1,1695.8,108.4,1695.8,93.6z"/>
		<path class="st7" d="M1749.6,78.3h-12.2V69h34.3v9.3h-12.2v39.1h-10L1749.6,78.3L1749.6,78.3z"/>
		<path class="st7" d="M1774.9,93.7v-0.8c0-14.5,9.1-24.7,21.9-24.7c12.9,0,21.9,10.1,21.9,24.6v0.8c0,14.5-9.1,24.7-21.9,24.7
			C1783.9,118.3,1774.9,108.2,1774.9,93.7z M1808.3,93.5V93c0-9.5-4.8-15.6-11.5-15.6c-6.8,0-11.5,5.9-11.5,15.5v0.5
			c0,9.5,4.9,15.6,11.6,15.6C1803.5,109,1808.3,103,1808.3,93.5z"/>
		<path class="st7" d="M1826.6,69h18.2c5.6,0,10.1,1.6,13.1,4.6c2.6,2.6,4.1,6.4,4.1,11.2v0.3c0,7.3-3.7,12-9,14.3l10.3,18h-11.5
			l-8.9-15.9h-6.3v15.9h-10L1826.6,69L1826.6,69z M1844,92.7c5.1,0,7.9-2.9,7.9-7.3v-0.1c0-4.8-3-7.3-8.1-7.3h-7.2v14.6L1844,92.7
			L1844,92.7z"/>
	</g>
	<g>
		<path class="st7" d="M1488.2,414.7h16.1c10.9,0,17.7,6.3,17.7,16.6v0.1c0,11.1-8,16.7-18.1,16.9h-5.7V463h-10V414.7z
			 M1503.9,439.4c5.2,0,8.1-3.2,8.1-7.7v-0.1c0-5.1-2.9-7.8-8.2-7.8h-5.5v15.6H1503.9z"/>
		<path class="st7" d="M1528.6,414.7h18.2c5.6,0,10.1,1.6,13.1,4.6c2.6,2.6,4.1,6.4,4.1,11.2v0.3c0,7.3-3.7,12-9,14.3l10.3,18h-11.5
			l-8.9-15.9h-6.3v15.9h-10L1528.6,414.7L1528.6,414.7z M1546.1,438.3c5.1,0,7.9-2.9,7.9-7.3l0,0c0-4.8-3-7.3-8.1-7.3h-7.2v14.6
			H1546.1z"/>
		<path class="st7" d="M1570.2,439.4v-0.8c0-14.5,9.1-24.7,21.9-24.7c12.9,0,21.9,10.1,21.9,24.6v0.8c0,14.5-9.1,24.7-21.9,24.7
			C1579.2,463.9,1570.2,453.8,1570.2,439.4z M1603.6,439.2v-0.5c0-9.5-4.8-15.6-11.5-15.6c-6.8,0-11.5,5.9-11.5,15.5v0.5
			c0,9.5,4.9,15.6,11.6,15.6C1598.9,454.6,1603.6,448.7,1603.6,439.2z"/>
		<path class="st7" d="M1615.7,457.5l6.1-7.1c2,2.3,4.1,3.8,6.8,3.8c3.4,0,5.5-2.1,5.5-7.1v-32.5h10.1v33c0,5.4-1.5,9.3-4.2,12
			c-2.6,2.6-6.5,4-11.1,4C1623.1,463.7,1618.6,461,1615.7,457.5z"/>
		<path class="st7" d="M1653.4,414.7h31.2v9.1h-21.2v10.4h18.6v9.1h-18.7v10.8h21.5v9.1h-31.5L1653.4,414.7L1653.4,414.7
			L1653.4,414.7z"/>
		<path class="st7" d="M1690.8,439.2v-0.6c0-14.7,9.1-24.6,21.9-24.6c7.2,0,11.8,2.6,15.6,6.4l-6,7.7c-2.9-3-5.9-4.8-9.9-4.8
			c-6.5,0-11.3,6-11.3,15.4v0.2c0,9.6,5,15.5,11.4,15.5c3.9,0,6.7-1.8,10-5l6,7.1c-4.4,4.5-9,7.3-16.4,7.3
			C1699.4,463.8,1690.8,454,1690.8,439.2z"/>
		<path class="st7" d="M1744.6,423.9h-12.2v-9.3h34.3v9.3h-12.2V463h-10L1744.6,423.9L1744.6,423.9z"/>
		<path class="st7" d="M1769.9,439.4v-0.8c0-14.5,9.1-24.7,21.9-24.7c12.9,0,21.9,10.1,21.9,24.6v0.8c0,14.5-9.1,24.7-21.9,24.7
			C1778.9,463.9,1769.9,453.8,1769.9,439.4z M1803.3,439.2v-0.5c0-9.5-4.8-15.6-11.5-15.6c-6.8,0-11.5,5.9-11.5,15.5v0.5
			c0,9.5,4.9,15.6,11.6,15.6C1798.5,454.6,1803.3,448.7,1803.3,439.2z"/>
		<path class="st7" d="M1821.6,414.7h18.2c5.6,0,10.1,1.6,13.1,4.6c2.6,2.6,4.1,6.4,4.1,11.2v0.3c0,7.3-3.7,12-9,14.3l10.3,18h-11.5
			l-8.9-15.9h-6.3v15.9h-10L1821.6,414.7L1821.6,414.7z M1839,438.3c5.1,0,7.9-2.9,7.9-7.3l0,0c0-4.8-3-7.3-8.1-7.3h-7.2v14.6H1839z
			"/>
		<path class="st7" d="M1878.6,455l14.2-14.7c5.1-5.3,7-7.9,7-11.4c0-3.7-2.5-5.7-5.8-5.7c-3.4,0-5.7,1.9-8.9,5.7l-6.5-6.2
			c4.2-5.7,9.1-8.8,16.1-8.8c8.9,0,15.2,5.3,15.2,14.1v0.1c0,6.8-3.1,10.6-10.3,17.6l-8.1,8.2h18.5v9h-31.5L1878.6,455L1878.6,455z"
			/>
	</g>
	<g class="st1">
		<path class="st5" d="M2739.1-400.6h-561.6c-9.5,0-17.3,7.4-17.3,16.4v48.4h596.3v-48.4C2756.4-393.2,2748.7-400.6,2739.1-400.6z"
			/>
	</g>
	<g class="st8">
		<g>
			<path class="st7" d="M2308.9-355.9l3-3.8c2.3,2,4.8,3.6,8,3.6c2.9,0,4.8-1.6,4.8-3.9l0,0c0-1.9-1-3.2-5.8-5
				c-5.8-2.2-8.8-4.3-8.8-9.2v-0.1c0-5,4-8.5,9.7-8.5c3.5,0,6.8,1.1,9.6,3.6l-2.9,3.9c-2.1-1.7-4.4-2.9-6.8-2.9
				c-2.7,0-4.4,1.5-4.4,3.5l0,0c0,2.1,1.1,3.3,6.3,5.3c5.7,2.2,8.3,4.5,8.3,9v0.1c0,5.4-4.2,8.8-9.9,8.8
				C2316-351.5,2312.2-352.8,2308.9-355.9z"/>
			<path class="st7" d="M2340.4-377.6h-8v-4.7h21.1v4.7h-8v25.8h-5L2340.4-377.6L2340.4-377.6z"/>
			<path class="st7" d="M2355.7-366.9v-0.4c0-9.1,5.6-15.5,13.5-15.5s13.4,6.4,13.4,15.4v0.4c0,9.1-5.6,15.5-13.5,15.5
				C2361.2-351.4,2355.7-357.8,2355.7-366.9z M2377.4-366.9v-0.3c0-6.5-3.5-10.9-8.3-10.9c-4.8,0-8.2,4.3-8.2,10.9v0.3
				c0,6.5,3.5,10.9,8.3,10.9C2374-356.1,2377.4-360.4,2377.4-366.9z"/>
			<path class="st7" d="M2388.1-382.3h11c3.5,0,6.3,1,8.1,2.9c1.6,1.6,2.5,3.9,2.5,6.7v0.2c0,4.7-2.6,7.6-6.3,8.9l7.2,11.8h-5.8
				l-6.5-10.8c-0.1,0-0.2,0-0.3,0h-4.9v10.7h-5L2388.1-382.3L2388.1-382.3z M2398.6-367.2c3.9,0,6.1-2.1,6.1-5.3v-0.1
				c0-3.4-2.2-5.2-6-5.2h-5.5v10.6H2398.6z"/>
			<path class="st7" d="M2415.3-382.3h19.2v4.6h-14.2v8.3h12.6v4.6h-12.6v8.5h14.4v4.6h-19.4V-382.3z"/>
			<path class="st7" d="M2440-382.3h9.3c8.7,0,14.4,6.1,14.4,15v0.3c0,8.9-5.7,15.1-14.4,15.1h-9.3V-382.3z M2445-377.8v21.3h4.2
				c5.6,0,9.3-4,9.3-10.5v-0.3c0-6.6-3.7-10.6-9.3-10.6h-4.2V-377.8z"/>
			<path class="st7" d="M2480.4-382.3h19.2v4.6h-14.2v8.3h12.6v4.6h-12.6v8.5h14.4v4.6h-19.4V-382.3z"/>
			<path class="st7" d="M2502.9-382.3h5.5l7.5,23l7.5-23h5.3l-10.5,30.6h-4.7L2502.9-382.3z"/>
			<path class="st7" d="M2533-382.3h19.2v4.6H2538v8.3h12.6v4.6H2538v8.5h14.4v4.6H2533V-382.3z"/>
			<path class="st7" d="M2557.7-382.3h4.7l13.4,20.3v-20.3h4.9v30.5h-4.3l-13.8-20.9v20.9h-5v-30.5H2557.7z"/>
			<path class="st7" d="M2593.4-377.6h-8v-4.7h21.1v4.7h-8v25.8h-5L2593.4-377.6L2593.4-377.6z"/>
			<path class="st7" d="M2608.5-355.9l3-3.8c2.3,2,4.8,3.6,8,3.6c2.9,0,4.8-1.6,4.8-3.9l0,0c0-1.9-1-3.2-5.8-5
				c-5.8-2.2-8.8-4.3-8.8-9.2v-0.1c0-5,4-8.5,9.7-8.5c3.5,0,6.8,1.1,9.6,3.6l-2.9,3.9c-2.1-1.7-4.4-2.9-6.8-2.9
				c-2.7,0-4.4,1.5-4.4,3.5l0,0c0,2.1,1.1,3.3,6.3,5.3c5.7,2.2,8.3,4.5,8.3,9v0.1c0,5.4-4.2,8.8-9.9,8.8
				C2615.6-351.5,2611.8-352.8,2608.5-355.9z"/>
		</g>
	</g>
	<g>
		<g class="st1">
			<path class="st2" d="M2318.2,340.9l40.1,142.8c0,0,4.6,15,18.7,15.8c14.3,0.8,444.3,6.7,444.3,6.7s35-0.2,27-12.4
				c-8-12.1-93-170.9-93-170.9s-7.6-13.6-29.9-13.2c-21.3,0.4-374.4,17.3-392,17.8C2320.6,327.9,2317.8,333.6,2318.2,340.9z"/>
		</g>
		<g>
			<g>
				<path class="st0" d="M2853.3,483.2h-474.7c-2.5,0-4.6-2.1-4.6-4.6V102.8c0-2.5,2.1-4.6,4.6-4.6h474.7c2.5,0,4.6,2.1,4.6,4.6
					v375.8C2858,481.1,2855.9,483.2,2853.3,483.2z"/>
			</g>
			<g>
				<path class="st9" d="M2838,485.1h-444c-12.2,0-22.1-8.8-22.1-19.5V115.8c0-10.8,9.9-19.5,22.1-19.5h444
					c12.2,0,22.1,8.8,22.1,19.5v349.8C2860.1,476.4,2850.2,485.1,2838,485.1z M2394,100.1c-9.8,0-17.8,7.1-17.8,15.7v349.8
					c0,8.7,8,15.7,17.8,15.7h444c9.8,0,17.8-7.1,17.8-15.7V115.8c0-8.7-8-15.7-17.8-15.7H2394z"/>
			</g>
		</g>
		<g class="st4">
			<path class="st9" d="M2829.9,104.9h-432c-9.5,0-17.3,7.4-17.3,16.4v48.4h466.6v-48.4C2847.2,112.3,2839.4,104.9,2829.9,104.9z"/>
		</g>
	</g>
	<g>
		<g>
			<path class="st10" d="M1577.5-312.7c-5.6,0-11.2,0-16.8-0.1l0.1-4.3c8.1,0.1,16.2,0.1,24.5,0.1v4.3
				C1582.7-312.7,1580.1-312.7,1577.5-312.7z M1597.6-312.8l-0.1-4.3c10-0.1,20.3-0.4,30.6-0.8l0.2,4.3
				C1617.9-313.2,1607.6-313,1597.6-312.8z M1549.1-313c-7.8-0.2-15.6-0.4-23.3-0.8l0.2-4.3c7.7,0.3,15.4,0.6,23.2,0.8L1549.1-313z
				 M1638.6-314l-0.2-4.3c7.7-0.3,15.5-0.7,23.2-1.1l0.2,4.3C1654.1-314.7,1646.4-314.3,1638.6-314z M1515.4-314.3
				c-10.5-0.6-20.8-1.3-30.6-2.2l0.4-4.3c9.8,0.9,20,1.6,30.5,2.2L1515.4-314.3z M1673.5-315.8l-0.3-4.3c8.1-0.5,16.3-1.1,24.4-1.7
				l0.3,4.3C1689.9-316.9,1681.7-316.3,1673.5-315.8z M1472.5-317.8c-8.4-0.9-16.6-1.9-24.4-3.1l0.6-4.3c7.8,1.1,15.9,2.1,24.2,3
				L1472.5-317.8z M1710.3-318.5l-0.4-4.3c10.2-0.8,20.4-1.7,30.5-2.7l0.4,4.3C1730.7-320.2,1720.5-319.3,1710.3-318.5z
				 M1751.3-322.2l-0.4-4.3c7.8-0.8,15.5-1.6,23.1-2.4l0.5,4.3C1766.8-323.8,1759-322.9,1751.3-322.2z M1436.6-322.6
				c-7.9-1.3-15.6-2.7-23-4.3l0.9-4.2c7.3,1.5,15,3,22.8,4.2L1436.6-322.6z M1786-325.9l-0.5-4.3c8.2-0.9,16.3-1.9,24.3-2.9l0.5,4.3
				C1802.3-327.8,1794.2-326.8,1786-325.9z M1403.4-329.1c-10.4-2.4-20.4-5.1-29.7-8.1l1.3-4.1c9.2,2.9,19.1,5.6,29.4,8
				L1403.4-329.1z M1822.5-330.4l-0.6-4.3c10.3-1.3,20.4-2.7,30.3-4.1l0.6,4.3C1843-333.1,1832.8-331.7,1822.5-330.4z M1863.3-336
				l-0.6-4.3c7.8-1.1,15.5-2.3,23-3.4l0.7,4.3C1878.7-338.2,1871.1-337.1,1863.3-336z M1897.8-341.2l-0.7-4.3
				c8.2-1.3,16.3-2.6,24.2-3.9l0.7,4.3C1914.2-343.8,1906.1-342.5,1897.8-341.2z M1362.1-341.2c-8-2.9-15.7-6.1-22.8-9.4l1.8-3.9
				c7,3.3,14.5,6.4,22.4,9.3L1362.1-341.2z M1934.1-347.1l-0.7-4.3c10.4-1.8,20.5-3.6,30.2-5.3l0.8,4.3
				C1954.7-350.7,1944.6-348.9,1934.1-347.1z M1974.6-354.3l-0.8-4.2c8-1.5,15.6-2.9,22.9-4.3l0.8,4.2
				C1990.2-357.2,1982.6-355.8,1974.6-354.3z M2008.9-360.9l-0.8-4.2c8.6-1.7,16.6-3.4,24-4.9l0.9,4.2
				C2025.6-364.3,2017.6-362.6,2008.9-360.9z M2045-368.5l-0.9-4.2c10.5-2.3,19.8-4.5,27-6.3l1.1,4.2
				C2064.9-372.9,2055.5-370.8,2045-368.5z"/>
		</g>
		<g>
			<path class="st10" d="M2052.7-337.8c-0.4,0-0.7-0.1-1.1-0.3c-1-0.6-1.4-1.9-0.8-2.9l20.8-37l-34.3-25.1c-1-0.7-1.2-2.1-0.5-3
				c0.7-1,2.1-1.2,3-0.5l35.8,26.3c0.9,0.6,1.1,1.8,0.6,2.8l-21.7,38.7C2054.2-338.2,2053.4-337.8,2052.7-337.8z"/>
		</g>
	</g>
	<g class="st11">
		<circle class="st10" cx="1713" cy="-329.3" r="123.1"/>
	</g>
	<g class="st11">
		<circle class="st10" cx="1713" cy="-329.3" r="97.2"/>
	</g>
	<g>
		<circle class="st0" cx="1713" cy="-329.3" r="79.9"/>
	</g>
	<g>
		<path class="st10" d="M1670.2-338h17.7l-1.4,5.4h-11.7l-1.3,5.8h10.3l-1.4,5.3h-10.3l-1.4,6h11.9l-1.4,5.4h-17.9L1670.2-338z"/>
		<path class="st10" d="M1688.4-331.7h6.1l0.2,14.2l6.9-14.2h6.3l-12.3,21.7h-5.4L1688.4-331.7z"/>
		<path class="st10" d="M1712.1-318.8c0.1,2.7,1.3,4.3,3.5,4.3c1.6,0,2.6-0.5,4.1-1.6l2.5,4c-1.8,1.4-4.1,2.3-6.8,2.3
			c-5.6,0-8.8-3.6-8.8-9.4c0-3.7,1.5-7.4,4-9.9c1.9-1.9,4.2-3.1,7.2-3.1c4.6,0,7.6,3.3,7.6,8c0,1.4-0.3,3.2-1,5.3L1712.1-318.8
			L1712.1-318.8z M1712.6-322.5h7.2c0.2-0.8,0.2-1.2,0.2-1.9c0-1.7-0.9-2.9-2.6-2.9c-1.1,0-2.1,0.5-2.9,1.3
			C1713.6-325.2,1713-323.9,1712.6-322.5z"/>
		<path class="st10" d="M1731.2-331.7h5.9l-0.5,2c1.2-1.2,2.9-2.3,5-2.3c3.1,0,5.2,2,5.2,5.5c0,1.1-0.3,2.7-0.7,4.3l-2.9,12.1h-6
			l2.9-12.1c0.2-1,0.4-1.9,0.4-2.3c0-1.4-0.7-2.1-2.1-2.1c-1.8,0-3,1.6-3.5,3.6l-3.1,12.9h-5.9L1731.2-331.7z"/>
		<path class="st10" d="M1749.3-314c0-0.9,0.2-1.8,0.4-2.8l2.4-9.8h-2.3l1.3-5.1h2.2l1.3-5.3h6l-1.3,5.3h3.8l-1.3,5.1h-3.7l-2.4,9.7
			c-0.1,0.4-0.1,0.7-0.1,0.9c0,0.5,0.4,0.9,1.2,0.9s1.8-0.2,2.5-0.6l-1.3,5c-1,0.5-2.5,0.8-4,0.8
			C1750.9-309.9,1749.3-311.6,1749.3-314z"/>
	</g>
	<g>
		<path class="st3" d="M1743.7,28.8l-3.5-2.5c4.6-6.5,10.1-12.7,16.6-18.6l2.9,3.2C1753.4,16.6,1748.1,22.6,1743.7,28.8z
			 M1768.4,3.6l-2.6-3.4c5.9-4.5,12.5-8.9,19.6-13l2.2,3.7C1780.6-5.1,1774.2-0.8,1768.4,3.6z M1796.6-14l-2-3.8
			c8.6-4.4,18.1-8.6,28.2-12.4l1.5,4C1814.5-22.4,1805.1-18.3,1796.6-14z M1835.9-30.3l-1.4-4.1c7.4-2.5,15.4-4.9,23.6-7.2l1.1,4.2
			C1851.1-35.2,1843.3-32.8,1835.9-30.3z M1870.5-40.4l-1-4.2c7.3-1.8,15-3.5,22.8-5.1l0.9,4.2C1885.3-43.9,1877.7-42.2,1870.5-40.4
			z M1903.3-47.5l-0.8-4.2c9.7-1.8,19.9-3.5,30.3-5l0.6,4.3C1923.1-50.9,1913-49.3,1903.3-47.5z M1945.6-54l-0.5-4.3
			c8-1,16.2-1.9,24.4-2.8l0.4,4.3C1961.7-56,1953.5-55.1,1945.6-54z M1981.5-57.9l-0.4-4.3c8.1-0.7,15.8-1.3,23.3-1.7l0.3,4.3
			C1997.2-59.1,1989.5-58.5,1981.5-57.9z M2015-60.2l-0.2-4.3c10.3-0.5,20.6-0.9,30.7-1.2l0.1,4.3
			C2035.6-61.1,2025.3-60.7,2015-60.2z M2082.3-61.4c0,0-9.2-0.3-24.4-0.1v-4.3c15.4-0.2,24.6,0.1,24.6,0.1L2082.3-61.4z"/>
	</g>
	<g>
		<g>
			<path class="st3" d="M2316.9,256.8c-0.5,0-1-0.2-1.4-0.6c-0.9-0.8-1-2.2-0.2-3.1l28.4-31.6l-27.9-32.1c-0.8-0.9-0.7-2.3,0.2-3
				c0.9-0.8,2.3-0.7,3,0.2l30.4,34.9l-30.9,34.4C2318.1,256.5,2317.5,256.8,2316.9,256.8z"/>
		</g>
		<g>
			<path class="st3" d="M2278.5,227.2v-4.3c7.8,0,15.6-0.1,23.2-0.3l0.1,4.3C2294.1,227.1,2286.3,227.2,2278.5,227.2z M2268,227.2
				c-10.1-0.1-20.4-0.3-30.7-0.7l0.2-4.3c10.2,0.4,20.5,0.6,30.6,0.7L2268,227.2z M2313.4,226.5l-0.2-4.3c4.4-0.2,8.8-0.4,13.2-0.6
				l0.2,4.3C2322.2,226.1,2317.8,226.3,2313.4,226.5z M2225.1,226c-8.2-0.4-16.4-0.9-24.5-1.5l0.3-4.3c8.1,0.6,16.2,1.1,24.4,1.5
				L2225.1,226z M2188.9,223.5c-7.8-0.6-15.6-1.4-23.2-2.2l0.4-4.3c7.6,0.8,15.4,1.5,23.1,2.2L2188.9,223.5z M2155.3,220.3
				c-10.1-1.1-20.3-2.4-30.5-3.8l0.6-4.3c10.1,1.4,20.3,2.7,30.3,3.8L2155.3,220.3z M2112.7,214.7c-8.2-1.2-16.3-2.5-24.2-3.8
				l0.7-4.3c7.9,1.3,16,2.6,24.2,3.8L2112.7,214.7z M2077,208.9c-7.8-1.4-15.4-2.8-22.9-4.3l0.8-4.2c7.5,1.5,15.1,2.9,22.9,4.3
				L2077,208.9z M2043.8,202.6c-10-2-20.1-4.2-30-6.5l1-4.2c9.9,2.2,20,4.4,29.9,6.4L2043.8,202.6z M2001.9,193.4
				c-8.3-2-16.2-3.9-23.8-5.9l1.1-4.2c7.6,1.9,15.5,3.9,23.8,5.8L2001.9,193.4z M1966.7,184.6c-7.9-2.1-15.4-4.2-22.5-6.2l1.2-4.2
				c7.1,2,14.5,4.1,22.4,6.2L1966.7,184.6z M1934.2,175.5c-10-2.9-19.9-6-29.4-9l1.3-4.1c9.4,3,19.3,6,29.3,9L1934.2,175.5z
				 M1893.2,162.7c-14.8-5-23.2-8.2-23.3-8.2l1.6-4c0.1,0,8.3,3.2,23.1,8.1L1893.2,162.7z"/>
		</g>
	</g>
	<g>
		<path class="st3" d="M1461,385.2l-5.2-4.5l2.8-3.3l5.2,4.5L1461,385.2z M1447,373c-5.8-5.2-11.6-10.5-17.2-15.8l3-3.1
			c5.5,5.2,11.3,10.5,17.1,15.7L1447,373z M1422.3,349.9c-7.5-7.3-14.7-14.7-21.5-21.9l3.2-2.9c6.7,7.2,13.9,14.5,21.3,21.8
			L1422.3,349.9z M1392.6,318.9c-5.6-6.2-10.9-12.5-16-18.7l3.4-2.7c5,6.1,10.3,12.4,15.8,18.6L1392.6,318.9z M1369.4,291
			c-4.9-6.3-9.5-12.7-13.7-19l3.6-2.4c4.2,6.2,8.7,12.5,13.5,18.8L1369.4,291z M1349.9,263.3c-5.7-9-10.8-18.1-15.1-26.9l3.9-1.9
			c4.2,8.7,9.3,17.6,14.9,26.5L1349.9,263.3z M1329.7,225.2c-3.3-7.8-6.2-15.6-8.4-23.3l4.1-1.2c2.2,7.5,4.9,15.1,8.2,22.8
			L1329.7,225.2z M1318.4,190.5c-1.7-7.9-2.8-15.7-3.3-23.3l4.3-0.3c0.5,7.4,1.5,15,3.2,22.7L1318.4,190.5z M1319.2,156.7l-4.3-0.1
			c0.1-10.4,1.5-20.7,4.1-30.6l4.2,1.1C1320.6,136.6,1319.3,146.6,1319.2,156.7z M1326.6,115.6l-4.1-1.5c2.7-7.6,6.3-15.1,10.4-22.4
			l3.7,2.2C1332.7,100.9,1329.3,108.2,1326.6,115.6z M1342.8,84.2l-3.6-2.4c4.3-6.3,9.2-12.5,14.5-18.4l3.2,2.9
			C1351.8,72,1347,78.1,1342.8,84.2z M1364.1,58.7l-3.1-3.1c6.9-6.9,14.7-13.8,23.2-20.3l2.6,3.4
			C1378.6,45.2,1370.9,51.9,1364.1,58.7z M1396.6,31.5l-2.5-3.5c6.5-4.6,13.4-9.1,20.6-13.4l2.2,3.7
			C1409.9,22.6,1403,27,1396.6,31.5z M1427,12.5l-2.1-3.8c6.6-3.7,13.5-7.3,20.7-10.9l1.9,3.9C1440.4,5.2,1433.5,8.8,1427,12.5z
			 M1456.9-2.8l-1.8-3.9c9-4.2,18.4-8.3,28.2-12.2l1.6,4C1475.2-11,1465.7-6.9,1456.9-2.8z M1496.2-19.3l-1.5-4
			c7.5-2.8,15.2-5.6,23.1-8.3l1.4,4.1C1511.4-24.9,1503.6-22.1,1496.2-19.3z M1530.2-31.2l-1.3-4.1c7.3-2.3,14.8-4.6,22.3-6.8
			l1.2,4.1C1544.9-35.8,1537.5-33.5,1530.2-31.2z M1562.4-40.8l-1.2-4.2c9.6-2.7,19.6-5.3,29.7-7.8l1,4.2
			C1582-46.1,1572-43.5,1562.4-40.8z M1603.9-51.4l-1-4.2c7.9-1.8,15.9-3.6,24-5.3l0.9,4.2C1619.7-55,1611.7-53.3,1603.9-51.4z
			 M1639.1-59.1l-0.9-4.2c7.6-1.5,15.2-3,22.9-4.4l0.8,4.2C1654.3-62.1,1646.7-60.6,1639.1-59.1z M1672.2-65.3l-0.7-4.3
			c9.9-1.7,20.1-3.4,30.3-5l0.7,4.3C1692.2-68.7,1682-67,1672.2-65.3z M1714.5-72l-0.6-4.3c8-1.2,16.1-2.3,24.3-3.3l0.6,4.3
			C1730.6-74.3,1722.5-73.2,1714.5-72z M1750.3-76.8l-0.5-4.3c7.7-0.9,15.4-1.8,23.2-2.7l0.5,4.3
			C1765.6-78.6,1757.9-77.7,1750.3-76.8z M1783.7-80.5l-0.4-4.3c10.1-1,20.3-2,30.5-2.9l0.4,4.3
			C1803.9-82.5,1793.8-81.6,1783.7-80.5z M1826.4-84.4l-0.3-4.3c8.1-0.6,16.3-1.2,24.5-1.8l0.3,4.3
			C1842.6-85.6,1834.5-85,1826.4-84.4z M1862.4-86.9l-0.3-4.3c7.7-0.5,15.5-0.9,23.3-1.3l0.2,4.3
			C1877.8-87.8,1870.1-87.4,1862.4-86.9z M1896-88.7l-0.2-4.3c10.2-0.5,20.4-0.8,30.6-1.2l0.1,4.3
			C1916.3-89.5,1906.1-89.1,1896-88.7z M2075.9-89.5c-8.2-0.3-16.3-0.5-24.5-0.7l0.1-4.3c8.2,0.2,16.3,0.4,24.5,0.7L2075.9-89.5z
			 M1938.8-90.2l-0.1-4.3c8.2-0.2,16.3-0.4,24.5-0.5l0.1,4.3C1955.1-90.5,1946.9-90.4,1938.8-90.2z M2039.2-90.5
			c-10.2-0.2-20.4-0.3-30.6-0.4v-4.3c10.2,0.1,20.4,0.2,30.6,0.4V-90.5z M1974.9-90.8v-4.3c7-0.1,14.1-0.1,21.2-0.1h2.1v4.3h-2.1
			C1989-90.9,1981.9-90.9,1974.9-90.8z"/>
	</g>
	<g>
		<g>
			<path class="st3" d="M2053.3,615.4c-0.5,0-1-0.2-1.4-0.6c-0.9-0.8-1-2.2-0.2-3.1l28.4-31.6l-27.9-32.1c-0.8-0.9-0.7-2.3,0.2-3
				c0.9-0.8,2.3-0.7,3,0.2l30.4,34.9l-30.9,34.4C2054.5,615.1,2053.9,615.4,2053.3,615.4z"/>
		</g>
		<g>
			<path class="st3" d="M2071.6,584.5c-3.2,0-6.4-0.1-9.5-0.2l0.1-4.3c3.1,0.1,6.3,0.1,9.5,0.2L2071.6,584.5z M2050.4,584.1
				c-7.9-0.2-15.6-0.4-23.3-0.7l0.2-4.3c7.6,0.3,15.4,0.5,23.2,0.7L2050.4,584.1z M2016.7,583c-10.4-0.4-20.6-1-30.6-1.6l0.3-4.3
				c10,0.6,20.1,1.1,30.5,1.6L2016.7,583z M1973.9,580.6c-8.3-0.6-16.5-1.2-24.5-1.8l0.4-4.3c8,0.7,16.1,1.3,24.4,1.8L1973.9,580.6z
				 M1937.8,577.8c-7.9-0.7-15.6-1.5-23.2-2.3l0.5-4.3c7.6,0.8,15.3,1.6,23.1,2.3L1937.8,577.8z M1904.3,574.4
				c-10.2-1.1-20.4-2.4-30.4-3.8l0.6-4.3c10,1.3,20.2,2.6,30.3,3.7L1904.3,574.4z M1861.7,568.9c-8.3-1.2-16.4-2.4-24.2-3.7l0.7-4.3
				c7.8,1.3,15.9,2.5,24.2,3.7L1861.7,568.9z M1825.9,563.3c-7.9-1.4-15.5-2.8-22.9-4.2l0.8-4.2c7.4,1.4,15,2.8,22.8,4.2
				L1825.9,563.3z M1792.8,557.1c-10.1-2.1-20.2-4.2-30-6.5l1-4.2c9.7,2.3,19.8,4.5,29.9,6.5L1792.8,557.1z M1750.9,547.7
				c-8-2-16-4.1-23.8-6.2l1.1-4.2c7.7,2.1,15.6,4.2,23.6,6.2L1750.9,547.7z M1715.9,538.3c-7.6-2.2-15.1-4.5-22.3-6.8l1.3-4.1
				c7.2,2.3,14.6,4.6,22.2,6.8L1715.9,538.3z M1683.7,528.2c-10.1-3.4-19.8-7-28.8-10.6l1.6-4c8.9,3.6,18.6,7.1,28.6,10.6
				L1683.7,528.2z M1643.5,512.8c-14.9-6.4-22-10.6-22.3-10.7l2.2-3.7c0.1,0,7.3,4.2,21.9,10.5L1643.5,512.8z"/>
		</g>
	</g>
	<g class="st1">
		<rect x="2162.3" y="-262.4" class="st3" width="587.6" height="4.3"/>
	</g>
	<g class="st1">
		<rect x="2164.5" y="-184.6" class="st3" width="587.6" height="4.3"/>
	</g>
	<g class="st1">
		<rect x="2164.5" y="-106.8" class="st3" width="587.6" height="4.3"/>
	</g>
	<g>
		<path d="M2204.4-313.4h17.2v4.1h-12.7v7.4h11.2v4.1h-11.2v7.6h12.9v4.1h-17.3L2204.4-313.4L2204.4-313.4z"/>
		<path d="M2224-306.8h4.6l4.6,15l4.7-15h4.6l-7.2,20.8h-4.1L2224-306.8z"/>
		<path d="M2243.8-296.3v-0.3c0-6.2,3.7-10.6,8.8-10.6c5.6,0,8.6,4.7,8.6,10.9c0,0.3,0,0.9,0,1.5h-12.9c0.4,3.5,2.5,5.3,5.2,5.3
			c1.9,0,3.4-0.9,4.7-2.2l2.3,2.7c-1.9,2-4.2,3.2-7.2,3.2C2247.9-285.8,2243.8-289.8,2243.8-296.3z M2256.9-297.9
			c-0.2-3.3-1.7-5.6-4.3-5.6c-2.4,0-4.1,2.1-4.4,5.6H2256.9z"/>
		<path d="M2265.1-306.8h4.4v3c1.2-1.8,2.8-3.4,5.6-3.4c4,0,6.3,2.8,6.3,7.2v13.8h-4.4v-12.6c0-2.9-1.4-4.5-3.7-4.5
			s-3.9,1.7-3.9,4.6v12.5h-4.4L2265.1-306.8L2265.1-306.8z"/>
		<path d="M2287.1-291.2v-11.9h-2.3v-3.8h2.3v-5.6h4.4v5.6h4.6v3.8h-4.6v11c0,1.6,0.8,2.3,2.2,2.3c0.9,0,1.6-0.2,2.4-0.6v3.6
			c-1,0.5-2.2,0.9-3.7,0.9C2289.4-285.9,2287.1-287.2,2287.1-291.2z"/>
		<path d="M2313.5-308.9l-4.3,1.3l-0.7-3.9l6.3-2.1h3.2v27.4h-4.5V-308.9z"/>
	</g>
	<g>
		<path d="M2204.4-231.3h17.2v4.1h-12.7v7.4h11.2v4.1h-11.2v7.6h12.9v4.1h-17.3L2204.4-231.3L2204.4-231.3z"/>
		<path d="M2224-224.7h4.6l4.6,15l4.7-15h4.6l-7.2,20.8h-4.1L2224-224.7z"/>
		<path d="M2243.8-214.2v-0.3c0-6.2,3.7-10.6,8.8-10.6c5.6,0,8.6,4.7,8.6,10.9c0,0.3,0,0.9,0,1.5h-12.9c0.4,3.5,2.5,5.3,5.2,5.3
			c1.9,0,3.4-0.9,4.7-2.2l2.3,2.7c-1.9,2-4.2,3.2-7.2,3.2C2247.9-203.7,2243.8-207.7,2243.8-214.2z M2256.9-215.8
			c-0.2-3.3-1.7-5.6-4.3-5.6c-2.4,0-4.1,2.1-4.4,5.6H2256.9z"/>
		<path d="M2265.1-224.7h4.4v3c1.2-1.8,2.8-3.4,5.6-3.4c4,0,6.3,2.8,6.3,7.2v13.8h-4.4v-12.6c0-2.9-1.4-4.5-3.7-4.5
			s-3.9,1.7-3.9,4.6v12.5h-4.4L2265.1-224.7L2265.1-224.7z"/>
		<path d="M2287.1-209.1V-221h-2.3v-3.8h2.3v-5.6h4.4v5.6h4.6v3.8h-4.6v11c0,1.6,0.8,2.3,2.2,2.3c0.9,0,1.6-0.2,2.4-0.6v3.6
			c-1,0.5-2.2,0.9-3.7,0.9C2289.4-203.8,2287.1-205.1,2287.1-209.1z"/>
		<path d="M2309.3-207.7l8.3-8.9c3.1-3.2,4.2-4.9,4.2-7.1c0-2.5-1.8-3.9-4-3.9c-2.1,0-3.7,1.2-5.4,3.5l-3-2.8
			c2.3-3.1,4.9-4.9,8.8-4.9c4.7,0,8.2,3,8.2,7.7v0.1c0,3.7-1.7,5.9-5.7,9.9l-5.4,5.9h11.2v4.1h-17.2V-207.7z"/>
	</g>
	<g>
		<path d="M2204.4-157.9h17.2v4.1h-12.7v7.4h11.2v4.1h-11.2v7.6h12.9v4.1h-17.3L2204.4-157.9L2204.4-157.9z"/>
		<path d="M2224-151.3h4.6l4.6,15l4.7-15h4.6l-7.2,20.8h-4.1L2224-151.3z"/>
		<path d="M2243.8-140.7v-0.3c0-6.2,3.7-10.6,8.8-10.6c5.6,0,8.6,4.7,8.6,10.9c0,0.3,0,0.9,0,1.5h-12.9c0.4,3.5,2.5,5.3,5.2,5.3
			c1.9,0,3.4-0.9,4.7-2.2l2.3,2.7c-1.9,2-4.2,3.2-7.2,3.2C2247.9-130.2,2243.8-134.3,2243.8-140.7z M2256.9-142.3
			c-0.2-3.3-1.7-5.6-4.3-5.6c-2.4,0-4.1,2.1-4.4,5.6H2256.9z"/>
		<path d="M2265.1-151.3h4.4v3c1.2-1.8,2.8-3.4,5.6-3.4c4,0,6.3,2.8,6.3,7.2v13.8h-4.4v-12.6c0-2.9-1.4-4.5-3.7-4.5
			s-3.9,1.7-3.9,4.6v12.5h-4.4L2265.1-151.3L2265.1-151.3z"/>
		<path d="M2287.1-135.6v-11.9h-2.3v-3.8h2.3v-5.6h4.4v5.6h4.6v3.8h-4.6v11c0,1.6,0.8,2.3,2.2,2.3c0.9,0,1.6-0.2,2.4-0.6v3.6
			c-1,0.5-2.2,0.9-3.7,0.9C2289.4-130.4,2287.1-131.6,2287.1-135.6z"/>
		<path d="M2308.8-134l2.8-3.2c1.5,1.6,3.3,2.8,5.9,2.8c2.5,0,4.5-1.7,4.5-4.3v-0.1c0-2.8-2.4-4.4-6.2-4.4h-1.4l-0.6-2.8l6.6-7.9
			h-10.3v-4h15.9v3.5l-6.9,7.9c3.8,0.6,7.2,2.8,7.2,7.5v0.1c0,5.1-3.7,8.6-8.9,8.6C2313.7-130.2,2310.8-131.8,2308.8-134z"/>
	</g>
	<g>
		<path d="M2204.4-75.8h17.2v4.1h-12.7v7.4h11.2v4.1h-11.2v7.6h12.9v4.1h-17.3L2204.4-75.8L2204.4-75.8z"/>
		<path d="M2224-69.2h4.6l4.6,15l4.7-15h4.6l-7.2,20.8h-4.1L2224-69.2z"/>
		<path d="M2243.8-58.6V-59c0-6.2,3.7-10.6,8.8-10.6c5.6,0,8.6,4.7,8.6,10.9c0,0.3,0,0.9,0,1.5h-12.9c0.4,3.5,2.5,5.3,5.2,5.3
			c1.9,0,3.4-0.9,4.7-2.2l2.3,2.7c-1.9,2-4.2,3.2-7.2,3.2C2247.9-48.1,2243.8-52.2,2243.8-58.6z M2256.9-60.2
			c-0.2-3.3-1.7-5.6-4.3-5.6c-2.4,0-4.1,2.1-4.4,5.6H2256.9z"/>
		<path d="M2265.1-69.2h4.4v3c1.2-1.8,2.8-3.4,5.6-3.4c4,0,6.3,2.8,6.3,7.2v13.8h-4.4v-12.6c0-2.9-1.4-4.5-3.7-4.5s-3.9,1.7-3.9,4.6
			v12.5h-4.4L2265.1-69.2L2265.1-69.2z"/>
		<path d="M2287.1-53.6v-11.9h-2.3v-3.8h2.3v-5.6h4.4v5.6h4.6v3.8h-4.6v11c0,1.6,0.8,2.3,2.2,2.3c0.9,0,1.6-0.2,2.4-0.6v3.6
			c-1,0.5-2.2,0.9-3.7,0.9C2289.4-48.3,2287.1-49.5,2287.1-53.6z"/>
		<path d="M2321.4-54.5h-12.1l-0.6-3.3l12.9-18.2h4v17.7h3.4v3.8h-3.4v5.9h-4.3L2321.4-54.5L2321.4-54.5z M2321.4-58.3v-10.9
			l-7.7,10.9H2321.4z"/>
	</g>
	<g>
		<path class="st9" d="M2829.9,221.6h-436.4c-4.8,0-8.6-3.9-8.6-8.6c0-4.8,3.9-8.6,8.6-8.6h436.4c4.8,0,8.6,3.9,8.6,8.6
			C2838.5,217.7,2834.7,221.6,2829.9,221.6z"/>
	</g>
	<g>
		<path class="st9" d="M2829.9,424.6h-436.4c-4.8,0-8.6-3.9-8.6-8.6s3.9-8.6,8.6-8.6h436.4c4.8,0,8.6,3.9,8.6,8.6
			S2834.7,424.6,2829.9,424.6z"/>
	</g>
	<g>
		<path class="st9" d="M2765.1,289.3h-371.6c-4.8,0-8.6-3.9-8.6-8.6s3.9-8.6,8.6-8.6h371.6c4.8,0,8.6,3.9,8.6,8.6
			S2769.8,289.3,2765.1,289.3z"/>
	</g>
	<g>
		<path class="st9" d="M2700.3,356.9h-306.8c-4.8,0-8.6-3.9-8.6-8.6s3.9-8.6,8.6-8.6h306.8c4.8,0,8.6,3.9,8.6,8.6
			S2705,356.9,2700.3,356.9z"/>
	</g>
	<g>
		<g class="st1">
			<path class="st2" d="M2084.9,600.1L2125,743c0,0,4.6,15,18.7,15.8c14.3,0.8,444.3,6.7,444.3,6.7s35-0.2,27-12.4
				c-8-12.1-93-170.9-93-170.9s-7.6-13.6-29.9-13.2c-21.3,0.4-374.4,17.3-392,17.8C2087.3,587.2,2084.4,592.9,2084.9,600.1z"/>
		</g>
		<g>
			<g>
				<path class="st0" d="M2620,751.1h-474.7c-2.5,0-4.6-2.1-4.6-4.6V370.7c0-2.5,2.1-4.6,4.6-4.6H2620c2.5,0,4.6,2.1,4.6,4.6v375.8
					C2624.6,749,2622.6,751.1,2620,751.1z"/>
			</g>
			<g>
				<path class="st9" d="M2604.7,753h-444c-12.2,0-22.1-8.8-22.1-19.5V383.7c0-10.8,9.9-19.5,22.1-19.5h444
					c12.2,0,22.1,8.8,22.1,19.5v349.8C2626.8,744.2,2616.9,753,2604.7,753z M2160.7,368c-9.8,0-17.8,7.1-17.8,15.7v349.8
					c0,8.7,8,15.7,17.8,15.7h444c9.8,0,17.8-7.1,17.8-15.7V383.7c0-8.7-8-15.7-17.8-15.7H2160.7z"/>
			</g>
		</g>
		<g class="st4">
			<path class="st9" d="M2596.5,372.8h-432c-9.5,0-17.3,7.4-17.3,16.4v48.4h466.6v-48.4C2613.8,380.2,2606.1,372.8,2596.5,372.8z"/>
		</g>
	</g>
	<g>
		<path class="st9" d="M2354.6,498.1h-181.5c-4.8,0-8.6-3.9-8.6-8.6c0-4.8,3.9-8.6,8.6-8.6h181.5c4.8,0,8.6,3.9,8.6,8.6
			S2359.4,498.1,2354.6,498.1z"/>
	</g>
	<g>
		<path class="st9" d="M2259.6,701.2h-86.4c-4.8,0-8.6-3.9-8.6-8.6s3.9-8.6,8.6-8.6h86.4c4.8,0,8.6,3.9,8.6,8.6
			S2264.3,701.2,2259.6,701.2z"/>
	</g>
	<g>
		<path class="st9" d="M2515.3,565.8h-342.1c-4.8,0-8.6-3.9-8.6-8.6c0-4.8,3.9-8.6,8.6-8.6h342.1c4.8,0,8.6,3.9,8.6,8.6
			S2520.1,565.8,2515.3,565.8z"/>
	</g>
	<g>
		<path class="st9" d="M2570.6,633.5h-397.5c-4.8,0-8.6-3.9-8.6-8.6c0-4.8,3.9-8.6,8.6-8.6h397.5c4.8,0,8.6,3.9,8.6,8.6
			C2579.3,629.6,2575.4,633.5,2570.6,633.5z"/>
	</g>
	<g>
		<path class="st9" d="M2537.1,122.2h4.4l10.1,27.7h-4.8l-2.3-6.5h-10.7l-2.3,6.5h-4.6L2537.1,122.2z M2543.1,139.4l-3.9-11.1
			l-3.9,11.1H2543.1z"/>
		<path class="st9" d="M2553.2,136.3V136c0-8.4,5.2-14.1,12.3-14.1c3.9,0,6.4,1.4,8.7,3.4l-2.8,3.5c-1.6-1.5-3.4-2.7-5.9-2.7
			c-4.3,0-7.6,3.9-7.6,9.8v0.2c0,6,3.3,9.9,7.6,9.9c2.6,0,4.4-1.2,6.1-2.9l2.7,3.2c-2.4,2.5-5.2,3.9-9,3.9
			C2558.2,150.3,2553.2,144.7,2553.2,136.3z"/>
		<path class="st9" d="M2576.6,136.3V136c0-8.4,5.2-14.1,12.3-14.1c3.9,0,6.4,1.4,8.7,3.4l-2.8,3.5c-1.6-1.5-3.4-2.7-5.9-2.7
			c-4.3,0-7.6,3.9-7.6,9.8v0.2c0,6,3.3,9.9,7.6,9.9c2.6,0,4.4-1.2,6.1-2.9l2.7,3.2c-2.4,2.5-5.2,3.9-9,3.9
			C2581.7,150.3,2576.6,144.7,2576.6,136.3z"/>
		<path class="st9" d="M2600.1,136.4V136c0-8.2,5-14.1,12.3-14.1c7.2,0,12.2,5.8,12.2,14v0.4c0,8.2-5,14.1-12.3,14.1
			C2605.1,150.4,2600.1,144.5,2600.1,136.4z M2619.8,136.3V136c0-5.9-3.2-9.9-7.5-9.9s-7.4,3.9-7.4,9.9v0.3c0,5.9,3.2,9.9,7.5,9.9
			C2616.7,146.2,2619.8,142.3,2619.8,136.3z"/>
		<path class="st9" d="M2629.2,139.4v-17.1h4.6v17c0,4.5,2.2,6.8,5.7,6.8s5.7-2.2,5.7-6.6v-17.2h4.5v16.9c0,7.4-4.1,11.1-10.3,11.1
			C2633.2,150.4,2629.2,146.6,2629.2,139.4z"/>
		<path class="st9" d="M2655.4,122.4h4.3l12.1,18.4v-18.4h4.5V150h-3.9l-12.5-19v19h-4.5V122.4z"/>
		<path class="st9" d="M2687.7,126.6h-7.3v-4.3h19.1v4.3h-7.3v23.3h-4.6v-23.3H2687.7z"/>
		<path class="st9" d="M2701.4,146.3l2.8-3.4c2,1.9,4.3,3.3,7.3,3.3c2.6,0,4.3-1.5,4.3-3.5l0,0c0-1.7-0.9-2.9-5.3-4.5
			c-5.2-2-8-3.9-8-8.3v-0.1c0-4.5,3.6-7.7,8.7-7.7c3.2,0,6.1,1,8.7,3.2l-2.6,3.5c-1.9-1.5-4-2.6-6.2-2.6c-2.5,0-4,1.4-4,3.2l0,0
			c0,1.9,1,3,5.7,4.8c5.1,2,7.5,4.1,7.5,8.1v0.1c0,4.8-3.8,8-8.9,8C2707.8,150.3,2704.4,149.1,2701.4,146.3z"/>
	</g>
	<g>
		<path class="st9" d="M2190.3,398.3h-7.1v-4.1h18.6v4.1h-7.1V421h-4.5L2190.3,398.3L2190.3,398.3z"/>
		<path class="st9" d="M2206,394.2h9.7c3.1,0,5.6,0.9,7.2,2.5c1.4,1.4,2.2,3.5,2.2,5.9v0.2c0,4.1-2.3,6.7-5.6,7.9l6.3,10.4h-5.1
			l-5.7-9.5c-0.1,0-0.2,0-0.3,0h-4.3v9.5h-4.5v-26.9H2206z M2215.3,407.6c3.5,0,5.4-1.8,5.4-4.6v-0.1c0-3-2-4.6-5.3-4.6h-4.9v9.3
			L2215.3,407.6L2215.3,407.6z"/>
		<path class="st9" d="M2237.8,394h4.3l9.9,27h-4.6l-2.2-6.3h-10.4l-2.2,6.3h-4.5L2237.8,394z M2243.7,410.7l-3.8-10.8l-3.8,10.8
			H2243.7z"/>
		<path class="st9" d="M2255.8,394.2h4.1l11.8,17.9v-17.9h4.3V421h-3.8l-12.2-18.5V421h-4.4v-26.8H2255.8z"/>
		<path class="st9" d="M2280,417.5l2.7-3.3c2,1.8,4.2,3.2,7.1,3.2c2.6,0,4.2-1.4,4.2-3.4l0,0c0-1.7-0.9-2.8-5.1-4.4
			c-5.1-1.9-7.8-3.8-7.8-8.1v-0.1c0-4.4,3.5-7.5,8.5-7.5c3.1,0,6,1,8.4,3.1l-2.5,3.4c-1.8-1.5-3.9-2.5-6-2.5c-2.4,0-3.9,1.3-3.9,3.1
			l0,0c0,1.9,1,2.9,5.6,4.6c5,1.9,7.3,4,7.3,7.9v0.1c0,4.7-3.7,7.8-8.7,7.8C2286.3,421.4,2283,420.2,2280,417.5z"/>
		<path class="st9" d="M2310.5,394h4.3l9.9,27h-4.6l-2.2-6.3h-10.4l-2.2,6.3h-4.5L2310.5,394z M2316.4,410.7l-3.8-10.8l-3.8,10.8
			H2316.4z"/>
		<path class="st9" d="M2326.2,407.8v-0.3c0-8.1,5.1-13.7,12-13.7c3.8,0,6.3,1.3,8.4,3.3l-2.7,3.4c-1.6-1.5-3.3-2.6-5.8-2.6
			c-4.2,0-7.4,3.8-7.4,9.6v0.2c0,5.8,3.2,9.6,7.4,9.6c2.6,0,4.3-1.2,6-2.8l2.6,3.1c-2.3,2.4-5.1,3.8-8.8,3.8
			C2331.1,421.4,2326.2,416,2326.2,407.8z"/>
		<path class="st9" d="M2356.2,398.3h-7.1v-4.1h18.6v4.1h-7.1V421h-4.5L2356.2,398.3L2356.2,398.3z"/>
		<path class="st9" d="M2372.2,394.2h4.5V421h-4.5V394.2z"/>
		<path class="st9" d="M2381.7,407.8v-0.4c0-8,4.9-13.7,11.9-13.7s11.9,5.7,11.9,13.6v0.4c0,8-4.9,13.7-11.9,13.7
			C2386.5,421.5,2381.7,415.8,2381.7,407.8z M2400.9,407.8v-0.3c0-5.8-3.1-9.6-7.3-9.6c-4.2,0-7.3,3.8-7.3,9.6v0.3
			c0,5.8,3.1,9.6,7.3,9.6C2397.8,417.4,2400.9,413.6,2400.9,407.8z"/>
		<path class="st9" d="M2410.3,394.2h4.1l11.8,17.9v-17.9h4.3V421h-3.8l-12.2-18.5V421h-4.4v-26.8H2410.3z"/>
		<path class="st9" d="M2445.4,407.8v-0.3c0-8.1,5.1-13.7,12-13.7c3.8,0,6.3,1.3,8.4,3.3l-2.7,3.4c-1.6-1.5-3.3-2.6-5.8-2.6
			c-4.2,0-7.4,3.8-7.4,9.6v0.2c0,5.8,3.2,9.6,7.4,9.6c2.6,0,4.3-1.2,6-2.8l2.6,3.1c-2.3,2.4-5.1,3.8-8.8,3.8
			C2450.3,421.4,2445.4,416,2445.4,407.8z"/>
		<path class="st9" d="M2468.3,407.8v-0.4c0-8,4.9-13.7,11.9-13.7s11.9,5.7,11.9,13.6v0.4c0,8-4.9,13.7-11.9,13.7
			C2473.1,421.5,2468.3,415.8,2468.3,407.8z M2487.5,407.8v-0.3c0-5.8-3.1-9.6-7.3-9.6s-7.3,3.8-7.3,9.6v0.3c0,5.8,3.1,9.6,7.3,9.6
			S2487.5,413.6,2487.5,407.8z"/>
		<path class="st9" d="M2496.6,410.8v-16.6h4.5v16.6c0,4.3,2.1,6.6,5.6,6.6c3.4,0,5.5-2.2,5.5-6.5v-16.7h4.4v16.5
			c0,7.2-4,10.8-10,10.8C2500.5,421.5,2496.6,417.8,2496.6,410.8z"/>
		<path class="st9" d="M2522.1,394.2h4.1l11.8,17.9v-17.9h4.3V421h-3.8l-12.2-18.5V421h-4.4v-26.8H2522.1z"/>
		<path class="st9" d="M2553.6,398.3h-7.1v-4.1h18.6v4.1h-7.1V421h-4.5v-22.7H2553.6z"/>
		<path class="st9" d="M2566.9,417.5l2.7-3.3c2,1.8,4.2,3.2,7.1,3.2c2.6,0,4.2-1.4,4.2-3.4l0,0c0-1.7-0.9-2.8-5.1-4.4
			c-5.1-1.9-7.8-3.8-7.8-8.1v-0.1c0-4.4,3.5-7.5,8.5-7.5c3.1,0,6,1,8.4,3.1l-2.5,3.4c-1.8-1.5-3.9-2.5-6-2.5c-2.4,0-3.9,1.3-3.9,3.1
			l0,0c0,1.9,1,2.9,5.6,4.6c5,1.9,7.3,4,7.3,7.9v0.1c0,4.7-3.7,7.8-8.7,7.8C2573.2,421.4,2569.8,420.2,2566.9,417.5z"/>
	</g>
</g>
</svg>
