<?xml version="1.0" encoding="utf-8"?>
<!-- Generator: Adobe Illustrator 19.1.0, SVG Export Plug-In . SVG Version: 6.00 Build 0)  -->
<svg version="1.1" id="Layer_1" xmlns="http://www.w3.org/2000/svg" xmlns:xlink="http://www.w3.org/1999/xlink" x="0px" y="0px"
	 viewBox="904 -217 2048 674" style="enable-background:new 904 -217 2048 674;" xml:space="preserve">
<style type="text/css">
	.st0{fill:#FFFFFF;}
	.st1{opacity:0.5;}
	.st2{fill:#DEE1E0;}
	.st3{fill:#197593;}
	.st4{opacity:0.25;}
	.st5{fill:#CAE1E8;}
	.st6{opacity:0.35;}
	.st7{fill:#004966;}
	.st8{opacity:0.48;}
	.st9{fill:#0A9181;}
	.st10{opacity:0.1;}
</style>
<g>
	<g>
		<path class="st0" d="M2190,185.2c-25.1,0-50.3-5.3-73.1-16.4c-4.3-2-9-4.6-11.8-9c-3.1-4.9-3-10.9-3-15.8l2-249.2
			c-0.9-27.8,197.6-70.1,202.3,4.7c10.2,74.9,4.1,159.7-1.2,234.4l-0.6,8.4l-0.4,0.4C2273.1,170.5,2231.6,185.2,2190,185.2z"/>
	</g>
</g>
<g id="_x30_1">
	<g class="st1">
		<path class="st2" d="M2751.9,365.1c-2.2-6.1-73.3-146.7-73.3-146.7s-259-76-273-76.1c-7.3,0-71.7,45.4-152.4,30.7
			c-39,24.5-81,30.4-126.4,7.9c-4.2-2.1-7.4-5.4-11-8.5c-5-4.3-7.9-10.6-7.8-15.7c0.2-26.3,1.9-83.3,0-85.8V48
			c0,0-51.8,2.2-53.3,2.2c-11.2,0.1-14.3,4-14.9,9.1L2140,359c0,0,1.9,9.1,13,9.2c11.1,0,581.5,4,581.5,4S2754.1,371.2,2751.9,365.1
			z"/>
	</g>
	<g>
		<g>
			<g>
				<path class="st3" d="M2193.6-64.8c-21.5,0-46.3-3.4-65.3-18c-8.8-6.7-17.6-18.7-13.5-30.5c4.3-12.5,44.7-20.4,53.1-21.1l0,0
					c72.2-6.4,117.7-0.3,131.6,17.8c5.2,6.8,6.1,15.2,2.6,25c-4.3,12-20.1,15.4-28.6,17.2c-19.7,4.3-40,7.2-60.1,8.8
					C2207.3-65.2,2200.6-64.8,2193.6-64.8z M2168-131.5c-13.5,1.2-47.4,9.9-50.6,19.2c-3.5,10.3,4.6,21.2,12.6,27.3
					c24.5,18.7,59.1,18.4,83.1,16.6c20-1.5,40.1-4.5,59.7-8.7c11-2.4,23.1-5.7,26.5-15.4c3.2-9,2.5-16.2-2.2-22.3
					C2287.9-126.9,2257.9-139.5,2168-131.5L2168-131.5z"/>
			</g>
		</g>
		<g class="st4">
			<g>
				<path class="st5" d="M2163.4-140c-12.1,1.1-51.2,10.5-55,23.1c-3.8,12.5,4.6,25.9,14.2,34c24.9,21.1,58.7,23,89.7,20.6
					c21.4-1.6,42.8-4.9,63.8-9.7c11.5-2.6,25.3-6.6,29.2-18.9C2325.1-153.3,2195.9-142.9,2163.4-140z"/>
			</g>
		</g>
		<g>
			<g>
				<path class="st3" d="M2192.2,188.8c-24.6,0-49.1-5.4-71.4-16.4c-4.2-2.1-8.8-4.6-11.6-9c-3-4.9-3-10.9-2.9-15.8l1.9-249.9
					c0-0.8,0.6-1.4,1.4-1.4l0,0c0.8,0,1.4,0.6,1.4,1.4l-1.9,249.9c0,4.5-0.1,10.1,2.5,14.3c2.3,3.8,6.6,6.1,10.4,8
					c57,28.3,132.3,17.6,179.3-25.3l0.5-7.3c5.2-74.8,11.2-159.6,1.2-234.5c-0.1-0.8,0.4-1.5,1.2-1.6s1.5,0.4,1.6,1.2
					c10,75.2,4.1,160.2-1.2,235.1l-0.6,8.4l-0.4,0.4C2273.4,174.1,2232.8,188.8,2192.2,188.8z"/>
			</g>
		</g>
		<g class="st4">
			<g>
				<path class="st5" d="M2281.5-62.2c-21,4.8-42.3,8-63.8,9.7c-31.1,2.4-64.8,0.5-89.7-20.6c-5.3-4.5-10.2-10.6-12.9-17.2
					c-0.6,82.5-1.3,165.1-1.9,247.6c0,5.2,0,10.7,2.7,15c2.5,4,6.8,6.4,11,8.5c58.1,28.8,110.9,11.1,158.6-32.8
					C2290.8,72.1,2293.1-64.8,2281.5-62.2z"/>
			</g>
		</g>
		<g class="st6">
			<g>
				<path class="st5" d="M2281.5,63.7c-21,4.8-42.2,49.9-63.8,49.9c-95.4,0-99.9-71.4-102.7-78.1c-0.6,82.5-1.3,30.6-1.9,113.1
					c0,5.2,0,10.7,2.7,15c2.5,4,6.8,6.4,11,8.5c58.1,28.8,110.9,11.1,158.6-32.8C2290.8,63.5,2293.1,61.1,2281.5,63.7z"/>
			</g>
		</g>
	</g>
	<g>
		<g class="st1">
			<path class="st2" d="M986.1,128.1l37.6,104.3c0,0,4.1,10.2,17.7,9.3c13.6-0.8,359.6-35.1,359.6-35.1s23.7-2.7,19.9-9.4
				c-3.9-6.7-44.4-103.9-44.4-103.9s-4-9-21-7.9c-16.5,1.1-334.8,29.9-353.1,31.3C988.9,117.6,985.7,122.4,986.1,128.1z"/>
		</g>
		<g>
			<path class="st0" d="M1029.7-91.6l27.6,282c0,0,3.1,27.6,15.3,27.6c12.2,0,324.9-30.7,324.9-30.7s21.5-3.1,18.4-21.5
				s-33.7-282-33.7-282s-3.1-24.5-18.4-24.5c-14.9,0-302.3,21-318.8,21.5C1032.8-118.9,1029.7-106.9,1029.7-91.6z"/>
			<path class="st3" d="M1072.6,220.2c-13.8,0-17.1-26.5-17.5-29.5l-27.5-282.3c0-12.6,1.8-29.4,17.4-29.7
				c7.4-0.2,71.2-4.7,138.6-9.4c84.4-5.9,171.6-12.1,180.2-12.1c0,0,0,0,0.1,0c17,0.1,20.4,25.3,20.5,26.4
				c0.3,2.7,30.7,263.8,33.7,281.9c0.9,5.5-0.1,10.4-3,14.4c-5.7,7.8-16.7,9.5-17.2,9.6C1385,190.8,1084.9,220.2,1072.6,220.2z
				 M1031.9-91.7l27.6,281.9c0.8,7.1,4.7,25.6,13.2,25.6c12,0,321.6-30.3,324.7-30.6c0,0,9.6-1.5,14.2-7.8c2.2-3,3-6.8,2.2-11.1
				c-3-18.2-32.5-271.3-33.7-282.1c0-0.2-3-22.6-16.3-22.6l0,0c-8.3,0-99.4,6.4-179.8,12c-67.5,4.7-131.3,9.2-138.8,9.4
				C1036-116.8,1031.9-109,1031.9-91.7z"/>
		</g>
		<g class="st1">
			<path class="st5" d="M1391.4-104c-1.2-11.6-1.9-14.6-1.9-14.6s-3.1-28.2-18.5-28.2s-307.5,24.7-319.8,24.7
				c-12.3,0-15.3,14.1-15.3,31.8l1.5,14.1C1118.9-83.4,1289.2-96.3,1391.4-104z"/>
		</g>
		<g>
			<g>
				<path class="st5" d="M1060.9-92.6l-8.1,0.6c-0.7,0-1.3-0.5-1.3-1.1l-0.6-8.1c0-0.7,0.5-1.3,1.1-1.3l8.1-0.6
					c0.7,0,1.3,0.5,1.3,1.1l0.6,8.1C1062.1-93.2,1061.6-92.6,1060.9-92.6z"/>
			</g>
			<g>
				<path class="st5" d="M1078.4-93.8l-8.1,0.6c-0.7,0-1.3-0.5-1.3-1.1l-0.6-8.1c0-0.7,0.5-1.3,1.1-1.3l8.1-0.6
					c0.7,0,1.3,0.5,1.3,1.1l0.6,8.1C1079.6-94.4,1079.1-93.9,1078.4-93.8z"/>
			</g>
			<g>
				<path class="st5" d="M1095.9-95l-8.1,0.6c-0.7,0-1.3-0.5-1.3-1.1l-0.6-8.1c0-0.7,0.5-1.3,1.1-1.3l8.1-0.6c0.7,0,1.3,0.5,1.3,1.1
					l0.6,8.1C1097.1-95.7,1096.6-95.1,1095.9-95z"/>
			</g>
		</g>
	</g>
	<g>
		<g>
			<path class="st0" d="M2762.6,354.7h-604.3c-2.5,0-4.6-2.1-4.6-4.6V-25.7c0-2.5,2.1-4.6,4.6-4.6h604.3c2.5,0,4.6,2.1,4.6,4.6
				v375.8C2767.2,352.6,2765.2,354.7,2762.6,354.7z"/>
		</g>
		<g>
			<path class="st3" d="M2747.3,356.6h-573.6c-12.2,0-22.1-8.8-22.1-19.5V-12.7c0-10.8,9.9-19.5,22.1-19.5h573.6
				c12.2,0,22.1,8.8,22.1,19.5v349.8C2769.4,347.8,2759.5,356.6,2747.3,356.6z M2173.7-28.4c-9.8,0-17.8,7.1-17.8,15.7v349.8
				c0,8.7,8,15.7,17.8,15.7h573.6c9.8,0,17.8-7.1,17.8-15.7V-12.7c0-8.7-8-15.7-17.8-15.7H2173.7z"/>
		</g>
	</g>
	<g>
		<path class="st7" d="M1190.9,13.7h9.5l17.4,48.7h-10.4l-3.6-10.5h-16.7l-3.5,10.5h-10.1L1190.9,13.7z M1200.8,43l-5.3-15.8
			l-5.3,15.8H1200.8z"/>
		<path class="st7" d="M1223.8,13.9h16.1c10.9,0,17.7,6.3,17.7,16.6v0.1c0,11.1-8,16.7-18.1,16.9h-5.7v14.7h-10V13.9z M1239.4,38.6
			c5.2,0,8.1-3.2,8.1-7.7v-0.1c0-5.1-2.9-7.8-8.2-7.8h-5.5v15.6H1239.4z"/>
		<path class="st7" d="M1264.2,13.9h16.1c10.9,0,17.7,6.3,17.7,16.6v0.1c0,11.1-8,16.7-18.1,16.9h-5.7v14.7h-10V13.9z M1279.8,38.6
			c5.2,0,8.1-3.2,8.1-7.7v-0.1c0-5.1-2.9-7.8-8.2-7.8h-5.5v15.6H1279.8z"/>
	</g>
	<g class="st1">
		<path class="st5" d="M2739.1-23.6h-561.6c-9.5,0-17.3,7.4-17.3,16.4v48.4h596.3V-7.2C2756.4-16.2,2748.7-23.6,2739.1-23.6z"/>
	</g>
	<g class="st8">
		<g>
			<path class="st7" d="M2308.9,21.1l3-3.8c2.3,2,4.8,3.6,8,3.6c2.9,0,4.8-1.6,4.8-3.9l0,0c0-1.9-1-3.2-5.8-5
				c-5.8-2.2-8.8-4.3-8.8-9.2V2.7c0-5,4-8.5,9.7-8.5c3.5,0,6.8,1.1,9.6,3.6l-2.9,3.9c-2.1-1.7-4.4-2.9-6.8-2.9
				c-2.7,0-4.4,1.5-4.4,3.5l0,0c0,2.1,1.1,3.3,6.3,5.3c5.7,2.2,8.3,4.5,8.3,9v0.1c0,5.4-4.2,8.8-9.9,8.8
				C2316,25.5,2312.2,24.2,2308.9,21.1z"/>
			<path class="st7" d="M2340.4-0.6h-8v-4.7h21.1v4.7h-8v25.8h-5L2340.4-0.6L2340.4-0.6z"/>
			<path class="st7" d="M2355.7,10.1V9.7c0-9.1,5.6-15.5,13.5-15.5s13.4,6.4,13.4,15.4V10c0,9.1-5.6,15.5-13.5,15.5
				C2361.2,25.6,2355.7,19.2,2355.7,10.1z M2377.4,10.1V9.8c0-6.5-3.5-10.9-8.3-10.9c-4.8,0-8.2,4.3-8.2,10.9v0.3
				c0,6.5,3.5,10.9,8.3,10.9C2374,20.9,2377.4,16.6,2377.4,10.1z"/>
			<path class="st7" d="M2388.1-5.3h11c3.5,0,6.3,1,8.1,2.9c1.6,1.6,2.5,3.9,2.5,6.7v0.2c0,4.7-2.6,7.6-6.3,8.9l7.2,11.8h-5.8
				l-6.5-10.8c-0.1,0-0.2,0-0.3,0h-4.9v10.7h-5L2388.1-5.3L2388.1-5.3z M2398.6,9.8c3.9,0,6.1-2.1,6.1-5.3V4.4c0-3.4-2.2-5.2-6-5.2
				h-5.5V9.8H2398.6z"/>
			<path class="st7" d="M2415.3-5.3h19.2v4.6h-14.2v8.3h12.6v4.6h-12.6v8.5h14.4v4.6h-19.4V-5.3z"/>
			<path class="st7" d="M2440-5.3h9.3c8.7,0,14.4,6.1,14.4,15V10c0,8.9-5.7,15.1-14.4,15.1h-9.3V-5.3z M2445-0.8v21.3h4.2
				c5.6,0,9.3-4,9.3-10.5V9.7c0-6.6-3.7-10.6-9.3-10.6h-4.2V-0.8z"/>
			<path class="st7" d="M2480.4-5.3h19.2v4.6h-14.2v8.3h12.6v4.6h-12.6v8.5h14.4v4.6h-19.4V-5.3z"/>
			<path class="st7" d="M2502.9-5.3h5.5l7.5,23l7.5-23h5.3l-10.5,30.6h-4.7L2502.9-5.3z"/>
			<path class="st7" d="M2533-5.3h19.2v4.6H2538v8.3h12.6v4.6H2538v8.5h14.4v4.6H2533V-5.3z"/>
			<path class="st7" d="M2557.7-5.3h4.7l13.4,20.3V-5.3h4.9v30.5h-4.3l-13.8-20.9v20.9h-5V-5.3H2557.7z"/>
			<path class="st7" d="M2593.4-0.6h-8v-4.7h21.1v4.7h-8v25.8h-5L2593.4-0.6L2593.4-0.6z"/>
			<path class="st7" d="M2608.5,21.1l3-3.8c2.3,2,4.8,3.6,8,3.6c2.9,0,4.8-1.6,4.8-3.9l0,0c0-1.9-1-3.2-5.8-5
				c-5.8-2.2-8.8-4.3-8.8-9.2V2.7c0-5,4-8.5,9.7-8.5c3.5,0,6.8,1.1,9.6,3.6l-2.9,3.9c-2.1-1.7-4.4-2.9-6.8-2.9
				c-2.7,0-4.4,1.5-4.4,3.5l0,0c0,2.1,1.1,3.3,6.3,5.3c5.7,2.2,8.3,4.5,8.3,9v0.1c0,5.4-4.2,8.8-9.9,8.8
				C2615.6,25.5,2611.8,24.2,2608.5,21.1z"/>
		</g>
	</g>
	<g>
		<g>
			<path class="st9" d="M1577.5,64.3c-5.6,0-11.2,0-16.8-0.1l0.1-4.3c8.1,0.1,16.2,0.1,24.5,0.1v4.3
				C1582.7,64.3,1580.1,64.3,1577.5,64.3z M1597.6,64.2l-0.1-4.3c10-0.1,20.3-0.4,30.6-0.8l0.2,4.3
				C1617.9,63.8,1607.6,64,1597.6,64.2z M1549.1,64c-7.8-0.2-15.6-0.4-23.3-0.8l0.2-4.3c7.7,0.3,15.4,0.6,23.2,0.8L1549.1,64z
				 M1638.6,63l-0.2-4.3c7.7-0.3,15.5-0.7,23.2-1.1l0.2,4.3C1654.1,62.3,1646.4,62.7,1638.6,63z M1515.4,62.7
				c-10.5-0.6-20.8-1.3-30.6-2.2l0.4-4.3c9.8,0.9,20,1.6,30.5,2.2L1515.4,62.7z M1673.5,61.2l-0.3-4.3c8.1-0.5,16.3-1.1,24.4-1.7
				l0.3,4.3C1689.9,60.1,1681.7,60.7,1673.5,61.2z M1472.5,59.2c-8.4-0.9-16.6-1.9-24.4-3.1l0.6-4.3c7.8,1.1,15.9,2.1,24.2,3
				L1472.5,59.2z M1710.3,58.5l-0.4-4.3c10.2-0.8,20.4-1.7,30.5-2.7l0.4,4.3C1730.7,56.8,1720.5,57.7,1710.3,58.5z M1751.3,54.8
				l-0.4-4.3c7.8-0.8,15.5-1.6,23.1-2.4l0.5,4.3C1766.8,53.2,1759,54.1,1751.3,54.8z M1436.6,54.4c-7.9-1.3-15.6-2.7-23-4.3l0.9-4.2
				c7.3,1.5,15,3,22.8,4.2L1436.6,54.4z M1786,51.1l-0.5-4.3c8.2-0.9,16.3-1.9,24.3-2.9l0.5,4.3C1802.3,49.2,1794.2,50.2,1786,51.1z
				 M1403.4,47.9c-10.4-2.4-20.4-5.1-29.7-8.1l1.3-4.1c9.2,2.9,19.1,5.6,29.4,8L1403.4,47.9z M1822.5,46.6l-0.6-4.3
				c10.3-1.3,20.4-2.7,30.3-4.1l0.6,4.3C1843,43.9,1832.8,45.3,1822.5,46.6z M1863.3,41l-0.6-4.3c7.8-1.1,15.5-2.3,23-3.4l0.7,4.3
				C1878.7,38.8,1871.1,39.9,1863.3,41z M1897.8,35.8l-0.7-4.3c8.2-1.3,16.3-2.6,24.2-3.9l0.7,4.3
				C1914.2,33.2,1906.1,34.5,1897.8,35.8z M1362.1,35.8c-8-2.9-15.7-6.1-22.8-9.4l1.8-3.9c7,3.3,14.5,6.4,22.4,9.3L1362.1,35.8z
				 M1934.1,29.9l-0.7-4.3c10.4-1.8,20.5-3.6,30.2-5.3l0.8,4.3C1954.7,26.3,1944.6,28.1,1934.1,29.9z M1974.6,22.7l-0.8-4.2
				c8-1.5,15.6-2.9,22.9-4.3l0.8,4.2C1990.2,19.8,1982.6,21.2,1974.6,22.7z M2008.9,16.1l-0.8-4.2c8.6-1.7,16.6-3.4,24-4.9l0.9,4.2
				C2025.6,12.7,2017.6,14.4,2008.9,16.1z M2045,8.5l-0.9-4.2c10.5-2.3,19.8-4.5,27-6.3l1.1,4.2C2064.9,4.1,2055.5,6.2,2045,8.5z"/>
		</g>
		<g>
			<path class="st9" d="M2052.7,39.2c-0.4,0-0.7-0.1-1.1-0.3c-1-0.6-1.4-1.9-0.8-2.9l20.8-37l-34.3-25.1c-1-0.7-1.2-2.1-0.5-3
				c0.7-1,2.1-1.2,3-0.5l35.8,26.3c0.9,0.6,1.1,1.8,0.6,2.8l-21.7,38.7C2054.2,38.8,2053.4,39.2,2052.7,39.2z"/>
		</g>
	</g>
	<g class="st10">
		<circle class="st9" cx="1713" cy="47.7" r="123.1"/>
	</g>
	<g class="st10">
		<circle class="st9" cx="1713" cy="47.7" r="97.2"/>
	</g>
	<g>
		<circle class="st0" cx="1713" cy="47.7" r="79.9"/>
	</g>
	<g>
		<path class="st9" d="M1670.2,39h17.7l-1.4,5.4h-11.7l-1.3,5.8h10.3l-1.4,5.3h-10.3l-1.4,6h11.9l-1.4,5.4h-17.9L1670.2,39z"/>
		<path class="st9" d="M1688.4,45.3h6.1l0.2,14.2l6.9-14.2h6.3L1695.6,67h-5.4L1688.4,45.3z"/>
		<path class="st9" d="M1712.1,58.2c0.1,2.7,1.3,4.3,3.5,4.3c1.6,0,2.6-0.5,4.1-1.6l2.5,4c-1.8,1.4-4.1,2.3-6.8,2.3
			c-5.6,0-8.8-3.6-8.8-9.4c0-3.7,1.5-7.4,4-9.9c1.9-1.9,4.2-3.1,7.2-3.1c4.6,0,7.6,3.3,7.6,8c0,1.4-0.3,3.2-1,5.3h-12.3V58.2z
			 M1712.6,54.5h7.2c0.2-0.8,0.2-1.2,0.2-1.9c0-1.7-0.9-2.9-2.6-2.9c-1.1,0-2.1,0.5-2.9,1.3C1713.6,51.8,1713,53.1,1712.6,54.5z"/>
		<path class="st9" d="M1731.2,45.3h5.9l-0.5,2c1.2-1.2,2.9-2.3,5-2.3c3.1,0,5.2,2,5.2,5.5c0,1.1-0.3,2.7-0.7,4.3l-2.9,12.1h-6
			l2.9-12.1c0.2-1,0.4-1.9,0.4-2.3c0-1.4-0.7-2.1-2.1-2.1c-1.8,0-3,1.6-3.5,3.6l-3.1,12.9h-5.9L1731.2,45.3z"/>
		<path class="st9" d="M1749.3,63c0-0.9,0.2-1.8,0.4-2.8l2.4-9.8h-2.3l1.3-5.1h2.2l1.3-5.3h6l-1.3,5.3h3.8l-1.3,5.1h-3.7l-2.4,9.7
			c-0.1,0.4-0.1,0.7-0.1,0.9c0,0.5,0.4,0.9,1.2,0.9s1.8-0.2,2.5-0.6l-1.3,5c-1,0.5-2.5,0.8-4,0.8C1750.9,67.1,1749.3,65.4,1749.3,63
			z"/>
	</g>
	<g class="st1">
		<rect x="2162.3" y="114.6" class="st3" width="587.6" height="4.3"/>
	</g>
	<g>
		<path d="M2204.4,63.6h17.2v4.1h-12.7v7.4h11.2v4.1h-11.2v7.6h12.9v4.1h-17.3L2204.4,63.6L2204.4,63.6z"/>
		<path d="M2224,70.2h4.6l4.6,15l4.7-15h4.6l-7.2,20.8h-4.1L2224,70.2z"/>
		<path d="M2243.8,80.7v-0.3c0-6.2,3.7-10.6,8.8-10.6c5.6,0,8.6,4.7,8.6,10.9c0,0.3,0,0.9,0,1.5h-12.9c0.4,3.5,2.5,5.3,5.2,5.3
			c1.9,0,3.4-0.9,4.7-2.2l2.3,2.7c-1.9,2-4.2,3.2-7.2,3.2C2247.9,91.2,2243.8,87.2,2243.8,80.7z M2256.9,79.1
			c-0.2-3.3-1.7-5.6-4.3-5.6c-2.4,0-4.1,2.1-4.4,5.6H2256.9z"/>
		<path d="M2265.1,70.2h4.4v3c1.2-1.8,2.8-3.4,5.6-3.4c4,0,6.3,2.8,6.3,7.2v13.8h-4.4V78.2c0-2.9-1.4-4.5-3.7-4.5s-3.9,1.7-3.9,4.6
			v12.5h-4.4L2265.1,70.2L2265.1,70.2z"/>
		<path d="M2287.1,85.8V73.9h-2.3v-3.8h2.3v-5.6h4.4v5.6h4.6v3.8h-4.6v11c0,1.6,0.8,2.3,2.2,2.3c0.9,0,1.6-0.2,2.4-0.6v3.6
			c-1,0.5-2.2,0.9-3.7,0.9C2289.4,91.1,2287.1,89.8,2287.1,85.8z"/>
		<path d="M2313.5,68.1l-4.3,1.3l-0.7-3.9l6.3-2.1h3.2v27.4h-4.5V68.1z"/>
	</g>
</g>
</svg>
